%TF.GenerationSoftware,KiCad,Pcbnew,(6.0.1)*%
%TF.CreationDate,2023-03-26T21:52:57+08:00*%
%TF.ProjectId,Solenoid valve,536f6c65-6e6f-4696-9420-76616c76652e,rev?*%
%TF.SameCoordinates,Original*%
%TF.FileFunction,Copper,L2,Bot*%
%TF.FilePolarity,Positive*%
%FSLAX46Y46*%
G04 Gerber Fmt 4.6, Leading zero omitted, Abs format (unit mm)*
G04 Created by KiCad (PCBNEW (6.0.1)) date 2023-03-26 21:52:57*
%MOMM*%
%LPD*%
G01*
G04 APERTURE LIST*
G04 Aperture macros list*
%AMRoundRect*
0 Rectangle with rounded corners*
0 $1 Rounding radius*
0 $2 $3 $4 $5 $6 $7 $8 $9 X,Y pos of 4 corners*
0 Add a 4 corners polygon primitive as box body*
4,1,4,$2,$3,$4,$5,$6,$7,$8,$9,$2,$3,0*
0 Add four circle primitives for the rounded corners*
1,1,$1+$1,$2,$3*
1,1,$1+$1,$4,$5*
1,1,$1+$1,$6,$7*
1,1,$1+$1,$8,$9*
0 Add four rect primitives between the rounded corners*
20,1,$1+$1,$2,$3,$4,$5,0*
20,1,$1+$1,$4,$5,$6,$7,0*
20,1,$1+$1,$6,$7,$8,$9,0*
20,1,$1+$1,$8,$9,$2,$3,0*%
G04 Aperture macros list end*
%TA.AperFunction,ComponentPad*%
%ADD10R,3.000000X3.000000*%
%TD*%
%TA.AperFunction,ComponentPad*%
%ADD11C,3.000000*%
%TD*%
%TA.AperFunction,ComponentPad*%
%ADD12RoundRect,0.750000X0.750000X-0.750000X0.750000X0.750000X-0.750000X0.750000X-0.750000X-0.750000X0*%
%TD*%
%TA.AperFunction,SMDPad,CuDef*%
%ADD13RoundRect,0.200000X-0.275000X0.200000X-0.275000X-0.200000X0.275000X-0.200000X0.275000X0.200000X0*%
%TD*%
%TA.AperFunction,SMDPad,CuDef*%
%ADD14R,1.800000X2.500000*%
%TD*%
%TA.AperFunction,SMDPad,CuDef*%
%ADD15RoundRect,0.225000X0.250000X-0.225000X0.250000X0.225000X-0.250000X0.225000X-0.250000X-0.225000X0*%
%TD*%
%TA.AperFunction,SMDPad,CuDef*%
%ADD16RoundRect,0.200000X0.275000X-0.200000X0.275000X0.200000X-0.275000X0.200000X-0.275000X-0.200000X0*%
%TD*%
%TA.AperFunction,SMDPad,CuDef*%
%ADD17RoundRect,0.200000X-0.200000X-0.275000X0.200000X-0.275000X0.200000X0.275000X-0.200000X0.275000X0*%
%TD*%
%TA.AperFunction,SMDPad,CuDef*%
%ADD18RoundRect,0.200000X0.200000X0.275000X-0.200000X0.275000X-0.200000X-0.275000X0.200000X-0.275000X0*%
%TD*%
%TA.AperFunction,SMDPad,CuDef*%
%ADD19RoundRect,0.075000X0.075000X-0.650000X0.075000X0.650000X-0.075000X0.650000X-0.075000X-0.650000X0*%
%TD*%
%TA.AperFunction,ViaPad*%
%ADD20C,0.800000*%
%TD*%
%TA.AperFunction,Conductor*%
%ADD21C,0.800000*%
%TD*%
%TA.AperFunction,Conductor*%
%ADD22C,0.320000*%
%TD*%
%TA.AperFunction,Conductor*%
%ADD23C,0.250000*%
%TD*%
%TA.AperFunction,Conductor*%
%ADD24C,0.500000*%
%TD*%
G04 APERTURE END LIST*
D10*
%TO.P,J2,1,Pin_2*%
%TO.N,GND*%
X23111000Y15927000D03*
D11*
%TO.P,J2,2,Pin_1*%
%TO.N,Net-(D2-Pad1)*%
X23111000Y20927000D03*
%TD*%
D12*
%TO.P,J3,1,Pin_1*%
%TO.N,+24V*%
X4211000Y21077000D03*
D11*
%TO.P,J3,2,Pin_2*%
%TO.N,GND*%
X4211000Y16077000D03*
%TD*%
D13*
%TO.P,R8,1*%
%TO.N,Net-(R7-Pad1)*%
X12551000Y3382000D03*
%TO.P,R8,2*%
%TO.N,+24V*%
X12551000Y1732000D03*
%TD*%
D14*
%TO.P,D2,1,K*%
%TO.N,Net-(D2-Pad1)*%
X18201000Y20677000D03*
%TO.P,D2,2,A*%
%TO.N,Net-(D2-Pad2)*%
X18201000Y16677000D03*
%TD*%
D15*
%TO.P,C2,1*%
%TO.N,Net-(C2-Pad1)*%
X13071000Y12952000D03*
%TO.P,C2,2*%
%TO.N,GND*%
X13071000Y14502000D03*
%TD*%
D16*
%TO.P,R2,1*%
%TO.N,Net-(C1-Pad1)*%
X11311000Y10657000D03*
%TO.P,R2,2*%
%TO.N,Net-(R1-Pad1)*%
X11311000Y12307000D03*
%TD*%
%TO.P,R1,1*%
%TO.N,Net-(R1-Pad1)*%
X11311000Y13687000D03*
%TO.P,R1,2*%
%TO.N,+24V*%
X11311000Y15337000D03*
%TD*%
%TO.P,R6,1*%
%TO.N,GND*%
X14071000Y1742000D03*
%TO.P,R6,2*%
%TO.N,Net-(R6-Pad2)*%
X14071000Y3392000D03*
%TD*%
D17*
%TO.P,R10,1*%
%TO.N,+24V*%
X15516000Y3317000D03*
%TO.P,R10,2*%
%TO.N,Net-(R10-Pad2)*%
X17166000Y3317000D03*
%TD*%
D18*
%TO.P,R4,1*%
%TO.N,Net-(Q1-Pad3)*%
X9586000Y3377000D03*
%TO.P,R4,2*%
%TO.N,+24V*%
X7936000Y3377000D03*
%TD*%
D17*
%TO.P,R12,1*%
%TO.N,Net-(R12-Pad1)*%
X7126000Y8077000D03*
%TO.P,R12,2*%
%TO.N,Net-(J1-Pad2)*%
X8776000Y8077000D03*
%TD*%
D13*
%TO.P,R7,1*%
%TO.N,Net-(R7-Pad1)*%
X16891000Y8712000D03*
%TO.P,R7,2*%
%TO.N,Net-(R6-Pad2)*%
X16891000Y7062000D03*
%TD*%
D16*
%TO.P,R9,1*%
%TO.N,Net-(R9-Pad1)*%
X14591000Y12902000D03*
%TO.P,R9,2*%
%TO.N,+24V*%
X14591000Y14552000D03*
%TD*%
%TO.P,R5,1*%
%TO.N,GND*%
X11031000Y1732000D03*
%TO.P,R5,2*%
%TO.N,Net-(Q1-Pad3)*%
X11031000Y3382000D03*
%TD*%
D15*
%TO.P,C1,1*%
%TO.N,Net-(C1-Pad1)*%
X9791000Y10707000D03*
%TO.P,C1,2*%
%TO.N,GND*%
X9791000Y12257000D03*
%TD*%
D19*
%TO.P,U2,1,SENSE*%
%TO.N,Net-(R10-Pad2)*%
X15081000Y6197000D03*
%TO.P,U2,2,Vin*%
%TO.N,+24V*%
X14581000Y6197000D03*
%TO.P,U2,3,OVP*%
%TO.N,Net-(R6-Pad2)*%
X14081000Y6197000D03*
%TO.P,U2,4,UVLO*%
%TO.N,Net-(R7-Pad1)*%
X13581000Y6197000D03*
%TO.P,U2,5,EN*%
%TO.N,Net-(Q1-Pad3)*%
X13081000Y6197000D03*
%TO.P,U2,6,GND*%
%TO.N,GND*%
X13081000Y10597000D03*
%TO.P,U2,7,TIMER*%
%TO.N,Net-(C2-Pad1)*%
X13581000Y10597000D03*
%TO.P,U2,8,nPGD*%
%TO.N,Net-(R9-Pad1)*%
X14081000Y10597000D03*
%TO.P,U2,9,OUT*%
%TO.N,Net-(D2-Pad2)*%
X14581000Y10597000D03*
%TO.P,U2,10,GATE*%
%TO.N,Net-(Q2-Pad4)*%
X15081000Y10597000D03*
%TD*%
D20*
%TO.N,+24V*%
X9611000Y20457000D03*
X12111000Y20957000D03*
X8111000Y20457000D03*
X14111000Y21957000D03*
X11111000Y20957000D03*
X11111000Y19957000D03*
X13111000Y21957000D03*
X14111000Y19957000D03*
X14111000Y22957000D03*
X13111000Y22957000D03*
X12111000Y22957000D03*
X13111000Y20957000D03*
X12111000Y19957000D03*
X8111000Y21457000D03*
X11111000Y21957000D03*
X6611000Y20457000D03*
X9611000Y21457000D03*
X13111000Y19957000D03*
X6611000Y21457000D03*
X11111000Y22957000D03*
X14111000Y20957000D03*
X12111000Y21957000D03*
%TO.N,Net-(R1-Pad1)*%
X12475930Y11664105D03*
%TO.N,Net-(J1-Pad2)*%
X8771000Y6967000D03*
%TO.N,GND*%
X19381000Y6967000D03*
X10511000Y7427000D03*
X21881000Y5467000D03*
X20881000Y6967000D03*
X20381000Y5467000D03*
%TO.N,Net-(C1-Pad1)*%
X13481000Y9187000D03*
%TO.N,Net-(Q1-Pad3)*%
X15711021Y8822980D03*
%TO.N,Net-(Q2-Pad4)*%
X15471000Y17127000D03*
%TO.N,Net-(R12-Pad1)*%
X6051000Y10537000D03*
%TO.N,Net-(D2-Pad2)*%
X16451000Y19537000D03*
X18201000Y16677000D03*
X16461000Y21877000D03*
X16451000Y20827000D03*
X17111000Y17517000D03*
X18200520Y9547480D03*
%TD*%
D21*
%TO.N,+24V*%
X11311000Y15337000D02*
X11311000Y18657000D01*
D22*
X7936000Y3377000D02*
X7936000Y11962000D01*
X7936000Y11962000D02*
X11311000Y15337000D01*
D23*
X15516000Y3317000D02*
X14866480Y2667480D01*
X14581000Y6197000D02*
X14581000Y4252000D01*
X14866480Y2667480D02*
X13486480Y2667480D01*
D21*
X11311000Y18657000D02*
X11311000Y19757000D01*
D23*
X14581000Y4252000D02*
X15516000Y3317000D01*
D22*
X8770520Y2542480D02*
X11740520Y2542480D01*
X11740520Y2542480D02*
X12551000Y1732000D01*
X7936000Y3377000D02*
X8770520Y2542480D01*
D21*
X11311000Y19757000D02*
X11111000Y19957000D01*
D22*
X13806000Y15337000D02*
X14591000Y14552000D01*
D23*
X13486480Y2667480D02*
X12551000Y1732000D01*
D22*
X11311000Y15337000D02*
X13806000Y15337000D01*
D23*
%TO.N,Net-(R6-Pad2)*%
X14071000Y6187000D02*
X14081000Y6197000D01*
X16696000Y7257000D02*
X16891000Y7062000D01*
X14071000Y3392000D02*
X14071000Y6187000D01*
X14261000Y7257000D02*
X16696000Y7257000D01*
X14081000Y7077000D02*
X14261000Y7257000D01*
X14081000Y6197000D02*
X14081000Y7077000D01*
%TO.N,Net-(R1-Pad1)*%
X11953895Y11664105D02*
X11311000Y12307000D01*
X11311000Y12307000D02*
X11311000Y13687000D01*
X12475930Y11664105D02*
X11953895Y11664105D01*
%TO.N,Net-(J1-Pad2)*%
X8771000Y6967000D02*
X8771000Y8072000D01*
X8771000Y8072000D02*
X8776000Y8077000D01*
%TO.N,Net-(C1-Pad1)*%
X11261000Y10707000D02*
X11311000Y10657000D01*
X9791000Y10707000D02*
X11261000Y10707000D01*
X12832783Y9187000D02*
X13481000Y9187000D01*
X11362783Y10657000D02*
X12832783Y9187000D01*
X11311000Y10657000D02*
X11362783Y10657000D01*
%TO.N,Net-(C2-Pad1)*%
X13581000Y10597000D02*
X13581000Y12442000D01*
X13581000Y12442000D02*
X13071000Y12952000D01*
%TO.N,Net-(Q1-Pad3)*%
X11026000Y3377000D02*
X11031000Y3382000D01*
X13781103Y8462489D02*
X14141594Y8822980D01*
X9586000Y3377000D02*
X11026000Y3377000D01*
X14141594Y8822980D02*
X15711021Y8822980D01*
X13081000Y5432000D02*
X13081000Y6197000D01*
X13081000Y7767000D02*
X13776489Y8462489D01*
X11031000Y3382000D02*
X13081000Y5432000D01*
X13081000Y6197000D02*
X13081000Y7767000D01*
X13776489Y8462489D02*
X13781103Y8462489D01*
%TO.N,Net-(R9-Pad1)*%
X14081000Y10597000D02*
X14081000Y12392000D01*
X14081000Y12392000D02*
X14591000Y12902000D01*
%TO.N,Net-(R10-Pad2)*%
X17166000Y3317000D02*
X17120034Y3317000D01*
X15081000Y5356034D02*
X15081000Y6197000D01*
X17120034Y3317000D02*
X15081000Y5356034D01*
%TO.N,Net-(Q2-Pad4)*%
X16091000Y16507000D02*
X15471000Y17127000D01*
X15081000Y12175217D02*
X16091000Y13185217D01*
X16091000Y13185217D02*
X16091000Y16507000D01*
X15081000Y10597000D02*
X15081000Y12175217D01*
%TO.N,Net-(R7-Pad1)*%
X12551000Y3382000D02*
X13581000Y4412000D01*
X13581000Y4412000D02*
X13581000Y6197000D01*
X16277469Y8098469D02*
X16891000Y8712000D01*
X14292469Y8098469D02*
X16277469Y8098469D01*
X13581000Y6197000D02*
X13581000Y7387000D01*
X13581000Y7387000D02*
X14292469Y8098469D01*
%TO.N,Net-(R12-Pad1)*%
X7126000Y9462000D02*
X6051000Y10537000D01*
X7126000Y8077000D02*
X7126000Y9462000D01*
%TO.N,Net-(D2-Pad2)*%
X18201000Y9547960D02*
X18200520Y9547480D01*
X14840514Y9547480D02*
X18200520Y9547480D01*
X14581000Y10597000D02*
X14581000Y9806994D01*
D24*
X18201000Y16677000D02*
X18201000Y9547960D01*
D23*
X14581000Y9806994D02*
X14840514Y9547480D01*
%TD*%
%TA.AperFunction,Conductor*%
%TO.N,+24V*%
G36*
X15653750Y3456292D02*
G01*
X15656259Y3453879D01*
X15657236Y3448964D01*
X15654685Y3318444D01*
X15651894Y3175687D01*
X15650079Y3082845D01*
X15647434Y2947557D01*
X15643846Y2939353D01*
X15639253Y2936627D01*
X15572367Y2915543D01*
X15571811Y2915383D01*
X15505130Y2898094D01*
X15504797Y2898013D01*
X15444089Y2884301D01*
X15444089Y2884302D01*
X15444085Y2884300D01*
X15387745Y2871593D01*
X15334153Y2857294D01*
X15333934Y2857217D01*
X15333931Y2857216D01*
X15281844Y2838882D01*
X15281836Y2838879D01*
X15281550Y2838778D01*
X15228175Y2813417D01*
X15227897Y2813244D01*
X15227890Y2813240D01*
X15172525Y2778749D01*
X15172262Y2778585D01*
X15172024Y2778399D01*
X15172019Y2778396D01*
X15112243Y2731805D01*
X15112236Y2731799D01*
X15112050Y2731654D01*
X15082807Y2704449D01*
X15054037Y2677685D01*
X15045646Y2674559D01*
X15037795Y2677978D01*
X14876977Y2838796D01*
X14873550Y2847069D01*
X14876683Y2855036D01*
X14930653Y2913051D01*
X14930798Y2913237D01*
X14930804Y2913244D01*
X14977395Y2973020D01*
X14977398Y2973025D01*
X14977584Y2973263D01*
X14977748Y2973526D01*
X15012239Y3028891D01*
X15012243Y3028898D01*
X15012416Y3029176D01*
X15037777Y3082551D01*
X15037878Y3082837D01*
X15037881Y3082845D01*
X15056215Y3134932D01*
X15056216Y3134935D01*
X15056293Y3135154D01*
X15070592Y3188746D01*
X15083299Y3245086D01*
X15083302Y3245090D01*
X15083300Y3245090D01*
X15097007Y3305776D01*
X15097094Y3306134D01*
X15099537Y3315558D01*
X15114454Y3373089D01*
X15138154Y3448270D01*
X15652858Y3458332D01*
X15653750Y3456292D01*
G37*
%TD.AperFunction*%
%TD*%
%TA.AperFunction,Conductor*%
%TO.N,Net-(R12-Pad1)*%
G36*
X6420443Y10668434D02*
G01*
X6428647Y10664846D01*
X6431373Y10660253D01*
X6452458Y10593363D01*
X6452624Y10592783D01*
X6469899Y10526157D01*
X6469987Y10525798D01*
X6483699Y10465090D01*
X6483698Y10465090D01*
X6483700Y10465086D01*
X6496407Y10408746D01*
X6510706Y10355154D01*
X6510783Y10354935D01*
X6510784Y10354932D01*
X6529118Y10302845D01*
X6529121Y10302837D01*
X6529222Y10302551D01*
X6554583Y10249176D01*
X6554756Y10248898D01*
X6554760Y10248891D01*
X6589251Y10193526D01*
X6589415Y10193263D01*
X6589601Y10193025D01*
X6589604Y10193020D01*
X6636195Y10133244D01*
X6636201Y10133237D01*
X6636346Y10133051D01*
X6650254Y10118101D01*
X6690315Y10075037D01*
X6693441Y10066646D01*
X6690022Y10058795D01*
X6529205Y9897978D01*
X6520932Y9894551D01*
X6512963Y9897685D01*
X6482318Y9926193D01*
X6454949Y9951654D01*
X6454763Y9951799D01*
X6454756Y9951805D01*
X6394980Y9998396D01*
X6394975Y9998399D01*
X6394737Y9998585D01*
X6394474Y9998749D01*
X6339109Y10033240D01*
X6339102Y10033244D01*
X6338824Y10033417D01*
X6285449Y10058778D01*
X6285163Y10058879D01*
X6285155Y10058882D01*
X6233068Y10077216D01*
X6233065Y10077217D01*
X6232846Y10077294D01*
X6179254Y10091593D01*
X6122914Y10104300D01*
X6122910Y10104303D01*
X6122910Y10104301D01*
X6062202Y10118013D01*
X6061843Y10118101D01*
X5995217Y10135376D01*
X5994637Y10135542D01*
X5927747Y10156627D01*
X5920886Y10162383D01*
X5919566Y10167557D01*
X5909817Y10666256D01*
X5913082Y10674595D01*
X5921744Y10678183D01*
X6420443Y10668434D01*
G37*
%TD.AperFunction*%
%TD*%
%TA.AperFunction,Conductor*%
%TO.N,Net-(R12-Pad1)*%
G36*
X7247988Y8863573D02*
G01*
X7251407Y8855722D01*
X7254266Y8776539D01*
X7263658Y8700778D01*
X7278564Y8636611D01*
X7298374Y8580936D01*
X7322476Y8530648D01*
X7350261Y8482641D01*
X7350304Y8482573D01*
X7350310Y8482563D01*
X7381116Y8433813D01*
X7381118Y8433810D01*
X7414320Y8381237D01*
X7414513Y8380922D01*
X7449443Y8321535D01*
X7449736Y8321006D01*
X7482119Y8258809D01*
X7482900Y8249888D01*
X7480175Y8245298D01*
X7134433Y7885769D01*
X7126229Y7882181D01*
X7117567Y7885769D01*
X6771826Y8245297D01*
X6768561Y8253636D01*
X6769881Y8258810D01*
X6802263Y8321006D01*
X6802556Y8321535D01*
X6837486Y8380922D01*
X6837679Y8381237D01*
X6870881Y8433810D01*
X6870884Y8433812D01*
X6870883Y8433813D01*
X6901689Y8482563D01*
X6901695Y8482573D01*
X6901738Y8482641D01*
X6929523Y8530648D01*
X6953625Y8580936D01*
X6973435Y8636611D01*
X6988341Y8700778D01*
X6997733Y8776539D01*
X7000593Y8855722D01*
X7004316Y8863866D01*
X7012285Y8867000D01*
X7239715Y8867000D01*
X7247988Y8863573D01*
G37*
%TD.AperFunction*%
%TD*%
%TA.AperFunction,Conductor*%
%TO.N,Net-(D2-Pad2)*%
G36*
X18397352Y9550526D02*
G01*
X18396478Y9548302D01*
X18396538Y9545134D01*
X18393757Y9540976D01*
X18196566Y9351347D01*
X18032223Y9193306D01*
X18023885Y9190041D01*
X18018711Y9191361D01*
X17956514Y9223744D01*
X17955985Y9224037D01*
X17947259Y9229169D01*
X17896581Y9258977D01*
X17896305Y9259147D01*
X17843710Y9292362D01*
X17843708Y9292365D01*
X17843707Y9292364D01*
X17794957Y9323170D01*
X17794947Y9323176D01*
X17794879Y9323219D01*
X17749072Y9349731D01*
X17747076Y9350886D01*
X17747075Y9350887D01*
X17746872Y9351004D01*
X17746670Y9351101D01*
X17746664Y9351104D01*
X17696859Y9374974D01*
X17696584Y9375106D01*
X17640909Y9394916D01*
X17615077Y9400917D01*
X17577044Y9409752D01*
X17577041Y9409752D01*
X17576742Y9409822D01*
X17576433Y9409860D01*
X17576429Y9409861D01*
X17532406Y9415318D01*
X17500981Y9419214D01*
X17445390Y9421221D01*
X17421798Y9422073D01*
X17413654Y9425796D01*
X17410520Y9433765D01*
X17410520Y9661195D01*
X17413947Y9669468D01*
X17421798Y9672887D01*
X17454732Y9674077D01*
X17500981Y9675747D01*
X17532406Y9679643D01*
X17576429Y9685100D01*
X17576433Y9685101D01*
X17576742Y9685139D01*
X17577041Y9685209D01*
X17577044Y9685209D01*
X17640590Y9699971D01*
X17640588Y9699971D01*
X17640909Y9700045D01*
X17696584Y9719855D01*
X17716286Y9729298D01*
X17746664Y9743857D01*
X17746670Y9743860D01*
X17746872Y9743957D01*
X17794879Y9771742D01*
X17843707Y9802597D01*
X17896461Y9835913D01*
X17956245Y9871077D01*
X18026165Y9907480D01*
X18397352Y9550526D01*
G37*
%TD.AperFunction*%
%TD*%
%TA.AperFunction,Conductor*%
%TO.N,Net-(D2-Pad2)*%
G36*
X14589433Y10663231D02*
G01*
X14710838Y10536985D01*
X14714103Y10528646D01*
X14713322Y10524669D01*
X14710956Y10518529D01*
X14707433Y10503509D01*
X14707397Y10503234D01*
X14707395Y10503224D01*
X14705221Y10486700D01*
X14705195Y10486500D01*
X14704012Y10467446D01*
X14703649Y10446290D01*
X14703650Y10446173D01*
X14703650Y10446140D01*
X14703874Y10423015D01*
X14703875Y10422921D01*
X14704452Y10397570D01*
X14704453Y10397540D01*
X14704455Y10397446D01*
X14705156Y10369711D01*
X14705158Y10369645D01*
X14705748Y10339592D01*
X14705750Y10339452D01*
X14705909Y10318790D01*
X14702546Y10310491D01*
X14694209Y10307000D01*
X14467790Y10307000D01*
X14459517Y10310427D01*
X14456090Y10318790D01*
X14456249Y10339452D01*
X14456251Y10339592D01*
X14456841Y10369645D01*
X14456843Y10369711D01*
X14457544Y10397446D01*
X14457546Y10397540D01*
X14457547Y10397570D01*
X14458124Y10422921D01*
X14458125Y10423015D01*
X14458349Y10446140D01*
X14458349Y10446173D01*
X14458350Y10446290D01*
X14457987Y10467446D01*
X14456804Y10486500D01*
X14456778Y10486700D01*
X14454604Y10503224D01*
X14454602Y10503234D01*
X14454566Y10503509D01*
X14451043Y10518529D01*
X14450900Y10518901D01*
X14450900Y10518902D01*
X14448678Y10524667D01*
X14448900Y10533619D01*
X14451162Y10536985D01*
X14572567Y10663231D01*
X14580771Y10666819D01*
X14589433Y10663231D01*
G37*
%TD.AperFunction*%
%TD*%
%TA.AperFunction,Conductor*%
%TO.N,+24V*%
G36*
X8092886Y4163573D02*
G01*
X8096309Y4155618D01*
X8098425Y4077668D01*
X8105513Y4001992D01*
X8116980Y3937166D01*
X8132541Y3880383D01*
X8151912Y3828835D01*
X8174811Y3779714D01*
X8174877Y3779588D01*
X8174880Y3779583D01*
X8200936Y3730245D01*
X8200953Y3730213D01*
X8230054Y3677525D01*
X8230100Y3677439D01*
X8261751Y3618990D01*
X8261901Y3618704D01*
X8292249Y3558764D01*
X8292929Y3549835D01*
X8290245Y3545370D01*
X7936000Y3177000D01*
X7581756Y3545370D01*
X7578491Y3553708D01*
X7579751Y3558764D01*
X7610098Y3618704D01*
X7610248Y3618990D01*
X7641899Y3677439D01*
X7641945Y3677525D01*
X7671046Y3730213D01*
X7671063Y3730245D01*
X7697119Y3779583D01*
X7697122Y3779588D01*
X7697188Y3779714D01*
X7720087Y3828835D01*
X7739458Y3880383D01*
X7755019Y3937166D01*
X7766486Y4001992D01*
X7773574Y4077668D01*
X7775691Y4155618D01*
X7779342Y4163795D01*
X7787387Y4167000D01*
X8084613Y4167000D01*
X8092886Y4163573D01*
G37*
%TD.AperFunction*%
%TD*%
%TA.AperFunction,Conductor*%
%TO.N,+24V*%
G36*
X11443407Y15017339D02*
G01*
X11443360Y15014930D01*
X11442432Y14967457D01*
X11438844Y14959253D01*
X11434378Y14956568D01*
X11403345Y14946397D01*
X11370501Y14935633D01*
X11370262Y14935558D01*
X11311125Y14917968D01*
X11306518Y14916598D01*
X11306424Y14916570D01*
X11248677Y14899916D01*
X11248661Y14899911D01*
X11248591Y14899891D01*
X11234656Y14895588D01*
X11195263Y14883424D01*
X11195243Y14883417D01*
X11195103Y14883374D01*
X11144178Y14864832D01*
X11094030Y14842080D01*
X11042875Y14812932D01*
X11042658Y14812780D01*
X10989110Y14775328D01*
X10989104Y14775323D01*
X10988929Y14775201D01*
X10930406Y14726703D01*
X10930284Y14726587D01*
X10930279Y14726583D01*
X10873791Y14673080D01*
X10865428Y14669879D01*
X10857472Y14673302D01*
X10647302Y14883472D01*
X10643875Y14891745D01*
X10647080Y14899790D01*
X10700569Y14956265D01*
X10700590Y14956288D01*
X10700702Y14956407D01*
X10700836Y14956568D01*
X10749055Y15014755D01*
X10749200Y15014930D01*
X10749342Y15015132D01*
X10786779Y15068659D01*
X10786931Y15068876D01*
X10816079Y15120031D01*
X10838831Y15170179D01*
X10857373Y15221104D01*
X10857416Y15221244D01*
X10857423Y15221264D01*
X10873862Y15274502D01*
X10873890Y15274592D01*
X10890569Y15332425D01*
X10909557Y15396263D01*
X10909632Y15396502D01*
X10930568Y15460379D01*
X10936400Y15467172D01*
X10941456Y15468432D01*
X11057576Y15470702D01*
X11452421Y15478421D01*
X11443407Y15017339D01*
G37*
%TD.AperFunction*%
%TD*%
%TA.AperFunction,Conductor*%
%TO.N,Net-(R6-Pad2)*%
G36*
X14202241Y6133614D02*
G01*
X14206584Y6128450D01*
X14209287Y6119913D01*
X14208269Y6116052D01*
X14205479Y6109958D01*
X14201155Y6095060D01*
X14198159Y6078054D01*
X14198139Y6077846D01*
X14198137Y6077835D01*
X14197428Y6070631D01*
X14196273Y6058904D01*
X14195277Y6037574D01*
X14195276Y6037498D01*
X14194954Y6014138D01*
X14194953Y6013977D01*
X14195083Y5988236D01*
X14195446Y5960161D01*
X14195446Y5960156D01*
X14195824Y5929839D01*
X14195825Y5929755D01*
X14195937Y5908762D01*
X14192554Y5900471D01*
X14184237Y5897000D01*
X13957827Y5897000D01*
X13949554Y5900427D01*
X13946128Y5908826D01*
X13946379Y5932098D01*
X13946383Y5932314D01*
X13947332Y5964740D01*
X13947337Y5964883D01*
X13948579Y5994810D01*
X13948581Y5994859D01*
X13949840Y6022437D01*
X13949841Y6022451D01*
X13950829Y6047556D01*
X13950832Y6047631D01*
X13951275Y6070524D01*
X13950888Y6091200D01*
X13950553Y6095361D01*
X13949413Y6109474D01*
X13949392Y6109739D01*
X13946506Y6126226D01*
X13944187Y6133614D01*
X13944979Y6142534D01*
X13947473Y6145769D01*
X14085988Y6271833D01*
X14202241Y6133614D01*
G37*
%TD.AperFunction*%
%TD*%
%TA.AperFunction,Conductor*%
%TO.N,+24V*%
G36*
X14589433Y6263231D02*
G01*
X14710838Y6136985D01*
X14714103Y6128646D01*
X14713322Y6124669D01*
X14710956Y6118529D01*
X14707433Y6103509D01*
X14707397Y6103234D01*
X14707395Y6103224D01*
X14705221Y6086700D01*
X14705195Y6086500D01*
X14704012Y6067446D01*
X14703649Y6046290D01*
X14703650Y6046173D01*
X14703650Y6046140D01*
X14703874Y6023015D01*
X14703875Y6022921D01*
X14704452Y5997570D01*
X14704453Y5997540D01*
X14704455Y5997446D01*
X14705156Y5969711D01*
X14705158Y5969645D01*
X14705748Y5939592D01*
X14705750Y5939452D01*
X14705909Y5918790D01*
X14702546Y5910491D01*
X14694209Y5907000D01*
X14467790Y5907000D01*
X14459517Y5910427D01*
X14456090Y5918790D01*
X14456249Y5939452D01*
X14456251Y5939592D01*
X14456841Y5969645D01*
X14456843Y5969711D01*
X14457544Y5997446D01*
X14457546Y5997540D01*
X14457547Y5997570D01*
X14458124Y6022921D01*
X14458125Y6023015D01*
X14458349Y6046140D01*
X14458349Y6046173D01*
X14458350Y6046290D01*
X14457987Y6067446D01*
X14456804Y6086500D01*
X14456778Y6086700D01*
X14454604Y6103224D01*
X14454602Y6103234D01*
X14454566Y6103509D01*
X14451043Y6118529D01*
X14450900Y6118901D01*
X14450900Y6118902D01*
X14448678Y6124667D01*
X14448900Y6133619D01*
X14451162Y6136985D01*
X14572567Y6263231D01*
X14580771Y6266819D01*
X14589433Y6263231D01*
G37*
%TD.AperFunction*%
%TD*%
%TA.AperFunction,Conductor*%
%TO.N,+24V*%
G36*
X15054037Y3956315D02*
G01*
X15084812Y3927686D01*
X15112050Y3902347D01*
X15112236Y3902202D01*
X15112243Y3902196D01*
X15172019Y3855605D01*
X15172024Y3855602D01*
X15172262Y3855416D01*
X15172523Y3855253D01*
X15172525Y3855252D01*
X15227890Y3820761D01*
X15227897Y3820757D01*
X15228175Y3820584D01*
X15281550Y3795223D01*
X15281836Y3795122D01*
X15281844Y3795119D01*
X15333931Y3776785D01*
X15334153Y3776707D01*
X15387745Y3762408D01*
X15444085Y3749701D01*
X15444089Y3749698D01*
X15444089Y3749700D01*
X15504797Y3735988D01*
X15505156Y3735900D01*
X15571781Y3718625D01*
X15572362Y3718459D01*
X15639254Y3697373D01*
X15646114Y3691617D01*
X15647434Y3686443D01*
X15654656Y3317010D01*
X15654656Y3317000D01*
X15654658Y3316898D01*
X15657236Y3185036D01*
X15653971Y3176697D01*
X15653034Y3176071D01*
X15652858Y3175668D01*
X15138154Y3185730D01*
X15114454Y3260912D01*
X15097094Y3327867D01*
X15097007Y3328225D01*
X15083300Y3388911D01*
X15083301Y3388911D01*
X15083299Y3388915D01*
X15070623Y3445117D01*
X15070592Y3445255D01*
X15056293Y3498847D01*
X15056215Y3499069D01*
X15037881Y3551156D01*
X15037878Y3551164D01*
X15037777Y3551450D01*
X15012416Y3604825D01*
X15012243Y3605103D01*
X15012239Y3605110D01*
X14977748Y3660475D01*
X14977747Y3660477D01*
X14977584Y3660738D01*
X14953516Y3691617D01*
X14930804Y3720757D01*
X14930798Y3720764D01*
X14930653Y3720950D01*
X14892085Y3762408D01*
X14876685Y3778963D01*
X14873559Y3787354D01*
X14876978Y3795205D01*
X15037795Y3956022D01*
X15046068Y3959449D01*
X15054037Y3956315D01*
G37*
%TD.AperFunction*%
%TD*%
%TA.AperFunction,Conductor*%
%TO.N,+24V*%
G36*
X12113791Y2395920D02*
G01*
X12170406Y2342298D01*
X12228929Y2293800D01*
X12229104Y2293678D01*
X12229110Y2293673D01*
X12263497Y2269623D01*
X12282875Y2256069D01*
X12334030Y2226921D01*
X12384178Y2204169D01*
X12435103Y2185627D01*
X12435243Y2185584D01*
X12435263Y2185577D01*
X12474656Y2173413D01*
X12488591Y2169110D01*
X12488661Y2169090D01*
X12488677Y2169085D01*
X12528820Y2157508D01*
X12546424Y2152431D01*
X12556354Y2149477D01*
X12556355Y2149477D01*
X12610389Y2133405D01*
X12682270Y2109846D01*
X12692313Y1596106D01*
X12692332Y1595142D01*
X12690292Y1594250D01*
X12687879Y1591741D01*
X12682964Y1590764D01*
X12551102Y1593342D01*
X12551000Y1593344D01*
X12550990Y1593344D01*
X12247261Y1599281D01*
X12181456Y1600568D01*
X12173252Y1604156D01*
X12170567Y1608622D01*
X12149632Y1672499D01*
X12149557Y1672738D01*
X12130569Y1736576D01*
X12113890Y1794409D01*
X12109587Y1808344D01*
X12097423Y1847737D01*
X12097416Y1847757D01*
X12097373Y1847897D01*
X12078831Y1898822D01*
X12056079Y1948970D01*
X12026931Y2000125D01*
X11989200Y2054071D01*
X11940702Y2112594D01*
X11934102Y2119563D01*
X11887080Y2169209D01*
X11883879Y2177573D01*
X11887302Y2185528D01*
X12097472Y2395698D01*
X12105745Y2399125D01*
X12113791Y2395920D01*
G37*
%TD.AperFunction*%
%TD*%
%TA.AperFunction,Conductor*%
%TO.N,+24V*%
G36*
X8255661Y3509407D02*
G01*
X8273953Y3509050D01*
X8305543Y3508432D01*
X8313747Y3504844D01*
X8316432Y3500378D01*
X8326965Y3468243D01*
X8337367Y3436502D01*
X8337442Y3436263D01*
X8356430Y3372425D01*
X8373109Y3314592D01*
X8373137Y3314502D01*
X8389576Y3261264D01*
X8389583Y3261244D01*
X8389626Y3261104D01*
X8408168Y3210179D01*
X8430920Y3160031D01*
X8460068Y3108876D01*
X8497799Y3054930D01*
X8497944Y3054755D01*
X8546164Y2996568D01*
X8546297Y2996407D01*
X8546413Y2996285D01*
X8546417Y2996280D01*
X8599920Y2939791D01*
X8603121Y2931427D01*
X8599698Y2923472D01*
X8389528Y2713302D01*
X8381255Y2709875D01*
X8373209Y2713080D01*
X8316720Y2766583D01*
X8316715Y2766587D01*
X8316593Y2766703D01*
X8258070Y2815201D01*
X8257895Y2815323D01*
X8257889Y2815328D01*
X8204341Y2852780D01*
X8204124Y2852932D01*
X8152969Y2882080D01*
X8102821Y2904832D01*
X8051896Y2923374D01*
X8051756Y2923417D01*
X8051736Y2923424D01*
X8012343Y2935588D01*
X7998408Y2939891D01*
X7998338Y2939911D01*
X7998322Y2939916D01*
X7940575Y2956570D01*
X7940481Y2956598D01*
X7935874Y2957968D01*
X7876737Y2975558D01*
X7876498Y2975633D01*
X7844757Y2986035D01*
X7812622Y2996568D01*
X7805828Y3002401D01*
X7804568Y3007457D01*
X7802205Y3128302D01*
X7794579Y3518421D01*
X8255661Y3509407D01*
G37*
%TD.AperFunction*%
%TD*%
%TA.AperFunction,Conductor*%
%TO.N,+24V*%
G36*
X14153791Y15215920D02*
G01*
X14210406Y15162298D01*
X14268929Y15113800D01*
X14269104Y15113678D01*
X14269110Y15113673D01*
X14303497Y15089623D01*
X14322875Y15076069D01*
X14374030Y15046921D01*
X14424178Y15024169D01*
X14475103Y15005627D01*
X14475243Y15005584D01*
X14475263Y15005577D01*
X14514656Y14993413D01*
X14528591Y14989110D01*
X14528661Y14989090D01*
X14528677Y14989085D01*
X14586424Y14972431D01*
X14650262Y14953443D01*
X14650501Y14953368D01*
X14714379Y14932432D01*
X14721172Y14926600D01*
X14722432Y14921544D01*
X14732183Y14422744D01*
X14728918Y14414405D01*
X14720256Y14410817D01*
X14221456Y14420568D01*
X14213252Y14424156D01*
X14210567Y14428622D01*
X14189632Y14492499D01*
X14189557Y14492738D01*
X14170569Y14556576D01*
X14153890Y14614409D01*
X14149587Y14628344D01*
X14137423Y14667737D01*
X14137416Y14667757D01*
X14137373Y14667897D01*
X14118831Y14718822D01*
X14096079Y14768970D01*
X14066931Y14820125D01*
X14029200Y14874071D01*
X13982979Y14929846D01*
X13980819Y14932453D01*
X13980817Y14932456D01*
X13980702Y14932594D01*
X13927080Y14989209D01*
X13923879Y14997573D01*
X13927302Y15005528D01*
X14137472Y15215698D01*
X14145745Y15219125D01*
X14153791Y15215920D01*
G37*
%TD.AperFunction*%
%TD*%
%TA.AperFunction,Conductor*%
%TO.N,+24V*%
G36*
X13029204Y2371023D02*
G01*
X13190022Y2210205D01*
X13193449Y2201932D01*
X13190315Y2193963D01*
X13163551Y2165193D01*
X13136346Y2135950D01*
X13136201Y2135764D01*
X13136195Y2135757D01*
X13089604Y2075981D01*
X13089415Y2075738D01*
X13089252Y2075477D01*
X13089251Y2075475D01*
X13054760Y2020110D01*
X13054756Y2020103D01*
X13054583Y2019825D01*
X13029222Y1966450D01*
X13029121Y1966164D01*
X13029118Y1966156D01*
X13010784Y1914069D01*
X13010706Y1913847D01*
X12996407Y1860255D01*
X12996376Y1860117D01*
X12983700Y1803915D01*
X12983697Y1803911D01*
X12983699Y1803911D01*
X12969987Y1743203D01*
X12969906Y1742870D01*
X12952617Y1676189D01*
X12952457Y1675633D01*
X12931373Y1608747D01*
X12925617Y1601886D01*
X12920443Y1600566D01*
X12858914Y1599363D01*
X12551010Y1593344D01*
X12551000Y1593344D01*
X12550898Y1593342D01*
X12419036Y1590764D01*
X12410697Y1594029D01*
X12410071Y1594966D01*
X12409668Y1595142D01*
X12419730Y2109846D01*
X12494911Y2133546D01*
X12556354Y2149477D01*
X12561870Y2150907D01*
X12562202Y2150988D01*
X12622910Y2164700D01*
X12622910Y2164699D01*
X12622914Y2164701D01*
X12679254Y2177408D01*
X12732846Y2191707D01*
X12733068Y2191785D01*
X12785155Y2210119D01*
X12785163Y2210122D01*
X12785449Y2210223D01*
X12838824Y2235584D01*
X12839102Y2235757D01*
X12839109Y2235761D01*
X12894474Y2270252D01*
X12894476Y2270253D01*
X12894737Y2270416D01*
X12894975Y2270602D01*
X12894980Y2270605D01*
X12954756Y2317196D01*
X12954763Y2317202D01*
X12954949Y2317347D01*
X13012964Y2371317D01*
X13021353Y2374442D01*
X13029204Y2371023D01*
G37*
%TD.AperFunction*%
%TD*%
%TA.AperFunction,Conductor*%
%TO.N,+24V*%
G36*
X11492764Y15693249D02*
G01*
X11552703Y15662902D01*
X11552989Y15662752D01*
X11611438Y15631101D01*
X11611524Y15631055D01*
X11664212Y15601954D01*
X11713713Y15575812D01*
X11713861Y15575743D01*
X11762623Y15553011D01*
X11762631Y15553008D01*
X11762834Y15552913D01*
X11814382Y15533542D01*
X11814640Y15533471D01*
X11814647Y15533469D01*
X11870902Y15518053D01*
X11871165Y15517981D01*
X11871430Y15517934D01*
X11871435Y15517933D01*
X11912974Y15510585D01*
X11935991Y15506514D01*
X12011667Y15499426D01*
X12011832Y15499422D01*
X12011840Y15499421D01*
X12089618Y15497309D01*
X12097795Y15493658D01*
X12101000Y15485613D01*
X12101000Y15188387D01*
X12097573Y15180114D01*
X12089617Y15176691D01*
X12011840Y15174580D01*
X12011832Y15174579D01*
X12011667Y15174575D01*
X11935991Y15167487D01*
X11912974Y15163416D01*
X11871435Y15156068D01*
X11871430Y15156067D01*
X11871165Y15156020D01*
X11870904Y15155948D01*
X11870902Y15155948D01*
X11814647Y15140532D01*
X11814640Y15140530D01*
X11814382Y15140459D01*
X11762834Y15121088D01*
X11762631Y15120993D01*
X11762623Y15120990D01*
X11713861Y15098258D01*
X11713713Y15098189D01*
X11664212Y15072047D01*
X11664187Y15072033D01*
X11611524Y15042946D01*
X11611438Y15042900D01*
X11552989Y15011249D01*
X11552710Y15011103D01*
X11492763Y14980751D01*
X11483835Y14980071D01*
X11479369Y14982756D01*
X11463484Y14998032D01*
X11111000Y15337000D01*
X11479370Y15691244D01*
X11487708Y15694509D01*
X11492764Y15693249D01*
G37*
%TD.AperFunction*%
%TD*%
%TA.AperFunction,Conductor*%
%TO.N,Net-(R6-Pad2)*%
G36*
X14192988Y4178573D02*
G01*
X14196407Y4170722D01*
X14199266Y4091539D01*
X14208658Y4015778D01*
X14223564Y3951611D01*
X14243374Y3895936D01*
X14267476Y3845648D01*
X14295261Y3797641D01*
X14295304Y3797573D01*
X14295310Y3797563D01*
X14326116Y3748813D01*
X14326118Y3748810D01*
X14359320Y3696237D01*
X14359513Y3695922D01*
X14394443Y3636535D01*
X14394736Y3636006D01*
X14427119Y3573809D01*
X14427900Y3564888D01*
X14425175Y3560298D01*
X14079433Y3200769D01*
X14071229Y3197181D01*
X14062567Y3200769D01*
X13716826Y3560297D01*
X13713561Y3568636D01*
X13714881Y3573810D01*
X13747263Y3636006D01*
X13747556Y3636535D01*
X13782486Y3695922D01*
X13782679Y3696237D01*
X13815881Y3748810D01*
X13815884Y3748812D01*
X13815883Y3748813D01*
X13846689Y3797563D01*
X13846695Y3797573D01*
X13846738Y3797641D01*
X13874523Y3845648D01*
X13898625Y3895936D01*
X13918435Y3951611D01*
X13933341Y4015778D01*
X13942733Y4091539D01*
X13945593Y4170722D01*
X13949316Y4178866D01*
X13957285Y4182000D01*
X14184715Y4182000D01*
X14192988Y4178573D01*
G37*
%TD.AperFunction*%
%TD*%
%TA.AperFunction,Conductor*%
%TO.N,Net-(D2-Pad2)*%
G36*
X18447623Y10334533D02*
G01*
X18451050Y10326311D01*
X18451376Y10250190D01*
X18452827Y10173448D01*
X18455833Y10105775D01*
X18455844Y10105643D01*
X18460859Y10045384D01*
X18460873Y10045212D01*
X18460892Y10045075D01*
X18460892Y10045072D01*
X18468399Y9990007D01*
X18468427Y9989799D01*
X18478977Y9937576D01*
X18479029Y9937387D01*
X18492904Y9886942D01*
X18493002Y9886584D01*
X18510983Y9834863D01*
X18511043Y9834718D01*
X18528932Y9791298D01*
X18533400Y9780452D01*
X18551068Y9742278D01*
X18557370Y9728661D01*
X18557735Y9719714D01*
X18555175Y9715627D01*
X18544857Y9704924D01*
X18396658Y9551194D01*
X18298502Y9449374D01*
X18298422Y9449291D01*
X18206791Y9354240D01*
X18198582Y9350662D01*
X18197712Y9350836D01*
X18197235Y9350650D01*
X17840735Y9722278D01*
X17868176Y9781201D01*
X17890487Y9835017D01*
X17890627Y9835354D01*
X17890633Y9835369D01*
X17890687Y9835500D01*
X17908749Y9887130D01*
X17922843Y9938045D01*
X17922882Y9938236D01*
X17922885Y9938249D01*
X17933411Y9990007D01*
X17933411Y9990008D01*
X17933450Y9990199D01*
X17941004Y10045212D01*
X17941028Y10045384D01*
X17941030Y10045399D01*
X17941050Y10045547D01*
X17946091Y10105643D01*
X17946115Y10105934D01*
X17946115Y10105941D01*
X17946124Y10106043D01*
X17949153Y10173641D01*
X17950618Y10250296D01*
X17950949Y10326312D01*
X17954412Y10334569D01*
X17962649Y10337960D01*
X18439350Y10337960D01*
X18447623Y10334533D01*
G37*
%TD.AperFunction*%
%TD*%
%TA.AperFunction,Conductor*%
%TO.N,Net-(R6-Pad2)*%
G36*
X16890862Y7458569D02*
G01*
X16893829Y7453990D01*
X16919257Y7382000D01*
X17062090Y6977616D01*
X17061614Y6968673D01*
X17054106Y6962423D01*
X16572844Y6832566D01*
X16563964Y6833719D01*
X16560166Y6837218D01*
X16528453Y6883185D01*
X16528380Y6883292D01*
X16495684Y6931821D01*
X16495621Y6931915D01*
X16464575Y6976104D01*
X16464457Y6976253D01*
X16464448Y6976265D01*
X16433556Y7015241D01*
X16433370Y7015476D01*
X16400097Y7049700D01*
X16399764Y7049957D01*
X16363249Y7078138D01*
X16363246Y7078140D01*
X16362852Y7078444D01*
X16319726Y7101378D01*
X16268813Y7118170D01*
X16268387Y7118243D01*
X16268381Y7118244D01*
X16208549Y7128430D01*
X16208545Y7128430D01*
X16208207Y7128488D01*
X16207858Y7128505D01*
X16147132Y7131459D01*
X16139035Y7135284D01*
X16136000Y7143145D01*
X16136000Y7370548D01*
X16139427Y7378821D01*
X16147450Y7382245D01*
X16196036Y7383285D01*
X16240627Y7384240D01*
X16289376Y7387588D01*
X16329035Y7390312D01*
X16329041Y7390313D01*
X16329149Y7390320D01*
X16405178Y7399280D01*
X16472326Y7410160D01*
X16472371Y7410169D01*
X16472379Y7410170D01*
X16534206Y7422000D01*
X16594326Y7433820D01*
X16594504Y7433853D01*
X16656392Y7444683D01*
X16656831Y7444751D01*
X16724056Y7453641D01*
X16724639Y7453703D01*
X16773246Y7457544D01*
X16800980Y7459736D01*
X16801610Y7459768D01*
X16862930Y7461299D01*
X16882506Y7461788D01*
X16890862Y7458569D01*
G37*
%TD.AperFunction*%
%TD*%
%TA.AperFunction,Conductor*%
%TO.N,Net-(R6-Pad2)*%
G36*
X14202482Y6483573D02*
G01*
X14205909Y6475210D01*
X14205750Y6454549D01*
X14205748Y6454409D01*
X14205158Y6424356D01*
X14204455Y6396555D01*
X14203874Y6371026D01*
X14203649Y6347711D01*
X14204012Y6326555D01*
X14205195Y6307501D01*
X14205220Y6307310D01*
X14205221Y6307301D01*
X14207395Y6290777D01*
X14207397Y6290767D01*
X14207433Y6290492D01*
X14210956Y6275472D01*
X14211100Y6275099D01*
X14211101Y6275095D01*
X14213322Y6269332D01*
X14213100Y6260380D01*
X14210838Y6257016D01*
X14081000Y6122000D01*
X13951162Y6257015D01*
X13947897Y6265354D01*
X13948677Y6269331D01*
X13950898Y6275095D01*
X13950899Y6275098D01*
X13951043Y6275472D01*
X13954566Y6290492D01*
X13954602Y6290767D01*
X13954604Y6290777D01*
X13956778Y6307301D01*
X13956779Y6307310D01*
X13956804Y6307501D01*
X13957987Y6326555D01*
X13958350Y6347711D01*
X13958125Y6371026D01*
X13957544Y6396555D01*
X13956841Y6424356D01*
X13956251Y6454409D01*
X13956249Y6454549D01*
X13956090Y6475210D01*
X13959453Y6483509D01*
X13967790Y6487000D01*
X14194209Y6487000D01*
X14202482Y6483573D01*
G37*
%TD.AperFunction*%
%TD*%
%TA.AperFunction,Conductor*%
%TO.N,Net-(R1-Pad1)*%
G36*
X11630661Y12439407D02*
G01*
X11651143Y12439007D01*
X11680443Y12438434D01*
X11688647Y12434846D01*
X11691373Y12430253D01*
X11712458Y12363363D01*
X11712624Y12362783D01*
X11729899Y12296157D01*
X11729987Y12295798D01*
X11743699Y12235090D01*
X11743698Y12235090D01*
X11743700Y12235086D01*
X11756407Y12178746D01*
X11770706Y12125154D01*
X11770783Y12124935D01*
X11770784Y12124932D01*
X11789118Y12072845D01*
X11789121Y12072837D01*
X11789222Y12072551D01*
X11814583Y12019176D01*
X11814756Y12018898D01*
X11814760Y12018891D01*
X11849251Y11963526D01*
X11849415Y11963263D01*
X11896346Y11903051D01*
X11958002Y11836775D01*
X11786342Y11665115D01*
X11777550Y11664701D01*
X11773545Y11667143D01*
X11755778Y11683671D01*
X11714949Y11721654D01*
X11714763Y11721799D01*
X11714756Y11721805D01*
X11654980Y11768396D01*
X11654975Y11768399D01*
X11654737Y11768585D01*
X11654474Y11768749D01*
X11599109Y11803240D01*
X11599102Y11803244D01*
X11598824Y11803417D01*
X11545449Y11828778D01*
X11545163Y11828879D01*
X11545155Y11828882D01*
X11493068Y11847216D01*
X11493065Y11847217D01*
X11492846Y11847294D01*
X11439254Y11861593D01*
X11382914Y11874300D01*
X11382910Y11874303D01*
X11382910Y11874301D01*
X11322202Y11888013D01*
X11321843Y11888101D01*
X11255217Y11905376D01*
X11254637Y11905542D01*
X11187747Y11926627D01*
X11180886Y11932383D01*
X11179566Y11937557D01*
X11174853Y12178630D01*
X11169579Y12448421D01*
X11630661Y12439407D01*
G37*
%TD.AperFunction*%
%TD*%
%TA.AperFunction,Conductor*%
%TO.N,Net-(R1-Pad1)*%
G36*
X11439266Y13006539D02*
G01*
X11448658Y12930778D01*
X11463564Y12866611D01*
X11483374Y12810936D01*
X11507476Y12760648D01*
X11535261Y12712641D01*
X11535304Y12712573D01*
X11535310Y12712563D01*
X11566116Y12663813D01*
X11566118Y12663810D01*
X11599320Y12611237D01*
X11599513Y12610922D01*
X11634443Y12551535D01*
X11634736Y12551006D01*
X11667119Y12488809D01*
X11667900Y12479888D01*
X11665175Y12475298D01*
X11311000Y12107000D01*
X10956826Y12475297D01*
X10953561Y12483636D01*
X10954881Y12488810D01*
X10987263Y12551006D01*
X10987556Y12551535D01*
X11022486Y12610922D01*
X11022679Y12611237D01*
X11055881Y12663810D01*
X11055884Y12663812D01*
X11055883Y12663813D01*
X11086689Y12712563D01*
X11086695Y12712573D01*
X11086738Y12712641D01*
X11114523Y12760648D01*
X11138625Y12810936D01*
X11158435Y12866611D01*
X11173341Y12930778D01*
X11182733Y13006539D01*
X11186000Y13097000D01*
X11436000Y13097000D01*
X11439266Y13006539D01*
G37*
%TD.AperFunction*%
%TD*%
%TA.AperFunction,Conductor*%
%TO.N,Net-(R1-Pad1)*%
G36*
X11319433Y13878231D02*
G01*
X11665174Y13518703D01*
X11668439Y13510365D01*
X11667119Y13505191D01*
X11634736Y13442995D01*
X11634443Y13442466D01*
X11599513Y13383079D01*
X11599320Y13382764D01*
X11566118Y13330191D01*
X11566115Y13330189D01*
X11566116Y13330188D01*
X11535261Y13281360D01*
X11507476Y13233353D01*
X11483374Y13183065D01*
X11463564Y13127390D01*
X11448658Y13063223D01*
X11440448Y12997001D01*
X11440448Y12996999D01*
X11439266Y12987462D01*
X11436000Y12897000D01*
X11186000Y12897000D01*
X11182733Y12987462D01*
X11181551Y12996999D01*
X11181551Y12997001D01*
X11173341Y13063223D01*
X11158435Y13127390D01*
X11138625Y13183065D01*
X11114523Y13233353D01*
X11086738Y13281360D01*
X11055883Y13330188D01*
X11022666Y13382786D01*
X11022486Y13383079D01*
X10987556Y13442466D01*
X10987263Y13442995D01*
X10954881Y13505190D01*
X10954100Y13514111D01*
X10956826Y13518703D01*
X11302567Y13878231D01*
X11310771Y13881819D01*
X11319433Y13878231D01*
G37*
%TD.AperFunction*%
%TD*%
%TA.AperFunction,Conductor*%
%TO.N,Net-(R1-Pad1)*%
G36*
X12307691Y12018223D02*
G01*
X12664788Y11674820D01*
X12668376Y11666616D01*
X12665111Y11658277D01*
X12662592Y11656292D01*
X12200614Y11385672D01*
X12191743Y11384447D01*
X12186714Y11387216D01*
X12136798Y11433835D01*
X12136646Y11433977D01*
X12084908Y11475598D01*
X12036445Y11509151D01*
X11989829Y11537661D01*
X11989770Y11537695D01*
X11989748Y11537708D01*
X11943632Y11564155D01*
X11943563Y11564195D01*
X11896635Y11591536D01*
X11896251Y11591769D01*
X11880473Y11601792D01*
X11847063Y11623016D01*
X11846512Y11623390D01*
X11819013Y11643226D01*
X11793595Y11661562D01*
X11792978Y11662039D01*
X11789456Y11664955D01*
X11789455Y11664955D01*
X11787665Y11666438D01*
X11734477Y11710474D01*
X11668956Y11772267D01*
X11845733Y11949044D01*
X11888251Y11913437D01*
X11893390Y11909133D01*
X11938806Y11885870D01*
X11966414Y11880263D01*
X11981860Y11877125D01*
X11981862Y11877125D01*
X11982649Y11876965D01*
X11983452Y11877024D01*
X11983454Y11877024D01*
X12024936Y11880078D01*
X12024937Y11880078D01*
X12025586Y11880126D01*
X12045758Y11886236D01*
X12067876Y11892935D01*
X12067881Y11892937D01*
X12068284Y11893059D01*
X12103136Y11909556D01*
X12111198Y11913372D01*
X12111202Y11913374D01*
X12111413Y11913474D01*
X12111624Y11913596D01*
X12155559Y11939032D01*
X12155573Y11939041D01*
X12155638Y11939078D01*
X12155691Y11939111D01*
X12155708Y11939121D01*
X12201529Y11967517D01*
X12201664Y11967600D01*
X12249791Y11996530D01*
X12250323Y11996831D01*
X12294085Y12020119D01*
X12302998Y12020980D01*
X12307691Y12018223D01*
G37*
%TD.AperFunction*%
%TD*%
%TA.AperFunction,Conductor*%
%TO.N,Net-(J1-Pad2)*%
G36*
X8899266Y7666539D02*
G01*
X8908658Y7590778D01*
X8923564Y7526611D01*
X8925955Y7519891D01*
X8925955Y7519890D01*
X8943374Y7470936D01*
X8967476Y7420648D01*
X8995261Y7372641D01*
X8995304Y7372573D01*
X8995310Y7372563D01*
X9026116Y7323813D01*
X9026118Y7323810D01*
X9059320Y7271237D01*
X9059513Y7270922D01*
X9094443Y7211535D01*
X9094736Y7211006D01*
X9127119Y7148809D01*
X9127900Y7139888D01*
X9125175Y7135298D01*
X8779433Y6775769D01*
X8771229Y6772181D01*
X8762567Y6775769D01*
X8416826Y7135297D01*
X8413561Y7143636D01*
X8414881Y7148810D01*
X8447263Y7211006D01*
X8447556Y7211535D01*
X8482486Y7270922D01*
X8482679Y7271237D01*
X8515881Y7323810D01*
X8515884Y7323812D01*
X8515883Y7323813D01*
X8546689Y7372563D01*
X8546695Y7372573D01*
X8546738Y7372641D01*
X8574523Y7420648D01*
X8598625Y7470936D01*
X8618435Y7526611D01*
X8633341Y7590778D01*
X8642733Y7666539D01*
X8646000Y7757000D01*
X8896000Y7757000D01*
X8899266Y7666539D01*
G37*
%TD.AperFunction*%
%TD*%
%TA.AperFunction,Conductor*%
%TO.N,Net-(J1-Pad2)*%
G36*
X8786853Y8268107D02*
G01*
X9128020Y7904228D01*
X9131179Y7895849D01*
X9129798Y7890700D01*
X9100354Y7835744D01*
X9096577Y7828695D01*
X9096290Y7828190D01*
X9060653Y7768944D01*
X9060472Y7768655D01*
X9026753Y7716135D01*
X8995553Y7667306D01*
X8967557Y7619235D01*
X8943348Y7568829D01*
X8943244Y7568535D01*
X8943241Y7568529D01*
X8927176Y7523324D01*
X8923505Y7512996D01*
X8908612Y7448642D01*
X8899250Y7372675D01*
X8896000Y7282000D01*
X8646000Y7282000D01*
X8642764Y7373572D01*
X8633465Y7450304D01*
X8618710Y7515340D01*
X8599108Y7571825D01*
X8575269Y7622901D01*
X8547801Y7671715D01*
X8517318Y7721402D01*
X8517317Y7721410D01*
X8517314Y7721408D01*
X8488280Y7768816D01*
X8484491Y7775003D01*
X8484311Y7775309D01*
X8449870Y7835744D01*
X8449587Y7836270D01*
X8417604Y7899713D01*
X8416940Y7908643D01*
X8419722Y7913196D01*
X8769988Y8268321D01*
X8778237Y8271805D01*
X8786853Y8268107D01*
G37*
%TD.AperFunction*%
%TD*%
%TA.AperFunction,Conductor*%
%TO.N,Net-(C1-Pad1)*%
G36*
X11183714Y11032589D02*
G01*
X11187930Y11029316D01*
X11509455Y10632194D01*
X11199664Y10400819D01*
X11151190Y10364615D01*
X11100045Y10326416D01*
X11091366Y10324211D01*
X11086432Y10326138D01*
X11030266Y10364615D01*
X11029875Y10364895D01*
X10975667Y10405401D01*
X10975505Y10405524D01*
X10926985Y10443111D01*
X10881425Y10477216D01*
X10881269Y10477320D01*
X10836252Y10507181D01*
X10836243Y10507186D01*
X10836028Y10507329D01*
X10787921Y10532992D01*
X10787597Y10533117D01*
X10787591Y10533120D01*
X10734578Y10553615D01*
X10734575Y10553616D01*
X10734236Y10553747D01*
X10672101Y10569139D01*
X10671781Y10569181D01*
X10671774Y10569182D01*
X10598908Y10578675D01*
X10598902Y10578675D01*
X10598645Y10578709D01*
X10598126Y10578729D01*
X10598119Y10578729D01*
X10511000Y10582000D01*
X10511000Y10832000D01*
X10607417Y10835110D01*
X10607623Y10835132D01*
X10607630Y10835133D01*
X10688094Y10843934D01*
X10688346Y10843962D01*
X10738864Y10854152D01*
X10756887Y10857788D01*
X10756890Y10857789D01*
X10757159Y10857843D01*
X10757414Y10857920D01*
X10757421Y10857922D01*
X10817000Y10875970D01*
X10817003Y10875971D01*
X10817224Y10876038D01*
X10854962Y10891080D01*
X10871751Y10897771D01*
X10871757Y10897774D01*
X10871911Y10897835D01*
X10877589Y10900495D01*
X10924520Y10922485D01*
X10924536Y10922493D01*
X10924592Y10922519D01*
X10978579Y10949348D01*
X10978708Y10949411D01*
X11037206Y10977593D01*
X11037621Y10977783D01*
X11062984Y10988804D01*
X11104018Y11006635D01*
X11104583Y11006862D01*
X11174765Y11032921D01*
X11183714Y11032589D01*
G37*
%TD.AperFunction*%
%TD*%
%TA.AperFunction,Conductor*%
%TO.N,Net-(C1-Pad1)*%
G36*
X9994620Y11108071D02*
G01*
X9998275Y11106149D01*
X10066642Y11070191D01*
X10067259Y11069843D01*
X10134592Y11029049D01*
X10134988Y11028797D01*
X10194166Y10989612D01*
X10194239Y10989564D01*
X10248955Y10952748D01*
X10248997Y10952722D01*
X10249015Y10952710D01*
X10302370Y10919436D01*
X10302377Y10919432D01*
X10302563Y10919316D01*
X10358692Y10890099D01*
X10420971Y10865928D01*
X10421319Y10865840D01*
X10421321Y10865839D01*
X10492706Y10847715D01*
X10493029Y10847633D01*
X10534229Y10842048D01*
X10578212Y10836085D01*
X10578222Y10836084D01*
X10578496Y10836047D01*
X10595664Y10835369D01*
X10604353Y10835026D01*
X10604356Y10835026D01*
X10681000Y10832000D01*
X10681000Y10582000D01*
X10598128Y10578729D01*
X10598126Y10578729D01*
X10578496Y10577954D01*
X10578222Y10577917D01*
X10578212Y10577916D01*
X10534229Y10571953D01*
X10493029Y10566368D01*
X10492706Y10566286D01*
X10421321Y10548162D01*
X10421319Y10548161D01*
X10420971Y10548073D01*
X10358692Y10523902D01*
X10302563Y10494685D01*
X10302377Y10494569D01*
X10302370Y10494565D01*
X10249015Y10461291D01*
X10248997Y10461279D01*
X10248955Y10461253D01*
X10248896Y10461213D01*
X10194269Y10424457D01*
X10194197Y10424409D01*
X10134989Y10385204D01*
X10134592Y10384952D01*
X10067259Y10344158D01*
X10066642Y10343810D01*
X9994621Y10305930D01*
X9985704Y10305112D01*
X9981065Y10307852D01*
X9704217Y10574083D01*
X9574769Y10698567D01*
X9571181Y10706771D01*
X9574769Y10715433D01*
X9981066Y11106149D01*
X9989404Y11109414D01*
X9994620Y11108071D01*
G37*
%TD.AperFunction*%
%TD*%
%TA.AperFunction,Conductor*%
%TO.N,Net-(C1-Pad1)*%
G36*
X13312981Y9540907D02*
G01*
X13661501Y9205752D01*
X13669858Y9197715D01*
X13673446Y9189511D01*
X13670181Y9181172D01*
X13667662Y9179187D01*
X13205416Y8908410D01*
X13196545Y8907185D01*
X13191816Y8909684D01*
X13142086Y8953012D01*
X13142083Y8953014D01*
X13141755Y8953300D01*
X13087514Y8987834D01*
X13034648Y9011657D01*
X13034338Y9011758D01*
X12982530Y9028616D01*
X12982517Y9028620D01*
X12982372Y9028667D01*
X12955744Y9035820D01*
X12930031Y9042727D01*
X12929890Y9042765D01*
X12876840Y9057728D01*
X12876039Y9057986D01*
X12821852Y9077570D01*
X12820619Y9078097D01*
X12810553Y9083103D01*
X12764137Y9106189D01*
X12762792Y9106974D01*
X12702948Y9147522D01*
X12701739Y9148463D01*
X12646344Y9197695D01*
X12642436Y9205752D01*
X12645843Y9214713D01*
X12806422Y9375292D01*
X12814695Y9378719D01*
X12822026Y9376137D01*
X12842687Y9359525D01*
X12866878Y9340074D01*
X12867670Y9339753D01*
X12915461Y9320387D01*
X12915463Y9320387D01*
X12916444Y9319989D01*
X12963528Y9318923D01*
X13009120Y9333341D01*
X13021552Y9340611D01*
X13053897Y9359525D01*
X13053905Y9359531D01*
X13054207Y9359707D01*
X13099777Y9394484D01*
X13146818Y9434139D01*
X13196067Y9474925D01*
X13196588Y9475331D01*
X13227986Y9498339D01*
X13248746Y9513552D01*
X13249820Y9514252D01*
X13299029Y9542611D01*
X13307908Y9543773D01*
X13312981Y9540907D01*
G37*
%TD.AperFunction*%
%TD*%
%TA.AperFunction,Conductor*%
%TO.N,Net-(C1-Pad1)*%
G36*
X11675669Y10818203D02*
G01*
X11678790Y10813886D01*
X11707573Y10745109D01*
X11707791Y10744548D01*
X11732226Y10676545D01*
X11732355Y10676165D01*
X11752183Y10614291D01*
X11770166Y10556766D01*
X11789057Y10501884D01*
X11811672Y10447753D01*
X11811798Y10447515D01*
X11838019Y10397801D01*
X11840824Y10392482D01*
X11879327Y10334180D01*
X11929995Y10270955D01*
X11987898Y10209180D01*
X11991055Y10200803D01*
X11987634Y10192908D01*
X11826845Y10032119D01*
X11818572Y10028692D01*
X11810604Y10031824D01*
X11753376Y10085044D01*
X11753188Y10085219D01*
X11693368Y10131686D01*
X11637645Y10165970D01*
X11584253Y10190500D01*
X11531431Y10207706D01*
X11477414Y10220017D01*
X11477252Y10220045D01*
X11477247Y10220046D01*
X11420495Y10229855D01*
X11420460Y10229861D01*
X11420441Y10229864D01*
X11358822Y10239662D01*
X11358675Y10239687D01*
X11305864Y10249140D01*
X11290812Y10251834D01*
X11290330Y10251931D01*
X11260296Y10258622D01*
X11222319Y10267083D01*
X11214990Y10272226D01*
X11213234Y10277225D01*
X11200606Y10392246D01*
X11157465Y10785167D01*
X11373304Y10800357D01*
X11374955Y10800473D01*
X11478285Y10807746D01*
X11667177Y10821040D01*
X11675669Y10818203D01*
G37*
%TD.AperFunction*%
%TD*%
%TA.AperFunction,Conductor*%
%TO.N,Net-(C2-Pad1)*%
G36*
X13702482Y10883573D02*
G01*
X13705909Y10875210D01*
X13705750Y10854549D01*
X13705748Y10854409D01*
X13705158Y10824356D01*
X13704455Y10796555D01*
X13703874Y10771026D01*
X13703649Y10747711D01*
X13704012Y10726555D01*
X13705195Y10707501D01*
X13705220Y10707310D01*
X13705221Y10707301D01*
X13707395Y10690777D01*
X13707397Y10690767D01*
X13707433Y10690492D01*
X13710956Y10675472D01*
X13711100Y10675099D01*
X13711101Y10675095D01*
X13713322Y10669332D01*
X13713100Y10660380D01*
X13710838Y10657015D01*
X13589433Y10530769D01*
X13581229Y10527181D01*
X13572567Y10530769D01*
X13451162Y10657015D01*
X13447897Y10665354D01*
X13448677Y10669331D01*
X13450898Y10675095D01*
X13450899Y10675098D01*
X13451043Y10675472D01*
X13454566Y10690492D01*
X13454602Y10690767D01*
X13454604Y10690777D01*
X13456778Y10707301D01*
X13456779Y10707310D01*
X13456804Y10707501D01*
X13457987Y10726555D01*
X13458350Y10747711D01*
X13458125Y10771026D01*
X13457544Y10796555D01*
X13456841Y10824356D01*
X13456251Y10854409D01*
X13456249Y10854549D01*
X13456090Y10875210D01*
X13459453Y10883509D01*
X13467790Y10887000D01*
X13694209Y10887000D01*
X13702482Y10883573D01*
G37*
%TD.AperFunction*%
%TD*%
%TA.AperFunction,Conductor*%
%TO.N,Net-(C2-Pad1)*%
G36*
X12926858Y13107192D02*
G01*
X13512799Y12954142D01*
X13519937Y12948736D01*
X13521520Y12943540D01*
X13526180Y12867691D01*
X13540240Y12796634D01*
X13560960Y12735145D01*
X13586120Y12679541D01*
X13586181Y12679421D01*
X13586182Y12679420D01*
X13613477Y12626185D01*
X13613535Y12626070D01*
X13640706Y12571606D01*
X13641028Y12570904D01*
X13665802Y12511775D01*
X13666215Y12510624D01*
X13686556Y12442993D01*
X13686881Y12441614D01*
X13700701Y12361577D01*
X13700856Y12360206D01*
X13705346Y12275569D01*
X13702362Y12267126D01*
X13693662Y12263249D01*
X13466500Y12263249D01*
X13458227Y12266676D01*
X13454868Y12273688D01*
X13447707Y12339726D01*
X13447615Y12340579D01*
X13423819Y12396723D01*
X13386651Y12435380D01*
X13338151Y12460247D01*
X13337511Y12460411D01*
X13337510Y12460411D01*
X13280712Y12474930D01*
X13280356Y12475021D01*
X13280000Y12475067D01*
X13279994Y12475068D01*
X13251012Y12478801D01*
X13215305Y12483401D01*
X13166383Y12487357D01*
X13145102Y12489078D01*
X13144985Y12489088D01*
X13105739Y12492659D01*
X13071937Y12495735D01*
X13071243Y12495819D01*
X12997648Y12507049D01*
X12996381Y12507315D01*
X12931815Y12524644D01*
X12924713Y12530098D01*
X12923150Y12535715D01*
X12922448Y12571606D01*
X12912203Y13095643D01*
X12915468Y13103982D01*
X12923672Y13107570D01*
X12926858Y13107192D01*
G37*
%TD.AperFunction*%
%TD*%
%TA.AperFunction,Conductor*%
%TO.N,Net-(Q1-Pad3)*%
G36*
X9767808Y3733119D02*
G01*
X9822828Y3704473D01*
X9830005Y3700737D01*
X9830534Y3700444D01*
X9889938Y3665504D01*
X9890214Y3665334D01*
X9942809Y3632119D01*
X9942811Y3632116D01*
X9942812Y3632117D01*
X9991640Y3601262D01*
X10039647Y3573477D01*
X10039849Y3573380D01*
X10039855Y3573377D01*
X10070233Y3558818D01*
X10089935Y3549375D01*
X10145610Y3529565D01*
X10145931Y3529491D01*
X10145929Y3529491D01*
X10209475Y3514729D01*
X10209478Y3514729D01*
X10209777Y3514659D01*
X10210086Y3514621D01*
X10210090Y3514620D01*
X10243705Y3510453D01*
X10285538Y3505267D01*
X10376000Y3502000D01*
X10376000Y3252000D01*
X10286397Y3248765D01*
X10285538Y3248734D01*
X10254113Y3244838D01*
X10210090Y3239381D01*
X10210086Y3239380D01*
X10209777Y3239342D01*
X10209478Y3239272D01*
X10209475Y3239272D01*
X10171442Y3230437D01*
X10145610Y3224436D01*
X10089935Y3204626D01*
X10089660Y3204494D01*
X10039855Y3180624D01*
X10039849Y3180621D01*
X10039647Y3180524D01*
X9991640Y3152739D01*
X9942812Y3121884D01*
X9890214Y3088667D01*
X9889938Y3088497D01*
X9839260Y3058689D01*
X9830534Y3053557D01*
X9830005Y3053264D01*
X9767809Y3020881D01*
X9758889Y3020100D01*
X9754298Y3022825D01*
X9394769Y3368567D01*
X9391181Y3376771D01*
X9394769Y3385433D01*
X9754297Y3731174D01*
X9762636Y3734439D01*
X9767808Y3733119D01*
G37*
%TD.AperFunction*%
%TD*%
%TA.AperFunction,Conductor*%
%TO.N,Net-(Q1-Pad3)*%
G36*
X10858227Y3734020D02*
G01*
X10896787Y3697867D01*
X10896789Y3697866D01*
X11230983Y3384531D01*
X11088986Y3244477D01*
X11087386Y3242899D01*
X11069018Y3224782D01*
X10966144Y3123315D01*
X10867197Y3025722D01*
X10858900Y3022352D01*
X10853714Y3023604D01*
X10817951Y3041632D01*
X10790256Y3055594D01*
X10789757Y3055863D01*
X10729293Y3090321D01*
X10728990Y3090499D01*
X10675407Y3123315D01*
X10675408Y3123317D01*
X10675400Y3123319D01*
X10625783Y3153760D01*
X10625770Y3153768D01*
X10625714Y3153802D01*
X10576900Y3181270D01*
X10525824Y3205109D01*
X10469339Y3224711D01*
X10404303Y3239466D01*
X10404002Y3239502D01*
X10403999Y3239503D01*
X10327811Y3248736D01*
X10327809Y3248736D01*
X10327571Y3248765D01*
X10309782Y3249393D01*
X10306966Y3249493D01*
X10306964Y3249493D01*
X10236000Y3252000D01*
X10236000Y3502000D01*
X10313589Y3504782D01*
X10326402Y3505241D01*
X10326408Y3505241D01*
X10326674Y3505251D01*
X10353069Y3508504D01*
X10402336Y3514575D01*
X10402344Y3514576D01*
X10402641Y3514613D01*
X10402931Y3514680D01*
X10402936Y3514681D01*
X10466675Y3529432D01*
X10466674Y3529432D01*
X10466995Y3529506D01*
X10467306Y3529617D01*
X10467311Y3529618D01*
X10522528Y3549242D01*
X10522534Y3549245D01*
X10522828Y3549349D01*
X10529165Y3552393D01*
X10573016Y3573453D01*
X10573022Y3573456D01*
X10573234Y3573558D01*
X10621305Y3601554D01*
X10670134Y3632754D01*
X10722654Y3666473D01*
X10722943Y3666654D01*
X10782197Y3702295D01*
X10782703Y3702582D01*
X10844700Y3735798D01*
X10853610Y3736685D01*
X10858227Y3734020D01*
G37*
%TD.AperFunction*%
%TD*%
%TA.AperFunction,Conductor*%
%TO.N,Net-(Q1-Pad3)*%
G36*
X15542724Y9177154D02*
G01*
X15902252Y8831413D01*
X15905840Y8823209D01*
X15902252Y8814547D01*
X15542724Y8468806D01*
X15534386Y8465541D01*
X15529212Y8466861D01*
X15467015Y8499244D01*
X15466486Y8499537D01*
X15457760Y8504669D01*
X15407082Y8534477D01*
X15406806Y8534647D01*
X15354211Y8567862D01*
X15354209Y8567865D01*
X15354208Y8567864D01*
X15305458Y8598670D01*
X15305448Y8598676D01*
X15305380Y8598719D01*
X15257373Y8626504D01*
X15257171Y8626601D01*
X15257165Y8626604D01*
X15207360Y8650474D01*
X15207085Y8650606D01*
X15151410Y8670416D01*
X15125578Y8676417D01*
X15087545Y8685252D01*
X15087542Y8685252D01*
X15087243Y8685322D01*
X15086934Y8685360D01*
X15086930Y8685361D01*
X15042907Y8690818D01*
X15011482Y8694714D01*
X14955891Y8696721D01*
X14932299Y8697573D01*
X14924155Y8701296D01*
X14921021Y8709265D01*
X14921021Y8936695D01*
X14924448Y8944968D01*
X14932299Y8948387D01*
X14965233Y8949577D01*
X15011482Y8951247D01*
X15042907Y8955143D01*
X15086930Y8960600D01*
X15086934Y8960601D01*
X15087243Y8960639D01*
X15087542Y8960709D01*
X15087545Y8960709D01*
X15151091Y8975471D01*
X15151089Y8975471D01*
X15151410Y8975545D01*
X15207085Y8995355D01*
X15226787Y9004798D01*
X15257165Y9019357D01*
X15257171Y9019360D01*
X15257373Y9019457D01*
X15305380Y9047242D01*
X15354208Y9078097D01*
X15406806Y9111314D01*
X15407082Y9111484D01*
X15466486Y9146424D01*
X15467015Y9146717D01*
X15474900Y9150822D01*
X15529212Y9179099D01*
X15538132Y9179880D01*
X15542724Y9177154D01*
G37*
%TD.AperFunction*%
%TD*%
%TA.AperFunction,Conductor*%
%TO.N,Net-(Q1-Pad3)*%
G36*
X13154655Y6195408D02*
G01*
X13210838Y6136985D01*
X13214103Y6128646D01*
X13213322Y6124669D01*
X13210956Y6118529D01*
X13207433Y6103509D01*
X13207397Y6103234D01*
X13207395Y6103224D01*
X13205221Y6086700D01*
X13205195Y6086500D01*
X13204012Y6067446D01*
X13203649Y6046290D01*
X13203650Y6046173D01*
X13203650Y6046140D01*
X13203874Y6023015D01*
X13203875Y6022921D01*
X13204452Y5997570D01*
X13204453Y5997540D01*
X13204455Y5997446D01*
X13205156Y5969711D01*
X13205158Y5969645D01*
X13205748Y5939592D01*
X13205750Y5939452D01*
X13205909Y5918790D01*
X13202546Y5910491D01*
X13194209Y5907000D01*
X12967790Y5907000D01*
X12959517Y5910427D01*
X12956090Y5918790D01*
X12956249Y5939452D01*
X12956251Y5939592D01*
X12956841Y5969645D01*
X12956843Y5969711D01*
X12957544Y5997446D01*
X12957546Y5997540D01*
X12957547Y5997570D01*
X12958124Y6022921D01*
X12958125Y6023015D01*
X12958349Y6046140D01*
X12958349Y6046173D01*
X12958350Y6046290D01*
X12957987Y6067446D01*
X12956804Y6086500D01*
X12956778Y6086700D01*
X12954604Y6103224D01*
X12954602Y6103234D01*
X12954566Y6103509D01*
X12951043Y6118529D01*
X12950900Y6118901D01*
X12950900Y6118902D01*
X12948678Y6124667D01*
X12948900Y6133619D01*
X12951162Y6136985D01*
X13007262Y6195322D01*
X13081000Y6272000D01*
X13154655Y6195408D01*
G37*
%TD.AperFunction*%
%TD*%
%TA.AperFunction,Conductor*%
%TO.N,Net-(Q1-Pad3)*%
G36*
X11509204Y4021023D02*
G01*
X11670022Y3860205D01*
X11673449Y3851932D01*
X11670315Y3843963D01*
X11643551Y3815193D01*
X11616346Y3785950D01*
X11616201Y3785764D01*
X11616195Y3785757D01*
X11589450Y3751443D01*
X11569415Y3725738D01*
X11569252Y3725477D01*
X11569251Y3725475D01*
X11534760Y3670110D01*
X11534756Y3670103D01*
X11534583Y3669825D01*
X11509222Y3616450D01*
X11509121Y3616164D01*
X11509118Y3616156D01*
X11490784Y3564069D01*
X11490706Y3563847D01*
X11476407Y3510255D01*
X11476376Y3510117D01*
X11463700Y3453915D01*
X11463697Y3453911D01*
X11463699Y3453911D01*
X11449987Y3393203D01*
X11449906Y3392870D01*
X11432617Y3326189D01*
X11432457Y3325633D01*
X11411373Y3258747D01*
X11405617Y3251886D01*
X11400443Y3250566D01*
X11159282Y3245851D01*
X10889579Y3240579D01*
X10898487Y3696274D01*
X10899566Y3751443D01*
X10903154Y3759647D01*
X10907746Y3762373D01*
X10974637Y3783459D01*
X10975218Y3783625D01*
X11041843Y3800900D01*
X11042202Y3800988D01*
X11102910Y3814700D01*
X11102910Y3814699D01*
X11102914Y3814701D01*
X11159254Y3827408D01*
X11212846Y3841707D01*
X11213068Y3841785D01*
X11265155Y3860119D01*
X11265163Y3860122D01*
X11265449Y3860223D01*
X11318824Y3885584D01*
X11319102Y3885757D01*
X11319109Y3885761D01*
X11374474Y3920252D01*
X11374476Y3920253D01*
X11374737Y3920416D01*
X11374975Y3920602D01*
X11374980Y3920605D01*
X11434756Y3967196D01*
X11434763Y3967202D01*
X11434949Y3967347D01*
X11492964Y4021317D01*
X11501353Y4024442D01*
X11509204Y4021023D01*
G37*
%TD.AperFunction*%
%TD*%
%TA.AperFunction,Conductor*%
%TO.N,Net-(Q1-Pad3)*%
G36*
X13202482Y6483573D02*
G01*
X13205909Y6475210D01*
X13205750Y6454549D01*
X13205748Y6454409D01*
X13205158Y6424356D01*
X13204455Y6396555D01*
X13203874Y6371026D01*
X13203649Y6347711D01*
X13204012Y6326555D01*
X13205195Y6307501D01*
X13205220Y6307310D01*
X13205221Y6307301D01*
X13207395Y6290777D01*
X13207397Y6290767D01*
X13207433Y6290492D01*
X13210956Y6275472D01*
X13211100Y6275099D01*
X13211101Y6275095D01*
X13213322Y6269332D01*
X13213100Y6260380D01*
X13210838Y6257016D01*
X13081000Y6122000D01*
X12951162Y6257015D01*
X12947897Y6265354D01*
X12948677Y6269331D01*
X12950898Y6275095D01*
X12950899Y6275098D01*
X12951043Y6275472D01*
X12954566Y6290492D01*
X12954602Y6290767D01*
X12954604Y6290777D01*
X12956778Y6307301D01*
X12956779Y6307310D01*
X12956804Y6307501D01*
X12957987Y6326555D01*
X12958350Y6347711D01*
X12958125Y6371026D01*
X12957544Y6396555D01*
X12956841Y6424356D01*
X12956251Y6454409D01*
X12956249Y6454549D01*
X12956090Y6475210D01*
X12959453Y6483509D01*
X12967790Y6487000D01*
X13194209Y6487000D01*
X13202482Y6483573D01*
G37*
%TD.AperFunction*%
%TD*%
%TA.AperFunction,Conductor*%
%TO.N,Net-(R9-Pad1)*%
G36*
X14202482Y10883573D02*
G01*
X14205909Y10875210D01*
X14205750Y10854549D01*
X14205748Y10854409D01*
X14205158Y10824356D01*
X14204455Y10796555D01*
X14203874Y10771026D01*
X14203649Y10747711D01*
X14204012Y10726555D01*
X14205195Y10707501D01*
X14205220Y10707310D01*
X14205221Y10707301D01*
X14207395Y10690777D01*
X14207397Y10690767D01*
X14207433Y10690492D01*
X14210956Y10675472D01*
X14211100Y10675099D01*
X14211101Y10675095D01*
X14213322Y10669332D01*
X14213100Y10660380D01*
X14210838Y10657015D01*
X14089433Y10530769D01*
X14081229Y10527181D01*
X14072567Y10530769D01*
X13951162Y10657015D01*
X13947897Y10665354D01*
X13948677Y10669331D01*
X13950898Y10675095D01*
X13950899Y10675098D01*
X13951043Y10675472D01*
X13954566Y10690492D01*
X13954602Y10690767D01*
X13954604Y10690777D01*
X13956778Y10707301D01*
X13956779Y10707310D01*
X13956804Y10707501D01*
X13957987Y10726555D01*
X13958350Y10747711D01*
X13958125Y10771026D01*
X13957544Y10796555D01*
X13956841Y10824356D01*
X13956251Y10854409D01*
X13956249Y10854549D01*
X13956090Y10875210D01*
X13959453Y10883509D01*
X13967790Y10887000D01*
X14194209Y10887000D01*
X14202482Y10883573D01*
G37*
%TD.AperFunction*%
%TD*%
%TA.AperFunction,Conductor*%
%TO.N,Net-(R9-Pad1)*%
G36*
X14726335Y13038289D02*
G01*
X14731741Y13031151D01*
X14732119Y13027966D01*
X14725106Y12669196D01*
X14722445Y12533093D01*
X14718857Y12524889D01*
X14713599Y12521975D01*
X14653897Y12506972D01*
X14652326Y12506689D01*
X14582606Y12499012D01*
X14581680Y12498947D01*
X14555947Y12498165D01*
X14511617Y12496819D01*
X14511351Y12496814D01*
X14494843Y12496724D01*
X14443399Y12496442D01*
X14443375Y12496441D01*
X14443305Y12496441D01*
X14416958Y12495406D01*
X14380054Y12493957D01*
X14380051Y12493957D01*
X14379727Y12493944D01*
X14379410Y12493896D01*
X14379405Y12493896D01*
X14323528Y12485521D01*
X14322901Y12485427D01*
X14322308Y12485199D01*
X14275935Y12467366D01*
X14275932Y12467364D01*
X14274972Y12466995D01*
X14238083Y12434753D01*
X14237567Y12433666D01*
X14221326Y12399443D01*
X14214378Y12384803D01*
X14207475Y12325840D01*
X14207211Y12323588D01*
X14202845Y12315770D01*
X14195590Y12313249D01*
X13968627Y12313249D01*
X13960354Y12316676D01*
X13956961Y12325840D01*
X13962504Y12398443D01*
X13962826Y12400416D01*
X13980192Y12469206D01*
X13980854Y12471115D01*
X14006420Y12528246D01*
X14007212Y12529720D01*
X14038442Y12578972D01*
X14039027Y12579812D01*
X14073475Y12624881D01*
X14073583Y12625019D01*
X14108152Y12668872D01*
X14108159Y12668882D01*
X14108280Y12669035D01*
X14140239Y12715288D01*
X14140411Y12715628D01*
X14140415Y12715634D01*
X14166318Y12766713D01*
X14166560Y12767190D01*
X14184420Y12828255D01*
X14190269Y12893802D01*
X14194417Y12901737D01*
X14198963Y12904080D01*
X14673249Y13027965D01*
X14717464Y13039514D01*
X14726335Y13038289D01*
G37*
%TD.AperFunction*%
%TD*%
%TA.AperFunction,Conductor*%
%TO.N,Net-(R10-Pad2)*%
G36*
X15089433Y6263231D02*
G01*
X15210838Y6136985D01*
X15214103Y6128646D01*
X15213322Y6124669D01*
X15210956Y6118529D01*
X15207433Y6103509D01*
X15207397Y6103234D01*
X15207395Y6103224D01*
X15205221Y6086700D01*
X15205195Y6086500D01*
X15204012Y6067446D01*
X15203649Y6046290D01*
X15203650Y6046173D01*
X15203650Y6046140D01*
X15203874Y6023015D01*
X15203875Y6022921D01*
X15204452Y5997570D01*
X15204453Y5997540D01*
X15204455Y5997446D01*
X15205156Y5969711D01*
X15205158Y5969645D01*
X15205748Y5939592D01*
X15205750Y5939452D01*
X15205909Y5918790D01*
X15202546Y5910491D01*
X15194209Y5907000D01*
X14967790Y5907000D01*
X14959517Y5910427D01*
X14956090Y5918790D01*
X14956249Y5939452D01*
X14956251Y5939592D01*
X14956841Y5969645D01*
X14956843Y5969711D01*
X14957544Y5997446D01*
X14957546Y5997540D01*
X14957547Y5997570D01*
X14958124Y6022921D01*
X14958125Y6023015D01*
X14958349Y6046140D01*
X14958349Y6046173D01*
X14958350Y6046290D01*
X14957987Y6067446D01*
X14956804Y6086500D01*
X14956778Y6086700D01*
X14954604Y6103224D01*
X14954602Y6103234D01*
X14954566Y6103509D01*
X14951043Y6118529D01*
X14950900Y6118901D01*
X14950900Y6118902D01*
X14948678Y6124667D01*
X14948900Y6133619D01*
X14951162Y6136985D01*
X15072567Y6263231D01*
X15080771Y6266819D01*
X15089433Y6263231D01*
G37*
%TD.AperFunction*%
%TD*%
%TA.AperFunction,Conductor*%
%TO.N,Net-(R10-Pad2)*%
G36*
X16672213Y3942179D02*
G01*
X16729262Y3889144D01*
X16729269Y3889138D01*
X16729453Y3888967D01*
X16789110Y3842677D01*
X16823158Y3821759D01*
X16844373Y3808725D01*
X16844377Y3808723D01*
X16844673Y3808541D01*
X16844993Y3808394D01*
X16844997Y3808392D01*
X16897597Y3784249D01*
X16897900Y3784110D01*
X16898211Y3784008D01*
X16898215Y3784007D01*
X16918087Y3777524D01*
X16950543Y3766935D01*
X16950783Y3766880D01*
X16950786Y3766879D01*
X16959750Y3764819D01*
X17004359Y3754567D01*
X17061100Y3744557D01*
X17122419Y3734473D01*
X17122662Y3734430D01*
X17137544Y3731658D01*
X17190139Y3721861D01*
X17190604Y3721765D01*
X17258270Y3706078D01*
X17265556Y3700871D01*
X17267268Y3695851D01*
X17313821Y3232456D01*
X17317129Y3199526D01*
X17314547Y3190952D01*
X17306202Y3186679D01*
X16808328Y3156255D01*
X16799862Y3159171D01*
X16796779Y3163521D01*
X16785612Y3190952D01*
X16768946Y3231887D01*
X16768731Y3232456D01*
X16745194Y3300188D01*
X16745066Y3300579D01*
X16726081Y3362111D01*
X16726057Y3362189D01*
X16708848Y3419383D01*
X16708819Y3419480D01*
X16690611Y3474135D01*
X16668638Y3528012D01*
X16640105Y3582979D01*
X16602214Y3640902D01*
X16592826Y3652673D01*
X16552306Y3703477D01*
X16552298Y3703486D01*
X16552169Y3703648D01*
X16552025Y3703802D01*
X16494910Y3764819D01*
X16491758Y3773201D01*
X16495179Y3781088D01*
X16655974Y3941883D01*
X16664247Y3945310D01*
X16672213Y3942179D01*
G37*
%TD.AperFunction*%
%TD*%
%TA.AperFunction,Conductor*%
%TO.N,Net-(Q2-Pad4)*%
G36*
X15840443Y17258434D02*
G01*
X15848647Y17254846D01*
X15851373Y17250253D01*
X15872458Y17183363D01*
X15872624Y17182783D01*
X15889899Y17116157D01*
X15889987Y17115798D01*
X15903699Y17055090D01*
X15903698Y17055090D01*
X15903700Y17055086D01*
X15916407Y16998746D01*
X15930706Y16945154D01*
X15930783Y16944935D01*
X15930784Y16944932D01*
X15949118Y16892845D01*
X15949121Y16892837D01*
X15949222Y16892551D01*
X15974583Y16839176D01*
X15974756Y16838898D01*
X15974760Y16838891D01*
X16009251Y16783526D01*
X16009415Y16783263D01*
X16009601Y16783025D01*
X16009604Y16783020D01*
X16056195Y16723244D01*
X16056201Y16723237D01*
X16056346Y16723051D01*
X16070254Y16708101D01*
X16110315Y16665037D01*
X16113441Y16656646D01*
X16110022Y16648795D01*
X15949205Y16487978D01*
X15940932Y16484551D01*
X15932963Y16487685D01*
X15902318Y16516193D01*
X15874949Y16541654D01*
X15874763Y16541799D01*
X15874756Y16541805D01*
X15814980Y16588396D01*
X15814975Y16588399D01*
X15814737Y16588585D01*
X15814474Y16588749D01*
X15759109Y16623240D01*
X15759102Y16623244D01*
X15758824Y16623417D01*
X15705449Y16648778D01*
X15705163Y16648879D01*
X15705155Y16648882D01*
X15653068Y16667216D01*
X15653065Y16667217D01*
X15652846Y16667294D01*
X15599254Y16681593D01*
X15542914Y16694300D01*
X15542910Y16694303D01*
X15542910Y16694301D01*
X15482202Y16708013D01*
X15481843Y16708101D01*
X15415217Y16725376D01*
X15414637Y16725542D01*
X15347747Y16746627D01*
X15340886Y16752383D01*
X15339566Y16757557D01*
X15329817Y17256256D01*
X15333082Y17264595D01*
X15341744Y17268183D01*
X15840443Y17258434D01*
G37*
%TD.AperFunction*%
%TD*%
%TA.AperFunction,Conductor*%
%TO.N,Net-(Q2-Pad4)*%
G36*
X15202482Y10883573D02*
G01*
X15205909Y10875210D01*
X15205750Y10854549D01*
X15205748Y10854409D01*
X15205158Y10824356D01*
X15204455Y10796555D01*
X15203874Y10771026D01*
X15203649Y10747711D01*
X15204012Y10726555D01*
X15205195Y10707501D01*
X15205220Y10707310D01*
X15205221Y10707301D01*
X15207395Y10690777D01*
X15207397Y10690767D01*
X15207433Y10690492D01*
X15210956Y10675472D01*
X15211100Y10675099D01*
X15211101Y10675095D01*
X15213322Y10669332D01*
X15213100Y10660380D01*
X15210838Y10657015D01*
X15089433Y10530769D01*
X15081229Y10527181D01*
X15072567Y10530769D01*
X14951162Y10657015D01*
X14947897Y10665354D01*
X14948677Y10669331D01*
X14950898Y10675095D01*
X14950899Y10675098D01*
X14951043Y10675472D01*
X14954566Y10690492D01*
X14954602Y10690767D01*
X14954604Y10690777D01*
X14956778Y10707301D01*
X14956779Y10707310D01*
X14956804Y10707501D01*
X14957987Y10726555D01*
X14958350Y10747711D01*
X14958125Y10771026D01*
X14957544Y10796555D01*
X14956841Y10824356D01*
X14956251Y10854409D01*
X14956249Y10854549D01*
X14956090Y10875210D01*
X14959453Y10883509D01*
X14967790Y10887000D01*
X15194209Y10887000D01*
X15202482Y10883573D01*
G37*
%TD.AperFunction*%
%TD*%
%TA.AperFunction,Conductor*%
%TO.N,Net-(R7-Pad1)*%
G36*
X13029204Y4021023D02*
G01*
X13190022Y3860205D01*
X13193449Y3851932D01*
X13190315Y3843963D01*
X13163551Y3815193D01*
X13136346Y3785950D01*
X13136201Y3785764D01*
X13136195Y3785757D01*
X13109450Y3751443D01*
X13089415Y3725738D01*
X13089252Y3725477D01*
X13089251Y3725475D01*
X13054760Y3670110D01*
X13054756Y3670103D01*
X13054583Y3669825D01*
X13029222Y3616450D01*
X13029121Y3616164D01*
X13029118Y3616156D01*
X13010784Y3564069D01*
X13010706Y3563847D01*
X12996407Y3510255D01*
X12996376Y3510117D01*
X12983700Y3453915D01*
X12983697Y3453911D01*
X12983699Y3453911D01*
X12969987Y3393203D01*
X12969906Y3392870D01*
X12952617Y3326189D01*
X12952457Y3325633D01*
X12931373Y3258747D01*
X12925617Y3251886D01*
X12920443Y3250566D01*
X12421744Y3240817D01*
X12413405Y3244082D01*
X12409817Y3252744D01*
X12419566Y3751443D01*
X12423154Y3759647D01*
X12427746Y3762373D01*
X12494637Y3783459D01*
X12495218Y3783625D01*
X12561843Y3800900D01*
X12562202Y3800988D01*
X12622910Y3814700D01*
X12622910Y3814699D01*
X12622914Y3814701D01*
X12679254Y3827408D01*
X12732846Y3841707D01*
X12733068Y3841785D01*
X12785155Y3860119D01*
X12785163Y3860122D01*
X12785449Y3860223D01*
X12838824Y3885584D01*
X12839102Y3885757D01*
X12839109Y3885761D01*
X12894474Y3920252D01*
X12894476Y3920253D01*
X12894737Y3920416D01*
X12894975Y3920602D01*
X12894980Y3920605D01*
X12954756Y3967196D01*
X12954763Y3967202D01*
X12954949Y3967347D01*
X13012964Y4021317D01*
X13021353Y4024442D01*
X13029204Y4021023D01*
G37*
%TD.AperFunction*%
%TD*%
%TA.AperFunction,Conductor*%
%TO.N,Net-(R7-Pad1)*%
G36*
X13654655Y6195408D02*
G01*
X13710838Y6136985D01*
X13714103Y6128646D01*
X13713322Y6124669D01*
X13710956Y6118529D01*
X13707433Y6103509D01*
X13707397Y6103234D01*
X13707395Y6103224D01*
X13705221Y6086700D01*
X13705195Y6086500D01*
X13704012Y6067446D01*
X13703649Y6046290D01*
X13703650Y6046173D01*
X13703650Y6046140D01*
X13703874Y6023015D01*
X13703875Y6022921D01*
X13704452Y5997570D01*
X13704453Y5997540D01*
X13704455Y5997446D01*
X13705156Y5969711D01*
X13705158Y5969645D01*
X13705748Y5939592D01*
X13705750Y5939452D01*
X13705909Y5918790D01*
X13702546Y5910491D01*
X13694209Y5907000D01*
X13467790Y5907000D01*
X13459517Y5910427D01*
X13456090Y5918790D01*
X13456249Y5939452D01*
X13456251Y5939592D01*
X13456841Y5969645D01*
X13456843Y5969711D01*
X13457544Y5997446D01*
X13457546Y5997540D01*
X13457547Y5997570D01*
X13458124Y6022921D01*
X13458125Y6023015D01*
X13458349Y6046140D01*
X13458349Y6046173D01*
X13458350Y6046290D01*
X13457987Y6067446D01*
X13456804Y6086500D01*
X13456778Y6086700D01*
X13454604Y6103224D01*
X13454602Y6103234D01*
X13454566Y6103509D01*
X13451043Y6118529D01*
X13450900Y6118901D01*
X13450900Y6118902D01*
X13448678Y6124667D01*
X13448900Y6133619D01*
X13451162Y6136985D01*
X13507262Y6195322D01*
X13581000Y6272000D01*
X13654655Y6195408D01*
G37*
%TD.AperFunction*%
%TD*%
%TA.AperFunction,Conductor*%
%TO.N,Net-(R7-Pad1)*%
G36*
X17028595Y8849918D02*
G01*
X17032183Y8841256D01*
X17022434Y8342557D01*
X17018846Y8334353D01*
X17014253Y8331627D01*
X16947367Y8310543D01*
X16946811Y8310383D01*
X16880130Y8293094D01*
X16879797Y8293013D01*
X16819089Y8279301D01*
X16819089Y8279302D01*
X16819085Y8279300D01*
X16762745Y8266593D01*
X16709153Y8252294D01*
X16708934Y8252217D01*
X16708931Y8252216D01*
X16656844Y8233882D01*
X16656836Y8233879D01*
X16656550Y8233778D01*
X16603175Y8208417D01*
X16602897Y8208244D01*
X16602890Y8208240D01*
X16547525Y8173749D01*
X16547262Y8173585D01*
X16547024Y8173399D01*
X16547019Y8173396D01*
X16487243Y8126805D01*
X16487236Y8126799D01*
X16487050Y8126654D01*
X16457807Y8099449D01*
X16429037Y8072685D01*
X16420646Y8069559D01*
X16412795Y8072978D01*
X16251977Y8233796D01*
X16248550Y8242069D01*
X16251683Y8250036D01*
X16305653Y8308051D01*
X16305798Y8308237D01*
X16305804Y8308244D01*
X16352395Y8368020D01*
X16352398Y8368025D01*
X16352584Y8368263D01*
X16352748Y8368526D01*
X16387239Y8423891D01*
X16387243Y8423898D01*
X16387416Y8424176D01*
X16412777Y8477551D01*
X16412878Y8477837D01*
X16412881Y8477845D01*
X16431215Y8529932D01*
X16431216Y8529935D01*
X16431293Y8530154D01*
X16445592Y8583746D01*
X16458299Y8640086D01*
X16458302Y8640090D01*
X16458300Y8640090D01*
X16472012Y8700798D01*
X16472100Y8701157D01*
X16489375Y8767782D01*
X16489541Y8768363D01*
X16510627Y8835254D01*
X16516383Y8842114D01*
X16521557Y8843434D01*
X17020256Y8853183D01*
X17028595Y8849918D01*
G37*
%TD.AperFunction*%
%TD*%
%TA.AperFunction,Conductor*%
%TO.N,Net-(R7-Pad1)*%
G36*
X13702482Y6483573D02*
G01*
X13705909Y6475210D01*
X13705750Y6454549D01*
X13705748Y6454409D01*
X13705158Y6424356D01*
X13704455Y6396555D01*
X13703874Y6371026D01*
X13703649Y6347711D01*
X13704012Y6326555D01*
X13705195Y6307501D01*
X13705220Y6307310D01*
X13705221Y6307301D01*
X13707395Y6290777D01*
X13707397Y6290767D01*
X13707433Y6290492D01*
X13710956Y6275472D01*
X13711100Y6275099D01*
X13711101Y6275095D01*
X13713322Y6269332D01*
X13713100Y6260380D01*
X13710838Y6257016D01*
X13581000Y6122000D01*
X13451162Y6257015D01*
X13447897Y6265354D01*
X13448677Y6269331D01*
X13450898Y6275095D01*
X13450899Y6275098D01*
X13451043Y6275472D01*
X13454566Y6290492D01*
X13454602Y6290767D01*
X13454604Y6290777D01*
X13456778Y6307301D01*
X13456779Y6307310D01*
X13456804Y6307501D01*
X13457987Y6326555D01*
X13458350Y6347711D01*
X13458125Y6371026D01*
X13457544Y6396555D01*
X13456841Y6424356D01*
X13456251Y6454409D01*
X13456249Y6454549D01*
X13456090Y6475210D01*
X13459453Y6483509D01*
X13467790Y6487000D01*
X13694209Y6487000D01*
X13702482Y6483573D01*
G37*
%TD.AperFunction*%
%TD*%
%TA.AperFunction,Conductor*%
%TO.N,Net-(C1-Pad1)*%
G36*
X9994620Y11108071D02*
G01*
X9998275Y11106149D01*
X10066642Y11070191D01*
X10067259Y11069843D01*
X10134592Y11029049D01*
X10134988Y11028797D01*
X10194166Y10989612D01*
X10194239Y10989564D01*
X10248955Y10952748D01*
X10248997Y10952722D01*
X10249015Y10952710D01*
X10302370Y10919436D01*
X10302377Y10919432D01*
X10302563Y10919316D01*
X10358692Y10890099D01*
X10420971Y10865928D01*
X10421319Y10865840D01*
X10421321Y10865839D01*
X10492706Y10847715D01*
X10493029Y10847633D01*
X10534229Y10842048D01*
X10578212Y10836085D01*
X10578222Y10836084D01*
X10578496Y10836047D01*
X10595664Y10835369D01*
X10604353Y10835026D01*
X10604356Y10835026D01*
X10681000Y10832000D01*
X10681000Y10582000D01*
X10598128Y10578729D01*
X10598126Y10578729D01*
X10578496Y10577954D01*
X10578222Y10577917D01*
X10578212Y10577916D01*
X10534229Y10571953D01*
X10493029Y10566368D01*
X10492706Y10566286D01*
X10421321Y10548162D01*
X10421319Y10548161D01*
X10420971Y10548073D01*
X10358692Y10523902D01*
X10302563Y10494685D01*
X10302377Y10494569D01*
X10302370Y10494565D01*
X10249015Y10461291D01*
X10248997Y10461279D01*
X10248955Y10461253D01*
X10248896Y10461213D01*
X10194269Y10424457D01*
X10194197Y10424409D01*
X10134989Y10385204D01*
X10134592Y10384952D01*
X10067259Y10344158D01*
X10066642Y10343810D01*
X9994621Y10305930D01*
X9985704Y10305112D01*
X9981065Y10307852D01*
X9704217Y10574083D01*
X9574769Y10698567D01*
X9571181Y10706771D01*
X9574769Y10715433D01*
X9981066Y11106149D01*
X9989404Y11109414D01*
X9994620Y11108071D01*
G37*
%TD.AperFunction*%
%TD*%
%TA.AperFunction,Conductor*%
%TO.N,Net-(C2-Pad1)*%
G36*
X12926858Y13107192D02*
G01*
X13512799Y12954142D01*
X13519937Y12948736D01*
X13521520Y12943540D01*
X13526180Y12867691D01*
X13540240Y12796634D01*
X13560960Y12735145D01*
X13586120Y12679541D01*
X13586181Y12679421D01*
X13586182Y12679420D01*
X13613477Y12626185D01*
X13613535Y12626070D01*
X13640706Y12571606D01*
X13641028Y12570904D01*
X13665802Y12511775D01*
X13666215Y12510624D01*
X13686556Y12442993D01*
X13686881Y12441614D01*
X13700701Y12361577D01*
X13700856Y12360206D01*
X13705346Y12275569D01*
X13702362Y12267126D01*
X13693662Y12263249D01*
X13466500Y12263249D01*
X13458227Y12266676D01*
X13454868Y12273688D01*
X13447707Y12339726D01*
X13447615Y12340579D01*
X13423819Y12396723D01*
X13386651Y12435380D01*
X13338151Y12460247D01*
X13337511Y12460411D01*
X13337510Y12460411D01*
X13280712Y12474930D01*
X13280356Y12475021D01*
X13280000Y12475067D01*
X13279994Y12475068D01*
X13251012Y12478801D01*
X13215305Y12483401D01*
X13166383Y12487357D01*
X13145102Y12489078D01*
X13144985Y12489088D01*
X13105739Y12492659D01*
X13071937Y12495735D01*
X13071243Y12495819D01*
X12997648Y12507049D01*
X12996381Y12507315D01*
X12931815Y12524644D01*
X12924713Y12530098D01*
X12923150Y12535715D01*
X12922448Y12571606D01*
X12912203Y13095643D01*
X12915468Y13103982D01*
X12923672Y13107570D01*
X12926858Y13107192D01*
G37*
%TD.AperFunction*%
%TD*%
%TA.AperFunction,Conductor*%
%TO.N,+24V*%
G36*
X14753121Y23636998D02*
G01*
X14799614Y23583342D01*
X14811000Y23531000D01*
X14811000Y19333000D01*
X14790998Y19264879D01*
X14737342Y19218386D01*
X14685000Y19207000D01*
X10219919Y19207000D01*
X10202167Y19208257D01*
X7615408Y19576373D01*
X7615404Y19576373D01*
X7611000Y19577000D01*
X3737000Y19577000D01*
X3668879Y19597002D01*
X3622386Y19650658D01*
X3611000Y19703000D01*
X3611000Y22451000D01*
X3631002Y22519121D01*
X3684658Y22565614D01*
X3737000Y22577000D01*
X7611000Y22577000D01*
X7622487Y22581772D01*
X7622489Y22581772D01*
X10187795Y23647361D01*
X10236129Y23657000D01*
X14685000Y23657000D01*
X14753121Y23636998D01*
G37*
%TD.AperFunction*%
%TD*%
%TA.AperFunction,Conductor*%
%TO.N,Net-(D2-Pad1)*%
G36*
X24763121Y22616998D02*
G01*
X24809614Y22563342D01*
X24821000Y22511000D01*
X24821000Y19353000D01*
X24800998Y19284879D01*
X24747342Y19238386D01*
X24695000Y19227000D01*
X22754455Y19227000D01*
X22747542Y19227190D01*
X19112717Y19426906D01*
X19112705Y19426906D01*
X19111000Y19427000D01*
X17427000Y19427000D01*
X17358879Y19447002D01*
X17312386Y19500658D01*
X17301000Y19553000D01*
X17301000Y21801000D01*
X17321002Y21869121D01*
X17374658Y21915614D01*
X17427000Y21927000D01*
X19101000Y21927000D01*
X22291673Y22563342D01*
X22648796Y22634566D01*
X22673440Y22637000D01*
X24695000Y22637000D01*
X24763121Y22616998D01*
G37*
%TD.AperFunction*%
%TD*%
%TA.AperFunction,Conductor*%
%TO.N,Net-(D2-Pad2)*%
G36*
X16823121Y22306998D02*
G01*
X16869614Y22253342D01*
X16881000Y22201000D01*
X16881000Y19277000D01*
X17301000Y17927000D01*
X18975000Y17927000D01*
X19043121Y17906998D01*
X19089614Y17853342D01*
X19101000Y17801000D01*
X19101000Y15553000D01*
X19080998Y15484879D01*
X19027342Y15438386D01*
X18975000Y15427000D01*
X17391890Y15427000D01*
X17323769Y15447002D01*
X17277276Y15500658D01*
X17272325Y15513248D01*
X16027435Y19257645D01*
X16021000Y19297397D01*
X16021000Y22201000D01*
X16041002Y22269121D01*
X16094658Y22315614D01*
X16147000Y22327000D01*
X16755000Y22327000D01*
X16823121Y22306998D01*
G37*
%TD.AperFunction*%
%TD*%
%TA.AperFunction,Conductor*%
%TO.N,GND*%
G36*
X25512461Y24309118D02*
G01*
X25526642Y24305857D01*
X25534772Y24307697D01*
X25539196Y24307689D01*
X25554788Y24308813D01*
X25643853Y24301803D01*
X25728319Y24295155D01*
X25739781Y24293340D01*
X25835128Y24270449D01*
X25930472Y24247558D01*
X25941515Y24243970D01*
X26122704Y24168920D01*
X26133047Y24163650D01*
X26206133Y24118863D01*
X26300261Y24061181D01*
X26309650Y24054360D01*
X26458780Y23926990D01*
X26466989Y23918781D01*
X26594360Y23769650D01*
X26601181Y23760261D01*
X26703648Y23593051D01*
X26708920Y23582704D01*
X26783970Y23401515D01*
X26787558Y23390472D01*
X26833339Y23199785D01*
X26835156Y23188316D01*
X26848777Y23015250D01*
X26847735Y23001155D01*
X26847725Y22995481D01*
X26845857Y22987358D01*
X26847697Y22979227D01*
X26849175Y22972694D01*
X26851000Y22956363D01*
X26851000Y1555123D01*
X26849118Y1538539D01*
X26845857Y1524358D01*
X26847697Y1516228D01*
X26847689Y1511804D01*
X26848813Y1496212D01*
X26835156Y1322684D01*
X26833339Y1311215D01*
X26787558Y1120528D01*
X26783970Y1109485D01*
X26708920Y928296D01*
X26703650Y917953D01*
X26635042Y805995D01*
X26601181Y750739D01*
X26594360Y741350D01*
X26500317Y631240D01*
X26466990Y592220D01*
X26458781Y584011D01*
X26309650Y456640D01*
X26300261Y449819D01*
X26133047Y347350D01*
X26122704Y342080D01*
X25941515Y267030D01*
X25930472Y263442D01*
X25835129Y240552D01*
X25739781Y217660D01*
X25728319Y215845D01*
X25555250Y202223D01*
X25541155Y203265D01*
X25535481Y203275D01*
X25527358Y205143D01*
X25515111Y202372D01*
X25512694Y201825D01*
X25496363Y200000D01*
X1555123Y200000D01*
X1538539Y201882D01*
X1538230Y201953D01*
X1524358Y205143D01*
X1516228Y203303D01*
X1511804Y203311D01*
X1496212Y202187D01*
X1407147Y209197D01*
X1322681Y215845D01*
X1311219Y217660D01*
X1215871Y240552D01*
X1120528Y263442D01*
X1109485Y267030D01*
X928296Y342080D01*
X917953Y347350D01*
X750739Y449819D01*
X741350Y456640D01*
X592219Y584011D01*
X584010Y592220D01*
X550683Y631240D01*
X456640Y741350D01*
X449819Y750739D01*
X415958Y805995D01*
X347350Y917953D01*
X342080Y928296D01*
X267030Y1109485D01*
X263442Y1120528D01*
X217661Y1311215D01*
X215844Y1322684D01*
X202223Y1495750D01*
X203265Y1509845D01*
X203275Y1515519D01*
X205143Y1523642D01*
X201825Y1538306D01*
X200000Y1554637D01*
X200000Y2147000D01*
X605551Y2147000D01*
X605779Y2144103D01*
X622609Y1930266D01*
X625317Y1895852D01*
X684127Y1650889D01*
X685240Y1648202D01*
X736983Y1523284D01*
X780534Y1418141D01*
X782055Y1415659D01*
X782057Y1415655D01*
X866399Y1278022D01*
X912164Y1203341D01*
X914056Y1201126D01*
X914058Y1201123D01*
X1054188Y1037052D01*
X1075776Y1011776D01*
X1077990Y1009885D01*
X1257417Y856640D01*
X1267341Y848164D01*
X1269828Y846640D01*
X1479655Y718057D01*
X1479659Y718055D01*
X1482141Y716534D01*
X1714889Y620127D01*
X1959852Y561317D01*
X1962739Y561090D01*
X1962744Y561089D01*
X2085363Y551439D01*
X2148118Y546500D01*
X2273882Y546500D01*
X2336637Y551439D01*
X2459256Y561089D01*
X2459261Y561090D01*
X2462148Y561317D01*
X2707111Y620127D01*
X2939859Y716534D01*
X2942341Y718055D01*
X2942345Y718057D01*
X3152172Y846640D01*
X3154659Y848164D01*
X3164584Y856640D01*
X3344010Y1009885D01*
X3346224Y1011776D01*
X3367812Y1037052D01*
X3507942Y1201123D01*
X3507944Y1201126D01*
X3509836Y1203341D01*
X3555601Y1278022D01*
X3639943Y1415655D01*
X3639945Y1415659D01*
X3641466Y1418141D01*
X3685018Y1523284D01*
X3736760Y1648202D01*
X3737873Y1650889D01*
X3796683Y1895852D01*
X3799392Y1930266D01*
X3816221Y2144103D01*
X3816449Y2147000D01*
X3815059Y2164667D01*
X3796911Y2395256D01*
X3796910Y2395261D01*
X3796683Y2398148D01*
X3763943Y2534519D01*
X3738552Y2640283D01*
X3738552Y2640284D01*
X3737873Y2643111D01*
X3706439Y2719000D01*
X3642582Y2873165D01*
X3642581Y2873166D01*
X3641466Y2875859D01*
X3634278Y2887590D01*
X3511360Y3088172D01*
X3509836Y3090659D01*
X3503420Y3098172D01*
X3348115Y3280010D01*
X3346224Y3282224D01*
X3334516Y3292224D01*
X3156877Y3443942D01*
X3156874Y3443944D01*
X3154659Y3445836D01*
X3095800Y3481905D01*
X2942345Y3575943D01*
X2942341Y3575945D01*
X2939859Y3577466D01*
X2913023Y3588582D01*
X2709798Y3672760D01*
X2707111Y3673873D01*
X2685885Y3678969D01*
X2464972Y3732005D01*
X2462148Y3732683D01*
X2459261Y3732910D01*
X2459256Y3732911D01*
X2326739Y3743340D01*
X2273882Y3747500D01*
X2148118Y3747500D01*
X2095261Y3743340D01*
X1962744Y3732911D01*
X1962739Y3732910D01*
X1959852Y3732683D01*
X1957028Y3732005D01*
X1736116Y3678969D01*
X1714889Y3673873D01*
X1712202Y3672760D01*
X1508978Y3588582D01*
X1482141Y3577466D01*
X1479659Y3575945D01*
X1479655Y3575943D01*
X1326200Y3481905D01*
X1267341Y3445836D01*
X1265126Y3443944D01*
X1265123Y3443942D01*
X1087484Y3292224D01*
X1075776Y3282224D01*
X1073885Y3280010D01*
X918581Y3098172D01*
X912164Y3090659D01*
X910640Y3088172D01*
X787723Y2887590D01*
X780534Y2875859D01*
X779419Y2873166D01*
X779418Y2873165D01*
X715561Y2719000D01*
X684127Y2643111D01*
X683448Y2640284D01*
X683448Y2640283D01*
X658057Y2534519D01*
X625317Y2398148D01*
X625090Y2395261D01*
X625089Y2395256D01*
X606941Y2164667D01*
X605551Y2147000D01*
X200000Y2147000D01*
X200000Y20272076D01*
X2510500Y20272076D01*
X2520698Y20157813D01*
X2573923Y19972194D01*
X2663385Y19801070D01*
X2665755Y19798164D01*
X2665757Y19798161D01*
X2768843Y19671766D01*
X2785429Y19651429D01*
X2788335Y19649059D01*
X2932161Y19531757D01*
X2932164Y19531755D01*
X2935070Y19529385D01*
X3106194Y19439923D01*
X3291813Y19386698D01*
X3295321Y19386385D01*
X3295326Y19386384D01*
X3404428Y19376647D01*
X3404430Y19376647D01*
X3406076Y19376500D01*
X3534764Y19376500D01*
X3569064Y19368071D01*
X3594099Y19354975D01*
X3594102Y19354974D01*
X3597319Y19353291D01*
X3600801Y19352269D01*
X3600805Y19352267D01*
X3631905Y19343136D01*
X3665440Y19333289D01*
X3737000Y19323000D01*
X7587783Y19323000D01*
X7598209Y19322262D01*
X10165747Y18956881D01*
X10165759Y18956880D01*
X10166381Y18956791D01*
X10175933Y18955774D01*
X10183593Y18954958D01*
X10183615Y18954956D01*
X10184226Y18954891D01*
X10194240Y18954182D01*
X10201299Y18953682D01*
X10201304Y18953682D01*
X10201978Y18953634D01*
X10202636Y18953611D01*
X10202650Y18953610D01*
X10211571Y18953295D01*
X10219919Y18953000D01*
X10636500Y18953000D01*
X10684066Y18935687D01*
X10709376Y18891850D01*
X10710500Y18879000D01*
X10710500Y15798111D01*
X10702434Y15764517D01*
X10650354Y15662304D01*
X10649443Y15656552D01*
X10649442Y15656549D01*
X10635955Y15571392D01*
X10635500Y15568519D01*
X10635500Y15565610D01*
X10635501Y15226701D01*
X10625797Y15190068D01*
X10622630Y15184508D01*
X10619436Y15178903D01*
X10615779Y15173124D01*
X10591718Y15138723D01*
X10588057Y15133919D01*
X10552499Y15091010D01*
X10549248Y15087341D01*
X10509306Y15045169D01*
X10507905Y15043729D01*
X7713871Y12249695D01*
X7701685Y12239854D01*
X7695165Y12235644D01*
X7695163Y12235642D01*
X7690024Y12232324D01*
X7686236Y12227519D01*
X7668608Y12205158D01*
X7662821Y12198645D01*
X7659910Y12195734D01*
X7658136Y12193252D01*
X7658133Y12193248D01*
X7648620Y12179936D01*
X7646528Y12177150D01*
X7615723Y12138074D01*
X7613695Y12132301D01*
X7612846Y12130756D01*
X7612457Y12130139D01*
X7612400Y12130027D01*
X7612118Y12129355D01*
X7611341Y12127769D01*
X7607784Y12122791D01*
X7599757Y12095951D01*
X7593527Y12075120D01*
X7592450Y12071804D01*
X7575957Y12024838D01*
X7575500Y12019561D01*
X7575500Y12018323D01*
X7575089Y12013464D01*
X7573397Y12007808D01*
X7573637Y12001698D01*
X7575443Y11955736D01*
X7575500Y11952831D01*
X7575500Y9609776D01*
X7558187Y9562210D01*
X7514350Y9536900D01*
X7464500Y9545690D01*
X7438796Y9576321D01*
X7436588Y9575046D01*
X7434188Y9579203D01*
X7432054Y9584355D01*
X7431964Y9584462D01*
X7431633Y9585372D01*
X7429351Y9590882D01*
X7427229Y9595432D01*
X7425554Y9601684D01*
X7419888Y9609776D01*
X7402638Y9634411D01*
X7399169Y9639856D01*
X7394760Y9647494D01*
X7379194Y9674455D01*
X7363666Y9687485D01*
X7348585Y9700140D01*
X7343825Y9704501D01*
X6833482Y10214844D01*
X6831627Y10216767D01*
X6796689Y10254324D01*
X6796684Y10254330D01*
X6790919Y10260527D01*
X6786733Y10265439D01*
X6756002Y10304867D01*
X6751560Y10311229D01*
X6732576Y10341701D01*
X6728545Y10349072D01*
X6716043Y10375385D01*
X6713090Y10382550D01*
X6702898Y10411506D01*
X6701204Y10416990D01*
X6691019Y10455165D01*
X6690331Y10457960D01*
X6678799Y10509089D01*
X6679059Y10509148D01*
X6679046Y10509213D01*
X6678785Y10509154D01*
X6672495Y10537000D01*
X6665073Y10569862D01*
X6664236Y10573413D01*
X6664148Y10573772D01*
X6663497Y10576354D01*
X6646222Y10642980D01*
X6644904Y10647815D01*
X6644738Y10648395D01*
X6644671Y10648618D01*
X6643255Y10653329D01*
X6643237Y10653386D01*
X6643206Y10653490D01*
X6641957Y10657454D01*
X6639167Y10670039D01*
X6636677Y10688956D01*
X6636676Y10688958D01*
X6636044Y10693762D01*
X6575536Y10839841D01*
X6572586Y10843685D01*
X6572584Y10843689D01*
X6482237Y10961431D01*
X6479282Y10965282D01*
X6464597Y10976550D01*
X6357689Y11058584D01*
X6357685Y11058586D01*
X6353841Y11061536D01*
X6207762Y11122044D01*
X6202960Y11122676D01*
X6202957Y11122677D01*
X6055808Y11142049D01*
X6051000Y11142682D01*
X6046192Y11142049D01*
X5899043Y11122677D01*
X5899040Y11122676D01*
X5894238Y11122044D01*
X5748159Y11061536D01*
X5744315Y11058586D01*
X5744311Y11058584D01*
X5637403Y10976550D01*
X5622718Y10965282D01*
X5619763Y10961431D01*
X5529416Y10843689D01*
X5529414Y10843685D01*
X5526464Y10839841D01*
X5465956Y10693762D01*
X5465324Y10688960D01*
X5465323Y10688957D01*
X5459270Y10642980D01*
X5445318Y10537000D01*
X5445951Y10532192D01*
X5463358Y10399974D01*
X5465956Y10380238D01*
X5526464Y10234159D01*
X5529414Y10230315D01*
X5529416Y10230311D01*
X5604033Y10133069D01*
X5622718Y10108718D01*
X5626569Y10105763D01*
X5744311Y10015416D01*
X5744315Y10015414D01*
X5748159Y10012464D01*
X5894238Y9951956D01*
X5899042Y9951324D01*
X5899044Y9951323D01*
X5907938Y9950152D01*
X5917964Y9948832D01*
X5930546Y9946043D01*
X5934510Y9944794D01*
X5934614Y9944763D01*
X5934671Y9944745D01*
X5938228Y9943676D01*
X5939605Y9943262D01*
X5940185Y9943096D01*
X5945020Y9941778D01*
X5945307Y9941704D01*
X5945328Y9941698D01*
X5979962Y9932718D01*
X6011646Y9924503D01*
X6014228Y9923852D01*
X6014257Y9923845D01*
X6014284Y9923838D01*
X6014335Y9923826D01*
X6014587Y9923764D01*
X6018138Y9922927D01*
X6076858Y9909664D01*
X6078846Y9909215D01*
X6078737Y9908732D01*
X6078802Y9908717D01*
X6078911Y9909201D01*
X6130040Y9897669D01*
X6132835Y9896981D01*
X6150433Y9892286D01*
X6164290Y9888589D01*
X6171010Y9886796D01*
X6176494Y9885102D01*
X6205450Y9874910D01*
X6212615Y9871957D01*
X6238934Y9859451D01*
X6246299Y9855424D01*
X6276771Y9836440D01*
X6283132Y9831998D01*
X6322567Y9801262D01*
X6327473Y9797081D01*
X6346093Y9779759D01*
X6346095Y9779758D01*
X6371233Y9756373D01*
X6373156Y9754518D01*
X6778826Y9348848D01*
X6800218Y9302972D01*
X6800500Y9296522D01*
X6800500Y8858109D01*
X6800452Y8855438D01*
X6798759Y8808543D01*
X6798295Y8795708D01*
X6797782Y8789289D01*
X6795586Y8771570D01*
X6772552Y8726496D01*
X6755743Y8714742D01*
X6692849Y8682696D01*
X6692844Y8682692D01*
X6687658Y8680050D01*
X6597950Y8590342D01*
X6595306Y8585152D01*
X6595304Y8585150D01*
X6543000Y8482498D01*
X6540354Y8477304D01*
X6539443Y8471552D01*
X6539442Y8471549D01*
X6529835Y8410892D01*
X6525500Y8383519D01*
X6525501Y7770482D01*
X6525956Y7767610D01*
X6525956Y7767608D01*
X6528540Y7751295D01*
X6540354Y7676696D01*
X6547820Y7662044D01*
X6595304Y7568850D01*
X6595306Y7568848D01*
X6597950Y7563658D01*
X6687658Y7473950D01*
X6692848Y7471306D01*
X6692850Y7471304D01*
X6795502Y7419000D01*
X6795505Y7418999D01*
X6800696Y7416354D01*
X6806448Y7415443D01*
X6806451Y7415442D01*
X6882396Y7403414D01*
X6894481Y7401500D01*
X7126000Y7401500D01*
X7357518Y7401501D01*
X7360390Y7401956D01*
X7360392Y7401956D01*
X7392090Y7406976D01*
X7451304Y7416354D01*
X7467906Y7424813D01*
X7518145Y7430983D01*
X7560598Y7403414D01*
X7575500Y7358879D01*
X7575500Y4152305D01*
X7575473Y4150296D01*
X7573894Y4092158D01*
X7573600Y4087289D01*
X7570656Y4055852D01*
X7548984Y4010111D01*
X7530575Y3996822D01*
X7497658Y3980050D01*
X7407950Y3890342D01*
X7405306Y3885152D01*
X7405304Y3885150D01*
X7353000Y3782498D01*
X7350354Y3777304D01*
X7349443Y3771552D01*
X7349442Y3771549D01*
X7339911Y3711369D01*
X7335500Y3683519D01*
X7335501Y3070482D01*
X7335956Y3067610D01*
X7335956Y3067608D01*
X7339322Y3046357D01*
X7350354Y2976696D01*
X7370209Y2937729D01*
X7405304Y2868850D01*
X7405306Y2868848D01*
X7407950Y2863658D01*
X7497658Y2773950D01*
X7502848Y2771306D01*
X7502850Y2771304D01*
X7605502Y2719000D01*
X7605505Y2718999D01*
X7610696Y2716354D01*
X7616448Y2715443D01*
X7616451Y2715442D01*
X7701608Y2701955D01*
X7704481Y2701500D01*
X7751182Y2701500D01*
X8046300Y2701501D01*
X8082936Y2691796D01*
X8094103Y2685433D01*
X8099879Y2681778D01*
X8134265Y2657728D01*
X8139071Y2654066D01*
X8181990Y2618499D01*
X8185659Y2615248D01*
X8227865Y2575273D01*
X8229304Y2573872D01*
X8482825Y2320351D01*
X8492666Y2308165D01*
X8496876Y2301645D01*
X8500196Y2296504D01*
X8505001Y2292716D01*
X8527362Y2275088D01*
X8533875Y2269301D01*
X8536786Y2266390D01*
X8539268Y2264616D01*
X8539272Y2264613D01*
X8552584Y2255100D01*
X8555370Y2253008D01*
X8594446Y2222203D01*
X8600219Y2220175D01*
X8601764Y2219326D01*
X8602381Y2218937D01*
X8602493Y2218880D01*
X8603165Y2218598D01*
X8604751Y2217821D01*
X8609729Y2214264D01*
X8615592Y2212511D01*
X8615591Y2212511D01*
X8657397Y2200008D01*
X8660713Y2198931D01*
X8707682Y2182437D01*
X8712959Y2181980D01*
X8714197Y2181980D01*
X8719056Y2181569D01*
X8724713Y2179877D01*
X8730824Y2180117D01*
X8776796Y2181923D01*
X8779701Y2181980D01*
X11560544Y2181980D01*
X11608110Y2164667D01*
X11612870Y2160306D01*
X11747854Y2025322D01*
X11749255Y2023883D01*
X11788888Y1982038D01*
X11789174Y1981736D01*
X11792491Y1977999D01*
X11817027Y1948392D01*
X11828065Y1935072D01*
X11831727Y1930266D01*
X11841969Y1915622D01*
X11855427Y1896381D01*
X11855775Y1895883D01*
X11859431Y1890105D01*
X11865796Y1878934D01*
X11875500Y1842300D01*
X11875501Y1500482D01*
X11890354Y1406696D01*
X11919152Y1350177D01*
X11945304Y1298850D01*
X11945306Y1298848D01*
X11947950Y1293658D01*
X12037658Y1203950D01*
X12042848Y1201306D01*
X12042850Y1201304D01*
X12145502Y1149000D01*
X12145505Y1148999D01*
X12150696Y1146354D01*
X12156448Y1145443D01*
X12156451Y1145442D01*
X12241602Y1131956D01*
X12244481Y1131500D01*
X12551000Y1131500D01*
X12857518Y1131501D01*
X12860390Y1131956D01*
X12860392Y1131956D01*
X12892090Y1136976D01*
X12951304Y1146354D01*
X13007823Y1175152D01*
X13059150Y1201304D01*
X13059152Y1201306D01*
X13064342Y1203950D01*
X13154050Y1293658D01*
X13156694Y1298848D01*
X13156696Y1298850D01*
X13209000Y1401502D01*
X13209001Y1401505D01*
X13211646Y1406696D01*
X13212557Y1412448D01*
X13212558Y1412451D01*
X13226045Y1497608D01*
X13226500Y1500481D01*
X13226499Y1896381D01*
X13237689Y1935508D01*
X13251567Y1957784D01*
X13256003Y1964135D01*
X13286729Y2003555D01*
X13290912Y2008465D01*
X13309982Y2028965D01*
X13309985Y2028969D01*
X13331626Y2052232D01*
X13333481Y2054155D01*
X13436326Y2157000D01*
X23255551Y2157000D01*
X23255779Y2154103D01*
X23273396Y1930266D01*
X23275317Y1905852D01*
X23334127Y1660889D01*
X23335240Y1658202D01*
X23402530Y1495750D01*
X23430534Y1428141D01*
X23432055Y1425659D01*
X23432057Y1425655D01*
X23515470Y1289539D01*
X23562164Y1213341D01*
X23564056Y1211126D01*
X23564058Y1211123D01*
X23572599Y1201123D01*
X23725776Y1021776D01*
X23727990Y1019885D01*
X23847342Y917949D01*
X23917341Y858164D01*
X23919828Y856640D01*
X24129655Y728057D01*
X24129659Y728055D01*
X24132141Y726534D01*
X24134834Y725419D01*
X24134835Y725418D01*
X24339524Y640634D01*
X24364889Y630127D01*
X24367716Y629448D01*
X24367717Y629448D01*
X24522784Y592220D01*
X24609852Y571317D01*
X24612739Y571090D01*
X24612744Y571089D01*
X24728298Y561995D01*
X24798118Y556500D01*
X24923882Y556500D01*
X24993702Y561995D01*
X25109256Y571089D01*
X25109261Y571090D01*
X25112148Y571317D01*
X25199216Y592220D01*
X25354283Y629448D01*
X25354284Y629448D01*
X25357111Y630127D01*
X25382476Y640634D01*
X25587165Y725418D01*
X25587166Y725419D01*
X25589859Y726534D01*
X25592341Y728055D01*
X25592345Y728057D01*
X25802172Y856640D01*
X25804659Y858164D01*
X25874659Y917949D01*
X25994010Y1019885D01*
X25996224Y1021776D01*
X26149401Y1201123D01*
X26157942Y1211123D01*
X26157944Y1211126D01*
X26159836Y1213341D01*
X26206530Y1289539D01*
X26289943Y1425655D01*
X26289945Y1425659D01*
X26291466Y1428141D01*
X26319471Y1495750D01*
X26386760Y1658202D01*
X26387873Y1660889D01*
X26446683Y1905852D01*
X26448605Y1930266D01*
X26466221Y2154103D01*
X26466449Y2157000D01*
X26464521Y2181497D01*
X26446911Y2405256D01*
X26446910Y2405261D01*
X26446683Y2408148D01*
X26410702Y2558019D01*
X26388552Y2650283D01*
X26388552Y2650284D01*
X26387873Y2653111D01*
X26367641Y2701955D01*
X26292582Y2883165D01*
X26292581Y2883166D01*
X26291466Y2885859D01*
X26289627Y2888861D01*
X26161360Y3098172D01*
X26159836Y3100659D01*
X26135532Y3129116D01*
X25998115Y3290010D01*
X25996224Y3292224D01*
X25955960Y3326613D01*
X25806877Y3453942D01*
X25806874Y3453944D01*
X25804659Y3455836D01*
X25686956Y3527965D01*
X25592345Y3585943D01*
X25592341Y3585945D01*
X25589859Y3587466D01*
X25509845Y3620609D01*
X25359798Y3682760D01*
X25357111Y3683873D01*
X25260780Y3707000D01*
X25114972Y3742005D01*
X25112148Y3742683D01*
X25109261Y3742910D01*
X25109256Y3742911D01*
X24986637Y3752561D01*
X24923882Y3757500D01*
X24798118Y3757500D01*
X24735363Y3752561D01*
X24612744Y3742911D01*
X24612739Y3742910D01*
X24609852Y3742683D01*
X24607028Y3742005D01*
X24461221Y3707000D01*
X24364889Y3683873D01*
X24362202Y3682760D01*
X24212156Y3620609D01*
X24132141Y3587466D01*
X24129659Y3585945D01*
X24129655Y3585943D01*
X24035044Y3527965D01*
X23917341Y3455836D01*
X23915126Y3453944D01*
X23915123Y3453942D01*
X23766040Y3326613D01*
X23725776Y3292224D01*
X23723885Y3290010D01*
X23586469Y3129116D01*
X23562164Y3100659D01*
X23560640Y3098172D01*
X23432374Y2888861D01*
X23430534Y2885859D01*
X23429419Y2883166D01*
X23429418Y2883165D01*
X23354359Y2701955D01*
X23334127Y2653111D01*
X23333448Y2650284D01*
X23333448Y2650283D01*
X23311298Y2558019D01*
X23275317Y2408148D01*
X23275090Y2405261D01*
X23275089Y2405256D01*
X23257479Y2181497D01*
X23255551Y2157000D01*
X13436326Y2157000D01*
X13599632Y2320306D01*
X13645508Y2341698D01*
X13651958Y2341980D01*
X14849039Y2341980D01*
X14855489Y2341698D01*
X14888838Y2338780D01*
X14888839Y2338780D01*
X14895287Y2338216D01*
X14933884Y2348559D01*
X14940183Y2349955D01*
X14949751Y2351642D01*
X14973152Y2355768D01*
X14973154Y2355769D01*
X14979525Y2356892D01*
X14985127Y2360127D01*
X14989838Y2361841D01*
X14995362Y2364129D01*
X14999912Y2366251D01*
X15006164Y2367926D01*
X15015861Y2374716D01*
X15038891Y2390842D01*
X15044331Y2394308D01*
X15078935Y2414286D01*
X15083098Y2419247D01*
X15104620Y2444895D01*
X15108981Y2449655D01*
X15193845Y2534519D01*
X15195768Y2536374D01*
X15219031Y2558015D01*
X15219036Y2558019D01*
X15239535Y2577088D01*
X15244445Y2581271D01*
X15283865Y2611997D01*
X15290220Y2616435D01*
X15312489Y2630309D01*
X15351617Y2641500D01*
X15692997Y2641501D01*
X15747518Y2641501D01*
X15750390Y2641956D01*
X15750392Y2641956D01*
X15782090Y2646976D01*
X15841304Y2656354D01*
X15897823Y2685152D01*
X15949150Y2711304D01*
X15949152Y2711306D01*
X15954342Y2713950D01*
X16044050Y2803658D01*
X16046694Y2808848D01*
X16046696Y2808850D01*
X16099000Y2911502D01*
X16099001Y2911505D01*
X16101646Y2916696D01*
X16102557Y2922448D01*
X16102558Y2922451D01*
X16116045Y3007608D01*
X16116500Y3010481D01*
X16116499Y3623518D01*
X16107584Y3679808D01*
X16117243Y3729496D01*
X16156582Y3761352D01*
X16207193Y3760468D01*
X16232999Y3743709D01*
X16352891Y3623817D01*
X16354590Y3622061D01*
X16398758Y3574875D01*
X16402559Y3570478D01*
X16436467Y3527965D01*
X16436500Y3527923D01*
X16437820Y3526268D01*
X16441900Y3520629D01*
X16465192Y3485022D01*
X16468943Y3478607D01*
X16485341Y3447018D01*
X16488184Y3440869D01*
X16502028Y3406924D01*
X16503714Y3402367D01*
X16517796Y3360096D01*
X16518451Y3358030D01*
X16534539Y3304563D01*
X16534901Y3303372D01*
X16534925Y3303294D01*
X16534924Y3303294D01*
X16534938Y3303249D01*
X16534922Y3303244D01*
X16534939Y3303136D01*
X16534971Y3303146D01*
X16551956Y3248097D01*
X16553956Y3241614D01*
X16554992Y3238355D01*
X16555120Y3237964D01*
X16556276Y3234539D01*
X16556357Y3234305D01*
X16556358Y3234303D01*
X16561401Y3219790D01*
X16565501Y3195500D01*
X16565501Y3010482D01*
X16580354Y2916696D01*
X16596272Y2885455D01*
X16635304Y2808850D01*
X16635306Y2808848D01*
X16637950Y2803658D01*
X16727658Y2713950D01*
X16732848Y2711306D01*
X16732850Y2711304D01*
X16835502Y2659000D01*
X16835505Y2658999D01*
X16840696Y2656354D01*
X16846448Y2655443D01*
X16846451Y2655442D01*
X16924309Y2643111D01*
X16934481Y2641500D01*
X17166000Y2641500D01*
X17397518Y2641501D01*
X17400390Y2641956D01*
X17400392Y2641956D01*
X17432090Y2646976D01*
X17491304Y2656354D01*
X17547823Y2685152D01*
X17599150Y2711304D01*
X17599152Y2711306D01*
X17604342Y2713950D01*
X17694050Y2803658D01*
X17696694Y2808848D01*
X17696696Y2808850D01*
X17749000Y2911502D01*
X17749001Y2911505D01*
X17751646Y2916696D01*
X17752557Y2922448D01*
X17752558Y2922451D01*
X17766045Y3007608D01*
X17766500Y3010481D01*
X17766499Y3623518D01*
X17751646Y3717304D01*
X17701790Y3815152D01*
X17696696Y3825150D01*
X17696694Y3825152D01*
X17694050Y3830342D01*
X17604342Y3920050D01*
X17599152Y3922694D01*
X17599150Y3922696D01*
X17496498Y3975000D01*
X17496495Y3975001D01*
X17491304Y3977646D01*
X17485552Y3978557D01*
X17485549Y3978558D01*
X17400392Y3992045D01*
X17397519Y3992500D01*
X17316649Y3992500D01*
X16948229Y3992499D01*
X16909492Y4003448D01*
X16906528Y4005269D01*
X16899912Y4009848D01*
X16861690Y4039507D01*
X16856688Y4043758D01*
X16847286Y4052499D01*
X16813828Y4083602D01*
X16811887Y4085473D01*
X15450508Y5446852D01*
X15429116Y5492728D01*
X15430256Y5513611D01*
X15431500Y5519867D01*
X15431499Y6857500D01*
X15448812Y6905066D01*
X15492649Y6930376D01*
X15505499Y6931500D01*
X16139618Y6931500D01*
X16143229Y6931412D01*
X16145112Y6931320D01*
X16191777Y6911707D01*
X16214917Y6866686D01*
X16215501Y6857408D01*
X16215501Y6830482D01*
X16230354Y6736696D01*
X16259152Y6680177D01*
X16285304Y6628850D01*
X16285306Y6628848D01*
X16287950Y6623658D01*
X16377658Y6533950D01*
X16382848Y6531306D01*
X16382850Y6531304D01*
X16485502Y6479000D01*
X16485505Y6478999D01*
X16490696Y6476354D01*
X16496448Y6475443D01*
X16496451Y6475442D01*
X16581602Y6461956D01*
X16584481Y6461500D01*
X16891000Y6461500D01*
X17197518Y6461501D01*
X17200390Y6461956D01*
X17200392Y6461956D01*
X17232090Y6466976D01*
X17291304Y6476354D01*
X17347823Y6505152D01*
X17399150Y6531304D01*
X17399152Y6531306D01*
X17404342Y6533950D01*
X17494050Y6623658D01*
X17496694Y6628848D01*
X17496696Y6628850D01*
X17549000Y6731502D01*
X17549001Y6731505D01*
X17551646Y6736696D01*
X17552557Y6742448D01*
X17552558Y6742451D01*
X17566045Y6827608D01*
X17566500Y6830481D01*
X17566499Y7293518D01*
X17551646Y7387304D01*
X17508846Y7471304D01*
X17496696Y7495150D01*
X17496694Y7495152D01*
X17494050Y7500342D01*
X17404342Y7590050D01*
X17399152Y7592694D01*
X17399150Y7592696D01*
X17296498Y7645000D01*
X17296495Y7645001D01*
X17291304Y7647646D01*
X17285552Y7648557D01*
X17285549Y7648558D01*
X17200392Y7662045D01*
X17197519Y7662500D01*
X17194610Y7662500D01*
X16891001Y7662499D01*
X16584482Y7662499D01*
X16581610Y7662044D01*
X16581608Y7662044D01*
X16549910Y7657024D01*
X16490696Y7647646D01*
X16409211Y7606128D01*
X16387456Y7599017D01*
X16380940Y7597961D01*
X16379034Y7597652D01*
X16375863Y7597209D01*
X16312388Y7589728D01*
X16308796Y7589393D01*
X16275671Y7587118D01*
X16233369Y7584213D01*
X16229884Y7584056D01*
X16191754Y7583239D01*
X16191753Y7583239D01*
X16158024Y7582517D01*
X16156440Y7582500D01*
X14415478Y7582500D01*
X14367912Y7599813D01*
X14342602Y7643650D01*
X14351392Y7693500D01*
X14363152Y7708826D01*
X14405621Y7751295D01*
X14451497Y7772687D01*
X14457947Y7772969D01*
X16260028Y7772969D01*
X16266478Y7772687D01*
X16299827Y7769769D01*
X16299828Y7769769D01*
X16306276Y7769205D01*
X16344873Y7779548D01*
X16351172Y7780944D01*
X16360740Y7782631D01*
X16384141Y7786757D01*
X16384143Y7786758D01*
X16390514Y7787881D01*
X16396116Y7791116D01*
X16400827Y7792830D01*
X16406351Y7795118D01*
X16410901Y7797240D01*
X16417153Y7798915D01*
X16449880Y7821831D01*
X16455320Y7825297D01*
X16489924Y7845275D01*
X16494087Y7850236D01*
X16515609Y7875884D01*
X16519970Y7880644D01*
X16568845Y7929519D01*
X16570768Y7931374D01*
X16594031Y7953015D01*
X16594036Y7953019D01*
X16614535Y7972088D01*
X16619445Y7976271D01*
X16658865Y8006997D01*
X16665228Y8011440D01*
X16695700Y8030424D01*
X16703065Y8034451D01*
X16729384Y8046957D01*
X16736549Y8049910D01*
X16765505Y8060102D01*
X16770989Y8061796D01*
X16809164Y8071981D01*
X16811959Y8072669D01*
X16863088Y8084201D01*
X16863147Y8083941D01*
X16863212Y8083954D01*
X16863153Y8084215D01*
X16923861Y8097927D01*
X16923879Y8097931D01*
X16926986Y8098660D01*
X16927067Y8098679D01*
X16927400Y8098760D01*
X16927502Y8098786D01*
X16927536Y8098794D01*
X16930212Y8099467D01*
X16930264Y8099480D01*
X16930326Y8099496D01*
X16967490Y8109132D01*
X16986062Y8111501D01*
X17197518Y8111501D01*
X17200390Y8111956D01*
X17200392Y8111956D01*
X17232090Y8116976D01*
X17291304Y8126354D01*
X17347823Y8155152D01*
X17399150Y8181304D01*
X17399152Y8181306D01*
X17404342Y8183950D01*
X17494050Y8273658D01*
X17496694Y8278848D01*
X17496696Y8278850D01*
X17549000Y8381502D01*
X17549001Y8381505D01*
X17551646Y8386696D01*
X17552557Y8392448D01*
X17552558Y8392451D01*
X17566045Y8477608D01*
X17566500Y8480481D01*
X17566499Y8943518D01*
X17551646Y9037304D01*
X17525875Y9087883D01*
X17519706Y9138123D01*
X17547274Y9180576D01*
X17595682Y9195376D01*
X17623792Y9188209D01*
X17650831Y9175250D01*
X17655916Y9172565D01*
X17659735Y9170355D01*
X17690098Y9152781D01*
X17692528Y9151310D01*
X17736867Y9123291D01*
X17736651Y9122950D01*
X17736702Y9122918D01*
X17736918Y9123260D01*
X17789453Y9090083D01*
X17789513Y9090045D01*
X17791338Y9088907D01*
X17791417Y9088858D01*
X17791528Y9088789D01*
X17791590Y9088751D01*
X17791693Y9088688D01*
X17795184Y9086586D01*
X17845862Y9056778D01*
X17845869Y9056774D01*
X17854595Y9051642D01*
X17859081Y9049081D01*
X17859279Y9048972D01*
X17859324Y9048946D01*
X17859389Y9048910D01*
X17859610Y9048788D01*
X17859809Y9048681D01*
X17859811Y9048680D01*
X17864004Y9046427D01*
X17864060Y9046397D01*
X17864152Y9046348D01*
X17864262Y9046291D01*
X17864288Y9046277D01*
X17867828Y9044434D01*
X17878699Y9037507D01*
X17893827Y9025899D01*
X17893831Y9025897D01*
X17897679Y9022944D01*
X18043758Y8962436D01*
X18048560Y8961804D01*
X18048563Y8961803D01*
X18195712Y8942431D01*
X18200520Y8941798D01*
X18205328Y8942431D01*
X18352477Y8961803D01*
X18352480Y8961804D01*
X18357282Y8962436D01*
X18503361Y9022944D01*
X18507205Y9025894D01*
X18507209Y9025896D01*
X18624951Y9116243D01*
X18628802Y9119198D01*
X18651271Y9148480D01*
X18722104Y9240791D01*
X18722106Y9240795D01*
X18725056Y9244639D01*
X18785564Y9390718D01*
X18806202Y9547480D01*
X18801333Y9584462D01*
X18786197Y9699437D01*
X18786196Y9699440D01*
X18785564Y9704242D01*
X18745375Y9801267D01*
X18726913Y9845838D01*
X18725056Y9850321D01*
X18722103Y9854169D01*
X18719678Y9858370D01*
X18719682Y9858373D01*
X18712395Y9871020D01*
X18698828Y9903951D01*
X18697364Y9907809D01*
X18689483Y9930480D01*
X18684894Y9943678D01*
X18683442Y9948350D01*
X18674327Y9981490D01*
X18673142Y9986461D01*
X18669976Y10002134D01*
X18666197Y10020843D01*
X18665413Y10025482D01*
X18660012Y10065103D01*
X18659589Y10068959D01*
X18656279Y10108718D01*
X18655581Y10117105D01*
X18655400Y10119946D01*
X18654917Y10130826D01*
X18652784Y10178868D01*
X18652725Y10180716D01*
X18651817Y10228780D01*
X18651513Y10244834D01*
X18651500Y10246233D01*
X18651500Y15099000D01*
X18668813Y15146566D01*
X18712650Y15171876D01*
X18725500Y15173000D01*
X18975000Y15173000D01*
X18976971Y15173212D01*
X18976973Y15173212D01*
X19027022Y15178592D01*
X19027030Y15178593D01*
X19028990Y15178804D01*
X19055221Y15184510D01*
X19080373Y15189981D01*
X19080387Y15189984D01*
X19081332Y15190190D01*
X19107555Y15197384D01*
X19111571Y15199671D01*
X19111576Y15199673D01*
X19178581Y15237829D01*
X19179052Y15238097D01*
X19179231Y15238133D01*
X19179903Y15238582D01*
X19188030Y15243210D01*
X19188031Y15243210D01*
X19190518Y15244626D01*
X19190523Y15244630D01*
X19193676Y15246425D01*
X19197037Y15249337D01*
X19204373Y15254932D01*
X19245552Y15282448D01*
X19260614Y15304990D01*
X19268892Y15315262D01*
X19275098Y15321694D01*
X19278773Y15325502D01*
X19324709Y15413319D01*
X19344711Y15481440D01*
X19355000Y15553000D01*
X19355000Y17801000D01*
X19349196Y17854990D01*
X19337810Y17907332D01*
X19330616Y17933555D01*
X19328329Y17937571D01*
X19328327Y17937576D01*
X19290171Y18004581D01*
X19289903Y18005052D01*
X19289867Y18005231D01*
X19289418Y18005903D01*
X19284790Y18014031D01*
X19283374Y18016518D01*
X19283370Y18016523D01*
X19281575Y18019676D01*
X19278663Y18023037D01*
X19273064Y18030378D01*
X19249602Y18065491D01*
X19245552Y18071552D01*
X19223010Y18086614D01*
X19212738Y18094892D01*
X19206306Y18101098D01*
X19202498Y18104773D01*
X19114681Y18150709D01*
X19046560Y18170711D01*
X18975000Y18181000D01*
X17542463Y18181000D01*
X17494897Y18198313D01*
X17471804Y18233017D01*
X17199177Y19109317D01*
X17201577Y19159879D01*
X17235917Y19197069D01*
X17290684Y19202303D01*
X17355440Y19183289D01*
X17427000Y19173000D01*
X19102002Y19173000D01*
X19106062Y19172889D01*
X22733607Y18973573D01*
X22740564Y18973286D01*
X22747477Y18973096D01*
X22754455Y18973000D01*
X24695000Y18973000D01*
X24696971Y18973212D01*
X24696973Y18973212D01*
X24747022Y18978592D01*
X24747030Y18978593D01*
X24748990Y18978804D01*
X24772298Y18983874D01*
X24800373Y18989981D01*
X24800387Y18989984D01*
X24801332Y18990190D01*
X24827555Y18997384D01*
X24913676Y19046425D01*
X24945607Y19074093D01*
X24966098Y19091848D01*
X24966107Y19091857D01*
X24967332Y19092918D01*
X24998773Y19125502D01*
X25044709Y19213319D01*
X25064711Y19281440D01*
X25075000Y19353000D01*
X25075000Y22511000D01*
X25074788Y22512973D01*
X25069408Y22563022D01*
X25069407Y22563030D01*
X25069196Y22564990D01*
X25057810Y22617332D01*
X25050616Y22643555D01*
X25001575Y22729676D01*
X24986165Y22747460D01*
X24956152Y22782098D01*
X24956143Y22782107D01*
X24955082Y22783332D01*
X24922498Y22814773D01*
X24891477Y22831000D01*
X24837902Y22859024D01*
X24837903Y22859024D01*
X24834681Y22860709D01*
X24766560Y22880711D01*
X24695000Y22891000D01*
X22673440Y22891000D01*
X22660957Y22890385D01*
X22649380Y22889815D01*
X22649363Y22889814D01*
X22648475Y22889770D01*
X22623831Y22887336D01*
X22609712Y22885236D01*
X22599989Y22883790D01*
X22599977Y22883788D01*
X22599117Y22883660D01*
X22307037Y22825408D01*
X22241994Y22812436D01*
X19083085Y22182429D01*
X19068612Y22181000D01*
X17427000Y22181000D01*
X17425029Y22180788D01*
X17425027Y22180788D01*
X17374978Y22175408D01*
X17374970Y22175407D01*
X17373010Y22175196D01*
X17349702Y22170126D01*
X17321627Y22164019D01*
X17321613Y22164016D01*
X17320668Y22163810D01*
X17294445Y22156616D01*
X17290426Y22154327D01*
X17290425Y22154327D01*
X17245618Y22128812D01*
X17195716Y22120319D01*
X17152031Y22145889D01*
X17135000Y22193117D01*
X17135000Y22201000D01*
X17134788Y22202973D01*
X17129408Y22253022D01*
X17129407Y22253030D01*
X17129196Y22254990D01*
X17117810Y22307332D01*
X17110616Y22333555D01*
X17061575Y22419676D01*
X17025697Y22461082D01*
X17016152Y22472098D01*
X17016143Y22472107D01*
X17015082Y22473332D01*
X16982498Y22504773D01*
X16977142Y22507575D01*
X16897902Y22549024D01*
X16897903Y22549024D01*
X16894681Y22550709D01*
X16826560Y22570711D01*
X16755000Y22581000D01*
X16147000Y22581000D01*
X16145029Y22580788D01*
X16145027Y22580788D01*
X16094978Y22575408D01*
X16094970Y22575407D01*
X16093010Y22575196D01*
X16074116Y22571086D01*
X16041627Y22564019D01*
X16041613Y22564016D01*
X16040668Y22563810D01*
X16039723Y22563551D01*
X16039720Y22563550D01*
X16030994Y22561156D01*
X16014445Y22556616D01*
X16010426Y22554327D01*
X16010425Y22554327D01*
X15982932Y22538671D01*
X15928324Y22507575D01*
X15910540Y22492165D01*
X15875902Y22462152D01*
X15875893Y22462143D01*
X15874668Y22461082D01*
X15843227Y22428498D01*
X15840774Y22423808D01*
X15840773Y22423807D01*
X15838612Y22419676D01*
X15797291Y22340681D01*
X15777289Y22272560D01*
X15767000Y22201000D01*
X15767000Y19297397D01*
X15770264Y19256808D01*
X15776699Y19217056D01*
X15778407Y19210098D01*
X15785081Y19182914D01*
X15786407Y19177511D01*
X17031297Y15433114D01*
X17035946Y15420292D01*
X17040897Y15407702D01*
X17085315Y15334324D01*
X17096259Y15321694D01*
X17130738Y15281902D01*
X17130747Y15281893D01*
X17131808Y15280668D01*
X17132981Y15279537D01*
X17132983Y15279534D01*
X17159966Y15253498D01*
X17164392Y15249227D01*
X17169082Y15246774D01*
X17169083Y15246773D01*
X17210237Y15225246D01*
X17252209Y15203291D01*
X17320330Y15183289D01*
X17391890Y15173000D01*
X17676500Y15173000D01*
X17724066Y15155687D01*
X17749376Y15111850D01*
X17750500Y15099000D01*
X17750500Y10246755D01*
X17750487Y10245342D01*
X17749923Y10215792D01*
X17749258Y10181006D01*
X17749197Y10179106D01*
X17746561Y10120286D01*
X17746376Y10117414D01*
X17742355Y10069476D01*
X17741926Y10065594D01*
X17736506Y10026122D01*
X17735709Y10021441D01*
X17730216Y9994432D01*
X17703771Y9951270D01*
X17697238Y9946627D01*
X17692558Y9943669D01*
X17690094Y9942178D01*
X17656832Y9922927D01*
X17655911Y9922394D01*
X17650825Y9919709D01*
X17629865Y9909664D01*
X17629854Y9909658D01*
X17629848Y9909655D01*
X17629844Y9909652D01*
X17623147Y9906442D01*
X17615974Y9903456D01*
X17588533Y9893693D01*
X17580482Y9891334D01*
X17545495Y9883206D01*
X17537859Y9881850D01*
X17520876Y9879744D01*
X17507802Y9878124D01*
X17507801Y9878124D01*
X17488254Y9875700D01*
X17481826Y9875186D01*
X17447515Y9873947D01*
X17447498Y9873947D01*
X17422076Y9873028D01*
X17419404Y9872980D01*
X15505500Y9872980D01*
X15457934Y9890293D01*
X15432624Y9934130D01*
X15431500Y9946980D01*
X15431499Y11270492D01*
X15431499Y11274132D01*
X15429440Y11284487D01*
X15416937Y11347345D01*
X15416937Y11347346D01*
X15415515Y11354495D01*
X15411959Y11359817D01*
X15406500Y11387263D01*
X15406500Y12009739D01*
X15423813Y12057305D01*
X15428174Y12062065D01*
X16308832Y12942723D01*
X16313592Y12947084D01*
X16344194Y12972762D01*
X16364172Y13007366D01*
X16367638Y13012806D01*
X16386841Y13040230D01*
X16386842Y13040231D01*
X16390554Y13045533D01*
X16392229Y13051785D01*
X16394351Y13056335D01*
X16396639Y13061859D01*
X16398353Y13066570D01*
X16401588Y13072172D01*
X16405790Y13096001D01*
X16408524Y13111511D01*
X16409922Y13117816D01*
X16413350Y13130610D01*
X16420264Y13156410D01*
X16419682Y13163069D01*
X16416782Y13196212D01*
X16416500Y13202661D01*
X16416500Y16489571D01*
X16416782Y16496021D01*
X16419699Y16529358D01*
X16419699Y16529359D01*
X16420263Y16535807D01*
X16409923Y16574393D01*
X16408526Y16580695D01*
X16402712Y16613671D01*
X16402712Y16613672D01*
X16401588Y16620045D01*
X16398352Y16625650D01*
X16396643Y16630346D01*
X16394351Y16635879D01*
X16392229Y16640431D01*
X16390553Y16646684D01*
X16367640Y16679408D01*
X16364172Y16684852D01*
X16347432Y16713847D01*
X16347431Y16713848D01*
X16344194Y16719455D01*
X16339236Y16723615D01*
X16339232Y16723620D01*
X16313591Y16745135D01*
X16308831Y16749496D01*
X16253471Y16804856D01*
X16251616Y16806779D01*
X16216689Y16844324D01*
X16216684Y16844330D01*
X16210919Y16850527D01*
X16206733Y16855439D01*
X16176002Y16894867D01*
X16171560Y16901229D01*
X16152576Y16931701D01*
X16148545Y16939072D01*
X16136043Y16965385D01*
X16133090Y16972550D01*
X16122898Y17001506D01*
X16121204Y17006990D01*
X16111019Y17045165D01*
X16110331Y17047960D01*
X16098799Y17099089D01*
X16099059Y17099148D01*
X16099046Y17099213D01*
X16098785Y17099154D01*
X16092495Y17127000D01*
X16085073Y17159862D01*
X16084236Y17163413D01*
X16084148Y17163772D01*
X16083497Y17166354D01*
X16066222Y17232980D01*
X16064904Y17237815D01*
X16064738Y17238395D01*
X16064671Y17238618D01*
X16063255Y17243329D01*
X16063237Y17243386D01*
X16063206Y17243490D01*
X16061957Y17247454D01*
X16059167Y17260039D01*
X16056677Y17278956D01*
X16056676Y17278958D01*
X16056044Y17283762D01*
X15995536Y17429841D01*
X15992586Y17433685D01*
X15992584Y17433689D01*
X15902237Y17551431D01*
X15899282Y17555282D01*
X15895431Y17558237D01*
X15777689Y17648584D01*
X15777685Y17648586D01*
X15773841Y17651536D01*
X15627762Y17712044D01*
X15622960Y17712676D01*
X15622957Y17712677D01*
X15475808Y17732049D01*
X15471000Y17732682D01*
X15466192Y17732049D01*
X15319043Y17712677D01*
X15319040Y17712676D01*
X15314238Y17712044D01*
X15168159Y17651536D01*
X15164315Y17648586D01*
X15164311Y17648584D01*
X15046569Y17558237D01*
X15042718Y17555282D01*
X15039763Y17551431D01*
X14949416Y17433689D01*
X14949414Y17433685D01*
X14946464Y17429841D01*
X14885956Y17283762D01*
X14885324Y17278960D01*
X14885323Y17278957D01*
X14879270Y17232980D01*
X14865318Y17127000D01*
X14865951Y17122192D01*
X14881841Y17001497D01*
X14885956Y16970238D01*
X14946464Y16824159D01*
X14949414Y16820315D01*
X14949416Y16820311D01*
X15005508Y16747211D01*
X15042718Y16698718D01*
X15046569Y16695763D01*
X15164311Y16605416D01*
X15164315Y16605414D01*
X15168159Y16602464D01*
X15314238Y16541956D01*
X15319042Y16541324D01*
X15319044Y16541323D01*
X15327938Y16540152D01*
X15337964Y16538832D01*
X15350546Y16536043D01*
X15354510Y16534794D01*
X15354614Y16534763D01*
X15354671Y16534745D01*
X15359382Y16533329D01*
X15359605Y16533262D01*
X15360185Y16533096D01*
X15365020Y16531778D01*
X15365307Y16531704D01*
X15365328Y16531698D01*
X15374353Y16529358D01*
X15431646Y16514503D01*
X15434228Y16513852D01*
X15434257Y16513845D01*
X15434284Y16513838D01*
X15434335Y16513826D01*
X15434587Y16513764D01*
X15438138Y16512927D01*
X15498846Y16499215D01*
X15498737Y16498732D01*
X15498802Y16498717D01*
X15498911Y16499201D01*
X15550040Y16487669D01*
X15552835Y16486981D01*
X15591010Y16476796D01*
X15596494Y16475102D01*
X15625450Y16464910D01*
X15632615Y16461957D01*
X15658934Y16449451D01*
X15666299Y16445424D01*
X15696771Y16426440D01*
X15703134Y16421997D01*
X15736992Y16395607D01*
X15763865Y16352711D01*
X15765500Y16337242D01*
X15765500Y13350695D01*
X15748187Y13303129D01*
X15743826Y13298369D01*
X15392825Y12947368D01*
X15346949Y12925976D01*
X15298054Y12939077D01*
X15269020Y12980541D01*
X15266499Y12999694D01*
X15266499Y13133518D01*
X15251646Y13227304D01*
X15222848Y13283823D01*
X15196696Y13335150D01*
X15196694Y13335152D01*
X15194050Y13340342D01*
X15104342Y13430050D01*
X15099152Y13432694D01*
X15099150Y13432696D01*
X14996498Y13485000D01*
X14996495Y13485001D01*
X14991304Y13487646D01*
X14985552Y13488557D01*
X14985549Y13488558D01*
X14900392Y13502045D01*
X14897519Y13502500D01*
X14894610Y13502500D01*
X14591001Y13502499D01*
X14284482Y13502499D01*
X14281610Y13502044D01*
X14281608Y13502044D01*
X14249910Y13497024D01*
X14190696Y13487646D01*
X14134177Y13458848D01*
X14082850Y13432696D01*
X14082848Y13432694D01*
X14077658Y13430050D01*
X13987950Y13340342D01*
X13985306Y13335152D01*
X13985304Y13335150D01*
X13933000Y13232498D01*
X13930354Y13227304D01*
X13929443Y13221552D01*
X13929442Y13221549D01*
X13919109Y13156304D01*
X13915500Y13133519D01*
X13915501Y12942723D01*
X13915501Y12782004D01*
X13898188Y12734438D01*
X13854351Y12709128D01*
X13804501Y12717918D01*
X13775653Y12748240D01*
X13767146Y12764831D01*
X13765574Y12768090D01*
X13753080Y12795703D01*
X13746500Y12826208D01*
X13746500Y13210488D01*
X13739632Y13253850D01*
X13731631Y13304371D01*
X13731630Y13304374D01*
X13730719Y13310126D01*
X13728073Y13315320D01*
X13672174Y13425028D01*
X13672172Y13425030D01*
X13669528Y13430220D01*
X13574220Y13525528D01*
X13569030Y13528172D01*
X13569028Y13528174D01*
X13459320Y13584073D01*
X13459317Y13584074D01*
X13454126Y13586719D01*
X13448374Y13587630D01*
X13448371Y13587631D01*
X13357361Y13602045D01*
X13354488Y13602500D01*
X12787512Y13602500D01*
X12784639Y13602045D01*
X12693629Y13587631D01*
X12693626Y13587630D01*
X12687874Y13586719D01*
X12682683Y13584074D01*
X12682680Y13584073D01*
X12572972Y13528174D01*
X12572970Y13528172D01*
X12567780Y13525528D01*
X12472472Y13430220D01*
X12469828Y13425030D01*
X12469826Y13425028D01*
X12413927Y13315320D01*
X12411281Y13310126D01*
X12410370Y13304374D01*
X12410369Y13304371D01*
X12402368Y13253850D01*
X12395500Y13210488D01*
X12395500Y12693512D01*
X12395955Y12690639D01*
X12410369Y12599629D01*
X12410370Y12599626D01*
X12411281Y12593874D01*
X12413926Y12588683D01*
X12413927Y12588680D01*
X12469826Y12478972D01*
X12469828Y12478970D01*
X12472472Y12473780D01*
X12552721Y12393531D01*
X12574113Y12347655D01*
X12561012Y12298760D01*
X12519548Y12269726D01*
X12490737Y12267838D01*
X12480740Y12269154D01*
X12480738Y12269154D01*
X12475930Y12269787D01*
X12471122Y12269154D01*
X12323973Y12249782D01*
X12323970Y12249781D01*
X12319168Y12249149D01*
X12173089Y12188641D01*
X12147140Y12168729D01*
X12140229Y12164024D01*
X12098624Y12139014D01*
X12048938Y12129346D01*
X12004661Y12153878D01*
X11986500Y12202437D01*
X11986499Y12535609D01*
X11986499Y12538518D01*
X11971646Y12632304D01*
X11938977Y12696421D01*
X11916696Y12740150D01*
X11916694Y12740152D01*
X11914050Y12745342D01*
X11824342Y12835050D01*
X11819152Y12837694D01*
X11819150Y12837696D01*
X11716498Y12890000D01*
X11716495Y12890001D01*
X11711304Y12892646D01*
X11705549Y12893557D01*
X11700011Y12895357D01*
X11700870Y12898000D01*
X11665946Y12917358D01*
X11649713Y12949166D01*
X11646726Y12962027D01*
X11645369Y12969664D01*
X11643108Y12987902D01*
X11643108Y13006111D01*
X11645367Y13024332D01*
X11646725Y13031973D01*
X11649714Y13044839D01*
X11677341Y13087253D01*
X11700520Y13097075D01*
X11700011Y13098643D01*
X11705549Y13100443D01*
X11711304Y13101354D01*
X11780070Y13136392D01*
X11819150Y13156304D01*
X11819152Y13156306D01*
X11824342Y13158950D01*
X11914050Y13248658D01*
X11916694Y13253848D01*
X11916696Y13253850D01*
X11969000Y13356502D01*
X11969001Y13356505D01*
X11971646Y13361696D01*
X11972557Y13367448D01*
X11972558Y13367451D01*
X11986045Y13452608D01*
X11986500Y13455481D01*
X11986499Y13918518D01*
X11971646Y14012304D01*
X11922102Y14109539D01*
X11916696Y14120150D01*
X11916694Y14120152D01*
X11914050Y14125342D01*
X11824342Y14215050D01*
X11819152Y14217694D01*
X11819150Y14217696D01*
X11716498Y14270000D01*
X11716495Y14270001D01*
X11711304Y14272646D01*
X11705552Y14273557D01*
X11705549Y14273558D01*
X11620392Y14287045D01*
X11617519Y14287500D01*
X11614610Y14287500D01*
X11311001Y14287499D01*
X11004482Y14287499D01*
X11001610Y14287044D01*
X11001608Y14287044D01*
X10952389Y14279249D01*
X10902700Y14288908D01*
X10870845Y14328247D01*
X10871729Y14378858D01*
X10888488Y14404664D01*
X11017701Y14533877D01*
X11019140Y14535277D01*
X11061340Y14575247D01*
X11065009Y14578499D01*
X11107928Y14614066D01*
X11112734Y14617728D01*
X11147120Y14641778D01*
X11152898Y14645434D01*
X11182097Y14662071D01*
X11188156Y14665163D01*
X11217234Y14678356D01*
X11222492Y14680502D01*
X11257123Y14693111D01*
X11260607Y14694283D01*
X11275669Y14698934D01*
X11293665Y14704491D01*
X11305236Y14708064D01*
X11306499Y14708441D01*
X11361844Y14724402D01*
X11363519Y14724893D01*
X11363613Y14724921D01*
X11368115Y14726260D01*
X11368137Y14726266D01*
X11368145Y14726268D01*
X11392222Y14733430D01*
X11413321Y14736501D01*
X11617518Y14736501D01*
X11620390Y14736956D01*
X11620392Y14736956D01*
X11652090Y14741976D01*
X11711304Y14751354D01*
X11780070Y14786392D01*
X11819150Y14806304D01*
X11819152Y14806306D01*
X11824342Y14808950D01*
X11914050Y14898658D01*
X11930823Y14931575D01*
X11967842Y14966096D01*
X11989855Y14971656D01*
X12021284Y14974600D01*
X12026166Y14974895D01*
X12084287Y14976473D01*
X12086294Y14976500D01*
X13626024Y14976500D01*
X13673590Y14959187D01*
X13678350Y14954826D01*
X13787870Y14845306D01*
X13789271Y14843866D01*
X13829248Y14801657D01*
X13832499Y14797989D01*
X13868064Y14755073D01*
X13871720Y14750275D01*
X13895784Y14715870D01*
X13899431Y14710105D01*
X13905796Y14698934D01*
X13915500Y14662300D01*
X13915501Y14320482D01*
X13930354Y14226696D01*
X13934940Y14217696D01*
X13985304Y14118850D01*
X13985306Y14118848D01*
X13987950Y14113658D01*
X14077658Y14023950D01*
X14082848Y14021306D01*
X14082850Y14021304D01*
X14185502Y13969000D01*
X14185505Y13968999D01*
X14190696Y13966354D01*
X14196448Y13965443D01*
X14196451Y13965442D01*
X14281602Y13951956D01*
X14284481Y13951500D01*
X14591000Y13951500D01*
X14897518Y13951501D01*
X14900390Y13951956D01*
X14900392Y13951956D01*
X14932090Y13956976D01*
X14991304Y13966354D01*
X15081486Y14012304D01*
X15099150Y14021304D01*
X15099152Y14021306D01*
X15104342Y14023950D01*
X15194050Y14113658D01*
X15196694Y14118848D01*
X15196696Y14118850D01*
X15249000Y14221502D01*
X15249001Y14221505D01*
X15251646Y14226696D01*
X15252557Y14232448D01*
X15252558Y14232451D01*
X15266045Y14317608D01*
X15266500Y14320481D01*
X15266499Y14783518D01*
X15251646Y14877304D01*
X15222848Y14933823D01*
X15196696Y14985150D01*
X15196694Y14985152D01*
X15194050Y14990342D01*
X15104342Y15080050D01*
X15099152Y15082694D01*
X15099150Y15082696D01*
X14996498Y15135000D01*
X14996495Y15135001D01*
X14991304Y15137646D01*
X14985552Y15138557D01*
X14985549Y15138558D01*
X14900392Y15152045D01*
X14897519Y15152500D01*
X14693319Y15152500D01*
X14672223Y15155571D01*
X14643443Y15164131D01*
X14641844Y15164599D01*
X14586448Y15180575D01*
X14585270Y15180927D01*
X14573664Y15184510D01*
X14540612Y15194716D01*
X14537127Y15195888D01*
X14526732Y15199673D01*
X14502486Y15208501D01*
X14497250Y15210638D01*
X14468150Y15223840D01*
X14462094Y15226931D01*
X14432884Y15243575D01*
X14427107Y15247231D01*
X14424858Y15248804D01*
X14418139Y15253504D01*
X14418103Y15253531D01*
X14392733Y15271274D01*
X14387928Y15274935D01*
X14368298Y15291202D01*
X14344998Y15310510D01*
X14341351Y15313743D01*
X14299136Y15353727D01*
X14297697Y15355127D01*
X14093695Y15559129D01*
X14083854Y15571315D01*
X14079644Y15577835D01*
X14079642Y15577837D01*
X14076324Y15582976D01*
X14049158Y15604392D01*
X14042645Y15610179D01*
X14039734Y15613090D01*
X14037252Y15614864D01*
X14037248Y15614867D01*
X14023936Y15624380D01*
X14021147Y15626474D01*
X13982074Y15657277D01*
X13976301Y15659305D01*
X13974756Y15660154D01*
X13974139Y15660543D01*
X13974027Y15660600D01*
X13973355Y15660882D01*
X13971769Y15661659D01*
X13966791Y15665216D01*
X13919120Y15679473D01*
X13915804Y15680550D01*
X13908136Y15683243D01*
X13868838Y15697043D01*
X13863561Y15697500D01*
X13862323Y15697500D01*
X13857464Y15697911D01*
X13851808Y15699603D01*
X13845698Y15699363D01*
X13799736Y15697557D01*
X13796831Y15697500D01*
X12086304Y15697500D01*
X12084296Y15697527D01*
X12079036Y15697670D01*
X12026167Y15699106D01*
X12021284Y15699401D01*
X11989854Y15702345D01*
X11944109Y15724018D01*
X11930823Y15742423D01*
X11919565Y15764517D01*
X11911500Y15798111D01*
X11911500Y18879000D01*
X11928813Y18926566D01*
X11972650Y18951876D01*
X11985500Y18953000D01*
X14685000Y18953000D01*
X14686971Y18953212D01*
X14686973Y18953212D01*
X14737022Y18958592D01*
X14737030Y18958593D01*
X14738990Y18958804D01*
X14762298Y18963874D01*
X14790373Y18969981D01*
X14790387Y18969984D01*
X14791332Y18970190D01*
X14817555Y18977384D01*
X14903676Y19026425D01*
X14929502Y19048803D01*
X14956098Y19071848D01*
X14956107Y19071857D01*
X14957332Y19072918D01*
X14975598Y19091848D01*
X14985099Y19101694D01*
X14985100Y19101696D01*
X14988773Y19105502D01*
X15034709Y19193319D01*
X15054711Y19261440D01*
X15065000Y19333000D01*
X15065000Y23531000D01*
X15059196Y23584990D01*
X15047810Y23637332D01*
X15040616Y23663555D01*
X14991575Y23749676D01*
X14974262Y23769656D01*
X14946152Y23802098D01*
X14946143Y23802107D01*
X14945082Y23803332D01*
X14912498Y23834773D01*
X14824681Y23880709D01*
X14756560Y23900711D01*
X14685000Y23911000D01*
X10236129Y23911000D01*
X10186453Y23906095D01*
X10138119Y23896456D01*
X10136379Y23895927D01*
X10136372Y23895925D01*
X10092110Y23882462D01*
X10092103Y23882459D01*
X10090359Y23881929D01*
X10088678Y23881231D01*
X10088676Y23881230D01*
X7573974Y22836661D01*
X7545587Y22831000D01*
X3737000Y22831000D01*
X3735029Y22830788D01*
X3735027Y22830788D01*
X3684978Y22825408D01*
X3684970Y22825407D01*
X3683010Y22825196D01*
X3659702Y22820126D01*
X3631627Y22814019D01*
X3631613Y22814016D01*
X3630668Y22813810D01*
X3629723Y22813551D01*
X3629720Y22813550D01*
X3620994Y22811156D01*
X3604445Y22806616D01*
X3600426Y22804327D01*
X3600425Y22804327D01*
X3570340Y22787195D01*
X3533722Y22777500D01*
X3406076Y22777500D01*
X3404430Y22777353D01*
X3404428Y22777353D01*
X3295326Y22767616D01*
X3295321Y22767615D01*
X3291813Y22767302D01*
X3106194Y22714077D01*
X3102870Y22712339D01*
X2962764Y22639093D01*
X2935070Y22624615D01*
X2932164Y22622245D01*
X2932161Y22622243D01*
X2851695Y22556616D01*
X2785429Y22502571D01*
X2783059Y22499665D01*
X2665757Y22355839D01*
X2665755Y22355836D01*
X2663385Y22352930D01*
X2661647Y22349605D01*
X2661646Y22349604D01*
X2655159Y22337196D01*
X2573923Y22181806D01*
X2520698Y21996187D01*
X2510500Y21881924D01*
X2510500Y20272076D01*
X200000Y20272076D01*
X200000Y22955877D01*
X201882Y22972461D01*
X201953Y22972770D01*
X205143Y22986642D01*
X203303Y22994772D01*
X203311Y22999196D01*
X202187Y23014788D01*
X215844Y23188316D01*
X217661Y23199785D01*
X263442Y23390472D01*
X267030Y23401515D01*
X342080Y23582704D01*
X347352Y23593051D01*
X449819Y23760261D01*
X456640Y23769650D01*
X584011Y23918781D01*
X592220Y23926990D01*
X741350Y24054360D01*
X750739Y24061181D01*
X844867Y24118863D01*
X917953Y24163650D01*
X928296Y24168920D01*
X1109485Y24243970D01*
X1120528Y24247558D01*
X1215872Y24270449D01*
X1311219Y24293340D01*
X1322681Y24295155D01*
X1495750Y24308777D01*
X1509845Y24307735D01*
X1515519Y24307725D01*
X1523642Y24305857D01*
X1538305Y24309175D01*
X1554637Y24311000D01*
X25495877Y24311000D01*
X25512461Y24309118D01*
G37*
%TD.AperFunction*%
%TA.AperFunction,Conductor*%
G36*
X10613106Y14042802D02*
G01*
X10642140Y14001338D01*
X10643750Y13970609D01*
X10635500Y13918519D01*
X10635501Y13455482D01*
X10650354Y13361696D01*
X10673984Y13315320D01*
X10705304Y13253850D01*
X10705306Y13253848D01*
X10707950Y13248658D01*
X10797658Y13158950D01*
X10802848Y13156306D01*
X10802850Y13156304D01*
X10905502Y13104000D01*
X10905505Y13103999D01*
X10910696Y13101354D01*
X10916451Y13100443D01*
X10921989Y13098643D01*
X10921131Y13096001D01*
X10956060Y13076634D01*
X10972285Y13044839D01*
X10975274Y13031973D01*
X10976632Y13024332D01*
X10978891Y13006111D01*
X10978891Y12987902D01*
X10976630Y12969664D01*
X10975273Y12962027D01*
X10972286Y12949166D01*
X10944662Y12906750D01*
X10921480Y12896923D01*
X10921989Y12895357D01*
X10916451Y12893557D01*
X10910696Y12892646D01*
X10854177Y12863848D01*
X10802850Y12837696D01*
X10802848Y12837694D01*
X10797658Y12835050D01*
X10707950Y12745342D01*
X10705306Y12740152D01*
X10705304Y12740150D01*
X10655208Y12641831D01*
X10650354Y12632304D01*
X10649443Y12626552D01*
X10649442Y12626549D01*
X10635955Y12541392D01*
X10635500Y12538519D01*
X10635501Y12075482D01*
X10650354Y11981696D01*
X10664321Y11954285D01*
X10705304Y11873850D01*
X10705306Y11873848D01*
X10707950Y11868658D01*
X10797658Y11778950D01*
X10802848Y11776306D01*
X10802850Y11776304D01*
X10905502Y11724000D01*
X10905505Y11723999D01*
X10910696Y11721354D01*
X10916448Y11720443D01*
X10916451Y11720442D01*
X11001608Y11706955D01*
X11004481Y11706500D01*
X11215940Y11706500D01*
X11234512Y11704131D01*
X11271646Y11694503D01*
X11274228Y11693852D01*
X11274257Y11693845D01*
X11274284Y11693838D01*
X11274335Y11693826D01*
X11274587Y11693764D01*
X11278138Y11692927D01*
X11338846Y11679215D01*
X11338737Y11678732D01*
X11338802Y11678717D01*
X11338911Y11679201D01*
X11390040Y11667669D01*
X11392835Y11666981D01*
X11431010Y11656796D01*
X11436494Y11655102D01*
X11465450Y11644910D01*
X11472615Y11641957D01*
X11498934Y11629451D01*
X11506299Y11625424D01*
X11536771Y11606440D01*
X11543134Y11601997D01*
X11582554Y11571271D01*
X11587464Y11567087D01*
X11616786Y11539811D01*
X11619552Y11537238D01*
X11619555Y11537236D01*
X11631242Y11526364D01*
X11633165Y11524509D01*
X11711401Y11446273D01*
X11715762Y11441514D01*
X11741440Y11410911D01*
X11776044Y11390933D01*
X11781484Y11387467D01*
X11808908Y11368264D01*
X11814211Y11364551D01*
X11820463Y11362876D01*
X11825013Y11360754D01*
X11830537Y11358466D01*
X11835248Y11356752D01*
X11840850Y11353517D01*
X11847221Y11352394D01*
X11847223Y11352393D01*
X11870624Y11348267D01*
X11880192Y11346580D01*
X11886494Y11345183D01*
X11925088Y11334841D01*
X11924834Y11333894D01*
X11952823Y11323789D01*
X11962977Y11316759D01*
X11967222Y11313589D01*
X12003398Y11284487D01*
X12007523Y11280910D01*
X12018678Y11270492D01*
X12022561Y11266865D01*
X12030757Y11257835D01*
X12031364Y11257044D01*
X12041713Y11243558D01*
X12047648Y11235823D01*
X12051498Y11232869D01*
X12169241Y11142521D01*
X12169245Y11142519D01*
X12173089Y11139569D01*
X12319168Y11079061D01*
X12323970Y11078429D01*
X12323973Y11078428D01*
X12471122Y11059056D01*
X12475930Y11058423D01*
X12480738Y11059056D01*
X12627887Y11078428D01*
X12627890Y11078429D01*
X12632692Y11079061D01*
X12778771Y11139569D01*
X12782615Y11142519D01*
X12782619Y11142521D01*
X12900361Y11232868D01*
X12900362Y11232869D01*
X12904212Y11235823D01*
X12907417Y11240000D01*
X12997514Y11357416D01*
X12997516Y11357420D01*
X13000466Y11361264D01*
X13060974Y11507343D01*
X13062970Y11522499D01*
X13080979Y11659297D01*
X13081612Y11664105D01*
X13066841Y11776304D01*
X13061607Y11816062D01*
X13061606Y11816065D01*
X13060974Y11820867D01*
X13000466Y11966946D01*
X12997516Y11970790D01*
X12997514Y11970794D01*
X12907167Y12088536D01*
X12904212Y12092387D01*
X12855366Y12129868D01*
X12804639Y12168792D01*
X12777441Y12211483D01*
X12784048Y12261669D01*
X12821368Y12295867D01*
X12849687Y12301500D01*
X13013233Y12301500D01*
X13024396Y12300653D01*
X13040804Y12298149D01*
X13040826Y12298146D01*
X13041074Y12298108D01*
X13047211Y12297268D01*
X13047905Y12297184D01*
X13048085Y12297165D01*
X13048119Y12297161D01*
X13051019Y12296854D01*
X13053812Y12296558D01*
X13054131Y12296529D01*
X13054151Y12296527D01*
X13087614Y12293482D01*
X13087426Y12291415D01*
X13087428Y12291415D01*
X13087616Y12293482D01*
X13126706Y12289925D01*
X13126726Y12289923D01*
X13126862Y12289911D01*
X13127953Y12289815D01*
X13128070Y12289805D01*
X13128220Y12289792D01*
X13128237Y12289791D01*
X13128559Y12289764D01*
X13128933Y12289733D01*
X13128981Y12289729D01*
X13150259Y12288008D01*
X13150263Y12288008D01*
X13161131Y12287129D01*
X13187466Y12284999D01*
X13233482Y12263908D01*
X13255175Y12218173D01*
X13255500Y12211240D01*
X13255500Y11387263D01*
X13250040Y11359816D01*
X13246485Y11354495D01*
X13245063Y11347346D01*
X13232560Y11284487D01*
X13230500Y11274133D01*
X13230501Y9919868D01*
X13231211Y9916300D01*
X13231211Y9916297D01*
X13244334Y9850321D01*
X13246485Y9839505D01*
X13250533Y9833447D01*
X13253324Y9826708D01*
X13251145Y9825806D01*
X13260580Y9787247D01*
X13238192Y9741848D01*
X13215338Y9726936D01*
X13178159Y9711536D01*
X13168654Y9704242D01*
X13127857Y9672937D01*
X13126580Y9671980D01*
X13109769Y9659661D01*
X13078373Y9636654D01*
X13078184Y9636511D01*
X13078173Y9636503D01*
X13073778Y9633182D01*
X13073742Y9633154D01*
X13073653Y9633087D01*
X13073132Y9632681D01*
X13068501Y9628961D01*
X13019252Y9588175D01*
X13019174Y9588110D01*
X13017912Y9587055D01*
X13017824Y9586981D01*
X13002129Y9573750D01*
X12954602Y9556328D01*
X12906997Y9573532D01*
X12902107Y9578002D01*
X12129619Y10350490D01*
X12127954Y10352210D01*
X12083184Y10399974D01*
X12079430Y10404303D01*
X12043281Y10449410D01*
X12039276Y10454907D01*
X12015141Y10491453D01*
X12011437Y10497711D01*
X12005402Y10509154D01*
X11995046Y10528789D01*
X11986500Y10563310D01*
X11986499Y10885609D01*
X11986499Y10888518D01*
X11971646Y10982304D01*
X11938695Y11046973D01*
X11916696Y11090150D01*
X11916693Y11090154D01*
X11914050Y11095342D01*
X11824342Y11185050D01*
X11819152Y11187694D01*
X11819150Y11187696D01*
X11716498Y11240000D01*
X11716495Y11240001D01*
X11711304Y11242646D01*
X11705552Y11243557D01*
X11705549Y11243558D01*
X11620392Y11257045D01*
X11617519Y11257500D01*
X11614610Y11257500D01*
X11311001Y11257499D01*
X11004482Y11257499D01*
X11001610Y11257044D01*
X11001608Y11257044D01*
X10969910Y11252024D01*
X10910696Y11242646D01*
X10891508Y11232869D01*
X10802850Y11187696D01*
X10802848Y11187694D01*
X10797658Y11185050D01*
X10707950Y11095342D01*
X10705308Y11090157D01*
X10705306Y11090154D01*
X10700175Y11080083D01*
X10663155Y11045560D01*
X10642286Y11040116D01*
X10633690Y11039176D01*
X10606843Y11036240D01*
X10588858Y11036472D01*
X10561106Y11040234D01*
X10561105Y11040234D01*
X10561098Y11040235D01*
X10561095Y11040235D01*
X10535382Y11043721D01*
X10527117Y11045325D01*
X10504287Y11051121D01*
X10486342Y11055677D01*
X10477783Y11058413D01*
X10474639Y11059634D01*
X10435487Y11095020D01*
X10389528Y11185220D01*
X10294220Y11280528D01*
X10289030Y11283172D01*
X10289028Y11283174D01*
X10179320Y11339073D01*
X10179317Y11339074D01*
X10174126Y11341719D01*
X10168374Y11342630D01*
X10168371Y11342631D01*
X10077361Y11357045D01*
X10074488Y11357500D01*
X9507512Y11357500D01*
X9504639Y11357045D01*
X9413629Y11342631D01*
X9413626Y11342630D01*
X9407874Y11341719D01*
X9402683Y11339074D01*
X9402680Y11339073D01*
X9292972Y11283174D01*
X9292970Y11283172D01*
X9287780Y11280528D01*
X9192472Y11185220D01*
X9189829Y11180032D01*
X9189826Y11180028D01*
X9133927Y11070320D01*
X9131281Y11065126D01*
X9130370Y11059374D01*
X9130369Y11059371D01*
X9126706Y11036240D01*
X9115500Y10965488D01*
X9115500Y10448512D01*
X9115955Y10445639D01*
X9130369Y10354629D01*
X9130370Y10354626D01*
X9131281Y10348874D01*
X9133926Y10343683D01*
X9133927Y10343680D01*
X9189826Y10233972D01*
X9189828Y10233970D01*
X9192472Y10228780D01*
X9287780Y10133472D01*
X9292970Y10130828D01*
X9292972Y10130826D01*
X9402680Y10074927D01*
X9402683Y10074926D01*
X9407874Y10072281D01*
X9413626Y10071370D01*
X9413629Y10071369D01*
X9504639Y10056955D01*
X9507512Y10056500D01*
X10074488Y10056500D01*
X10077361Y10056955D01*
X10168371Y10071369D01*
X10168374Y10071370D01*
X10174126Y10072281D01*
X10179317Y10074926D01*
X10179320Y10074927D01*
X10289028Y10130826D01*
X10289030Y10130828D01*
X10294220Y10133472D01*
X10389528Y10228780D01*
X10429856Y10307927D01*
X10435488Y10318980D01*
X10474634Y10354365D01*
X10477783Y10355587D01*
X10486342Y10358324D01*
X10514009Y10365349D01*
X10527116Y10368676D01*
X10535383Y10370280D01*
X10550134Y10372280D01*
X10561095Y10373766D01*
X10561100Y10373766D01*
X10567100Y10374580D01*
X10573188Y10375405D01*
X10622648Y10364639D01*
X10648854Y10330932D01*
X10650354Y10331696D01*
X10705304Y10223850D01*
X10705306Y10223848D01*
X10707950Y10218658D01*
X10797658Y10128950D01*
X10802848Y10126306D01*
X10802850Y10126304D01*
X10905502Y10074000D01*
X10905505Y10073999D01*
X10910696Y10071354D01*
X10916448Y10070443D01*
X10916451Y10070442D01*
X11001608Y10056955D01*
X11004481Y10056500D01*
X11240513Y10056500D01*
X11254335Y10055198D01*
X11255416Y10054992D01*
X11255469Y10054982D01*
X11255576Y10054962D01*
X11270628Y10052268D01*
X11323436Y10042816D01*
X11323555Y10042795D01*
X11323594Y10042788D01*
X11325143Y10042518D01*
X11325290Y10042493D01*
X11325336Y10042485D01*
X11327291Y10042163D01*
X11327415Y10042143D01*
X11327606Y10042113D01*
X11327616Y10042111D01*
X11387266Y10032626D01*
X11388248Y10032463D01*
X11424937Y10026122D01*
X11428640Y10025482D01*
X11436196Y10024176D01*
X11440034Y10023408D01*
X11474853Y10015472D01*
X11481322Y10013685D01*
X11507211Y10005252D01*
X11515184Y10002134D01*
X11539084Y9991154D01*
X11546968Y9986937D01*
X11575844Y9969171D01*
X11582463Y9964585D01*
X11620895Y9934731D01*
X11625893Y9930480D01*
X11668936Y9890452D01*
X11670868Y9888589D01*
X12590289Y8969168D01*
X12594650Y8964409D01*
X12620328Y8933806D01*
X12654932Y8913828D01*
X12660372Y8910362D01*
X12693099Y8887446D01*
X12699351Y8885771D01*
X12703901Y8883649D01*
X12709425Y8881361D01*
X12714136Y8879647D01*
X12719738Y8876412D01*
X12726109Y8875289D01*
X12726111Y8875288D01*
X12749512Y8871162D01*
X12759080Y8869475D01*
X12765379Y8868079D01*
X12803976Y8857736D01*
X12824959Y8859572D01*
X12851491Y8857074D01*
X12875406Y8850329D01*
X12875597Y8850275D01*
X12877846Y8849655D01*
X12877987Y8849617D01*
X12878146Y8849574D01*
X12903859Y8842667D01*
X12903863Y8842666D01*
X12923574Y8837371D01*
X12927273Y8836274D01*
X12958581Y8826087D01*
X12966086Y8823184D01*
X12987383Y8813587D01*
X12996724Y8808543D01*
X13017004Y8795631D01*
X13025873Y8789002D01*
X13031172Y8784385D01*
X13041267Y8773641D01*
X13052718Y8758718D01*
X13056569Y8755763D01*
X13174311Y8665416D01*
X13174315Y8665414D01*
X13178159Y8662464D01*
X13314828Y8605854D01*
X13352148Y8571656D01*
X13358755Y8521471D01*
X13338835Y8485161D01*
X12863168Y8009494D01*
X12858409Y8005133D01*
X12827806Y7979455D01*
X12812543Y7953017D01*
X12807831Y7944856D01*
X12804362Y7939411D01*
X12785159Y7911987D01*
X12781446Y7906684D01*
X12779771Y7900432D01*
X12777649Y7895882D01*
X12775361Y7890358D01*
X12773647Y7885647D01*
X12770412Y7880045D01*
X12764282Y7845275D01*
X12763476Y7840706D01*
X12762079Y7834404D01*
X12751736Y7795807D01*
X12752300Y7789359D01*
X12752300Y7789358D01*
X12755218Y7756009D01*
X12755500Y7749559D01*
X12755500Y6987263D01*
X12750040Y6959816D01*
X12746485Y6954495D01*
X12745063Y6947346D01*
X12741894Y6931412D01*
X12730500Y6874133D01*
X12730500Y6870493D01*
X12730501Y5572479D01*
X12713188Y5524913D01*
X12708827Y5520153D01*
X11353170Y4164496D01*
X11351247Y4162641D01*
X11307473Y4121919D01*
X11302567Y4117739D01*
X11271467Y4093499D01*
X11263133Y4087003D01*
X11256771Y4082561D01*
X11226299Y4063577D01*
X11218934Y4059550D01*
X11192615Y4047044D01*
X11185450Y4044091D01*
X11156494Y4033899D01*
X11151010Y4032205D01*
X11112835Y4022020D01*
X11110040Y4021332D01*
X11058911Y4009800D01*
X11058852Y4010060D01*
X11058787Y4010047D01*
X11058846Y4009786D01*
X10998138Y3996074D01*
X10994587Y3995237D01*
X10994228Y3995149D01*
X10991646Y3994498D01*
X10991517Y3994465D01*
X10991507Y3994462D01*
X10954506Y3984868D01*
X10935933Y3982499D01*
X10724482Y3982499D01*
X10721610Y3982044D01*
X10721608Y3982044D01*
X10709018Y3980050D01*
X10630696Y3967646D01*
X10574177Y3938848D01*
X10522850Y3912696D01*
X10522848Y3912694D01*
X10517658Y3910050D01*
X10427950Y3820342D01*
X10425307Y3815154D01*
X10425305Y3815152D01*
X10390840Y3747511D01*
X10353820Y3712989D01*
X10333962Y3707663D01*
X10328609Y3707003D01*
X10328605Y3707002D01*
X10315256Y3705357D01*
X10297109Y3705364D01*
X10283911Y3707000D01*
X10268310Y3708934D01*
X10268309Y3708934D01*
X10248655Y3711370D01*
X10241035Y3712723D01*
X10228160Y3715715D01*
X10185747Y3743340D01*
X10175925Y3766520D01*
X10174357Y3766011D01*
X10172557Y3771550D01*
X10171646Y3777304D01*
X10142523Y3834461D01*
X10116696Y3885150D01*
X10116694Y3885152D01*
X10114050Y3890342D01*
X10024342Y3980050D01*
X10019152Y3982694D01*
X10019150Y3982696D01*
X9916498Y4035000D01*
X9916495Y4035001D01*
X9911304Y4037646D01*
X9905552Y4038557D01*
X9905549Y4038558D01*
X9820392Y4052045D01*
X9817519Y4052500D01*
X9814610Y4052500D01*
X9586001Y4052499D01*
X9354482Y4052499D01*
X9351610Y4052044D01*
X9351608Y4052044D01*
X9320082Y4047051D01*
X9260696Y4037646D01*
X9221283Y4017564D01*
X9152850Y3982696D01*
X9152848Y3982694D01*
X9147658Y3980050D01*
X9057950Y3890342D01*
X9055306Y3885152D01*
X9055304Y3885150D01*
X9003000Y3782498D01*
X9000354Y3777304D01*
X8999443Y3771552D01*
X8999442Y3771549D01*
X8989911Y3711369D01*
X8985500Y3683519D01*
X8985501Y3070482D01*
X8985956Y3067610D01*
X8985956Y3067608D01*
X8993751Y3018389D01*
X8984092Y2968700D01*
X8944753Y2936845D01*
X8894142Y2937729D01*
X8868336Y2954488D01*
X8739128Y3083696D01*
X8737727Y3085135D01*
X8697754Y3127339D01*
X8694503Y3131008D01*
X8658935Y3173928D01*
X8655273Y3178733D01*
X8631215Y3213131D01*
X8627569Y3218895D01*
X8610930Y3248097D01*
X8607837Y3254157D01*
X8594644Y3283235D01*
X8592498Y3288492D01*
X8587163Y3303146D01*
X8579887Y3323128D01*
X8578715Y3326613D01*
X8564948Y3371198D01*
X8564561Y3372495D01*
X8548649Y3427669D01*
X8548598Y3427846D01*
X8548130Y3429444D01*
X8543818Y3443942D01*
X8539570Y3458222D01*
X8536499Y3479320D01*
X8536499Y3683518D01*
X8533153Y3704649D01*
X8528713Y3732683D01*
X8521646Y3777304D01*
X8492523Y3834461D01*
X8466696Y3885150D01*
X8466694Y3885152D01*
X8464050Y3890342D01*
X8374342Y3980050D01*
X8344678Y3995165D01*
X8341424Y3996823D01*
X8306902Y4033844D01*
X8301343Y4055850D01*
X8298399Y4087289D01*
X8298105Y4092159D01*
X8296527Y4150287D01*
X8296500Y4152295D01*
X8296500Y6424126D01*
X8313813Y6471692D01*
X8357650Y6497002D01*
X8407500Y6488212D01*
X8415545Y6482836D01*
X8468159Y6442464D01*
X8614238Y6381956D01*
X8619040Y6381324D01*
X8619043Y6381323D01*
X8766192Y6361951D01*
X8771000Y6361318D01*
X8775808Y6361951D01*
X8922957Y6381323D01*
X8922960Y6381324D01*
X8927762Y6381956D01*
X9073841Y6442464D01*
X9077685Y6445414D01*
X9077689Y6445416D01*
X9195431Y6535763D01*
X9199282Y6538718D01*
X9202237Y6542569D01*
X9292584Y6660311D01*
X9292586Y6660315D01*
X9295536Y6664159D01*
X9356044Y6810238D01*
X9358710Y6830482D01*
X9376049Y6962192D01*
X9376682Y6967000D01*
X9356044Y7123762D01*
X9295536Y7269841D01*
X9292583Y7273689D01*
X9292581Y7273693D01*
X9280973Y7288821D01*
X9274046Y7299692D01*
X9272203Y7303232D01*
X9272189Y7303258D01*
X9272132Y7303368D01*
X9272083Y7303460D01*
X9272053Y7303516D01*
X9269800Y7307709D01*
X9269799Y7307711D01*
X9269692Y7307910D01*
X9269399Y7308439D01*
X9266834Y7312931D01*
X9231904Y7372318D01*
X9230049Y7375409D01*
X9229856Y7375724D01*
X9228421Y7378031D01*
X9217427Y7395438D01*
X9206667Y7444898D01*
X9227669Y7487277D01*
X9304050Y7563658D01*
X9306694Y7568848D01*
X9306696Y7568850D01*
X9359000Y7671502D01*
X9359001Y7671505D01*
X9361646Y7676696D01*
X9362557Y7682448D01*
X9362558Y7682451D01*
X9376045Y7767608D01*
X9376500Y7770481D01*
X9376499Y8383518D01*
X9361646Y8477304D01*
X9313571Y8571656D01*
X9306696Y8585150D01*
X9306694Y8585152D01*
X9304050Y8590342D01*
X9214342Y8680050D01*
X9209152Y8682694D01*
X9209150Y8682696D01*
X9106498Y8735000D01*
X9106495Y8735001D01*
X9101304Y8737646D01*
X9095552Y8738557D01*
X9095549Y8738558D01*
X9010392Y8752045D01*
X9007519Y8752500D01*
X9004610Y8752500D01*
X8776001Y8752499D01*
X8544482Y8752499D01*
X8541610Y8752044D01*
X8541608Y8752044D01*
X8509910Y8747024D01*
X8450696Y8737646D01*
X8404093Y8713901D01*
X8353854Y8707731D01*
X8311401Y8735300D01*
X8296500Y8779835D01*
X8296500Y11782024D01*
X8313813Y11829590D01*
X8318174Y11834350D01*
X10518335Y14034511D01*
X10564211Y14055903D01*
X10613106Y14042802D01*
G37*
%TD.AperFunction*%
%TD*%
M02*
