M48
; DRILL file {KiCad (6.0.1)} date Sun Mar 26 21:52:57 2023
; FORMAT={-:-/ absolute / metric / decimal}
; #@! TF.CreationDate,2023-03-26T21:52:57+08:00
; #@! TF.GenerationSoftware,Kicad,Pcbnew,(6.0.1)
; #@! TF.FileFunction,Plated,1,2,PTH
FMAT,2
METRIC
; #@! TA.AperFunction,Plated,PTH,ViaDrill
T1C0.400
; #@! TA.AperFunction,Plated,PTH,ComponentDrill
T2C1.800
%
G90
G05
T1
X6.051Y10.537
X6.611Y21.457
X6.611Y20.457
X8.111Y21.457
X8.111Y20.457
X8.771Y6.967
X9.611Y21.457
X9.611Y20.457
X10.511Y7.427
X11.111Y22.957
X11.111Y21.957
X11.111Y20.957
X11.111Y19.957
X12.111Y22.957
X12.111Y21.957
X12.111Y20.957
X12.111Y19.957
X12.476Y11.664
X13.111Y22.957
X13.111Y21.957
X13.111Y20.957
X13.111Y19.957
X13.481Y9.187
X14.111Y22.957
X14.111Y21.957
X14.111Y20.957
X14.111Y19.957
X15.471Y17.127
X15.711Y8.823
X16.451Y20.827
X16.451Y19.537
X16.461Y21.877
X17.111Y17.517
X18.201Y9.547
X18.201Y16.677
X19.381Y6.967
X20.381Y5.467
X20.881Y6.967
X21.881Y5.467
T2
X4.211Y21.077
X4.211Y16.077
X23.111Y20.927
X23.111Y15.927
T0
M30
