%TF.GenerationSoftware,KiCad,Pcbnew,(6.0.1)*%
%TF.CreationDate,2023-03-26T21:04:13+08:00*%
%TF.ProjectId,Solenoid valve,536f6c65-6e6f-4696-9420-76616c76652e,rev?*%
%TF.SameCoordinates,Original*%
%TF.FileFunction,Soldermask,Top*%
%TF.FilePolarity,Negative*%
%FSLAX46Y46*%
G04 Gerber Fmt 4.6, Leading zero omitted, Abs format (unit mm)*
G04 Created by KiCad (PCBNEW (6.0.1)) date 2023-03-26 21:04:13*
%MOMM*%
%LPD*%
G01*
G04 APERTURE LIST*
G04 Aperture macros list*
%AMRoundRect*
0 Rectangle with rounded corners*
0 $1 Rounding radius*
0 $2 $3 $4 $5 $6 $7 $8 $9 X,Y pos of 4 corners*
0 Add a 4 corners polygon primitive as box body*
4,1,4,$2,$3,$4,$5,$6,$7,$8,$9,$2,$3,0*
0 Add four circle primitives for the rounded corners*
1,1,$1+$1,$2,$3*
1,1,$1+$1,$4,$5*
1,1,$1+$1,$6,$7*
1,1,$1+$1,$8,$9*
0 Add four rect primitives between the rounded corners*
20,1,$1+$1,$2,$3,$4,$5,0*
20,1,$1+$1,$4,$5,$6,$7,0*
20,1,$1+$1,$6,$7,$8,$9,0*
20,1,$1+$1,$8,$9,$2,$3,0*%
%AMFreePoly0*
4,1,17,2.675000,1.605000,1.875000,1.605000,1.875000,0.935000,2.675000,0.935000,2.675000,0.335000,1.875000,0.335000,1.875000,-0.335000,2.675000,-0.335000,2.675000,-0.935000,1.875000,-0.935000,1.875000,-1.605000,2.675000,-1.605000,2.675000,-2.205000,-1.875000,-2.205000,-1.875000,2.205000,2.675000,2.205000,2.675000,1.605000,2.675000,1.605000,$1*%
G04 Aperture macros list end*
%ADD10RoundRect,0.218750X0.218750X0.256250X-0.218750X0.256250X-0.218750X-0.256250X0.218750X-0.256250X0*%
%ADD11RoundRect,0.137500X-0.662500X-0.137500X0.662500X-0.137500X0.662500X0.137500X-0.662500X0.137500X0*%
%ADD12C,2.700000*%
%ADD13RoundRect,0.150000X0.150000X-0.587500X0.150000X0.587500X-0.150000X0.587500X-0.150000X-0.587500X0*%
%ADD14R,3.000000X3.000000*%
%ADD15C,3.000000*%
%ADD16R,0.850000X0.500000*%
%ADD17FreePoly0,180.000000*%
%ADD18RoundRect,0.200000X0.200000X0.275000X-0.200000X0.275000X-0.200000X-0.275000X0.200000X-0.275000X0*%
%ADD19RoundRect,0.750000X0.750000X-0.750000X0.750000X0.750000X-0.750000X0.750000X-0.750000X-0.750000X0*%
%ADD20RoundRect,0.150000X-0.150000X-0.700000X0.150000X-0.700000X0.150000X0.700000X-0.150000X0.700000X0*%
%ADD21RoundRect,0.250000X-0.250000X-1.100000X0.250000X-1.100000X0.250000X1.100000X-0.250000X1.100000X0*%
G04 APERTURE END LIST*
D10*
%TO.C,D1*%
X24063500Y9547000D03*
X22488500Y9547000D03*
%TD*%
D11*
%TO.C,U1*%
X4401000Y11677000D03*
X4401000Y9137000D03*
X10901000Y9137000D03*
X10901000Y11677000D03*
%TD*%
D12*
%TO.C,H1*%
X2211000Y2147000D03*
%TD*%
D13*
%TO.C,Q1*%
X14761000Y9229500D03*
X16661000Y9229500D03*
X15711000Y11104500D03*
%TD*%
D14*
%TO.C,J2*%
X23111000Y15927000D03*
D15*
X23111000Y20927000D03*
%TD*%
D12*
%TO.C,H2*%
X24861000Y2157000D03*
%TD*%
D16*
%TO.C,Q2*%
X16451000Y23342000D03*
X16451000Y22072000D03*
X16451000Y20802000D03*
X16451000Y19532000D03*
D17*
X12901000Y21437000D03*
%TD*%
D18*
%TO.C,R11*%
X21081000Y9547000D03*
X19431000Y9547000D03*
%TD*%
D15*
%TO.C,J3*%
X4211000Y16077000D03*
D19*
X4211000Y21077000D03*
%TD*%
D20*
%TO.C,J1*%
X7126000Y5287000D03*
X8376000Y5287000D03*
D21*
X5276000Y2087000D03*
X10226000Y2087000D03*
%TD*%
G36*
X14713026Y22556946D02*
G01*
X14759567Y22503332D01*
X14771000Y22450887D01*
X14771000Y19693000D01*
X14750998Y19624879D01*
X14697342Y19578386D01*
X14645000Y19567000D01*
X3737000Y19567000D01*
X3668879Y19587002D01*
X3622386Y19640658D01*
X3611000Y19693000D01*
X3611000Y22441113D01*
X3631002Y22509234D01*
X3684658Y22555727D01*
X3736887Y22567113D01*
X14644887Y22576887D01*
X14713026Y22556946D01*
G37*
G36*
X24763121Y22616998D02*
G01*
X24809614Y22563342D01*
X24821000Y22511000D01*
X24821000Y19353000D01*
X24800998Y19284879D01*
X24747342Y19238386D01*
X24695000Y19227000D01*
X22754465Y19227000D01*
X22747533Y19227191D01*
X19122729Y19426905D01*
X19119272Y19427000D01*
X17427000Y19427000D01*
X17358879Y19447002D01*
X17312386Y19500658D01*
X17301000Y19553000D01*
X17301000Y21801000D01*
X17321002Y21869121D01*
X17374658Y21915614D01*
X17427000Y21927000D01*
X19084807Y21927000D01*
X19097072Y21928208D01*
X22648832Y22634580D01*
X22673409Y22637000D01*
X24695000Y22637000D01*
X24763121Y22616998D01*
G37*
M02*
