%TF.GenerationSoftware,KiCad,Pcbnew,(6.0.1)*%
%TF.CreationDate,2023-03-26T21:52:57+08:00*%
%TF.ProjectId,Solenoid valve,536f6c65-6e6f-4696-9420-76616c76652e,rev?*%
%TF.SameCoordinates,Original*%
%TF.FileFunction,Copper,L1,Top*%
%TF.FilePolarity,Positive*%
%FSLAX46Y46*%
G04 Gerber Fmt 4.6, Leading zero omitted, Abs format (unit mm)*
G04 Created by KiCad (PCBNEW (6.0.1)) date 2023-03-26 21:52:57*
%MOMM*%
%LPD*%
G01*
G04 APERTURE LIST*
G04 Aperture macros list*
%AMRoundRect*
0 Rectangle with rounded corners*
0 $1 Rounding radius*
0 $2 $3 $4 $5 $6 $7 $8 $9 X,Y pos of 4 corners*
0 Add a 4 corners polygon primitive as box body*
4,1,4,$2,$3,$4,$5,$6,$7,$8,$9,$2,$3,0*
0 Add four circle primitives for the rounded corners*
1,1,$1+$1,$2,$3*
1,1,$1+$1,$4,$5*
1,1,$1+$1,$6,$7*
1,1,$1+$1,$8,$9*
0 Add four rect primitives between the rounded corners*
20,1,$1+$1,$2,$3,$4,$5,0*
20,1,$1+$1,$4,$5,$6,$7,0*
20,1,$1+$1,$6,$7,$8,$9,0*
20,1,$1+$1,$8,$9,$2,$3,0*%
G04 Aperture macros list end*
%TA.AperFunction,SMDPad,CuDef*%
%ADD10RoundRect,0.137500X-0.662500X-0.137500X0.662500X-0.137500X0.662500X0.137500X-0.662500X0.137500X0*%
%TD*%
%TA.AperFunction,SMDPad,CuDef*%
%ADD11RoundRect,0.150000X0.150000X-0.587500X0.150000X0.587500X-0.150000X0.587500X-0.150000X-0.587500X0*%
%TD*%
%TA.AperFunction,ComponentPad*%
%ADD12R,3.000000X3.000000*%
%TD*%
%TA.AperFunction,ComponentPad*%
%ADD13C,3.000000*%
%TD*%
%TA.AperFunction,SMDPad,CuDef*%
%ADD14R,0.850000X0.500000*%
%TD*%
%TA.AperFunction,SMDPad,CuDef*%
%ADD15R,4.550000X4.410000*%
%TD*%
%TA.AperFunction,SMDPad,CuDef*%
%ADD16RoundRect,0.200000X0.200000X0.275000X-0.200000X0.275000X-0.200000X-0.275000X0.200000X-0.275000X0*%
%TD*%
%TA.AperFunction,SMDPad,CuDef*%
%ADD17RoundRect,0.218750X0.218750X0.256250X-0.218750X0.256250X-0.218750X-0.256250X0.218750X-0.256250X0*%
%TD*%
%TA.AperFunction,ComponentPad*%
%ADD18RoundRect,0.750000X0.750000X-0.750000X0.750000X0.750000X-0.750000X0.750000X-0.750000X-0.750000X0*%
%TD*%
%TA.AperFunction,SMDPad,CuDef*%
%ADD19RoundRect,0.150000X-0.150000X-0.700000X0.150000X-0.700000X0.150000X0.700000X-0.150000X0.700000X0*%
%TD*%
%TA.AperFunction,SMDPad,CuDef*%
%ADD20RoundRect,0.250000X-0.250000X-1.100000X0.250000X-1.100000X0.250000X1.100000X-0.250000X1.100000X0*%
%TD*%
%TA.AperFunction,ViaPad*%
%ADD21C,0.800000*%
%TD*%
%TA.AperFunction,Conductor*%
%ADD22C,0.250000*%
%TD*%
G04 APERTURE END LIST*
D10*
%TO.P,U1,1*%
%TO.N,Net-(R12-Pad1)*%
X4401000Y11677000D03*
%TO.P,U1,2*%
%TO.N,Net-(J1-Pad1)*%
X4401000Y9137000D03*
%TO.P,U1,3*%
%TO.N,GND*%
X10901000Y9137000D03*
%TO.P,U1,4*%
%TO.N,Net-(R1-Pad1)*%
X10901000Y11677000D03*
%TD*%
D11*
%TO.P,Q1,1,Base*%
%TO.N,Net-(C1-Pad1)*%
X14761000Y9229500D03*
%TO.P,Q1,2,Emitter*%
%TO.N,GND*%
X16661000Y9229500D03*
%TO.P,Q1,3,Collector*%
%TO.N,Net-(Q1-Pad3)*%
X15711000Y11104500D03*
%TD*%
D12*
%TO.P,J2,1,Pin_2*%
%TO.N,GND*%
X23111000Y15927000D03*
D13*
%TO.P,J2,2,Pin_1*%
%TO.N,Net-(D2-Pad1)*%
X23111000Y20927000D03*
%TD*%
D14*
%TO.P,Q2,1,S*%
%TO.N,Net-(D2-Pad2)*%
X16451000Y19532000D03*
%TO.P,Q2,2,S*%
X16451000Y20802000D03*
%TO.P,Q2,3,S*%
X16451000Y22072000D03*
%TO.P,Q2,4,G*%
%TO.N,Net-(Q2-Pad4)*%
X16451000Y23342000D03*
D15*
%TO.P,Q2,5,D*%
%TO.N,+24V*%
X12501000Y21437000D03*
%TD*%
D16*
%TO.P,R11,1*%
%TO.N,Net-(D1-Pad2)*%
X21081000Y9547000D03*
%TO.P,R11,2*%
%TO.N,Net-(D2-Pad2)*%
X19431000Y9547000D03*
%TD*%
D17*
%TO.P,D1,1,K*%
%TO.N,GND*%
X24063500Y9547000D03*
%TO.P,D1,2,A*%
%TO.N,Net-(D1-Pad2)*%
X22488500Y9547000D03*
%TD*%
D18*
%TO.P,J3,1,Pin_1*%
%TO.N,+24V*%
X4211000Y21077000D03*
D13*
%TO.P,J3,2,Pin_2*%
%TO.N,GND*%
X4211000Y16077000D03*
%TD*%
D19*
%TO.P,J1,1,Pin_1*%
%TO.N,Net-(J1-Pad1)*%
X7126000Y5287000D03*
%TO.P,J1,2,Pin_2*%
%TO.N,Net-(J1-Pad2)*%
X8376000Y5287000D03*
D20*
%TO.P,J1,MP*%
%TO.N,N/C*%
X5276000Y2087000D03*
X10226000Y2087000D03*
%TD*%
D21*
%TO.N,+24V*%
X9611000Y20457000D03*
X12111000Y20957000D03*
X8111000Y20457000D03*
X14111000Y21957000D03*
X11111000Y20957000D03*
X11111000Y19957000D03*
X13111000Y21957000D03*
X14111000Y19957000D03*
X14111000Y22957000D03*
X13111000Y22957000D03*
X12111000Y22957000D03*
X13111000Y20957000D03*
X12111000Y19957000D03*
X8111000Y21457000D03*
X11111000Y21957000D03*
X6611000Y20457000D03*
X9611000Y21457000D03*
X13111000Y19957000D03*
X6611000Y21457000D03*
X11111000Y22957000D03*
X14111000Y20957000D03*
X12111000Y21957000D03*
%TO.N,Net-(R1-Pad1)*%
X12475930Y11664105D03*
%TO.N,Net-(J1-Pad2)*%
X8771000Y6967000D03*
%TO.N,GND*%
X19381000Y6967000D03*
X10511000Y7427000D03*
X21881000Y5467000D03*
X20881000Y6967000D03*
X20381000Y5467000D03*
%TO.N,Net-(C1-Pad1)*%
X13481000Y9187000D03*
%TO.N,Net-(Q1-Pad3)*%
X15711021Y8822980D03*
%TO.N,Net-(Q2-Pad4)*%
X15471000Y17127000D03*
%TO.N,Net-(R12-Pad1)*%
X6051000Y10537000D03*
%TO.N,Net-(D2-Pad2)*%
X16451000Y19537000D03*
X18201000Y16677000D03*
X16461000Y21877000D03*
X16451000Y20827000D03*
X17111000Y17517000D03*
X18200520Y9547480D03*
%TD*%
D22*
%TO.N,Net-(R1-Pad1)*%
X12475930Y11664105D02*
X10913895Y11664105D01*
X10913895Y11664105D02*
X10901000Y11677000D01*
%TO.N,Net-(J1-Pad1)*%
X4401000Y9137000D02*
X4941000Y9137000D01*
X7126000Y6952000D02*
X7126000Y5287000D01*
X4941000Y9137000D02*
X7126000Y6952000D01*
%TO.N,Net-(J1-Pad2)*%
X8376000Y6572000D02*
X8771000Y6967000D01*
X8376000Y5287000D02*
X8376000Y6572000D01*
%TO.N,Net-(C1-Pad1)*%
X13481000Y9187000D02*
X14718500Y9187000D01*
%TO.N,Net-(D1-Pad2)*%
X21081000Y9547000D02*
X22488500Y9547000D01*
%TO.N,Net-(Q1-Pad3)*%
X15711021Y8822980D02*
X15711021Y11104479D01*
%TO.N,Net-(Q2-Pad4)*%
X15471000Y17737000D02*
X15471000Y17127000D01*
X16451000Y23342000D02*
X16266000Y23342000D01*
X16266000Y23342000D02*
X15471000Y22547000D01*
X16396978Y23342000D02*
X16451000Y23342000D01*
X15471000Y22547000D02*
X15471000Y17737000D01*
%TO.N,Net-(R12-Pad1)*%
X4401000Y11677000D02*
X4911000Y11677000D01*
X4911000Y11677000D02*
X6051000Y10537000D01*
%TO.N,Net-(D2-Pad2)*%
X18201000Y9547000D02*
X18200520Y9547480D01*
X19431000Y9547000D02*
X18201000Y9547000D01*
%TD*%
%TA.AperFunction,Conductor*%
%TO.N,Net-(D2-Pad2)*%
G36*
X18382768Y9903375D02*
G01*
X18444943Y9870913D01*
X18445469Y9870621D01*
X18504803Y9835645D01*
X18505116Y9835454D01*
X18557725Y9802177D01*
X18606465Y9771344D01*
X18606554Y9771288D01*
X18606604Y9771259D01*
X18606627Y9771245D01*
X18632756Y9756114D01*
X18654566Y9743484D01*
X18654771Y9743386D01*
X18654778Y9743382D01*
X18704589Y9719503D01*
X18704594Y9719501D01*
X18704865Y9719371D01*
X18760555Y9699559D01*
X18824738Y9684654D01*
X18900519Y9675265D01*
X18991000Y9672000D01*
X18991000Y9422000D01*
X18900431Y9418737D01*
X18824576Y9409354D01*
X18815864Y9407335D01*
X18815863Y9407335D01*
X18814560Y9407033D01*
X18814559Y9407033D01*
X18799987Y9403655D01*
X18760326Y9394462D01*
X18760013Y9394351D01*
X18760010Y9394350D01*
X18704863Y9374774D01*
X18704573Y9374671D01*
X18654209Y9350594D01*
X18606125Y9322839D01*
X18606038Y9322784D01*
X18557214Y9292018D01*
X18557210Y9292016D01*
X18532745Y9276611D01*
X18504495Y9258823D01*
X18504234Y9258664D01*
X18446081Y9224562D01*
X18444742Y9223777D01*
X18444214Y9223486D01*
X18381892Y9191138D01*
X18372970Y9190368D01*
X18368382Y9193099D01*
X18300189Y9258839D01*
X18009280Y9539281D01*
X18005702Y9547490D01*
X18009300Y9556147D01*
X18130070Y9672000D01*
X18369253Y9901447D01*
X18377596Y9904701D01*
X18382768Y9903375D01*
G37*
%TD.AperFunction*%
%TD*%
%TA.AperFunction,Conductor*%
%TO.N,Net-(D2-Pad2)*%
G36*
X19262703Y9901174D02*
G01*
X19426566Y9743595D01*
X19490372Y9682236D01*
X19622231Y9555433D01*
X19625819Y9547229D01*
X19622231Y9538567D01*
X19262703Y9192826D01*
X19254365Y9189561D01*
X19249191Y9190881D01*
X19186994Y9223264D01*
X19186465Y9223557D01*
X19177739Y9228689D01*
X19127061Y9258497D01*
X19126785Y9258667D01*
X19074190Y9291882D01*
X19074188Y9291885D01*
X19074187Y9291884D01*
X19025437Y9322690D01*
X19025427Y9322696D01*
X19025359Y9322739D01*
X18977352Y9350524D01*
X18977150Y9350621D01*
X18977144Y9350624D01*
X18927339Y9374494D01*
X18927064Y9374626D01*
X18871389Y9394436D01*
X18871277Y9394462D01*
X18815863Y9407335D01*
X18815862Y9407335D01*
X18807222Y9409342D01*
X18731461Y9418734D01*
X18641000Y9422000D01*
X18641000Y9672000D01*
X18731461Y9675267D01*
X18807222Y9684659D01*
X18871389Y9699565D01*
X18927064Y9719375D01*
X18946766Y9728818D01*
X18977144Y9743377D01*
X18977150Y9743380D01*
X18977352Y9743477D01*
X19025359Y9771262D01*
X19074187Y9802117D01*
X19126785Y9835334D01*
X19127061Y9835504D01*
X19186465Y9870444D01*
X19186994Y9870737D01*
X19194879Y9874842D01*
X19249191Y9903119D01*
X19258111Y9903900D01*
X19262703Y9901174D01*
G37*
%TD.AperFunction*%
%TD*%
%TA.AperFunction,Conductor*%
%TO.N,Net-(R1-Pad1)*%
G36*
X12307633Y12018279D02*
G01*
X12667161Y11672538D01*
X12670749Y11664334D01*
X12667161Y11655672D01*
X12307633Y11309931D01*
X12299295Y11306666D01*
X12294121Y11307986D01*
X12231924Y11340369D01*
X12231395Y11340662D01*
X12222669Y11345794D01*
X12171991Y11375602D01*
X12171715Y11375772D01*
X12119120Y11408987D01*
X12119118Y11408990D01*
X12119117Y11408989D01*
X12070367Y11439795D01*
X12070357Y11439801D01*
X12070289Y11439844D01*
X12022282Y11467629D01*
X12022080Y11467726D01*
X12022074Y11467729D01*
X11972269Y11491599D01*
X11971994Y11491731D01*
X11916319Y11511541D01*
X11890487Y11517542D01*
X11852454Y11526377D01*
X11852451Y11526377D01*
X11852152Y11526447D01*
X11851843Y11526485D01*
X11851839Y11526486D01*
X11807816Y11531943D01*
X11776391Y11535839D01*
X11720800Y11537846D01*
X11697208Y11538698D01*
X11689064Y11542421D01*
X11685930Y11550390D01*
X11685930Y11777820D01*
X11689357Y11786093D01*
X11697208Y11789512D01*
X11730142Y11790702D01*
X11776391Y11792372D01*
X11807816Y11796268D01*
X11851839Y11801725D01*
X11851843Y11801726D01*
X11852152Y11801764D01*
X11852451Y11801834D01*
X11852454Y11801834D01*
X11916000Y11816596D01*
X11915998Y11816596D01*
X11916319Y11816670D01*
X11971994Y11836480D01*
X11991696Y11845923D01*
X12022074Y11860482D01*
X12022080Y11860485D01*
X12022282Y11860582D01*
X12070289Y11888367D01*
X12119117Y11919222D01*
X12171715Y11952439D01*
X12171991Y11952609D01*
X12231395Y11987549D01*
X12231924Y11987842D01*
X12239809Y11991947D01*
X12294121Y12020224D01*
X12303041Y12021005D01*
X12307633Y12018279D01*
G37*
%TD.AperFunction*%
%TD*%
%TA.AperFunction,Conductor*%
%TO.N,Net-(R1-Pad1)*%
G36*
X11039207Y11914821D02*
G01*
X11076866Y11894064D01*
X11116501Y11871971D01*
X11152696Y11852500D01*
X11187226Y11835644D01*
X11221867Y11821399D01*
X11222073Y11821333D01*
X11222074Y11821333D01*
X11258156Y11809833D01*
X11258160Y11809832D01*
X11258395Y11809757D01*
X11298586Y11800713D01*
X11344216Y11794260D01*
X11344392Y11794247D01*
X11344393Y11794247D01*
X11353782Y11793560D01*
X11397060Y11790393D01*
X11397223Y11790390D01*
X11397236Y11790389D01*
X11420859Y11789897D01*
X11447440Y11789344D01*
X11455639Y11785746D01*
X11458895Y11777647D01*
X11458895Y11550589D01*
X11455468Y11542316D01*
X11447413Y11538891D01*
X11394652Y11537908D01*
X11339804Y11534338D01*
X11339654Y11534319D01*
X11339640Y11534318D01*
X11299549Y11529316D01*
X11292435Y11528428D01*
X11292249Y11528391D01*
X11292240Y11528390D01*
X11250840Y11520252D01*
X11250837Y11520251D01*
X11250632Y11520211D01*
X11250436Y11520157D01*
X11250427Y11520155D01*
X11229431Y11514381D01*
X11212480Y11509720D01*
X11212283Y11509651D01*
X11212273Y11509648D01*
X11191996Y11502558D01*
X11176064Y11496987D01*
X11139470Y11482046D01*
X11100784Y11464929D01*
X11058090Y11445669D01*
X11023047Y11430265D01*
X11017005Y11427609D01*
X11008052Y11427417D01*
X11003812Y11430265D01*
X10889588Y11550589D01*
X10772019Y11674438D01*
X10768808Y11682796D01*
X10772787Y11691286D01*
X11025843Y11913368D01*
X11034320Y11916249D01*
X11039207Y11914821D01*
G37*
%TD.AperFunction*%
%TD*%
%TA.AperFunction,Conductor*%
%TO.N,Net-(J1-Pad1)*%
G36*
X4601705Y9326627D02*
G01*
X4635760Y9300329D01*
X4659572Y9290889D01*
X4676370Y9284229D01*
X4676372Y9284229D01*
X4677044Y9283962D01*
X4677763Y9283868D01*
X4708470Y9279856D01*
X4719284Y9278443D01*
X4746865Y9279346D01*
X4762255Y9279849D01*
X4762262Y9279849D01*
X4762461Y9279856D01*
X4783511Y9281972D01*
X4806407Y9284274D01*
X4806659Y9284297D01*
X4842107Y9287087D01*
X4850915Y9287780D01*
X4852153Y9287812D01*
X4896329Y9286590D01*
X4898445Y9286336D01*
X4935359Y9278443D01*
X4942762Y9276860D01*
X4945342Y9275984D01*
X4990387Y9254549D01*
X4992725Y9253075D01*
X5029900Y9222958D01*
X5034171Y9215089D01*
X5031626Y9206503D01*
X5030808Y9205595D01*
X4870545Y9045332D01*
X4862272Y9041905D01*
X4855061Y9044391D01*
X4826052Y9067094D01*
X4825275Y9067702D01*
X4824340Y9068018D01*
X4824339Y9068019D01*
X4813604Y9071652D01*
X4790116Y9079602D01*
X4757007Y9076666D01*
X4756082Y9076235D01*
X4756081Y9076235D01*
X4738440Y9068019D01*
X4725211Y9061858D01*
X4724717Y9061483D01*
X4724716Y9061482D01*
X4698954Y9041905D01*
X4693995Y9038137D01*
X4662623Y9008466D01*
X4662554Y9008396D01*
X4662520Y9008363D01*
X4630465Y8975914D01*
X4630265Y8975715D01*
X4596806Y8943441D01*
X4596106Y8942818D01*
X4560859Y8913888D01*
X4559503Y8912928D01*
X4531153Y8895736D01*
X4528562Y8894165D01*
X4519711Y8892805D01*
X4514385Y8895736D01*
X4274642Y9126285D01*
X4271054Y9134489D01*
X4274319Y9142828D01*
X4276838Y9144813D01*
X4588640Y9327462D01*
X4597511Y9328687D01*
X4601705Y9326627D01*
G37*
%TD.AperFunction*%
%TD*%
%TA.AperFunction,Conductor*%
%TO.N,Net-(J1-Pad1)*%
G36*
X7247870Y5873573D02*
G01*
X7251293Y5865601D01*
X7252711Y5810478D01*
X7257731Y5754014D01*
X7265883Y5705554D01*
X7276994Y5663042D01*
X7290888Y5624422D01*
X7307391Y5587640D01*
X7307457Y5587510D01*
X7307458Y5587509D01*
X7326309Y5550676D01*
X7326328Y5550638D01*
X7347500Y5511408D01*
X7347525Y5511362D01*
X7370753Y5467858D01*
X7370880Y5467612D01*
X7392270Y5425167D01*
X7392933Y5416237D01*
X7390255Y5411792D01*
X7134433Y5145769D01*
X7126229Y5142181D01*
X7117567Y5145769D01*
X6861745Y5411792D01*
X6858480Y5420131D01*
X6859730Y5425167D01*
X6881119Y5467612D01*
X6881246Y5467858D01*
X6904449Y5511316D01*
X6904474Y5511362D01*
X6925671Y5550638D01*
X6925690Y5550676D01*
X6944541Y5587509D01*
X6944542Y5587510D01*
X6944608Y5587640D01*
X6961111Y5624422D01*
X6975005Y5663042D01*
X6986116Y5705554D01*
X6994268Y5754014D01*
X6999288Y5810478D01*
X7000707Y5865601D01*
X7004345Y5873783D01*
X7012403Y5877000D01*
X7239597Y5877000D01*
X7247870Y5873573D01*
G37*
%TD.AperFunction*%
%TD*%
%TA.AperFunction,Conductor*%
%TO.N,Net-(J1-Pad2)*%
G36*
X8906335Y7103289D02*
G01*
X8911741Y7096151D01*
X8912119Y7092966D01*
X8902767Y6614541D01*
X8902438Y6597731D01*
X8898850Y6589527D01*
X8894040Y6586736D01*
X8844622Y6572214D01*
X8843824Y6572009D01*
X8786696Y6559508D01*
X8786369Y6559442D01*
X8752750Y6553084D01*
X8730632Y6548902D01*
X8677793Y6537971D01*
X8677586Y6537913D01*
X8677584Y6537912D01*
X8629775Y6524397D01*
X8629771Y6524396D01*
X8629387Y6524287D01*
X8586760Y6505451D01*
X8586242Y6505066D01*
X8586237Y6505063D01*
X8558309Y6484303D01*
X8551261Y6479064D01*
X8524236Y6442729D01*
X8523946Y6441907D01*
X8523945Y6441906D01*
X8516254Y6420139D01*
X8507033Y6394045D01*
X8506965Y6393327D01*
X8502007Y6341207D01*
X8497813Y6333296D01*
X8490360Y6330615D01*
X8263150Y6330615D01*
X8254877Y6334042D01*
X8251458Y6342756D01*
X8254342Y6419166D01*
X8254420Y6420139D01*
X8263419Y6494075D01*
X8263583Y6495066D01*
X8265683Y6505063D01*
X8276830Y6558145D01*
X8277044Y6559001D01*
X8293161Y6614541D01*
X8293333Y6615084D01*
X8310967Y6666375D01*
X8311000Y6666470D01*
X8328713Y6716580D01*
X8328760Y6716712D01*
X8345079Y6768714D01*
X8358520Y6825648D01*
X8367640Y6890686D01*
X8370620Y6958378D01*
X8374408Y6966491D01*
X8379350Y6969181D01*
X8853249Y7092965D01*
X8897464Y7104514D01*
X8906335Y7103289D01*
G37*
%TD.AperFunction*%
%TD*%
%TA.AperFunction,Conductor*%
%TO.N,Net-(J1-Pad2)*%
G36*
X8497870Y5873573D02*
G01*
X8501293Y5865601D01*
X8502711Y5810478D01*
X8507731Y5754014D01*
X8515883Y5705554D01*
X8526994Y5663042D01*
X8540888Y5624422D01*
X8557391Y5587640D01*
X8557457Y5587510D01*
X8557458Y5587509D01*
X8576309Y5550676D01*
X8576328Y5550638D01*
X8597500Y5511408D01*
X8597525Y5511362D01*
X8620753Y5467858D01*
X8620880Y5467612D01*
X8642270Y5425167D01*
X8642933Y5416237D01*
X8640255Y5411792D01*
X8384433Y5145769D01*
X8376229Y5142181D01*
X8367567Y5145769D01*
X8111745Y5411792D01*
X8108480Y5420131D01*
X8109730Y5425167D01*
X8131119Y5467612D01*
X8131246Y5467858D01*
X8154449Y5511316D01*
X8154474Y5511362D01*
X8175671Y5550638D01*
X8175690Y5550676D01*
X8194541Y5587509D01*
X8194542Y5587510D01*
X8194608Y5587640D01*
X8211111Y5624422D01*
X8225005Y5663042D01*
X8236116Y5705554D01*
X8244268Y5754014D01*
X8249288Y5810478D01*
X8250707Y5865601D01*
X8254345Y5873783D01*
X8262403Y5877000D01*
X8489597Y5877000D01*
X8497870Y5873573D01*
G37*
%TD.AperFunction*%
%TD*%
%TA.AperFunction,Conductor*%
%TO.N,Net-(C1-Pad1)*%
G36*
X13662808Y9543119D02*
G01*
X13717828Y9514473D01*
X13725005Y9510737D01*
X13725534Y9510444D01*
X13784938Y9475504D01*
X13785214Y9475334D01*
X13837809Y9442119D01*
X13837811Y9442116D01*
X13837812Y9442117D01*
X13886640Y9411262D01*
X13934647Y9383477D01*
X13934849Y9383380D01*
X13934855Y9383377D01*
X13965233Y9368818D01*
X13984935Y9359375D01*
X14040610Y9339565D01*
X14040931Y9339491D01*
X14040929Y9339491D01*
X14104475Y9324729D01*
X14104478Y9324729D01*
X14104777Y9324659D01*
X14105086Y9324621D01*
X14105090Y9324620D01*
X14149113Y9319163D01*
X14180538Y9315267D01*
X14213508Y9314076D01*
X14222342Y9313757D01*
X14222346Y9313757D01*
X14222539Y9313750D01*
X14222541Y9313750D01*
X14271000Y9312000D01*
X14271000Y9062000D01*
X14180538Y9058734D01*
X14164244Y9056714D01*
X14105090Y9049381D01*
X14105086Y9049380D01*
X14104777Y9049342D01*
X14104478Y9049272D01*
X14104475Y9049272D01*
X14066442Y9040437D01*
X14040610Y9034436D01*
X13984935Y9014626D01*
X13984660Y9014494D01*
X13934855Y8990624D01*
X13934849Y8990621D01*
X13934647Y8990524D01*
X13886640Y8962739D01*
X13837812Y8931884D01*
X13785214Y8898667D01*
X13784938Y8898497D01*
X13734260Y8868689D01*
X13725534Y8863557D01*
X13725005Y8863264D01*
X13662809Y8830881D01*
X13653889Y8830100D01*
X13649298Y8832825D01*
X13289769Y9178567D01*
X13286181Y9186771D01*
X13289769Y9195433D01*
X13649297Y9541174D01*
X13657636Y9544439D01*
X13662808Y9543119D01*
G37*
%TD.AperFunction*%
%TD*%
%TA.AperFunction,Conductor*%
%TO.N,Net-(C1-Pad1)*%
G36*
X14600621Y9473847D02*
G01*
X14819787Y9315299D01*
X14899684Y9257500D01*
X14904378Y9249874D01*
X14902030Y9240798D01*
X14698741Y8981743D01*
X14674185Y8950451D01*
X14666382Y8946058D01*
X14661225Y8946593D01*
X14639992Y8953791D01*
X14611724Y8963374D01*
X14611541Y8963439D01*
X14570297Y8978619D01*
X14561811Y8981743D01*
X14561682Y8981792D01*
X14517172Y8998775D01*
X14517150Y8998783D01*
X14517137Y8998788D01*
X14475611Y9014205D01*
X14475581Y9014216D01*
X14475534Y9014233D01*
X14475484Y9014250D01*
X14475449Y9014262D01*
X14434696Y9027865D01*
X14434694Y9027866D01*
X14434546Y9027915D01*
X14391896Y9039601D01*
X14391706Y9039640D01*
X14391696Y9039642D01*
X14370394Y9043969D01*
X14345276Y9049072D01*
X14292376Y9056108D01*
X14272740Y9057508D01*
X14231047Y9060480D01*
X14231031Y9060481D01*
X14230887Y9060491D01*
X14230745Y9060494D01*
X14230722Y9060494D01*
X14158500Y9062000D01*
X14158500Y9312000D01*
X14222537Y9313750D01*
X14222539Y9313750D01*
X14222720Y9313755D01*
X14222723Y9313755D01*
X14222809Y9313757D01*
X14222822Y9313758D01*
X14223009Y9313763D01*
X14277903Y9319009D01*
X14310943Y9325083D01*
X14324747Y9327620D01*
X14324750Y9327621D01*
X14325040Y9327674D01*
X14352882Y9335789D01*
X14365987Y9339608D01*
X14365990Y9339609D01*
X14366278Y9339693D01*
X14366557Y9339808D01*
X14366566Y9339811D01*
X14403215Y9354896D01*
X14403218Y9354897D01*
X14403477Y9355004D01*
X14438495Y9373541D01*
X14443461Y9376647D01*
X14473102Y9395185D01*
X14473112Y9395192D01*
X14473191Y9395241D01*
X14509425Y9420041D01*
X14549055Y9447875D01*
X14587142Y9474014D01*
X14595903Y9475870D01*
X14600621Y9473847D01*
G37*
%TD.AperFunction*%
%TD*%
%TA.AperFunction,Conductor*%
%TO.N,Net-(D1-Pad2)*%
G36*
X21262808Y9903119D02*
G01*
X21317828Y9874473D01*
X21325005Y9870737D01*
X21325534Y9870444D01*
X21384938Y9835504D01*
X21385214Y9835334D01*
X21437809Y9802119D01*
X21437811Y9802116D01*
X21437812Y9802117D01*
X21486640Y9771262D01*
X21534647Y9743477D01*
X21534849Y9743380D01*
X21534855Y9743377D01*
X21565233Y9728818D01*
X21584935Y9719375D01*
X21640610Y9699565D01*
X21653563Y9696556D01*
X21704475Y9684729D01*
X21704478Y9684729D01*
X21704777Y9684659D01*
X21705086Y9684621D01*
X21705090Y9684620D01*
X21720345Y9682729D01*
X21780538Y9675267D01*
X21871000Y9672000D01*
X21871000Y9422000D01*
X21780538Y9418734D01*
X21720345Y9411272D01*
X21705090Y9409381D01*
X21705086Y9409380D01*
X21704777Y9409342D01*
X21704478Y9409272D01*
X21704475Y9409272D01*
X21673253Y9402019D01*
X21640610Y9394436D01*
X21584935Y9374626D01*
X21584660Y9374494D01*
X21534855Y9350624D01*
X21534849Y9350621D01*
X21534647Y9350524D01*
X21486640Y9322739D01*
X21437812Y9291884D01*
X21385214Y9258667D01*
X21384938Y9258497D01*
X21334260Y9228689D01*
X21325534Y9223557D01*
X21325005Y9223264D01*
X21262809Y9190881D01*
X21253889Y9190100D01*
X21249298Y9192825D01*
X20889769Y9538567D01*
X20886181Y9546771D01*
X20889769Y9555433D01*
X21010807Y9671829D01*
X21085434Y9743595D01*
X21249297Y9901174D01*
X21257636Y9904439D01*
X21262808Y9903119D01*
G37*
%TD.AperFunction*%
%TD*%
%TA.AperFunction,Conductor*%
%TO.N,Net-(D1-Pad2)*%
G36*
X22303876Y9934906D02*
G01*
X22573273Y9675840D01*
X22698481Y9555433D01*
X22702069Y9547229D01*
X22698481Y9538567D01*
X22381251Y9233502D01*
X22303876Y9159094D01*
X22295537Y9155829D01*
X22290333Y9157165D01*
X22220499Y9193784D01*
X22219908Y9194116D01*
X22154331Y9233502D01*
X22153984Y9233719D01*
X22096145Y9271492D01*
X22042738Y9306778D01*
X22042728Y9306784D01*
X22042683Y9306814D01*
X21990257Y9338809D01*
X21970597Y9348801D01*
X21935646Y9366565D01*
X21935641Y9366567D01*
X21935362Y9366709D01*
X21935067Y9366821D01*
X21935064Y9366822D01*
X21874819Y9389624D01*
X21874494Y9389747D01*
X21804148Y9407153D01*
X21720818Y9418161D01*
X21621000Y9422000D01*
X21621000Y9672000D01*
X21720818Y9675840D01*
X21804148Y9686848D01*
X21874494Y9704254D01*
X21874819Y9704377D01*
X21935064Y9727179D01*
X21935067Y9727180D01*
X21935362Y9727292D01*
X21935641Y9727434D01*
X21935646Y9727436D01*
X21990052Y9755088D01*
X21990257Y9755192D01*
X22042683Y9787187D01*
X22042728Y9787217D01*
X22042738Y9787223D01*
X22096145Y9822509D01*
X22096197Y9822543D01*
X22153984Y9860282D01*
X22154331Y9860499D01*
X22219908Y9899885D01*
X22220499Y9900217D01*
X22290333Y9936835D01*
X22299251Y9937642D01*
X22303876Y9934906D01*
G37*
%TD.AperFunction*%
%TD*%
%TA.AperFunction,Conductor*%
%TO.N,Net-(Q1-Pad3)*%
G36*
X15833009Y9609553D02*
G01*
X15836428Y9601702D01*
X15839287Y9522519D01*
X15848679Y9446758D01*
X15863585Y9382591D01*
X15883395Y9326916D01*
X15907497Y9276628D01*
X15935282Y9228621D01*
X15935325Y9228553D01*
X15935331Y9228543D01*
X15966137Y9179793D01*
X15966139Y9179790D01*
X15999341Y9127217D01*
X15999534Y9126902D01*
X16034464Y9067515D01*
X16034757Y9066986D01*
X16067140Y9004789D01*
X16067921Y8995868D01*
X16065196Y8991278D01*
X15719454Y8631749D01*
X15711250Y8628161D01*
X15702588Y8631749D01*
X15356847Y8991277D01*
X15353582Y8999616D01*
X15354902Y9004790D01*
X15387284Y9066986D01*
X15387577Y9067515D01*
X15422507Y9126902D01*
X15422700Y9127217D01*
X15455902Y9179790D01*
X15455905Y9179792D01*
X15455904Y9179793D01*
X15486710Y9228543D01*
X15486716Y9228553D01*
X15486759Y9228621D01*
X15514544Y9276628D01*
X15538646Y9326916D01*
X15558456Y9382591D01*
X15573362Y9446758D01*
X15582754Y9522519D01*
X15585614Y9601702D01*
X15589337Y9609846D01*
X15597306Y9612980D01*
X15824736Y9612980D01*
X15833009Y9609553D01*
G37*
%TD.AperFunction*%
%TD*%
%TA.AperFunction,Conductor*%
%TO.N,Net-(Q1-Pad3)*%
G36*
X15719424Y11245730D02*
G01*
X15975265Y10979726D01*
X15978529Y10971389D01*
X15977280Y10966352D01*
X15955865Y10923851D01*
X15955737Y10923606D01*
X15932562Y10880194D01*
X15932538Y10880148D01*
X15911371Y10840923D01*
X15911317Y10840820D01*
X15896222Y10811319D01*
X15892407Y10803863D01*
X15875905Y10767077D01*
X15875832Y10766873D01*
X15875830Y10766869D01*
X15871785Y10755624D01*
X15862012Y10728454D01*
X15850903Y10685938D01*
X15842751Y10637475D01*
X15837732Y10581007D01*
X15837727Y10580824D01*
X15837727Y10580819D01*
X15836314Y10525878D01*
X15832676Y10517696D01*
X15824618Y10514479D01*
X15597424Y10514479D01*
X15589151Y10517906D01*
X15585728Y10525878D01*
X15584314Y10580815D01*
X15584314Y10580820D01*
X15584309Y10581003D01*
X15579289Y10637467D01*
X15571137Y10685928D01*
X15560027Y10728441D01*
X15546132Y10767061D01*
X15546037Y10767274D01*
X15529679Y10803731D01*
X15529675Y10803740D01*
X15529628Y10803844D01*
X15510690Y10840845D01*
X15489491Y10880121D01*
X15466270Y10923606D01*
X15466269Y10923608D01*
X15466142Y10923853D01*
X15444740Y10966313D01*
X15444076Y10975243D01*
X15446754Y10979688D01*
X15702558Y11245729D01*
X15710762Y11249318D01*
X15719424Y11245730D01*
G37*
%TD.AperFunction*%
%TD*%
%TA.AperFunction,Conductor*%
%TO.N,Net-(Q2-Pad4)*%
G36*
X15592976Y17923573D02*
G01*
X15596396Y17915710D01*
X15599219Y17835220D01*
X15608490Y17758287D01*
X15623235Y17693069D01*
X15642872Y17636432D01*
X15666823Y17585243D01*
X15694508Y17536368D01*
X15694558Y17536288D01*
X15725329Y17486707D01*
X15725339Y17486691D01*
X15725348Y17486676D01*
X15758682Y17433161D01*
X15758858Y17432868D01*
X15794028Y17372550D01*
X15794305Y17372047D01*
X15827133Y17308805D01*
X15827903Y17299884D01*
X15825182Y17295305D01*
X15479433Y16935769D01*
X15471229Y16932181D01*
X15462567Y16935769D01*
X15116818Y17295305D01*
X15113553Y17303644D01*
X15114867Y17308805D01*
X15147697Y17372053D01*
X15147968Y17372545D01*
X15183141Y17432868D01*
X15183317Y17433161D01*
X15216651Y17486676D01*
X15216660Y17486691D01*
X15216670Y17486707D01*
X15247441Y17536288D01*
X15247491Y17536368D01*
X15275176Y17585243D01*
X15299127Y17636432D01*
X15318764Y17693069D01*
X15333509Y17758287D01*
X15342780Y17835220D01*
X15345604Y17915710D01*
X15349319Y17923858D01*
X15357297Y17927000D01*
X15584703Y17927000D01*
X15592976Y17923573D01*
G37*
%TD.AperFunction*%
%TD*%
%TA.AperFunction,Conductor*%
%TO.N,Net-(Q2-Pad4)*%
G36*
X16281706Y23515114D02*
G01*
X16560488Y23378675D01*
X16566413Y23371960D01*
X16565854Y23363023D01*
X16565293Y23362007D01*
X16405441Y23103823D01*
X16398172Y23098593D01*
X16393342Y23098481D01*
X16367666Y23103283D01*
X16367663Y23103283D01*
X16367532Y23103308D01*
X16367406Y23103325D01*
X16367390Y23103328D01*
X16344612Y23106473D01*
X16336462Y23107599D01*
X16307443Y23109409D01*
X16307151Y23109397D01*
X16307145Y23109397D01*
X16280284Y23108286D01*
X16280278Y23108285D01*
X16279907Y23108270D01*
X16253284Y23103711D01*
X16252899Y23103587D01*
X16252894Y23103586D01*
X16227388Y23095387D01*
X16227385Y23095386D01*
X16227006Y23095264D01*
X16226650Y23095092D01*
X16226645Y23095090D01*
X16214035Y23088996D01*
X16200504Y23082458D01*
X16173210Y23064825D01*
X16144556Y23041894D01*
X16122237Y23020951D01*
X16113860Y23017789D01*
X16105959Y23021210D01*
X15945490Y23181679D01*
X15942063Y23189952D01*
X15945510Y23198246D01*
X15983489Y23236037D01*
X15983534Y23236081D01*
X16023340Y23275264D01*
X16023386Y23275309D01*
X16058196Y23309198D01*
X16058237Y23309238D01*
X16089362Y23339246D01*
X16089390Y23339273D01*
X16118195Y23366860D01*
X16118202Y23366866D01*
X16146001Y23393449D01*
X16174158Y23420487D01*
X16174209Y23420536D01*
X16204014Y23449423D01*
X16236920Y23481703D01*
X16268316Y23512904D01*
X16276599Y23516305D01*
X16281706Y23515114D01*
G37*
%TD.AperFunction*%
%TD*%
%TA.AperFunction,Conductor*%
%TO.N,Net-(R12-Pad1)*%
G36*
X4601724Y11866495D02*
G01*
X4635359Y11839889D01*
X4657307Y11830186D01*
X4675327Y11822220D01*
X4675330Y11822219D01*
X4675934Y11821952D01*
X4702020Y11816939D01*
X4716795Y11814099D01*
X4716797Y11814099D01*
X4717233Y11814015D01*
X4717675Y11813999D01*
X4717680Y11813998D01*
X4759121Y11812455D01*
X4759122Y11812455D01*
X4759310Y11812448D01*
X4759493Y11812453D01*
X4759495Y11812453D01*
X4770164Y11812745D01*
X4802121Y11813618D01*
X4802332Y11813622D01*
X4823458Y11813759D01*
X4845433Y11813902D01*
X4846611Y11813850D01*
X4889769Y11809766D01*
X4891724Y11809412D01*
X4902846Y11806402D01*
X4935312Y11797614D01*
X4937614Y11796720D01*
X4972190Y11778870D01*
X4982185Y11773710D01*
X4984269Y11772335D01*
X5021286Y11741762D01*
X5025482Y11733851D01*
X5022856Y11725290D01*
X5022108Y11724468D01*
X4861793Y11564153D01*
X4853520Y11560726D01*
X4846265Y11563247D01*
X4818692Y11585040D01*
X4818689Y11585042D01*
X4817961Y11585617D01*
X4817089Y11585937D01*
X4817087Y11585938D01*
X4784932Y11597735D01*
X4784930Y11597735D01*
X4783865Y11598126D01*
X4782733Y11598086D01*
X4782731Y11598086D01*
X4752494Y11597009D01*
X4752493Y11597009D01*
X4751514Y11596974D01*
X4750601Y11596619D01*
X4750598Y11596618D01*
X4734199Y11590236D01*
X4720275Y11584817D01*
X4689517Y11564312D01*
X4658611Y11538113D01*
X4658540Y11538048D01*
X4658527Y11538036D01*
X4645772Y11526267D01*
X4626923Y11508876D01*
X4606401Y11490512D01*
X4594124Y11479526D01*
X4593507Y11479011D01*
X4559268Y11452370D01*
X4558049Y11451539D01*
X4528527Y11434040D01*
X4519663Y11432770D01*
X4514451Y11435672D01*
X4359127Y11585040D01*
X4274642Y11666285D01*
X4271054Y11674489D01*
X4274319Y11682828D01*
X4276838Y11684813D01*
X4588554Y11867412D01*
X4597425Y11868637D01*
X4601724Y11866495D01*
G37*
%TD.AperFunction*%
%TD*%
%TA.AperFunction,Conductor*%
%TO.N,Net-(R12-Pad1)*%
G36*
X5589037Y11176315D02*
G01*
X5619812Y11147686D01*
X5647050Y11122347D01*
X5647236Y11122202D01*
X5647243Y11122196D01*
X5707019Y11075605D01*
X5707024Y11075602D01*
X5707262Y11075416D01*
X5707523Y11075253D01*
X5707525Y11075252D01*
X5762890Y11040761D01*
X5762897Y11040757D01*
X5763175Y11040584D01*
X5816550Y11015223D01*
X5816836Y11015122D01*
X5816844Y11015119D01*
X5868931Y10996785D01*
X5869153Y10996707D01*
X5922745Y10982408D01*
X5979085Y10969701D01*
X5979089Y10969698D01*
X5979089Y10969700D01*
X6039797Y10955988D01*
X6040156Y10955900D01*
X6106781Y10938625D01*
X6107362Y10938459D01*
X6174254Y10917373D01*
X6181114Y10911617D01*
X6182434Y10906443D01*
X6192183Y10407744D01*
X6188918Y10399405D01*
X6180256Y10395817D01*
X5681557Y10405566D01*
X5673353Y10409154D01*
X5670627Y10413746D01*
X5649541Y10480638D01*
X5649375Y10481219D01*
X5632100Y10547844D01*
X5632012Y10548203D01*
X5618300Y10608911D01*
X5618301Y10608911D01*
X5618299Y10608915D01*
X5605623Y10665117D01*
X5605592Y10665255D01*
X5591293Y10718847D01*
X5591215Y10719069D01*
X5572881Y10771156D01*
X5572878Y10771164D01*
X5572777Y10771450D01*
X5547416Y10824825D01*
X5547243Y10825103D01*
X5547239Y10825110D01*
X5512748Y10880475D01*
X5512747Y10880477D01*
X5512584Y10880738D01*
X5488516Y10911617D01*
X5465804Y10940757D01*
X5465798Y10940764D01*
X5465653Y10940950D01*
X5427085Y10982408D01*
X5411685Y10998963D01*
X5408559Y11007354D01*
X5411978Y11015205D01*
X5572795Y11176022D01*
X5581068Y11179449D01*
X5589037Y11176315D01*
G37*
%TD.AperFunction*%
%TD*%
%TA.AperFunction,Conductor*%
%TO.N,Net-(D1-Pad2)*%
G36*
X22303876Y9934906D02*
G01*
X22573273Y9675840D01*
X22698481Y9555433D01*
X22702069Y9547229D01*
X22698481Y9538567D01*
X22381251Y9233502D01*
X22303876Y9159094D01*
X22295537Y9155829D01*
X22290333Y9157165D01*
X22220499Y9193784D01*
X22219908Y9194116D01*
X22154331Y9233502D01*
X22153984Y9233719D01*
X22096145Y9271492D01*
X22042738Y9306778D01*
X22042728Y9306784D01*
X22042683Y9306814D01*
X21990257Y9338809D01*
X21970597Y9348801D01*
X21935646Y9366565D01*
X21935641Y9366567D01*
X21935362Y9366709D01*
X21935067Y9366821D01*
X21935064Y9366822D01*
X21874819Y9389624D01*
X21874494Y9389747D01*
X21804148Y9407153D01*
X21720818Y9418161D01*
X21621000Y9422000D01*
X21621000Y9672000D01*
X21720818Y9675840D01*
X21804148Y9686848D01*
X21874494Y9704254D01*
X21874819Y9704377D01*
X21935064Y9727179D01*
X21935067Y9727180D01*
X21935362Y9727292D01*
X21935641Y9727434D01*
X21935646Y9727436D01*
X21990052Y9755088D01*
X21990257Y9755192D01*
X22042683Y9787187D01*
X22042728Y9787217D01*
X22042738Y9787223D01*
X22096145Y9822509D01*
X22096197Y9822543D01*
X22153984Y9860282D01*
X22154331Y9860499D01*
X22219908Y9899885D01*
X22220499Y9900217D01*
X22290333Y9936835D01*
X22299251Y9937642D01*
X22303876Y9934906D01*
G37*
%TD.AperFunction*%
%TD*%
%TA.AperFunction,Conductor*%
%TO.N,+24V*%
G36*
X14753121Y23636998D02*
G01*
X14799614Y23583342D01*
X14811000Y23531000D01*
X14811000Y19333000D01*
X14790998Y19264879D01*
X14737342Y19218386D01*
X14685000Y19207000D01*
X10219919Y19207000D01*
X10202167Y19208257D01*
X7615408Y19576373D01*
X7615404Y19576373D01*
X7611000Y19577000D01*
X3737000Y19577000D01*
X3668879Y19597002D01*
X3622386Y19650658D01*
X3611000Y19703000D01*
X3611000Y22451000D01*
X3631002Y22519121D01*
X3684658Y22565614D01*
X3737000Y22577000D01*
X7611000Y22577000D01*
X7622487Y22581772D01*
X7622489Y22581772D01*
X10187795Y23647361D01*
X10236129Y23657000D01*
X14685000Y23657000D01*
X14753121Y23636998D01*
G37*
%TD.AperFunction*%
%TD*%
%TA.AperFunction,Conductor*%
%TO.N,Net-(D2-Pad1)*%
G36*
X24763121Y22616998D02*
G01*
X24809614Y22563342D01*
X24821000Y22511000D01*
X24821000Y19353000D01*
X24800998Y19284879D01*
X24747342Y19238386D01*
X24695000Y19227000D01*
X22754455Y19227000D01*
X22747542Y19227190D01*
X19112717Y19426906D01*
X19112705Y19426906D01*
X19111000Y19427000D01*
X17427000Y19427000D01*
X17358879Y19447002D01*
X17312386Y19500658D01*
X17301000Y19553000D01*
X17301000Y21801000D01*
X17321002Y21869121D01*
X17374658Y21915614D01*
X17427000Y21927000D01*
X19101000Y21927000D01*
X22291673Y22563342D01*
X22648796Y22634566D01*
X22673440Y22637000D01*
X24695000Y22637000D01*
X24763121Y22616998D01*
G37*
%TD.AperFunction*%
%TD*%
%TA.AperFunction,Conductor*%
%TO.N,Net-(D2-Pad2)*%
G36*
X16823121Y22306998D02*
G01*
X16869614Y22253342D01*
X16881000Y22201000D01*
X16881000Y19277000D01*
X17301000Y17927000D01*
X18975000Y17927000D01*
X19043121Y17906998D01*
X19089614Y17853342D01*
X19101000Y17801000D01*
X19101000Y15553000D01*
X19080998Y15484879D01*
X19027342Y15438386D01*
X18975000Y15427000D01*
X17391890Y15427000D01*
X17323769Y15447002D01*
X17277276Y15500658D01*
X17272325Y15513248D01*
X16027435Y19257645D01*
X16021000Y19297397D01*
X16021000Y22201000D01*
X16041002Y22269121D01*
X16094658Y22315614D01*
X16147000Y22327000D01*
X16755000Y22327000D01*
X16823121Y22306998D01*
G37*
%TD.AperFunction*%
%TD*%
%TA.AperFunction,Conductor*%
%TO.N,GND*%
G36*
X25512461Y24309118D02*
G01*
X25526642Y24305857D01*
X25534772Y24307697D01*
X25539196Y24307689D01*
X25554788Y24308813D01*
X25643853Y24301803D01*
X25728319Y24295155D01*
X25739781Y24293340D01*
X25835128Y24270449D01*
X25930472Y24247558D01*
X25941515Y24243970D01*
X26122704Y24168920D01*
X26133047Y24163650D01*
X26206133Y24118863D01*
X26300261Y24061181D01*
X26309650Y24054360D01*
X26458780Y23926990D01*
X26466989Y23918781D01*
X26594360Y23769650D01*
X26601181Y23760261D01*
X26690003Y23615318D01*
X26703648Y23593051D01*
X26708920Y23582704D01*
X26783970Y23401515D01*
X26787558Y23390472D01*
X26833339Y23199785D01*
X26835156Y23188316D01*
X26848777Y23015250D01*
X26847735Y23001155D01*
X26847725Y22995481D01*
X26845857Y22987358D01*
X26847697Y22979227D01*
X26849175Y22972694D01*
X26851000Y22956363D01*
X26851000Y1555123D01*
X26849118Y1538539D01*
X26845857Y1524358D01*
X26847697Y1516228D01*
X26847689Y1511804D01*
X26848813Y1496212D01*
X26835156Y1322684D01*
X26833339Y1311215D01*
X26787558Y1120528D01*
X26783970Y1109485D01*
X26708920Y928296D01*
X26703650Y917953D01*
X26635042Y805995D01*
X26601181Y750739D01*
X26594360Y741350D01*
X26526216Y661564D01*
X26466990Y592220D01*
X26458781Y584011D01*
X26309650Y456640D01*
X26300261Y449819D01*
X26133047Y347350D01*
X26122704Y342080D01*
X25941515Y267030D01*
X25930472Y263442D01*
X25835129Y240552D01*
X25739781Y217660D01*
X25728319Y215845D01*
X25555250Y202223D01*
X25541155Y203265D01*
X25535481Y203275D01*
X25527358Y205143D01*
X25515111Y202372D01*
X25512694Y201825D01*
X25496363Y200000D01*
X1555123Y200000D01*
X1538539Y201882D01*
X1538230Y201953D01*
X1524358Y205143D01*
X1516228Y203303D01*
X1511804Y203311D01*
X1496212Y202187D01*
X1407147Y209197D01*
X1322681Y215845D01*
X1311219Y217660D01*
X1215871Y240552D01*
X1120528Y263442D01*
X1109485Y267030D01*
X928296Y342080D01*
X917953Y347350D01*
X750739Y449819D01*
X741350Y456640D01*
X592219Y584011D01*
X584010Y592220D01*
X524784Y661564D01*
X456640Y741350D01*
X449819Y750739D01*
X415958Y805995D01*
X347350Y917953D01*
X342080Y928296D01*
X267030Y1109485D01*
X263442Y1120528D01*
X217661Y1311215D01*
X215844Y1322684D01*
X202223Y1495750D01*
X203265Y1509845D01*
X203275Y1515519D01*
X205143Y1523642D01*
X201825Y1538306D01*
X200000Y1554637D01*
X200000Y2147000D01*
X605551Y2147000D01*
X625317Y1895852D01*
X684127Y1650889D01*
X685240Y1648202D01*
X736983Y1523284D01*
X780534Y1418141D01*
X782055Y1415659D01*
X782057Y1415655D01*
X866399Y1278022D01*
X912164Y1203341D01*
X914056Y1201126D01*
X914058Y1201123D01*
X1054188Y1037052D01*
X1075776Y1011776D01*
X1077990Y1009885D01*
X1257417Y856640D01*
X1267341Y848164D01*
X1269828Y846640D01*
X1479655Y718057D01*
X1479659Y718055D01*
X1482141Y716534D01*
X1714889Y620127D01*
X1959852Y561317D01*
X1962739Y561090D01*
X1962744Y561089D01*
X2085363Y551439D01*
X2148118Y546500D01*
X2273882Y546500D01*
X2336637Y551439D01*
X2459256Y561089D01*
X2459261Y561090D01*
X2462148Y561317D01*
X2707111Y620127D01*
X2939859Y716534D01*
X2942341Y718055D01*
X2942345Y718057D01*
X3152172Y846640D01*
X3154659Y848164D01*
X3164584Y856640D01*
X3254184Y933166D01*
X4575500Y933166D01*
X4578481Y901631D01*
X4623366Y773816D01*
X4626650Y769370D01*
X4626651Y769368D01*
X4664550Y718057D01*
X4703850Y664850D01*
X4708299Y661564D01*
X4808178Y587792D01*
X4812816Y584366D01*
X4940631Y539481D01*
X4945114Y539057D01*
X4945115Y539057D01*
X4970438Y536663D01*
X4970445Y536663D01*
X4972166Y536500D01*
X5579834Y536500D01*
X5581555Y536663D01*
X5581562Y536663D01*
X5606885Y539057D01*
X5606886Y539057D01*
X5611369Y539481D01*
X5739184Y584366D01*
X5743823Y587792D01*
X5843701Y661564D01*
X5848150Y664850D01*
X5887450Y718057D01*
X5925349Y769368D01*
X5925350Y769370D01*
X5928634Y773816D01*
X5973519Y901631D01*
X5976500Y933166D01*
X9525500Y933166D01*
X9528481Y901631D01*
X9573366Y773816D01*
X9576650Y769370D01*
X9576651Y769368D01*
X9614550Y718057D01*
X9653850Y664850D01*
X9658299Y661564D01*
X9758178Y587792D01*
X9762816Y584366D01*
X9890631Y539481D01*
X9895114Y539057D01*
X9895115Y539057D01*
X9920438Y536663D01*
X9920445Y536663D01*
X9922166Y536500D01*
X10529834Y536500D01*
X10531555Y536663D01*
X10531562Y536663D01*
X10556885Y539057D01*
X10556886Y539057D01*
X10561369Y539481D01*
X10689184Y584366D01*
X10693823Y587792D01*
X10793701Y661564D01*
X10798150Y664850D01*
X10837450Y718057D01*
X10875349Y769368D01*
X10875350Y769370D01*
X10878634Y773816D01*
X10923519Y901631D01*
X10926500Y933166D01*
X10926500Y2157000D01*
X23255551Y2157000D01*
X23275317Y1905852D01*
X23334127Y1660889D01*
X23335240Y1658202D01*
X23402530Y1495750D01*
X23430534Y1428141D01*
X23432055Y1425659D01*
X23432057Y1425655D01*
X23522527Y1278022D01*
X23562164Y1213341D01*
X23564056Y1211126D01*
X23564058Y1211123D01*
X23572599Y1201123D01*
X23725776Y1021776D01*
X23727990Y1019885D01*
X23866448Y901631D01*
X23917341Y858164D01*
X23919828Y856640D01*
X24129655Y728057D01*
X24129659Y728055D01*
X24132141Y726534D01*
X24134834Y725419D01*
X24134835Y725418D01*
X24270319Y669299D01*
X24364889Y630127D01*
X24367716Y629448D01*
X24367717Y629448D01*
X24522784Y592220D01*
X24609852Y571317D01*
X24612739Y571090D01*
X24612744Y571089D01*
X24728298Y561995D01*
X24798118Y556500D01*
X24923882Y556500D01*
X24993702Y561995D01*
X25109256Y571089D01*
X25109261Y571090D01*
X25112148Y571317D01*
X25199216Y592220D01*
X25354283Y629448D01*
X25354284Y629448D01*
X25357111Y630127D01*
X25451681Y669299D01*
X25587165Y725418D01*
X25587166Y725419D01*
X25589859Y726534D01*
X25592341Y728055D01*
X25592345Y728057D01*
X25802172Y856640D01*
X25804659Y858164D01*
X25855553Y901631D01*
X25994010Y1019885D01*
X25996224Y1021776D01*
X26149401Y1201123D01*
X26157942Y1211123D01*
X26157944Y1211126D01*
X26159836Y1213341D01*
X26199473Y1278022D01*
X26289943Y1425655D01*
X26289945Y1425659D01*
X26291466Y1428141D01*
X26319471Y1495750D01*
X26386760Y1658202D01*
X26387873Y1660889D01*
X26446683Y1905852D01*
X26466449Y2157000D01*
X26446683Y2408148D01*
X26387873Y2653111D01*
X26291466Y2885859D01*
X26159836Y3100659D01*
X26038640Y3242562D01*
X25998115Y3290010D01*
X25996224Y3292224D01*
X25818585Y3443942D01*
X25806877Y3453942D01*
X25806874Y3453944D01*
X25804659Y3455836D01*
X25717659Y3509150D01*
X25592345Y3585943D01*
X25592341Y3585945D01*
X25589859Y3587466D01*
X25357111Y3683873D01*
X25112148Y3742683D01*
X25109261Y3742910D01*
X25109256Y3742911D01*
X24986637Y3752561D01*
X24923882Y3757500D01*
X24798118Y3757500D01*
X24735363Y3752561D01*
X24612744Y3742911D01*
X24612739Y3742910D01*
X24609852Y3742683D01*
X24364889Y3683873D01*
X24132141Y3587466D01*
X24129659Y3585945D01*
X24129655Y3585943D01*
X24004341Y3509150D01*
X23917341Y3455836D01*
X23915126Y3453944D01*
X23915123Y3453942D01*
X23903415Y3443942D01*
X23725776Y3292224D01*
X23723885Y3290010D01*
X23683361Y3242562D01*
X23562164Y3100659D01*
X23430534Y2885859D01*
X23334127Y2653111D01*
X23275317Y2408148D01*
X23255551Y2157000D01*
X10926500Y2157000D01*
X10926500Y3240834D01*
X10923519Y3272369D01*
X10878634Y3400184D01*
X10838928Y3453942D01*
X10801436Y3504701D01*
X10798150Y3509150D01*
X10705658Y3577466D01*
X10693632Y3586349D01*
X10693630Y3586350D01*
X10689184Y3589634D01*
X10561369Y3634519D01*
X10556886Y3634943D01*
X10556885Y3634943D01*
X10531562Y3637337D01*
X10531555Y3637337D01*
X10529834Y3637500D01*
X9922166Y3637500D01*
X9920445Y3637337D01*
X9920438Y3637337D01*
X9895115Y3634943D01*
X9895114Y3634943D01*
X9890631Y3634519D01*
X9762816Y3589634D01*
X9758370Y3586350D01*
X9758368Y3586349D01*
X9746342Y3577466D01*
X9653850Y3509150D01*
X9650564Y3504701D01*
X9613073Y3453942D01*
X9573366Y3400184D01*
X9528481Y3272369D01*
X9525500Y3240834D01*
X9525500Y933166D01*
X5976500Y933166D01*
X5976500Y3240834D01*
X5973519Y3272369D01*
X5928634Y3400184D01*
X5888928Y3453942D01*
X5851436Y3504701D01*
X5848150Y3509150D01*
X5755658Y3577466D01*
X5743632Y3586349D01*
X5743630Y3586350D01*
X5739184Y3589634D01*
X5611369Y3634519D01*
X5606886Y3634943D01*
X5606885Y3634943D01*
X5581562Y3637337D01*
X5581555Y3637337D01*
X5579834Y3637500D01*
X4972166Y3637500D01*
X4970445Y3637337D01*
X4970438Y3637337D01*
X4945115Y3634943D01*
X4945114Y3634943D01*
X4940631Y3634519D01*
X4812816Y3589634D01*
X4808370Y3586350D01*
X4808368Y3586349D01*
X4796342Y3577466D01*
X4703850Y3509150D01*
X4700564Y3504701D01*
X4663073Y3453942D01*
X4623366Y3400184D01*
X4578481Y3272369D01*
X4575500Y3240834D01*
X4575500Y933166D01*
X3254184Y933166D01*
X3344010Y1009885D01*
X3346224Y1011776D01*
X3367812Y1037052D01*
X3507942Y1201123D01*
X3507944Y1201126D01*
X3509836Y1203341D01*
X3555601Y1278022D01*
X3639943Y1415655D01*
X3639945Y1415659D01*
X3641466Y1418141D01*
X3685018Y1523284D01*
X3736760Y1648202D01*
X3737873Y1650889D01*
X3796683Y1895852D01*
X3816449Y2147000D01*
X3796683Y2398148D01*
X3737873Y2643111D01*
X3641466Y2875859D01*
X3509836Y3090659D01*
X3503420Y3098172D01*
X3348115Y3280010D01*
X3346224Y3282224D01*
X3334516Y3292224D01*
X3156877Y3443942D01*
X3156874Y3443944D01*
X3154659Y3445836D01*
X3134176Y3458388D01*
X2942345Y3575943D01*
X2942341Y3575945D01*
X2939859Y3577466D01*
X2918414Y3586349D01*
X2709798Y3672760D01*
X2707111Y3673873D01*
X2662630Y3684552D01*
X2464972Y3732005D01*
X2462148Y3732683D01*
X2459261Y3732910D01*
X2459256Y3732911D01*
X2332190Y3742911D01*
X2273882Y3747500D01*
X2148118Y3747500D01*
X2089810Y3742911D01*
X1962744Y3732911D01*
X1962739Y3732910D01*
X1959852Y3732683D01*
X1957028Y3732005D01*
X1759371Y3684552D01*
X1714889Y3673873D01*
X1712202Y3672760D01*
X1503587Y3586349D01*
X1482141Y3577466D01*
X1479659Y3575945D01*
X1479655Y3575943D01*
X1287824Y3458388D01*
X1267341Y3445836D01*
X1265126Y3443944D01*
X1265123Y3443942D01*
X1087484Y3292224D01*
X1075776Y3282224D01*
X1073885Y3280010D01*
X918581Y3098172D01*
X912164Y3090659D01*
X780534Y2875859D01*
X684127Y2643111D01*
X625317Y2398148D01*
X605551Y2147000D01*
X200000Y2147000D01*
X200000Y9314103D01*
X3400500Y9314103D01*
X3400501Y8959898D01*
X3400818Y8957492D01*
X3400818Y8957488D01*
X3402949Y8941304D01*
X3406981Y8910670D01*
X3409372Y8905543D01*
X3409372Y8905542D01*
X3418745Y8885442D01*
X3457356Y8802641D01*
X3541641Y8718356D01*
X3649670Y8667981D01*
X3698897Y8661500D01*
X3791178Y8661500D01*
X4925521Y8661501D01*
X4973087Y8644188D01*
X4977847Y8639827D01*
X6778826Y6838848D01*
X6800218Y6792972D01*
X6800500Y6786522D01*
X6800500Y6335175D01*
X6783187Y6287609D01*
X6772193Y6277429D01*
X6769145Y6275932D01*
X6764822Y6271601D01*
X6691526Y6198177D01*
X6686707Y6193350D01*
X6684020Y6187853D01*
X6638278Y6094274D01*
X6635464Y6088518D01*
X6625500Y6020218D01*
X6625500Y4553782D01*
X6625895Y4551099D01*
X6634804Y4490577D01*
X6634805Y4490574D01*
X6635642Y4484888D01*
X6687068Y4380145D01*
X6691397Y4375824D01*
X6691398Y4375822D01*
X6765321Y4302028D01*
X6769650Y4297707D01*
X6775147Y4295020D01*
X6868934Y4249176D01*
X6874482Y4246464D01*
X6942782Y4236500D01*
X7309218Y4236500D01*
X7315363Y4237405D01*
X7372423Y4245804D01*
X7372426Y4245805D01*
X7378112Y4246642D01*
X7383272Y4249175D01*
X7383274Y4249176D01*
X7429117Y4271684D01*
X7482855Y4298068D01*
X7487176Y4302397D01*
X7487178Y4302398D01*
X7560972Y4376321D01*
X7560973Y4376323D01*
X7565293Y4380650D01*
X7567980Y4386147D01*
X7614012Y4480318D01*
X7614012Y4480319D01*
X7616536Y4485482D01*
X7626500Y4553782D01*
X7875500Y4553782D01*
X7875895Y4551099D01*
X7884804Y4490577D01*
X7884805Y4490574D01*
X7885642Y4484888D01*
X7937068Y4380145D01*
X7941397Y4375824D01*
X7941398Y4375822D01*
X8015321Y4302028D01*
X8019650Y4297707D01*
X8025147Y4295020D01*
X8118934Y4249176D01*
X8124482Y4246464D01*
X8192782Y4236500D01*
X8559218Y4236500D01*
X8565363Y4237405D01*
X8622423Y4245804D01*
X8622426Y4245805D01*
X8628112Y4246642D01*
X8633272Y4249175D01*
X8633274Y4249176D01*
X8679117Y4271684D01*
X8732855Y4298068D01*
X8737176Y4302397D01*
X8737178Y4302398D01*
X8810972Y4376321D01*
X8810973Y4376323D01*
X8815293Y4380650D01*
X8817980Y4386147D01*
X8864012Y4480318D01*
X8864012Y4480319D01*
X8866536Y4485482D01*
X8876500Y4553782D01*
X8876500Y6020218D01*
X8875595Y6026363D01*
X8867196Y6083423D01*
X8867195Y6083426D01*
X8866358Y6089112D01*
X8814932Y6193855D01*
X8773120Y6235594D01*
X8751687Y6281452D01*
X8764746Y6330358D01*
X8806185Y6359428D01*
X8811647Y6360677D01*
X8823534Y6362925D01*
X8825938Y6363395D01*
X8826265Y6363461D01*
X8829449Y6364131D01*
X8882395Y6375717D01*
X8888546Y6376793D01*
X8900272Y6378337D01*
X8922956Y6381323D01*
X8922958Y6381324D01*
X8927762Y6381956D01*
X9073841Y6442464D01*
X9077685Y6445414D01*
X9077689Y6445416D01*
X9195431Y6535763D01*
X9199282Y6538718D01*
X9213913Y6557786D01*
X9292584Y6660311D01*
X9292586Y6660315D01*
X9295536Y6664159D01*
X9356044Y6810238D01*
X9356958Y6817174D01*
X9376049Y6962192D01*
X9376049Y6962193D01*
X9376682Y6967000D01*
X9363774Y7065045D01*
X9356677Y7118957D01*
X9356676Y7118960D01*
X9356044Y7123762D01*
X9295536Y7269841D01*
X9292586Y7273685D01*
X9292584Y7273689D01*
X9202237Y7391431D01*
X9199282Y7395282D01*
X9195431Y7398237D01*
X9077689Y7488584D01*
X9077685Y7488586D01*
X9073841Y7491536D01*
X8927762Y7552044D01*
X8922960Y7552676D01*
X8922957Y7552677D01*
X8775808Y7572049D01*
X8771000Y7572682D01*
X8766192Y7572049D01*
X8619043Y7552677D01*
X8619040Y7552676D01*
X8614238Y7552044D01*
X8468159Y7491536D01*
X8464315Y7488586D01*
X8464311Y7488584D01*
X8346569Y7398237D01*
X8342718Y7395282D01*
X8339763Y7391431D01*
X8249416Y7273689D01*
X8249414Y7273685D01*
X8246464Y7269841D01*
X8185956Y7123762D01*
X8185324Y7118960D01*
X8185323Y7118957D01*
X8178226Y7065045D01*
X8165318Y6967000D01*
X8165951Y6962193D01*
X8168585Y6942187D01*
X8169146Y6929271D01*
X8168409Y6912542D01*
X8167764Y6905523D01*
X8162220Y6865986D01*
X8160957Y6859259D01*
X8154001Y6829795D01*
X8131766Y6793712D01*
X8131928Y6793576D01*
X8131000Y6792470D01*
X8129546Y6790110D01*
X8122806Y6784455D01*
X8119568Y6778846D01*
X8102831Y6749856D01*
X8099362Y6744411D01*
X8076446Y6711684D01*
X8074771Y6705432D01*
X8072649Y6700882D01*
X8070361Y6695358D01*
X8068647Y6690647D01*
X8065412Y6685045D01*
X8064289Y6678674D01*
X8064288Y6678672D01*
X8058476Y6645706D01*
X8057079Y6639404D01*
X8046736Y6600807D01*
X8047300Y6594359D01*
X8047300Y6594358D01*
X8050218Y6561009D01*
X8050500Y6554559D01*
X8050500Y6335175D01*
X8033187Y6287609D01*
X8022193Y6277429D01*
X8019145Y6275932D01*
X8014822Y6271601D01*
X7941526Y6198177D01*
X7936707Y6193350D01*
X7934020Y6187853D01*
X7888278Y6094274D01*
X7885464Y6088518D01*
X7875500Y6020218D01*
X7875500Y4553782D01*
X7626500Y4553782D01*
X7626500Y6020218D01*
X7625595Y6026363D01*
X7617196Y6083423D01*
X7617195Y6083426D01*
X7616358Y6089112D01*
X7564932Y6193855D01*
X7560603Y6198176D01*
X7560602Y6198178D01*
X7487050Y6271601D01*
X7482350Y6276293D01*
X7481211Y6276850D01*
X7453858Y6316647D01*
X7451500Y6335177D01*
X7451500Y6934559D01*
X7451782Y6941009D01*
X7454700Y6974358D01*
X7454700Y6974359D01*
X7455264Y6980807D01*
X7444921Y7019404D01*
X7443524Y7025706D01*
X7437712Y7058672D01*
X7437711Y7058674D01*
X7436588Y7065045D01*
X7433353Y7070647D01*
X7431639Y7075358D01*
X7429351Y7080882D01*
X7427229Y7085432D01*
X7425554Y7091684D01*
X7402638Y7124411D01*
X7399169Y7129856D01*
X7382430Y7158850D01*
X7379194Y7164455D01*
X7374233Y7168618D01*
X7348585Y7190140D01*
X7343825Y7194501D01*
X5423174Y9115152D01*
X5401782Y9161028D01*
X5401500Y9167477D01*
X5401500Y9187000D01*
X12875318Y9187000D01*
X12875951Y9182192D01*
X12895049Y9037130D01*
X12895956Y9030238D01*
X12956464Y8884159D01*
X12959414Y8880315D01*
X12959416Y8880311D01*
X13033798Y8783375D01*
X13052718Y8758718D01*
X13056569Y8755763D01*
X13174311Y8665416D01*
X13174315Y8665414D01*
X13178159Y8662464D01*
X13324238Y8601956D01*
X13329040Y8601324D01*
X13329043Y8601323D01*
X13476192Y8581951D01*
X13481000Y8581318D01*
X13485808Y8581951D01*
X13632957Y8601323D01*
X13632960Y8601324D01*
X13637762Y8601956D01*
X13783841Y8662464D01*
X13802826Y8677032D01*
X13813699Y8683959D01*
X13817368Y8685869D01*
X13817515Y8685948D01*
X13817574Y8685979D01*
X13820115Y8687345D01*
X13821909Y8688308D01*
X13822070Y8688397D01*
X13822195Y8688466D01*
X13822240Y8688492D01*
X13822438Y8688601D01*
X13826924Y8691162D01*
X13835650Y8696294D01*
X13835657Y8696298D01*
X13873159Y8718356D01*
X13886213Y8726034D01*
X13886240Y8726050D01*
X13886335Y8726106D01*
X13889826Y8728208D01*
X13889929Y8728271D01*
X13889991Y8728309D01*
X13890102Y8728378D01*
X13890181Y8728427D01*
X13892006Y8729565D01*
X13892066Y8729603D01*
X13944604Y8762782D01*
X13944651Y8762812D01*
X13988976Y8790821D01*
X13991420Y8792300D01*
X14025620Y8812094D01*
X14030693Y8814773D01*
X14058389Y8828046D01*
X14065540Y8831022D01*
X14092998Y8840793D01*
X14101033Y8843147D01*
X14111697Y8845625D01*
X14111697Y8845624D01*
X14136020Y8851274D01*
X14143660Y8852631D01*
X14177396Y8856813D01*
X14226731Y8845483D01*
X14257241Y8805093D01*
X14260500Y8783375D01*
X14260500Y8608782D01*
X14260895Y8606099D01*
X14269804Y8545577D01*
X14269805Y8545574D01*
X14270642Y8539888D01*
X14322068Y8435145D01*
X14326397Y8430824D01*
X14326398Y8430822D01*
X14400321Y8357028D01*
X14404650Y8352707D01*
X14410147Y8350020D01*
X14503934Y8304176D01*
X14509482Y8301464D01*
X14577782Y8291500D01*
X14944218Y8291500D01*
X14950363Y8292405D01*
X15007423Y8300804D01*
X15007426Y8300805D01*
X15013112Y8301642D01*
X15018272Y8304175D01*
X15018274Y8304176D01*
X15064117Y8326684D01*
X15117855Y8353068D01*
X15122179Y8357400D01*
X15122181Y8357401D01*
X15169475Y8404777D01*
X15215332Y8426210D01*
X15264238Y8413151D01*
X15276145Y8401764D01*
X15276357Y8401976D01*
X15279784Y8398549D01*
X15282739Y8394698D01*
X15286590Y8391743D01*
X15404332Y8301396D01*
X15404336Y8301394D01*
X15408180Y8298444D01*
X15554259Y8237936D01*
X15559061Y8237304D01*
X15559064Y8237303D01*
X15706213Y8217931D01*
X15711021Y8217298D01*
X15715829Y8217931D01*
X15862978Y8237303D01*
X15862981Y8237304D01*
X15867783Y8237936D01*
X16013862Y8298444D01*
X16017706Y8301394D01*
X16017710Y8301396D01*
X16135452Y8391743D01*
X16139303Y8394698D01*
X16147037Y8404777D01*
X16232605Y8516291D01*
X16232607Y8516295D01*
X16235557Y8520139D01*
X16296065Y8666218D01*
X16298008Y8680970D01*
X16316070Y8818172D01*
X16316703Y8822980D01*
X16308059Y8888638D01*
X16296698Y8974937D01*
X16296697Y8974940D01*
X16296065Y8979742D01*
X16235557Y9125821D01*
X16232604Y9129669D01*
X16232602Y9129673D01*
X16220994Y9144801D01*
X16214067Y9155672D01*
X16212224Y9159212D01*
X16212210Y9159238D01*
X16212153Y9159348D01*
X16212104Y9159440D01*
X16212074Y9159496D01*
X16209821Y9163689D01*
X16209820Y9163691D01*
X16209713Y9163890D01*
X16209420Y9164419D01*
X16206855Y9168911D01*
X16205003Y9172061D01*
X16181796Y9211516D01*
X16171925Y9228298D01*
X16170070Y9231389D01*
X16169877Y9231704D01*
X16168442Y9234011D01*
X16135240Y9286584D01*
X16135208Y9286633D01*
X16135209Y9286633D01*
X16107200Y9330956D01*
X16105723Y9333398D01*
X16085929Y9367597D01*
X16083243Y9372684D01*
X16069979Y9400360D01*
X16066993Y9407535D01*
X16057237Y9434954D01*
X16054874Y9443018D01*
X16046747Y9478005D01*
X16045390Y9485643D01*
X16041468Y9517278D01*
X16039238Y9535267D01*
X16038725Y9541689D01*
X16038516Y9547480D01*
X17594838Y9547480D01*
X17595471Y9542672D01*
X17614207Y9400360D01*
X17615476Y9390718D01*
X17675984Y9244639D01*
X17678934Y9240795D01*
X17678936Y9240791D01*
X17764200Y9129673D01*
X17772238Y9119198D01*
X17776089Y9116243D01*
X17893831Y9025896D01*
X17893835Y9025894D01*
X17897679Y9022944D01*
X18043758Y8962436D01*
X18048560Y8961804D01*
X18048563Y8961803D01*
X18195712Y8942431D01*
X18200520Y8941798D01*
X18205328Y8942431D01*
X18352477Y8961803D01*
X18352480Y8961804D01*
X18357282Y8962436D01*
X18503361Y9022944D01*
X18507205Y9025894D01*
X18507209Y9025896D01*
X18521973Y9037226D01*
X18532941Y9044203D01*
X18536047Y9045815D01*
X18536073Y9045829D01*
X18536351Y9045973D01*
X18540751Y9048327D01*
X18540882Y9048399D01*
X18540950Y9048436D01*
X18541045Y9048489D01*
X18541279Y9048618D01*
X18541427Y9048702D01*
X18541468Y9048725D01*
X18545626Y9051089D01*
X18545649Y9051102D01*
X18545893Y9051241D01*
X18547232Y9052026D01*
X18547252Y9052038D01*
X18605405Y9086140D01*
X18608286Y9087862D01*
X18608547Y9088021D01*
X18611062Y9089579D01*
X18639312Y9107367D01*
X18639313Y9107368D01*
X18663778Y9122773D01*
X18664004Y9122414D01*
X18664057Y9122464D01*
X18663839Y9122810D01*
X18686081Y9136826D01*
X18708276Y9150812D01*
X18710721Y9152287D01*
X18744980Y9172061D01*
X18749950Y9174684D01*
X18750000Y9174708D01*
X18800374Y9179683D01*
X18842161Y9151115D01*
X18847949Y9141604D01*
X18902950Y9033658D01*
X18992658Y8943950D01*
X18997848Y8941306D01*
X18997850Y8941304D01*
X19100502Y8889000D01*
X19100505Y8888999D01*
X19105696Y8886354D01*
X19111448Y8885443D01*
X19111451Y8885442D01*
X19196602Y8871956D01*
X19199481Y8871500D01*
X19431000Y8871500D01*
X19662518Y8871501D01*
X19665390Y8871956D01*
X19665392Y8871956D01*
X19697090Y8876976D01*
X19756304Y8886354D01*
X19815041Y8916282D01*
X19864150Y8941304D01*
X19864152Y8941306D01*
X19869342Y8943950D01*
X19959050Y9033658D01*
X19961694Y9038848D01*
X19961696Y9038850D01*
X20014000Y9141502D01*
X20014001Y9141505D01*
X20016646Y9146696D01*
X20017557Y9152448D01*
X20017558Y9152451D01*
X20031045Y9237608D01*
X20031500Y9240481D01*
X20031499Y9853518D01*
X20031499Y9853519D01*
X20480500Y9853519D01*
X20480501Y9240482D01*
X20480956Y9237610D01*
X20480956Y9237608D01*
X20482450Y9228175D01*
X20495354Y9146696D01*
X20508274Y9121340D01*
X20550304Y9038850D01*
X20550306Y9038848D01*
X20552950Y9033658D01*
X20642658Y8943950D01*
X20647848Y8941306D01*
X20647850Y8941304D01*
X20750502Y8889000D01*
X20750505Y8888999D01*
X20755696Y8886354D01*
X20761448Y8885443D01*
X20761451Y8885442D01*
X20846602Y8871956D01*
X20849481Y8871500D01*
X21081000Y8871500D01*
X21312518Y8871501D01*
X21315390Y8871956D01*
X21315392Y8871956D01*
X21347090Y8876976D01*
X21406304Y8886354D01*
X21465041Y8916282D01*
X21514150Y8941304D01*
X21514152Y8941306D01*
X21519342Y8943950D01*
X21609050Y9033658D01*
X21611694Y9038848D01*
X21611696Y9038850D01*
X21664000Y9141502D01*
X21664001Y9141505D01*
X21666646Y9146696D01*
X21667557Y9152451D01*
X21669357Y9157989D01*
X21672001Y9157130D01*
X21691350Y9192048D01*
X21723164Y9208287D01*
X21731543Y9210234D01*
X21757962Y9211516D01*
X21762820Y9210875D01*
X21770910Y9209346D01*
X21810585Y9199529D01*
X21818997Y9196906D01*
X21826976Y9193887D01*
X21866715Y9158273D01*
X21923696Y9046441D01*
X21923698Y9046439D01*
X21926342Y9041249D01*
X22020249Y8947342D01*
X22025439Y8944698D01*
X22025441Y8944696D01*
X22129597Y8891626D01*
X22138580Y8887049D01*
X22144332Y8886138D01*
X22144335Y8886137D01*
X22233875Y8871956D01*
X22236754Y8871500D01*
X22740246Y8871500D01*
X22743125Y8871956D01*
X22832665Y8886137D01*
X22832668Y8886138D01*
X22838420Y8887049D01*
X22847403Y8891626D01*
X22951559Y8944696D01*
X22951561Y8944698D01*
X22956751Y8947342D01*
X23050658Y9041249D01*
X23053302Y9046439D01*
X23053304Y9046441D01*
X23108305Y9154387D01*
X23110951Y9159580D01*
X23111862Y9165332D01*
X23111863Y9165335D01*
X23126045Y9254881D01*
X23126500Y9257754D01*
X23126500Y9836246D01*
X23123867Y9852870D01*
X23111863Y9928665D01*
X23111862Y9928668D01*
X23110951Y9934420D01*
X23089886Y9975762D01*
X23053304Y10047559D01*
X23053302Y10047561D01*
X23050658Y10052751D01*
X22956751Y10146658D01*
X22951561Y10149302D01*
X22951559Y10149304D01*
X22843613Y10204305D01*
X22838420Y10206951D01*
X22832668Y10207862D01*
X22832665Y10207863D01*
X22743119Y10222045D01*
X22740246Y10222500D01*
X22236754Y10222500D01*
X22233881Y10222045D01*
X22144335Y10207863D01*
X22144332Y10207862D01*
X22138580Y10206951D01*
X22133387Y10204305D01*
X22025441Y10149304D01*
X22025439Y10149302D01*
X22020249Y10146658D01*
X21926342Y10052751D01*
X21923698Y10047561D01*
X21923696Y10047559D01*
X21866716Y9935729D01*
X21826981Y9900117D01*
X21819006Y9897098D01*
X21810585Y9894472D01*
X21770910Y9884655D01*
X21762833Y9883128D01*
X21757968Y9882485D01*
X21731540Y9883768D01*
X21723162Y9885714D01*
X21680747Y9913341D01*
X21670923Y9936520D01*
X21669357Y9936011D01*
X21667557Y9941550D01*
X21666646Y9947304D01*
X21630699Y10017853D01*
X21611696Y10055150D01*
X21611694Y10055152D01*
X21609050Y10060342D01*
X21519342Y10150050D01*
X21514152Y10152694D01*
X21514150Y10152696D01*
X21411498Y10205000D01*
X21411495Y10205001D01*
X21406304Y10207646D01*
X21400552Y10208557D01*
X21400549Y10208558D01*
X21315392Y10222045D01*
X21312519Y10222500D01*
X21309610Y10222500D01*
X21081001Y10222499D01*
X20849482Y10222499D01*
X20846610Y10222044D01*
X20846608Y10222044D01*
X20814910Y10217024D01*
X20755696Y10207646D01*
X20699177Y10178848D01*
X20647850Y10152696D01*
X20647848Y10152694D01*
X20642658Y10150050D01*
X20552950Y10060342D01*
X20550306Y10055152D01*
X20550304Y10055150D01*
X20498000Y9952498D01*
X20495354Y9947304D01*
X20494443Y9941552D01*
X20494442Y9941549D01*
X20485291Y9883768D01*
X20480500Y9853519D01*
X20031499Y9853519D01*
X20016646Y9947304D01*
X19980699Y10017853D01*
X19961696Y10055150D01*
X19961694Y10055152D01*
X19959050Y10060342D01*
X19869342Y10150050D01*
X19864152Y10152694D01*
X19864150Y10152696D01*
X19761498Y10205000D01*
X19761495Y10205001D01*
X19756304Y10207646D01*
X19750552Y10208557D01*
X19750549Y10208558D01*
X19665392Y10222045D01*
X19662519Y10222500D01*
X19659610Y10222500D01*
X19431001Y10222499D01*
X19199482Y10222499D01*
X19196610Y10222044D01*
X19196608Y10222044D01*
X19164910Y10217024D01*
X19105696Y10207646D01*
X19049177Y10178848D01*
X18997850Y10152696D01*
X18997848Y10152694D01*
X18992658Y10150050D01*
X18902950Y10060342D01*
X18900306Y10055152D01*
X18900304Y10055150D01*
X18875352Y10006178D01*
X18848670Y9953811D01*
X18848073Y9952640D01*
X18811053Y9918118D01*
X18760503Y9915468D01*
X18745055Y9922198D01*
X18732981Y9929190D01*
X18711423Y9941674D01*
X18708946Y9943174D01*
X18664648Y9971197D01*
X18664542Y9971264D01*
X18664499Y9971291D01*
X18612266Y10004330D01*
X18612217Y10004361D01*
X18612030Y10004479D01*
X18609296Y10006178D01*
X18609185Y10006246D01*
X18609102Y10006297D01*
X18609029Y10006341D01*
X18608983Y10006369D01*
X18606366Y10007938D01*
X18572877Y10027679D01*
X18547275Y10042771D01*
X18547250Y10042785D01*
X18547032Y10042914D01*
X18542541Y10045484D01*
X18542327Y10045603D01*
X18542257Y10045642D01*
X18542222Y10045661D01*
X18542015Y10045776D01*
X18537507Y10048203D01*
X18533464Y10050314D01*
X18522673Y10057198D01*
X18503361Y10072016D01*
X18357282Y10132524D01*
X18352480Y10133156D01*
X18352477Y10133157D01*
X18205328Y10152529D01*
X18200520Y10153162D01*
X18195712Y10152529D01*
X18048563Y10133157D01*
X18048560Y10133156D01*
X18043758Y10132524D01*
X17897679Y10072016D01*
X17893836Y10069067D01*
X17893831Y10069064D01*
X17776089Y9978717D01*
X17772238Y9975762D01*
X17769283Y9971911D01*
X17678936Y9854169D01*
X17678934Y9854165D01*
X17675984Y9850321D01*
X17615476Y9704242D01*
X17614844Y9699440D01*
X17614843Y9699437D01*
X17599438Y9582418D01*
X17594838Y9547480D01*
X16038516Y9547480D01*
X16038455Y9549184D01*
X16036569Y9601414D01*
X16036521Y9604084D01*
X16036521Y10168839D01*
X16053834Y10216405D01*
X16064818Y10226577D01*
X16067855Y10228068D01*
X16109074Y10269359D01*
X16145972Y10306321D01*
X16145973Y10306323D01*
X16150293Y10310650D01*
X16152980Y10316147D01*
X16199012Y10410318D01*
X16199012Y10410319D01*
X16201536Y10415482D01*
X16211500Y10483782D01*
X16211500Y11725218D01*
X16210595Y11731363D01*
X16202196Y11788423D01*
X16202195Y11788426D01*
X16201358Y11794112D01*
X16186024Y11825345D01*
X16173096Y11851675D01*
X16149932Y11898855D01*
X16145603Y11903176D01*
X16145602Y11903178D01*
X16071679Y11976972D01*
X16071677Y11976973D01*
X16067350Y11981293D01*
X15996478Y12015936D01*
X15967682Y12030012D01*
X15967681Y12030012D01*
X15962518Y12032536D01*
X15894218Y12042500D01*
X15527782Y12042500D01*
X15525099Y12042105D01*
X15464577Y12033196D01*
X15464574Y12033195D01*
X15458888Y12032358D01*
X15453728Y12029825D01*
X15453726Y12029824D01*
X15446502Y12026277D01*
X15354145Y11980932D01*
X15349824Y11976603D01*
X15349822Y11976602D01*
X15276028Y11902679D01*
X15271707Y11898350D01*
X15269020Y11892853D01*
X15223278Y11799274D01*
X15220464Y11793518D01*
X15210500Y11725218D01*
X15210500Y10483782D01*
X15210895Y10481099D01*
X15219804Y10420577D01*
X15219805Y10420574D01*
X15220642Y10414888D01*
X15223175Y10409728D01*
X15223176Y10409726D01*
X15235295Y10385043D01*
X15272068Y10310145D01*
X15276397Y10305824D01*
X15276398Y10305822D01*
X15350319Y10232030D01*
X15354650Y10227707D01*
X15355806Y10227142D01*
X15383163Y10187338D01*
X15385521Y10168808D01*
X15385521Y9964481D01*
X15368208Y9916915D01*
X15324371Y9891605D01*
X15274521Y9900395D01*
X15245095Y9931868D01*
X15242811Y9936520D01*
X15199932Y10023855D01*
X15195603Y10028176D01*
X15195602Y10028178D01*
X15121679Y10101972D01*
X15121677Y10101973D01*
X15117350Y10106293D01*
X15043199Y10142539D01*
X15017682Y10155012D01*
X15017681Y10155012D01*
X15012518Y10157536D01*
X14944218Y10167500D01*
X14577782Y10167500D01*
X14575099Y10167105D01*
X14514577Y10158196D01*
X14514574Y10158195D01*
X14508888Y10157358D01*
X14503728Y10154825D01*
X14503726Y10154824D01*
X14478705Y10142539D01*
X14404145Y10105932D01*
X14399824Y10101603D01*
X14399822Y10101602D01*
X14326028Y10027679D01*
X14321707Y10023350D01*
X14319020Y10017853D01*
X14275681Y9929190D01*
X14270464Y9918518D01*
X14260500Y9850218D01*
X14260500Y9590625D01*
X14243187Y9543059D01*
X14199350Y9517749D01*
X14177389Y9517188D01*
X14175140Y9517467D01*
X14173719Y9517643D01*
X14173716Y9517644D01*
X14143660Y9521370D01*
X14136024Y9522726D01*
X14101037Y9530854D01*
X14092986Y9533213D01*
X14065545Y9542976D01*
X14058372Y9545962D01*
X14051675Y9549172D01*
X14051671Y9549175D01*
X14051665Y9549178D01*
X14051654Y9549184D01*
X14030694Y9559229D01*
X14025608Y9561914D01*
X13991418Y9581702D01*
X13988982Y9583176D01*
X13944651Y9611189D01*
X13944650Y9611189D01*
X13944923Y9611621D01*
X13944873Y9611652D01*
X13944601Y9611221D01*
X13892006Y9644436D01*
X13890102Y9645623D01*
X13889996Y9645688D01*
X13889826Y9645793D01*
X13886334Y9647895D01*
X13886271Y9647932D01*
X13886241Y9647950D01*
X13827167Y9682696D01*
X13827132Y9682716D01*
X13826930Y9682835D01*
X13822438Y9685400D01*
X13822298Y9685478D01*
X13822260Y9685499D01*
X13822088Y9685594D01*
X13822072Y9685603D01*
X13821909Y9685693D01*
X13821300Y9686020D01*
X13817607Y9688004D01*
X13817556Y9688031D01*
X13817353Y9688140D01*
X13817121Y9688261D01*
X13813696Y9690044D01*
X13802825Y9696970D01*
X13793347Y9704242D01*
X13783841Y9711536D01*
X13637762Y9772044D01*
X13632960Y9772676D01*
X13632957Y9772677D01*
X13485808Y9792049D01*
X13481000Y9792682D01*
X13476192Y9792049D01*
X13329043Y9772677D01*
X13329040Y9772676D01*
X13324238Y9772044D01*
X13178159Y9711536D01*
X13174315Y9708586D01*
X13174311Y9708584D01*
X13092481Y9645793D01*
X13052718Y9615282D01*
X13049763Y9611431D01*
X12959416Y9493689D01*
X12959414Y9493685D01*
X12956464Y9489841D01*
X12895956Y9343762D01*
X12895324Y9338960D01*
X12895323Y9338957D01*
X12881162Y9231389D01*
X12875318Y9187000D01*
X5401500Y9187000D01*
X5401499Y9311672D01*
X5401499Y9314102D01*
X5398959Y9333398D01*
X5395758Y9357718D01*
X5395757Y9357720D01*
X5395019Y9363330D01*
X5392627Y9368461D01*
X5359769Y9438923D01*
X5344644Y9471359D01*
X5260359Y9555644D01*
X5152330Y9606019D01*
X5103103Y9612500D01*
X4401290Y9612500D01*
X3698898Y9612499D01*
X3696492Y9612182D01*
X3696488Y9612182D01*
X3655282Y9606758D01*
X3655280Y9606757D01*
X3649670Y9606019D01*
X3644543Y9603628D01*
X3644542Y9603628D01*
X3606869Y9586061D01*
X3541641Y9555644D01*
X3457356Y9471359D01*
X3406981Y9363330D01*
X3400500Y9314103D01*
X200000Y9314103D01*
X200000Y11854103D01*
X3400500Y11854103D01*
X3400501Y11499898D01*
X3406981Y11450670D01*
X3457356Y11342641D01*
X3541641Y11258356D01*
X3649670Y11207981D01*
X3698897Y11201500D01*
X3788976Y11201500D01*
X4895521Y11201501D01*
X4943087Y11184188D01*
X4947847Y11179827D01*
X5268520Y10859153D01*
X5270375Y10857230D01*
X5280648Y10846187D01*
X5280651Y10846183D01*
X5311077Y10813477D01*
X5315263Y10808565D01*
X5330770Y10788669D01*
X5330772Y10788667D01*
X5345993Y10769139D01*
X5350437Y10762776D01*
X5369427Y10732294D01*
X5373452Y10724932D01*
X5385956Y10698616D01*
X5388909Y10691451D01*
X5389787Y10688957D01*
X5399099Y10662501D01*
X5400796Y10657007D01*
X5410976Y10618850D01*
X5411664Y10616057D01*
X5423200Y10564912D01*
X5422974Y10564861D01*
X5422987Y10564796D01*
X5423214Y10564847D01*
X5436926Y10504139D01*
X5437763Y10500588D01*
X5437851Y10500229D01*
X5438502Y10497647D01*
X5455777Y10431022D01*
X5457070Y10426275D01*
X5457236Y10425694D01*
X5458794Y10420510D01*
X5460043Y10416546D01*
X5462832Y10403964D01*
X5465956Y10380238D01*
X5526464Y10234159D01*
X5529414Y10230315D01*
X5529416Y10230311D01*
X5596766Y10142539D01*
X5622718Y10108718D01*
X5626569Y10105763D01*
X5744311Y10015416D01*
X5744315Y10015414D01*
X5748159Y10012464D01*
X5894238Y9951956D01*
X5899040Y9951324D01*
X5899043Y9951323D01*
X6046192Y9931951D01*
X6051000Y9931318D01*
X6055808Y9931951D01*
X6202957Y9951323D01*
X6202960Y9951324D01*
X6207762Y9951956D01*
X6353841Y10012464D01*
X6357685Y10015414D01*
X6357689Y10015416D01*
X6475431Y10105763D01*
X6479282Y10108718D01*
X6505234Y10142539D01*
X6572584Y10230311D01*
X6572586Y10230315D01*
X6575536Y10234159D01*
X6636044Y10380238D01*
X6639168Y10403961D01*
X6656049Y10532192D01*
X6656682Y10537000D01*
X6653014Y10564861D01*
X6636677Y10688957D01*
X6636676Y10688960D01*
X6636044Y10693762D01*
X6575536Y10839841D01*
X6572586Y10843685D01*
X6572584Y10843689D01*
X6482237Y10961431D01*
X6479282Y10965282D01*
X6475431Y10968237D01*
X6357689Y11058584D01*
X6357685Y11058586D01*
X6353841Y11061536D01*
X6207762Y11122044D01*
X6202958Y11122676D01*
X6202956Y11122677D01*
X6194062Y11123848D01*
X6184036Y11125168D01*
X6171454Y11127957D01*
X6167490Y11129206D01*
X6162306Y11130764D01*
X6162063Y11130834D01*
X6162044Y11130839D01*
X6161998Y11130852D01*
X6161725Y11130930D01*
X6158560Y11131792D01*
X6157107Y11132188D01*
X6157092Y11132192D01*
X6156978Y11132223D01*
X6090353Y11149498D01*
X6087771Y11150149D01*
X6087412Y11150237D01*
X6083861Y11151074D01*
X6023153Y11164786D01*
X6023262Y11165269D01*
X6023197Y11165284D01*
X6023088Y11164800D01*
X5971959Y11176332D01*
X5969164Y11177020D01*
X5930989Y11187205D01*
X5925505Y11188899D01*
X5896549Y11199091D01*
X5889384Y11202044D01*
X5863065Y11214550D01*
X5855700Y11218577D01*
X5825223Y11237564D01*
X5818872Y11241998D01*
X5779426Y11272744D01*
X5774545Y11276902D01*
X5756037Y11294120D01*
X5756036Y11294121D01*
X5730775Y11317620D01*
X5728853Y11319474D01*
X5423174Y11625153D01*
X5401782Y11671029D01*
X5401500Y11677479D01*
X5401499Y11851672D01*
X5401499Y11854102D01*
X5401499Y11854103D01*
X9900500Y11854103D01*
X9900501Y11499898D01*
X9906981Y11450670D01*
X9957356Y11342641D01*
X10041641Y11258356D01*
X10149670Y11207981D01*
X10198897Y11201500D01*
X10900710Y11201500D01*
X11603102Y11201501D01*
X11605508Y11201818D01*
X11605512Y11201818D01*
X11646718Y11207242D01*
X11646720Y11207243D01*
X11652330Y11207981D01*
X11657457Y11210372D01*
X11657458Y11210372D01*
X11712037Y11235823D01*
X11760359Y11258356D01*
X11798385Y11296382D01*
X11844261Y11317774D01*
X11875517Y11313775D01*
X11881734Y11311563D01*
X11891385Y11308129D01*
X11898554Y11305145D01*
X11926219Y11291886D01*
X11931306Y11289200D01*
X11965511Y11269403D01*
X11967954Y11267926D01*
X12012277Y11239917D01*
X12012007Y11239491D01*
X12012059Y11239459D01*
X12012328Y11239885D01*
X12049594Y11216351D01*
X12064863Y11206708D01*
X12064923Y11206670D01*
X12066748Y11205532D01*
X12066827Y11205483D01*
X12066938Y11205414D01*
X12067000Y11205376D01*
X12067103Y11205313D01*
X12070594Y11203211D01*
X12070689Y11203155D01*
X12070716Y11203139D01*
X12089250Y11192238D01*
X12121272Y11173403D01*
X12121279Y11173399D01*
X12130005Y11168267D01*
X12134491Y11165706D01*
X12134689Y11165597D01*
X12134734Y11165571D01*
X12134799Y11165535D01*
X12135020Y11165413D01*
X12135219Y11165306D01*
X12135221Y11165305D01*
X12139414Y11163052D01*
X12139470Y11163022D01*
X12139562Y11162973D01*
X12139672Y11162916D01*
X12139698Y11162902D01*
X12143238Y11161059D01*
X12154109Y11154132D01*
X12169237Y11142524D01*
X12169241Y11142522D01*
X12173089Y11139569D01*
X12319168Y11079061D01*
X12323970Y11078429D01*
X12323973Y11078428D01*
X12471122Y11059056D01*
X12475930Y11058423D01*
X12480738Y11059056D01*
X12627887Y11078428D01*
X12627890Y11078429D01*
X12632692Y11079061D01*
X12778771Y11139569D01*
X12782615Y11142519D01*
X12782619Y11142521D01*
X12900361Y11232868D01*
X12904212Y11235823D01*
X12908956Y11242006D01*
X12997514Y11357416D01*
X12997516Y11357420D01*
X13000466Y11361264D01*
X13060974Y11507343D01*
X13081612Y11664105D01*
X13079851Y11677479D01*
X13061607Y11816062D01*
X13061606Y11816065D01*
X13060974Y11820867D01*
X13000466Y11966946D01*
X12997516Y11970790D01*
X12997514Y11970794D01*
X12907167Y12088536D01*
X12904212Y12092387D01*
X12864449Y12122898D01*
X12782619Y12185689D01*
X12782615Y12185691D01*
X12778771Y12188641D01*
X12632692Y12249149D01*
X12627890Y12249781D01*
X12627887Y12249782D01*
X12480738Y12269154D01*
X12475930Y12269787D01*
X12471122Y12269154D01*
X12323973Y12249782D01*
X12323970Y12249781D01*
X12319168Y12249149D01*
X12173089Y12188641D01*
X12154110Y12174078D01*
X12143238Y12167152D01*
X12140016Y12165474D01*
X12139568Y12165241D01*
X12135020Y12162798D01*
X12134863Y12162711D01*
X12134669Y12162604D01*
X12134631Y12162583D01*
X12134491Y12162505D01*
X12129999Y12159940D01*
X12129797Y12159821D01*
X12129762Y12159801D01*
X12070688Y12125055D01*
X12070658Y12125037D01*
X12070595Y12125000D01*
X12067103Y12122898D01*
X12066827Y12122728D01*
X12064923Y12121541D01*
X12012325Y12088324D01*
X12012278Y12088294D01*
X11967947Y12060281D01*
X11965514Y12058809D01*
X11936667Y12042113D01*
X11931321Y12039019D01*
X11926235Y12036334D01*
X11905272Y12026287D01*
X11905267Y12026284D01*
X11905258Y12026280D01*
X11905255Y12026278D01*
X11905246Y12026273D01*
X11901453Y12024455D01*
X11851077Y12019508D01*
X11817143Y12038860D01*
X11760359Y12095644D01*
X11652330Y12146019D01*
X11603103Y12152500D01*
X10901290Y12152500D01*
X10198898Y12152499D01*
X10196492Y12152182D01*
X10196488Y12152182D01*
X10155282Y12146758D01*
X10155280Y12146757D01*
X10149670Y12146019D01*
X10144543Y12143628D01*
X10144542Y12143628D01*
X10144538Y12143626D01*
X10041641Y12095644D01*
X9957356Y12011359D01*
X9906981Y11903330D01*
X9900500Y11854103D01*
X5401499Y11854103D01*
X5395019Y11903330D01*
X5392627Y11908461D01*
X5363560Y11970794D01*
X5344644Y12011359D01*
X5260359Y12095644D01*
X5152330Y12146019D01*
X5103103Y12152500D01*
X4401290Y12152500D01*
X3698898Y12152499D01*
X3696492Y12152182D01*
X3696488Y12152182D01*
X3655282Y12146758D01*
X3655280Y12146757D01*
X3649670Y12146019D01*
X3644543Y12143628D01*
X3644542Y12143628D01*
X3644538Y12143626D01*
X3541641Y12095644D01*
X3457356Y12011359D01*
X3406981Y11903330D01*
X3400500Y11854103D01*
X200000Y11854103D01*
X200000Y20272076D01*
X2510500Y20272076D01*
X2520698Y20157813D01*
X2573923Y19972194D01*
X2663385Y19801070D01*
X2665755Y19798164D01*
X2665757Y19798161D01*
X2768843Y19671766D01*
X2785429Y19651429D01*
X2788335Y19649059D01*
X2932161Y19531757D01*
X2932164Y19531755D01*
X2935070Y19529385D01*
X3106194Y19439923D01*
X3291813Y19386698D01*
X3295321Y19386385D01*
X3295326Y19386384D01*
X3404428Y19376647D01*
X3404430Y19376647D01*
X3406076Y19376500D01*
X3534764Y19376500D01*
X3569064Y19368071D01*
X3594099Y19354975D01*
X3594102Y19354974D01*
X3597319Y19353291D01*
X3600801Y19352269D01*
X3600805Y19352267D01*
X3631905Y19343136D01*
X3665440Y19333289D01*
X3737000Y19323000D01*
X7587783Y19323000D01*
X7598209Y19322262D01*
X10165747Y18956881D01*
X10165759Y18956880D01*
X10166381Y18956791D01*
X10175933Y18955774D01*
X10183593Y18954958D01*
X10183615Y18954956D01*
X10184226Y18954891D01*
X10194240Y18954182D01*
X10201299Y18953682D01*
X10201304Y18953682D01*
X10201978Y18953634D01*
X10202636Y18953611D01*
X10202650Y18953610D01*
X10211571Y18953295D01*
X10219919Y18953000D01*
X14685000Y18953000D01*
X14686971Y18953212D01*
X14686973Y18953212D01*
X14737022Y18958592D01*
X14737030Y18958593D01*
X14738990Y18958804D01*
X14762298Y18963874D01*
X14790373Y18969981D01*
X14790387Y18969984D01*
X14791332Y18970190D01*
X14817555Y18977384D01*
X14903676Y19026425D01*
X14929502Y19048803D01*
X14956098Y19071848D01*
X14956107Y19071857D01*
X14957332Y19072918D01*
X14975598Y19091848D01*
X14985099Y19101694D01*
X14985100Y19101696D01*
X14988773Y19105502D01*
X15005929Y19138300D01*
X15043317Y19172424D01*
X15093892Y19174532D01*
X15133989Y19143638D01*
X15145500Y19104001D01*
X15145500Y17917563D01*
X15145455Y17914969D01*
X15143311Y17853845D01*
X15142824Y17847585D01*
X15136971Y17799016D01*
X15136626Y17796157D01*
X15135339Y17788709D01*
X15127057Y17752075D01*
X15124799Y17744163D01*
X15114827Y17715402D01*
X15111941Y17708295D01*
X15098538Y17679651D01*
X15095901Y17674541D01*
X15076174Y17639715D01*
X15074661Y17637165D01*
X15046737Y17592171D01*
X15013557Y17538903D01*
X15011870Y17536146D01*
X15011694Y17535853D01*
X15010366Y17533609D01*
X14975193Y17473286D01*
X14972785Y17469038D01*
X14972514Y17468546D01*
X14972392Y17468319D01*
X14972372Y17468281D01*
X14970372Y17464541D01*
X14970186Y17464193D01*
X14970059Y17463948D01*
X14967673Y17459352D01*
X14960707Y17448403D01*
X14946464Y17429841D01*
X14885956Y17283762D01*
X14865318Y17127000D01*
X14885956Y16970238D01*
X14946464Y16824159D01*
X14949414Y16820315D01*
X14949416Y16820311D01*
X15039763Y16702569D01*
X15042718Y16698718D01*
X15046569Y16695763D01*
X15164311Y16605416D01*
X15164315Y16605414D01*
X15168159Y16602464D01*
X15314238Y16541956D01*
X15319040Y16541324D01*
X15319043Y16541323D01*
X15466192Y16521951D01*
X15471000Y16521318D01*
X15475808Y16521951D01*
X15622957Y16541323D01*
X15622960Y16541324D01*
X15627762Y16541956D01*
X15773841Y16602464D01*
X15777685Y16605414D01*
X15777689Y16605416D01*
X15895431Y16695763D01*
X15899282Y16698718D01*
X15902237Y16702569D01*
X15992584Y16820311D01*
X15992586Y16820315D01*
X15995536Y16824159D01*
X16056044Y16970238D01*
X16076682Y17127000D01*
X16056044Y17283762D01*
X15995536Y17429841D01*
X15981294Y17448402D01*
X15974326Y17459355D01*
X15971974Y17463885D01*
X15971931Y17463967D01*
X15971815Y17464190D01*
X15969497Y17468524D01*
X15969220Y17469027D01*
X15966803Y17473291D01*
X15966687Y17473491D01*
X15931741Y17533424D01*
X15931726Y17533449D01*
X15931633Y17533609D01*
X15930305Y17535853D01*
X15930129Y17536146D01*
X15928442Y17538903D01*
X15895262Y17592171D01*
X15867338Y17637165D01*
X15865825Y17639715D01*
X15846098Y17674541D01*
X15843461Y17679651D01*
X15830058Y17708295D01*
X15827172Y17715402D01*
X15817200Y17744163D01*
X15814942Y17752075D01*
X15806660Y17788709D01*
X15805373Y17796157D01*
X15805029Y17799016D01*
X15799175Y17847585D01*
X15798688Y17853846D01*
X15796545Y17914963D01*
X15796500Y17917556D01*
X15796500Y18690017D01*
X15813813Y18737583D01*
X15857650Y18762893D01*
X15907500Y18754103D01*
X15940721Y18713363D01*
X17031297Y15433114D01*
X17035946Y15420292D01*
X17040897Y15407702D01*
X17085315Y15334324D01*
X17096259Y15321694D01*
X17130738Y15281902D01*
X17130747Y15281893D01*
X17131808Y15280668D01*
X17164392Y15249227D01*
X17169082Y15246774D01*
X17169083Y15246773D01*
X17173186Y15244627D01*
X17252209Y15203291D01*
X17320330Y15183289D01*
X17391890Y15173000D01*
X18975000Y15173000D01*
X18976971Y15173212D01*
X18976973Y15173212D01*
X19027022Y15178592D01*
X19027030Y15178593D01*
X19028990Y15178804D01*
X19053023Y15184032D01*
X19080373Y15189981D01*
X19080387Y15189984D01*
X19081332Y15190190D01*
X19107555Y15197384D01*
X19117929Y15203291D01*
X19139068Y15215329D01*
X19193676Y15246425D01*
X19234619Y15281902D01*
X19246098Y15291848D01*
X19246107Y15291857D01*
X19247332Y15292918D01*
X19278773Y15325502D01*
X19282148Y15331953D01*
X19323024Y15410098D01*
X19324709Y15413319D01*
X19344711Y15481440D01*
X19355000Y15553000D01*
X19355000Y17801000D01*
X19349196Y17854990D01*
X19337810Y17907332D01*
X19330616Y17933555D01*
X19281575Y18019676D01*
X19266165Y18037460D01*
X19236152Y18072098D01*
X19236143Y18072107D01*
X19235082Y18073332D01*
X19202498Y18104773D01*
X19114681Y18150709D01*
X19046560Y18170711D01*
X18975000Y18181000D01*
X17542463Y18181000D01*
X17494897Y18198313D01*
X17471804Y18233017D01*
X17199177Y19109317D01*
X17201577Y19159879D01*
X17235917Y19197069D01*
X17290684Y19202303D01*
X17355440Y19183289D01*
X17427000Y19173000D01*
X19102002Y19173000D01*
X19106062Y19172889D01*
X22733607Y18973573D01*
X22740564Y18973286D01*
X22747477Y18973096D01*
X22754455Y18973000D01*
X24695000Y18973000D01*
X24696971Y18973212D01*
X24696973Y18973212D01*
X24747022Y18978592D01*
X24747030Y18978593D01*
X24748990Y18978804D01*
X24772298Y18983874D01*
X24800373Y18989981D01*
X24800387Y18989984D01*
X24801332Y18990190D01*
X24827555Y18997384D01*
X24913676Y19046425D01*
X24945607Y19074093D01*
X24966098Y19091848D01*
X24966107Y19091857D01*
X24967332Y19092918D01*
X24975800Y19101694D01*
X24995099Y19121694D01*
X24995100Y19121696D01*
X24998773Y19125502D01*
X25005468Y19138300D01*
X25025992Y19177538D01*
X25044709Y19213319D01*
X25064711Y19281440D01*
X25075000Y19353000D01*
X25075000Y22511000D01*
X25072658Y22532786D01*
X25069408Y22563022D01*
X25069407Y22563030D01*
X25069196Y22564990D01*
X25057810Y22617332D01*
X25050616Y22643555D01*
X25001575Y22729676D01*
X24980632Y22753846D01*
X24956152Y22782098D01*
X24956143Y22782107D01*
X24955082Y22783332D01*
X24922498Y22814773D01*
X24891477Y22831000D01*
X24837902Y22859024D01*
X24837903Y22859024D01*
X24834681Y22860709D01*
X24766560Y22880711D01*
X24695000Y22891000D01*
X22673440Y22891000D01*
X22660957Y22890385D01*
X22649380Y22889815D01*
X22649363Y22889814D01*
X22648475Y22889770D01*
X22623831Y22887336D01*
X22609712Y22885236D01*
X22599989Y22883790D01*
X22599977Y22883788D01*
X22599117Y22883660D01*
X22307037Y22825408D01*
X22241994Y22812436D01*
X19083085Y22182429D01*
X19068612Y22181000D01*
X17427000Y22181000D01*
X17425029Y22180788D01*
X17425027Y22180788D01*
X17374978Y22175408D01*
X17374970Y22175407D01*
X17373010Y22175196D01*
X17349702Y22170126D01*
X17321627Y22164019D01*
X17321613Y22164016D01*
X17320668Y22163810D01*
X17294445Y22156616D01*
X17290426Y22154327D01*
X17290425Y22154327D01*
X17245618Y22128812D01*
X17195716Y22120319D01*
X17152031Y22145889D01*
X17135000Y22193117D01*
X17135000Y22201000D01*
X17129196Y22254990D01*
X17117810Y22307332D01*
X17110616Y22333555D01*
X17061575Y22419676D01*
X17025697Y22461082D01*
X17016152Y22472098D01*
X17016143Y22472107D01*
X17015082Y22473332D01*
X16982498Y22504773D01*
X16977142Y22507575D01*
X16897902Y22549024D01*
X16897903Y22549024D01*
X16894681Y22550709D01*
X16826560Y22570711D01*
X16755000Y22581000D01*
X16147000Y22581000D01*
X16147000Y22581168D01*
X16099340Y22595679D01*
X16071723Y22638100D01*
X16077834Y22688349D01*
X16091481Y22707155D01*
X16254152Y22869826D01*
X16300028Y22891218D01*
X16306478Y22891500D01*
X16895748Y22891500D01*
X16899317Y22892210D01*
X16899318Y22892210D01*
X16909705Y22894276D01*
X16954231Y22903133D01*
X17020552Y22947448D01*
X17032032Y22964629D01*
X17060816Y23007706D01*
X17060816Y23007707D01*
X17064867Y23013769D01*
X17076500Y23072252D01*
X17076500Y23611748D01*
X17064867Y23670231D01*
X17041632Y23705005D01*
X17024602Y23730491D01*
X17020552Y23736552D01*
X16954231Y23780867D01*
X16909705Y23789724D01*
X16899318Y23791790D01*
X16899317Y23791790D01*
X16895748Y23792500D01*
X16006252Y23792500D01*
X16002683Y23791790D01*
X16002682Y23791790D01*
X15992295Y23789724D01*
X15947769Y23780867D01*
X15881448Y23736552D01*
X15877398Y23730491D01*
X15860369Y23705005D01*
X15837133Y23670231D01*
X15825500Y23611748D01*
X15825500Y23392478D01*
X15808187Y23344912D01*
X15803826Y23340152D01*
X15253168Y22789494D01*
X15248409Y22785133D01*
X15217806Y22759455D01*
X15214568Y22753846D01*
X15203086Y22733958D01*
X15164310Y22701421D01*
X15113691Y22701421D01*
X15074914Y22733958D01*
X15065000Y22770958D01*
X15065000Y23531000D01*
X15059196Y23584990D01*
X15047810Y23637332D01*
X15040616Y23663555D01*
X15036815Y23670231D01*
X14993373Y23746518D01*
X14991575Y23749676D01*
X14963316Y23782289D01*
X14946152Y23802098D01*
X14946143Y23802107D01*
X14945082Y23803332D01*
X14912498Y23834773D01*
X14824681Y23880709D01*
X14756560Y23900711D01*
X14685000Y23911000D01*
X10236129Y23911000D01*
X10186453Y23906095D01*
X10138119Y23896456D01*
X10136379Y23895927D01*
X10136372Y23895925D01*
X10092110Y23882462D01*
X10092103Y23882459D01*
X10090359Y23881929D01*
X10088678Y23881231D01*
X10088676Y23881230D01*
X7573974Y22836661D01*
X7545587Y22831000D01*
X3737000Y22831000D01*
X3735029Y22830788D01*
X3735027Y22830788D01*
X3684978Y22825408D01*
X3684970Y22825407D01*
X3683010Y22825196D01*
X3659702Y22820126D01*
X3631627Y22814019D01*
X3631613Y22814016D01*
X3630668Y22813810D01*
X3629723Y22813551D01*
X3629720Y22813550D01*
X3620994Y22811156D01*
X3604445Y22806616D01*
X3600426Y22804327D01*
X3600425Y22804327D01*
X3570340Y22787195D01*
X3533722Y22777500D01*
X3406076Y22777500D01*
X3404430Y22777353D01*
X3404428Y22777353D01*
X3295326Y22767616D01*
X3295321Y22767615D01*
X3291813Y22767302D01*
X3106194Y22714077D01*
X3026927Y22672637D01*
X2962764Y22639093D01*
X2935070Y22624615D01*
X2932164Y22622245D01*
X2932161Y22622243D01*
X2859549Y22563022D01*
X2785429Y22502571D01*
X2783059Y22499665D01*
X2665757Y22355839D01*
X2665755Y22355836D01*
X2663385Y22352930D01*
X2661647Y22349605D01*
X2661646Y22349604D01*
X2653256Y22333555D01*
X2573923Y22181806D01*
X2520698Y21996187D01*
X2510500Y21881924D01*
X2510500Y20272076D01*
X200000Y20272076D01*
X200000Y22955877D01*
X201882Y22972461D01*
X201953Y22972770D01*
X205143Y22986642D01*
X203303Y22994772D01*
X203311Y22999196D01*
X202187Y23014788D01*
X215844Y23188316D01*
X217661Y23199785D01*
X263442Y23390472D01*
X267030Y23401515D01*
X342080Y23582704D01*
X347352Y23593051D01*
X360998Y23615318D01*
X449819Y23760261D01*
X456640Y23769650D01*
X584011Y23918781D01*
X592220Y23926990D01*
X741350Y24054360D01*
X750739Y24061181D01*
X844867Y24118863D01*
X917953Y24163650D01*
X928296Y24168920D01*
X1109485Y24243970D01*
X1120528Y24247558D01*
X1215872Y24270449D01*
X1311219Y24293340D01*
X1322681Y24295155D01*
X1495750Y24308777D01*
X1509845Y24307735D01*
X1515519Y24307725D01*
X1523642Y24305857D01*
X1538305Y24309175D01*
X1554637Y24311000D01*
X25495877Y24311000D01*
X25512461Y24309118D01*
G37*
%TD.AperFunction*%
%TD*%
M02*
