%TF.GenerationSoftware,KiCad,Pcbnew,(6.0.1)*%
%TF.CreationDate,2023-01-05T10:23:13+08:00*%
%TF.ProjectId,Solenoid valve,536f6c65-6e6f-4696-9420-76616c76652e,rev?*%
%TF.SameCoordinates,Original*%
%TF.FileFunction,Legend,Bot*%
%TF.FilePolarity,Positive*%
%FSLAX46Y46*%
G04 Gerber Fmt 4.6, Leading zero omitted, Abs format (unit mm)*
G04 Created by KiCad (PCBNEW (6.0.1)) date 2023-01-05 10:23:13*
%MOMM*%
%LPD*%
G01*
G04 APERTURE LIST*
%ADD10C,0.100000*%
%ADD11C,0.120000*%
G04 APERTURE END LIST*
D10*
X13330047Y883191D02*
X13306238Y907000D01*
X13258619Y930810D01*
X13139571Y930810D01*
X13091952Y907000D01*
X13068142Y883191D01*
X13044333Y835572D01*
X13044333Y787953D01*
X13068142Y716524D01*
X13353857Y430810D01*
X13044333Y430810D01*
X12734809Y930810D02*
X12687190Y930810D01*
X12639571Y907000D01*
X12615761Y883191D01*
X12591952Y835572D01*
X12568142Y740334D01*
X12568142Y621286D01*
X12591952Y526048D01*
X12615761Y478429D01*
X12639571Y454620D01*
X12687190Y430810D01*
X12734809Y430810D01*
X12782428Y454620D01*
X12806238Y478429D01*
X12830047Y526048D01*
X12853857Y621286D01*
X12853857Y740334D01*
X12830047Y835572D01*
X12806238Y883191D01*
X12782428Y907000D01*
X12734809Y930810D01*
X12258619Y930810D02*
X12211000Y930810D01*
X12163380Y907000D01*
X12139571Y883191D01*
X12115761Y835572D01*
X12091952Y740334D01*
X12091952Y621286D01*
X12115761Y526048D01*
X12139571Y478429D01*
X12163380Y454620D01*
X12211000Y430810D01*
X12258619Y430810D01*
X12306238Y454620D01*
X12330047Y478429D01*
X12353857Y526048D01*
X12377666Y621286D01*
X12377666Y740334D01*
X12353857Y835572D01*
X12330047Y883191D01*
X12306238Y907000D01*
X12258619Y930810D01*
X11877666Y430810D02*
X11877666Y930810D01*
X11591952Y430810D02*
X11806238Y716524D01*
X11591952Y930810D02*
X11877666Y645096D01*
X16656238Y2010810D02*
X16561000Y2010810D01*
X16513380Y2034620D01*
X16489571Y2058429D01*
X16441952Y2129858D01*
X16418142Y2225096D01*
X16418142Y2415572D01*
X16441952Y2463191D01*
X16465761Y2487000D01*
X16513380Y2510810D01*
X16608619Y2510810D01*
X16656238Y2487000D01*
X16680047Y2463191D01*
X16703857Y2415572D01*
X16703857Y2296524D01*
X16680047Y2248905D01*
X16656238Y2225096D01*
X16608619Y2201286D01*
X16513380Y2201286D01*
X16465761Y2225096D01*
X16441952Y2248905D01*
X16418142Y2296524D01*
X16203857Y2010810D02*
X16203857Y2510810D01*
X15918142Y2010810D02*
X16132428Y2296524D01*
X15918142Y2510810D02*
X16203857Y2225096D01*
X10447190Y14882239D02*
X10447190Y15167953D01*
X10447190Y15025096D02*
X9947190Y15025096D01*
X10018619Y15072715D01*
X10066238Y15120334D01*
X10090047Y15167953D01*
X9947190Y14572715D02*
X9947190Y14525096D01*
X9971000Y14477477D01*
X9994809Y14453667D01*
X10042428Y14429858D01*
X10137666Y14406048D01*
X10256714Y14406048D01*
X10351952Y14429858D01*
X10399571Y14453667D01*
X10423380Y14477477D01*
X10447190Y14525096D01*
X10447190Y14572715D01*
X10423380Y14620334D01*
X10399571Y14644143D01*
X10351952Y14667953D01*
X10256714Y14691762D01*
X10137666Y14691762D01*
X10042428Y14667953D01*
X9994809Y14644143D01*
X9971000Y14620334D01*
X9947190Y14572715D01*
X10447190Y14191762D02*
X9947190Y14191762D01*
X10447190Y13906048D02*
X10161476Y14120334D01*
X9947190Y13906048D02*
X10232904Y14191762D01*
X11696238Y9360810D02*
X11981952Y9360810D01*
X11839095Y9360810D02*
X11839095Y9860810D01*
X11886714Y9789381D01*
X11934333Y9741762D01*
X11981952Y9717953D01*
X11386714Y9860810D02*
X11339095Y9860810D01*
X11291476Y9837000D01*
X11267666Y9813191D01*
X11243857Y9765572D01*
X11220047Y9670334D01*
X11220047Y9551286D01*
X11243857Y9456048D01*
X11267666Y9408429D01*
X11291476Y9384620D01*
X11339095Y9360810D01*
X11386714Y9360810D01*
X11434333Y9384620D01*
X11458142Y9408429D01*
X11481952Y9456048D01*
X11505761Y9551286D01*
X11505761Y9670334D01*
X11481952Y9765572D01*
X11458142Y9813191D01*
X11434333Y9837000D01*
X11386714Y9860810D01*
X11005761Y9360810D02*
X11005761Y9860810D01*
X10720047Y9360810D02*
X10934333Y9646524D01*
X10720047Y9860810D02*
X11005761Y9575096D01*
X15947190Y14320334D02*
X15947190Y14606048D01*
X15947190Y14463191D02*
X15447190Y14463191D01*
X15518619Y14510810D01*
X15566238Y14558429D01*
X15590047Y14606048D01*
X15447190Y14010810D02*
X15447190Y13963191D01*
X15471000Y13915572D01*
X15494809Y13891762D01*
X15542428Y13867953D01*
X15637666Y13844143D01*
X15756714Y13844143D01*
X15851952Y13867953D01*
X15899571Y13891762D01*
X15923380Y13915572D01*
X15947190Y13963191D01*
X15947190Y14010810D01*
X15923380Y14058429D01*
X15899571Y14082239D01*
X15851952Y14106048D01*
X15756714Y14129858D01*
X15637666Y14129858D01*
X15542428Y14106048D01*
X15494809Y14082239D01*
X15471000Y14058429D01*
X15447190Y14010810D01*
X15447190Y13534620D02*
X15447190Y13487000D01*
X15471000Y13439381D01*
X15494809Y13415572D01*
X15542428Y13391762D01*
X15637666Y13367953D01*
X15756714Y13367953D01*
X15851952Y13391762D01*
X15899571Y13415572D01*
X15923380Y13439381D01*
X15947190Y13487000D01*
X15947190Y13534620D01*
X15923380Y13582239D01*
X15899571Y13606048D01*
X15851952Y13629858D01*
X15756714Y13653667D01*
X15637666Y13653667D01*
X15542428Y13629858D01*
X15494809Y13606048D01*
X15471000Y13582239D01*
X15447190Y13534620D01*
X15947190Y13153667D02*
X15447190Y13153667D01*
X15947190Y12867953D02*
X15661476Y13082239D01*
X15447190Y12867953D02*
X15732904Y13153667D01*
X14496238Y420810D02*
X14781952Y420810D01*
X14639095Y420810D02*
X14639095Y920810D01*
X14686714Y849381D01*
X14734333Y801762D01*
X14781952Y777953D01*
X14067666Y754143D02*
X14067666Y420810D01*
X14186714Y944620D02*
X14305761Y587477D01*
X13996238Y587477D01*
X13805761Y420810D02*
X13805761Y920810D01*
X13520047Y420810D02*
X13734333Y706524D01*
X13520047Y920810D02*
X13805761Y635096D01*
X11176238Y450810D02*
X11461952Y450810D01*
X11319095Y450810D02*
X11319095Y950810D01*
X11366714Y879381D01*
X11414333Y831762D01*
X11461952Y807953D01*
X10866714Y950810D02*
X10819095Y950810D01*
X10771476Y927000D01*
X10747666Y903191D01*
X10723857Y855572D01*
X10700047Y760334D01*
X10700047Y641286D01*
X10723857Y546048D01*
X10747666Y498429D01*
X10771476Y474620D01*
X10819095Y450810D01*
X10866714Y450810D01*
X10914333Y474620D01*
X10938142Y498429D01*
X10961952Y546048D01*
X10985761Y641286D01*
X10985761Y760334D01*
X10961952Y855572D01*
X10938142Y903191D01*
X10914333Y927000D01*
X10866714Y950810D01*
X10485761Y450810D02*
X10485761Y950810D01*
X10200047Y450810D02*
X10414333Y736524D01*
X10200047Y950810D02*
X10485761Y665096D01*
X9153857Y2254143D02*
X9153857Y1920810D01*
X9272904Y2444620D02*
X9391952Y2087477D01*
X9082428Y2087477D01*
X8939571Y2420810D02*
X8606238Y2420810D01*
X8820523Y1920810D01*
X8415761Y1920810D02*
X8415761Y2420810D01*
X8130047Y1920810D02*
X8344333Y2206524D01*
X8130047Y2420810D02*
X8415761Y2135096D01*
X17767190Y8778905D02*
X17767190Y8469381D01*
X17957666Y8636048D01*
X17957666Y8564620D01*
X17981476Y8517000D01*
X18005285Y8493191D01*
X18052904Y8469381D01*
X18171952Y8469381D01*
X18219571Y8493191D01*
X18243380Y8517000D01*
X18267190Y8564620D01*
X18267190Y8707477D01*
X18243380Y8755096D01*
X18219571Y8778905D01*
X17981476Y8183667D02*
X17957666Y8231286D01*
X17933857Y8255096D01*
X17886238Y8278905D01*
X17862428Y8278905D01*
X17814809Y8255096D01*
X17791000Y8231286D01*
X17767190Y8183667D01*
X17767190Y8088429D01*
X17791000Y8040810D01*
X17814809Y8017000D01*
X17862428Y7993191D01*
X17886238Y7993191D01*
X17933857Y8017000D01*
X17957666Y8040810D01*
X17981476Y8088429D01*
X17981476Y8183667D01*
X18005285Y8231286D01*
X18029095Y8255096D01*
X18076714Y8278905D01*
X18171952Y8278905D01*
X18219571Y8255096D01*
X18243380Y8231286D01*
X18267190Y8183667D01*
X18267190Y8088429D01*
X18243380Y8040810D01*
X18219571Y8017000D01*
X18171952Y7993191D01*
X18076714Y7993191D01*
X18029095Y8017000D01*
X18005285Y8040810D01*
X17981476Y8088429D01*
X18219571Y7778905D02*
X18243380Y7755096D01*
X18267190Y7778905D01*
X18243380Y7802715D01*
X18219571Y7778905D01*
X18267190Y7778905D01*
X17767190Y7588429D02*
X17767190Y7278905D01*
X17957666Y7445572D01*
X17957666Y7374143D01*
X17981476Y7326524D01*
X18005285Y7302715D01*
X18052904Y7278905D01*
X18171952Y7278905D01*
X18219571Y7302715D01*
X18243380Y7326524D01*
X18267190Y7374143D01*
X18267190Y7517000D01*
X18243380Y7564620D01*
X18219571Y7588429D01*
X18267190Y7064620D02*
X17767190Y7064620D01*
X18267190Y6778905D02*
X17981476Y6993191D01*
X17767190Y6778905D02*
X18052904Y7064620D01*
D11*
%TO.C,R8*%
X12028500Y2794258D02*
X12028500Y2319742D01*
X13073500Y2794258D02*
X13073500Y2319742D01*
%TO.C,C2*%
X12561000Y13867580D02*
X12561000Y13586420D01*
X13581000Y13867580D02*
X13581000Y13586420D01*
%TO.C,R2*%
X11833500Y11719258D02*
X11833500Y11244742D01*
X10788500Y11719258D02*
X10788500Y11244742D01*
%TO.C,R1*%
X11833500Y14274742D02*
X11833500Y14749258D01*
X10788500Y14274742D02*
X10788500Y14749258D01*
%TO.C,R6*%
X14593500Y2329742D02*
X14593500Y2804258D01*
X13548500Y2329742D02*
X13548500Y2804258D01*
%TO.C,R10*%
X16103742Y3839500D02*
X16578258Y3839500D01*
X16103742Y2794500D02*
X16578258Y2794500D01*
%TO.C,R4*%
X8998258Y2854500D02*
X8523742Y2854500D01*
X8998258Y3899500D02*
X8523742Y3899500D01*
%TO.C,R7*%
X17413500Y8124258D02*
X17413500Y7649742D01*
X16368500Y8124258D02*
X16368500Y7649742D01*
%TO.C,R9*%
X15113500Y13964258D02*
X15113500Y13489742D01*
X14068500Y13964258D02*
X14068500Y13489742D01*
%TO.C,R5*%
X10508500Y2794258D02*
X10508500Y2319742D01*
X11553500Y2794258D02*
X11553500Y2319742D01*
%TO.C,C1*%
X9281000Y11622580D02*
X9281000Y11341420D01*
X10301000Y11622580D02*
X10301000Y11341420D01*
%TO.C,U2*%
X12471000Y8397000D02*
X12471000Y6897000D01*
X15691000Y8397000D02*
X15691000Y5472000D01*
X12471000Y8397000D02*
X12471000Y9897000D01*
X15691000Y8397000D02*
X15691000Y9897000D01*
%TD*%
M02*
