%TF.GenerationSoftware,KiCad,Pcbnew,(6.0.1)*%
%TF.CreationDate,2023-03-26T21:52:57+08:00*%
%TF.ProjectId,Solenoid valve,536f6c65-6e6f-4696-9420-76616c76652e,rev?*%
%TF.SameCoordinates,Original*%
%TF.FileFunction,Soldermask,Bot*%
%TF.FilePolarity,Negative*%
%FSLAX46Y46*%
G04 Gerber Fmt 4.6, Leading zero omitted, Abs format (unit mm)*
G04 Created by KiCad (PCBNEW (6.0.1)) date 2023-03-26 21:52:57*
%MOMM*%
%LPD*%
G01*
G04 APERTURE LIST*
G04 Aperture macros list*
%AMRoundRect*
0 Rectangle with rounded corners*
0 $1 Rounding radius*
0 $2 $3 $4 $5 $6 $7 $8 $9 X,Y pos of 4 corners*
0 Add a 4 corners polygon primitive as box body*
4,1,4,$2,$3,$4,$5,$6,$7,$8,$9,$2,$3,0*
0 Add four circle primitives for the rounded corners*
1,1,$1+$1,$2,$3*
1,1,$1+$1,$4,$5*
1,1,$1+$1,$6,$7*
1,1,$1+$1,$8,$9*
0 Add four rect primitives between the rounded corners*
20,1,$1+$1,$2,$3,$4,$5,0*
20,1,$1+$1,$4,$5,$6,$7,0*
20,1,$1+$1,$6,$7,$8,$9,0*
20,1,$1+$1,$8,$9,$2,$3,0*%
G04 Aperture macros list end*
%ADD10C,2.700000*%
%ADD11R,3.000000X3.000000*%
%ADD12C,3.000000*%
%ADD13RoundRect,0.750000X0.750000X-0.750000X0.750000X0.750000X-0.750000X0.750000X-0.750000X-0.750000X0*%
%ADD14RoundRect,0.200000X-0.275000X0.200000X-0.275000X-0.200000X0.275000X-0.200000X0.275000X0.200000X0*%
%ADD15R,1.800000X2.500000*%
%ADD16RoundRect,0.225000X0.250000X-0.225000X0.250000X0.225000X-0.250000X0.225000X-0.250000X-0.225000X0*%
%ADD17RoundRect,0.200000X0.275000X-0.200000X0.275000X0.200000X-0.275000X0.200000X-0.275000X-0.200000X0*%
%ADD18RoundRect,0.200000X-0.200000X-0.275000X0.200000X-0.275000X0.200000X0.275000X-0.200000X0.275000X0*%
%ADD19RoundRect,0.200000X0.200000X0.275000X-0.200000X0.275000X-0.200000X-0.275000X0.200000X-0.275000X0*%
%ADD20RoundRect,0.075000X0.075000X-0.650000X0.075000X0.650000X-0.075000X0.650000X-0.075000X-0.650000X0*%
G04 APERTURE END LIST*
D10*
%TO.C,H1*%
X2211000Y2147000D03*
%TD*%
D11*
%TO.C,J2*%
X23111000Y15927000D03*
D12*
X23111000Y20927000D03*
%TD*%
D10*
%TO.C,H2*%
X24861000Y2157000D03*
%TD*%
D13*
%TO.C,J3*%
X4211000Y21077000D03*
D12*
X4211000Y16077000D03*
%TD*%
D14*
%TO.C,R8*%
X12551000Y3382000D03*
X12551000Y1732000D03*
%TD*%
D15*
%TO.C,D2*%
X18201000Y20677000D03*
X18201000Y16677000D03*
%TD*%
D16*
%TO.C,C2*%
X13071000Y12952000D03*
X13071000Y14502000D03*
%TD*%
D17*
%TO.C,R2*%
X11311000Y10657000D03*
X11311000Y12307000D03*
%TD*%
%TO.C,R1*%
X11311000Y13687000D03*
X11311000Y15337000D03*
%TD*%
%TO.C,R6*%
X14071000Y1742000D03*
X14071000Y3392000D03*
%TD*%
D18*
%TO.C,R10*%
X15516000Y3317000D03*
X17166000Y3317000D03*
%TD*%
D19*
%TO.C,R4*%
X9586000Y3377000D03*
X7936000Y3377000D03*
%TD*%
D18*
%TO.C,R12*%
X7126000Y8077000D03*
X8776000Y8077000D03*
%TD*%
D14*
%TO.C,R7*%
X16891000Y8712000D03*
X16891000Y7062000D03*
%TD*%
D17*
%TO.C,R9*%
X14591000Y12902000D03*
X14591000Y14552000D03*
%TD*%
%TO.C,R5*%
X11031000Y1732000D03*
X11031000Y3382000D03*
%TD*%
D16*
%TO.C,C1*%
X9791000Y10707000D03*
X9791000Y12257000D03*
%TD*%
D20*
%TO.C,U2*%
X15081000Y6197000D03*
X14581000Y6197000D03*
X14081000Y6197000D03*
X13581000Y6197000D03*
X13081000Y6197000D03*
X13081000Y10597000D03*
X13581000Y10597000D03*
X14081000Y10597000D03*
X14581000Y10597000D03*
X15081000Y10597000D03*
%TD*%
G36*
X16823121Y22306998D02*
G01*
X16869614Y22253342D01*
X16881000Y22201000D01*
X16881000Y19286520D01*
X16883828Y19267910D01*
X17295618Y17944299D01*
X17304419Y17931075D01*
X17313735Y17927000D01*
X18975000Y17927000D01*
X19043121Y17906998D01*
X19089614Y17853342D01*
X19101000Y17801000D01*
X19101000Y15553000D01*
X19080998Y15484879D01*
X19027342Y15438386D01*
X18975000Y15427000D01*
X17391890Y15427000D01*
X17323769Y15447002D01*
X17277276Y15500658D01*
X17272325Y15513248D01*
X16027435Y19257645D01*
X16021000Y19297397D01*
X16021000Y22201000D01*
X16041002Y22269121D01*
X16094658Y22315614D01*
X16147000Y22327000D01*
X16755000Y22327000D01*
X16823121Y22306998D01*
G37*
G36*
X14713026Y22556946D02*
G01*
X14759567Y22503332D01*
X14771000Y22450887D01*
X14771000Y19693000D01*
X14750998Y19624879D01*
X14697342Y19578386D01*
X14645000Y19567000D01*
X3737000Y19567000D01*
X3668879Y19587002D01*
X3622386Y19640658D01*
X3611000Y19693000D01*
X3611000Y22441113D01*
X3631002Y22509234D01*
X3684658Y22555727D01*
X3736887Y22567113D01*
X14644887Y22576887D01*
X14713026Y22556946D01*
G37*
G36*
X24763121Y22616998D02*
G01*
X24809614Y22563342D01*
X24821000Y22511000D01*
X24821000Y19353000D01*
X24800998Y19284879D01*
X24747342Y19238386D01*
X24695000Y19227000D01*
X22754465Y19227000D01*
X22747533Y19227191D01*
X19122729Y19426905D01*
X19119272Y19427000D01*
X17427000Y19427000D01*
X17358879Y19447002D01*
X17312386Y19500658D01*
X17301000Y19553000D01*
X17301000Y21801000D01*
X17321002Y21869121D01*
X17374658Y21915614D01*
X17427000Y21927000D01*
X19084807Y21927000D01*
X19097072Y21928208D01*
X22648832Y22634580D01*
X22673409Y22637000D01*
X24695000Y22637000D01*
X24763121Y22616998D01*
G37*
M02*
