%TF.GenerationSoftware,KiCad,Pcbnew,(6.0.1)*%
%TF.CreationDate,2023-01-05T10:23:13+08:00*%
%TF.ProjectId,Solenoid valve,536f6c65-6e6f-4696-9420-76616c76652e,rev?*%
%TF.SameCoordinates,Original*%
%TF.FileFunction,Copper,L2,Bot*%
%TF.FilePolarity,Positive*%
%FSLAX46Y46*%
G04 Gerber Fmt 4.6, Leading zero omitted, Abs format (unit mm)*
G04 Created by KiCad (PCBNEW (6.0.1)) date 2023-01-05 10:23:13*
%MOMM*%
%LPD*%
G01*
G04 APERTURE LIST*
G04 Aperture macros list*
%AMRoundRect*
0 Rectangle with rounded corners*
0 $1 Rounding radius*
0 $2 $3 $4 $5 $6 $7 $8 $9 X,Y pos of 4 corners*
0 Add a 4 corners polygon primitive as box body*
4,1,4,$2,$3,$4,$5,$6,$7,$8,$9,$2,$3,0*
0 Add four circle primitives for the rounded corners*
1,1,$1+$1,$2,$3*
1,1,$1+$1,$4,$5*
1,1,$1+$1,$6,$7*
1,1,$1+$1,$8,$9*
0 Add four rect primitives between the rounded corners*
20,1,$1+$1,$2,$3,$4,$5,0*
20,1,$1+$1,$4,$5,$6,$7,0*
20,1,$1+$1,$6,$7,$8,$9,0*
20,1,$1+$1,$8,$9,$2,$3,0*%
G04 Aperture macros list end*
%TA.AperFunction,ComponentPad*%
%ADD10R,3.000000X3.000000*%
%TD*%
%TA.AperFunction,ComponentPad*%
%ADD11C,3.000000*%
%TD*%
%TA.AperFunction,ComponentPad*%
%ADD12RoundRect,0.750000X0.750000X-0.750000X0.750000X0.750000X-0.750000X0.750000X-0.750000X-0.750000X0*%
%TD*%
%TA.AperFunction,SMDPad,CuDef*%
%ADD13RoundRect,0.200000X-0.275000X0.200000X-0.275000X-0.200000X0.275000X-0.200000X0.275000X0.200000X0*%
%TD*%
%TA.AperFunction,SMDPad,CuDef*%
%ADD14RoundRect,0.225000X-0.250000X0.225000X-0.250000X-0.225000X0.250000X-0.225000X0.250000X0.225000X0*%
%TD*%
%TA.AperFunction,SMDPad,CuDef*%
%ADD15RoundRect,0.200000X0.275000X-0.200000X0.275000X0.200000X-0.275000X0.200000X-0.275000X-0.200000X0*%
%TD*%
%TA.AperFunction,SMDPad,CuDef*%
%ADD16RoundRect,0.200000X-0.200000X-0.275000X0.200000X-0.275000X0.200000X0.275000X-0.200000X0.275000X0*%
%TD*%
%TA.AperFunction,SMDPad,CuDef*%
%ADD17RoundRect,0.200000X0.200000X0.275000X-0.200000X0.275000X-0.200000X-0.275000X0.200000X-0.275000X0*%
%TD*%
%TA.AperFunction,SMDPad,CuDef*%
%ADD18RoundRect,0.075000X0.075000X-0.650000X0.075000X0.650000X-0.075000X0.650000X-0.075000X-0.650000X0*%
%TD*%
%TA.AperFunction,ViaPad*%
%ADD19C,0.800000*%
%TD*%
%TA.AperFunction,Conductor*%
%ADD20C,0.250000*%
%TD*%
%TA.AperFunction,Conductor*%
%ADD21C,0.800000*%
%TD*%
%TA.AperFunction,Conductor*%
%ADD22C,0.320000*%
%TD*%
G04 APERTURE END LIST*
D10*
%TO.P,J2,1,Pin_1*%
%TO.N,Net-(J2-Pad1)*%
X23111000Y19707000D03*
D11*
%TO.P,J2,2,Pin_2*%
%TO.N,GND*%
X23111000Y14707000D03*
%TD*%
D12*
%TO.P,J3,1,Pin_1*%
%TO.N,+24V*%
X4211000Y19977000D03*
D11*
%TO.P,J3,2,Pin_2*%
%TO.N,GND*%
X4211000Y14977000D03*
%TD*%
D13*
%TO.P,R8,1*%
%TO.N,Net-(R7-Pad1)*%
X12551000Y3382000D03*
%TO.P,R8,2*%
%TO.N,+24V*%
X12551000Y1732000D03*
%TD*%
D14*
%TO.P,C2,1*%
%TO.N,GND*%
X13071000Y14502000D03*
%TO.P,C2,2*%
%TO.N,Net-(C2-Pad2)*%
X13071000Y12952000D03*
%TD*%
D13*
%TO.P,R2,1*%
%TO.N,Net-(R1-Pad1)*%
X11311000Y12307000D03*
%TO.P,R2,2*%
%TO.N,Net-(C1-Pad2)*%
X11311000Y10657000D03*
%TD*%
D15*
%TO.P,R1,1*%
%TO.N,Net-(R1-Pad1)*%
X11311000Y13687000D03*
%TO.P,R1,2*%
%TO.N,+24V*%
X11311000Y15337000D03*
%TD*%
%TO.P,R6,1*%
%TO.N,GND*%
X14071000Y1742000D03*
%TO.P,R6,2*%
%TO.N,Net-(R6-Pad2)*%
X14071000Y3392000D03*
%TD*%
D16*
%TO.P,R10,1*%
%TO.N,+24V*%
X15516000Y3317000D03*
%TO.P,R10,2*%
%TO.N,Net-(R10-Pad2)*%
X17166000Y3317000D03*
%TD*%
D17*
%TO.P,R4,1*%
%TO.N,Net-(Q1-Pad3)*%
X9586000Y3377000D03*
%TO.P,R4,2*%
%TO.N,+24V*%
X7936000Y3377000D03*
%TD*%
D13*
%TO.P,R7,1*%
%TO.N,Net-(R7-Pad1)*%
X16891000Y8712000D03*
%TO.P,R7,2*%
%TO.N,Net-(R6-Pad2)*%
X16891000Y7062000D03*
%TD*%
%TO.P,R9,1*%
%TO.N,+24V*%
X14591000Y14552000D03*
%TO.P,R9,2*%
%TO.N,Net-(R9-Pad2)*%
X14591000Y12902000D03*
%TD*%
%TO.P,R5,1*%
%TO.N,Net-(Q1-Pad3)*%
X11031000Y3382000D03*
%TO.P,R5,2*%
%TO.N,GND*%
X11031000Y1732000D03*
%TD*%
D14*
%TO.P,C1,1*%
%TO.N,GND*%
X9791000Y12257000D03*
%TO.P,C1,2*%
%TO.N,Net-(C1-Pad2)*%
X9791000Y10707000D03*
%TD*%
D18*
%TO.P,U2,1,SENSE*%
%TO.N,Net-(R10-Pad2)*%
X15081000Y6197000D03*
%TO.P,U2,2,Vin*%
%TO.N,+24V*%
X14581000Y6197000D03*
%TO.P,U2,3,OVP*%
%TO.N,Net-(R6-Pad2)*%
X14081000Y6197000D03*
%TO.P,U2,4,UVLO*%
%TO.N,Net-(R7-Pad1)*%
X13581000Y6197000D03*
%TO.P,U2,5,EN*%
%TO.N,Net-(Q1-Pad3)*%
X13081000Y6197000D03*
%TO.P,U2,6,GND*%
%TO.N,GND*%
X13081000Y10597000D03*
%TO.P,U2,7,TIMER*%
%TO.N,Net-(C2-Pad2)*%
X13581000Y10597000D03*
%TO.P,U2,8,nPGD*%
%TO.N,Net-(R9-Pad2)*%
X14081000Y10597000D03*
%TO.P,U2,9,OUT*%
%TO.N,Net-(J2-Pad1)*%
X14581000Y10597000D03*
%TO.P,U2,10,GATE*%
%TO.N,Net-(Q2-Pad4)*%
X15081000Y10597000D03*
%TD*%
D19*
%TO.N,Net-(J2-Pad1)*%
X20611000Y20357000D03*
X17611000Y19357000D03*
X17921000Y9547000D03*
X19111000Y20357000D03*
X20611000Y19357000D03*
X17611000Y20357000D03*
X19111000Y19357000D03*
%TO.N,+24V*%
X9611000Y19357000D03*
X12111000Y19857000D03*
X8111000Y19357000D03*
X14111000Y20857000D03*
X11111000Y19857000D03*
X11111000Y18857000D03*
X13111000Y20857000D03*
X14111000Y18857000D03*
X14111000Y21857000D03*
X13111000Y21857000D03*
X12111000Y21857000D03*
X13111000Y19857000D03*
X12111000Y18857000D03*
X8111000Y20357000D03*
X11111000Y20857000D03*
X6611000Y19357000D03*
X9611000Y20357000D03*
X13111000Y18857000D03*
X6611000Y20357000D03*
X11111000Y21857000D03*
X14111000Y19857000D03*
X12111000Y20857000D03*
%TO.N,Net-(R1-Pad1)*%
X12223366Y11339666D03*
%TO.N,GND*%
X21111000Y6357000D03*
X23611000Y4857000D03*
X22611000Y6357000D03*
X10011000Y6107000D03*
X22111000Y4857000D03*
%TO.N,Net-(C1-Pad2)*%
X13481000Y9187000D03*
%TO.N,Net-(Q1-Pad3)*%
X15711021Y8822980D03*
%TO.N,Net-(Q2-Pad4)*%
X16771000Y15337000D03*
%TD*%
D20*
%TO.N,Net-(J2-Pad1)*%
X17920520Y9547480D02*
X17921000Y9547000D01*
X17921000Y9547000D02*
X17921000Y18607000D01*
X15871480Y9547480D02*
X17920520Y9547480D01*
X14581000Y9806994D02*
X14840514Y9547480D01*
X14840514Y9547480D02*
X15871480Y9547480D01*
X14581000Y10597000D02*
X14581000Y9806994D01*
D21*
%TO.N,+24V*%
X11311000Y15337000D02*
X11311000Y18657000D01*
D22*
X7936000Y3377000D02*
X7936000Y11962000D01*
D20*
X11311000Y18657000D02*
X11111000Y18857000D01*
D22*
X7936000Y11962000D02*
X11311000Y15337000D01*
D20*
X15516000Y3317000D02*
X14866480Y2667480D01*
X14581000Y6197000D02*
X14581000Y4252000D01*
X14866480Y2667480D02*
X13486480Y2667480D01*
X14581000Y4252000D02*
X15516000Y3317000D01*
D22*
X8770520Y2542480D02*
X11740520Y2542480D01*
X11740520Y2542480D02*
X12551000Y1732000D01*
X7936000Y3377000D02*
X8770520Y2542480D01*
X13806000Y15337000D02*
X14591000Y14552000D01*
D20*
X13486480Y2667480D02*
X12551000Y1732000D01*
D22*
X11311000Y15337000D02*
X13806000Y15337000D01*
D20*
%TO.N,Net-(R6-Pad2)*%
X14071000Y6187000D02*
X14081000Y6197000D01*
X16696000Y7257000D02*
X16891000Y7062000D01*
X14071000Y3392000D02*
X14071000Y6187000D01*
X14261000Y7257000D02*
X16696000Y7257000D01*
X14081000Y7077000D02*
X14261000Y7257000D01*
X14081000Y6197000D02*
X14081000Y7077000D01*
%TO.N,Net-(R1-Pad1)*%
X11311000Y12307000D02*
X11311000Y13687000D01*
X12223366Y11394634D02*
X11311000Y12307000D01*
X12223366Y11339666D02*
X12223366Y11394634D01*
%TO.N,Net-(C1-Pad2)*%
X11261000Y10707000D02*
X11311000Y10657000D01*
X9791000Y10707000D02*
X11261000Y10707000D01*
X12832783Y9187000D02*
X13481000Y9187000D01*
X11362783Y10657000D02*
X12832783Y9187000D01*
X11311000Y10657000D02*
X11362783Y10657000D01*
%TO.N,Net-(C2-Pad2)*%
X13581000Y10597000D02*
X13581000Y12442000D01*
X13581000Y12442000D02*
X13071000Y12952000D01*
%TO.N,Net-(Q1-Pad3)*%
X11026000Y3377000D02*
X11031000Y3382000D01*
X13781103Y8462489D02*
X14141594Y8822980D01*
X9586000Y3377000D02*
X11026000Y3377000D01*
X14141594Y8822980D02*
X15711021Y8822980D01*
X13081000Y5432000D02*
X13081000Y6197000D01*
X13081000Y7767000D02*
X13776489Y8462489D01*
X11031000Y3382000D02*
X13081000Y5432000D01*
X13081000Y6197000D02*
X13081000Y7767000D01*
X13776489Y8462489D02*
X13781103Y8462489D01*
%TO.N,Net-(R9-Pad2)*%
X14081000Y10597000D02*
X14081000Y12392000D01*
X14081000Y12392000D02*
X14591000Y12902000D01*
%TO.N,Net-(R10-Pad2)*%
X17166000Y3317000D02*
X17120034Y3317000D01*
X15081000Y5356034D02*
X15081000Y6197000D01*
X17120034Y3317000D02*
X15081000Y5356034D01*
%TO.N,Net-(Q2-Pad4)*%
X15081000Y10597000D02*
X15081000Y11667000D01*
X16771000Y13357000D02*
X16771000Y15337000D01*
X15081000Y11667000D02*
X16771000Y13357000D01*
%TO.N,Net-(R7-Pad1)*%
X12551000Y3382000D02*
X13581000Y4412000D01*
X13581000Y4412000D02*
X13581000Y6197000D01*
X16277469Y8098469D02*
X16891000Y8712000D01*
X14292469Y8098469D02*
X16277469Y8098469D01*
X13581000Y6197000D02*
X13581000Y7387000D01*
X13581000Y7387000D02*
X14292469Y8098469D01*
%TD*%
%TA.AperFunction,Conductor*%
%TO.N,Net-(J2-Pad1)*%
G36*
X18117593Y9550039D02*
G01*
X18116842Y9548121D01*
X18116914Y9544329D01*
X18114121Y9540157D01*
X17887892Y9323137D01*
X17752267Y9193033D01*
X17743924Y9189779D01*
X17738752Y9191105D01*
X17676576Y9223568D01*
X17676050Y9223860D01*
X17616716Y9258836D01*
X17616403Y9259027D01*
X17563794Y9292304D01*
X17515054Y9323137D01*
X17515040Y9323146D01*
X17514965Y9323193D01*
X17514915Y9323222D01*
X17514892Y9323236D01*
X17488763Y9338367D01*
X17466953Y9350997D01*
X17466748Y9351095D01*
X17466741Y9351099D01*
X17416930Y9374978D01*
X17416925Y9374980D01*
X17416654Y9375110D01*
X17360964Y9394922D01*
X17336655Y9400567D01*
X17297083Y9409757D01*
X17297081Y9409757D01*
X17296781Y9409827D01*
X17296472Y9409865D01*
X17296468Y9409866D01*
X17252731Y9415285D01*
X17221000Y9419216D01*
X17141798Y9422073D01*
X17133654Y9425795D01*
X17130520Y9433765D01*
X17130520Y9661194D01*
X17133947Y9669467D01*
X17141799Y9672886D01*
X17181641Y9674322D01*
X17221088Y9675744D01*
X17221339Y9675775D01*
X17296647Y9685090D01*
X17296654Y9685091D01*
X17296943Y9685127D01*
X17361193Y9700019D01*
X17416946Y9719810D01*
X17467310Y9743887D01*
X17515394Y9771642D01*
X17564305Y9802463D01*
X17564309Y9802465D01*
X17616984Y9835633D01*
X17617299Y9835824D01*
X17625637Y9840714D01*
X17625639Y9840716D01*
X17677043Y9870860D01*
X17747087Y9907214D01*
X18117593Y9550039D01*
G37*
%TD.AperFunction*%
%TD*%
%TA.AperFunction,Conductor*%
%TO.N,Net-(Q2-Pad4)*%
G36*
X16779433Y15528231D02*
G01*
X17125174Y15168703D01*
X17128439Y15160365D01*
X17127119Y15155191D01*
X17094736Y15092995D01*
X17094443Y15092466D01*
X17059513Y15033079D01*
X17059320Y15032764D01*
X17026118Y14980191D01*
X17026115Y14980189D01*
X17026116Y14980188D01*
X16995261Y14931360D01*
X16967476Y14883353D01*
X16943374Y14833065D01*
X16923564Y14777390D01*
X16908658Y14713223D01*
X16899266Y14637462D01*
X16899257Y14637201D01*
X16896407Y14558278D01*
X16892684Y14550134D01*
X16884715Y14547000D01*
X16657285Y14547000D01*
X16649012Y14550427D01*
X16645593Y14558278D01*
X16642742Y14637201D01*
X16642733Y14637462D01*
X16633341Y14713223D01*
X16618435Y14777390D01*
X16598625Y14833065D01*
X16574523Y14883353D01*
X16546738Y14931360D01*
X16515883Y14980188D01*
X16482666Y15032786D01*
X16482486Y15033079D01*
X16447556Y15092466D01*
X16447263Y15092995D01*
X16414881Y15155190D01*
X16414100Y15164111D01*
X16416826Y15168703D01*
X16762567Y15528231D01*
X16770771Y15531819D01*
X16779433Y15528231D01*
G37*
%TD.AperFunction*%
%TD*%
%TA.AperFunction,Conductor*%
%TO.N,Net-(R7-Pad1)*%
G36*
X13029204Y4021023D02*
G01*
X13190022Y3860205D01*
X13193449Y3851932D01*
X13190315Y3843963D01*
X13163551Y3815193D01*
X13136346Y3785950D01*
X13136201Y3785764D01*
X13136195Y3785757D01*
X13109450Y3751443D01*
X13089415Y3725738D01*
X13089252Y3725477D01*
X13089251Y3725475D01*
X13054760Y3670110D01*
X13054756Y3670103D01*
X13054583Y3669825D01*
X13029222Y3616450D01*
X13029121Y3616164D01*
X13029118Y3616156D01*
X13010784Y3564069D01*
X13010706Y3563847D01*
X12996407Y3510255D01*
X12996376Y3510117D01*
X12983700Y3453915D01*
X12983697Y3453911D01*
X12983699Y3453911D01*
X12969987Y3393203D01*
X12969906Y3392870D01*
X12952617Y3326189D01*
X12952457Y3325633D01*
X12931373Y3258747D01*
X12925617Y3251886D01*
X12920443Y3250566D01*
X12421744Y3240817D01*
X12413405Y3244082D01*
X12409817Y3252744D01*
X12419566Y3751443D01*
X12423154Y3759647D01*
X12427746Y3762373D01*
X12494637Y3783459D01*
X12495218Y3783625D01*
X12561843Y3800900D01*
X12562202Y3800988D01*
X12622910Y3814700D01*
X12622910Y3814699D01*
X12622914Y3814701D01*
X12679254Y3827408D01*
X12732846Y3841707D01*
X12733068Y3841785D01*
X12785155Y3860119D01*
X12785163Y3860122D01*
X12785449Y3860223D01*
X12838824Y3885584D01*
X12839102Y3885757D01*
X12839109Y3885761D01*
X12894474Y3920252D01*
X12894476Y3920253D01*
X12894737Y3920416D01*
X12894975Y3920602D01*
X12894980Y3920605D01*
X12954756Y3967196D01*
X12954763Y3967202D01*
X12954949Y3967347D01*
X13012964Y4021317D01*
X13021353Y4024442D01*
X13029204Y4021023D01*
G37*
%TD.AperFunction*%
%TD*%
%TA.AperFunction,Conductor*%
%TO.N,Net-(R7-Pad1)*%
G36*
X13654655Y6195408D02*
G01*
X13710838Y6136985D01*
X13714103Y6128646D01*
X13713322Y6124669D01*
X13710956Y6118529D01*
X13707433Y6103509D01*
X13707397Y6103234D01*
X13707395Y6103224D01*
X13705221Y6086700D01*
X13705195Y6086500D01*
X13704012Y6067446D01*
X13703649Y6046290D01*
X13703650Y6046173D01*
X13703650Y6046140D01*
X13703874Y6023015D01*
X13703875Y6022921D01*
X13704452Y5997570D01*
X13704453Y5997540D01*
X13704455Y5997446D01*
X13705156Y5969711D01*
X13705158Y5969645D01*
X13705748Y5939592D01*
X13705750Y5939452D01*
X13705909Y5918790D01*
X13702546Y5910491D01*
X13694209Y5907000D01*
X13467790Y5907000D01*
X13459517Y5910427D01*
X13456090Y5918790D01*
X13456249Y5939452D01*
X13456251Y5939592D01*
X13456841Y5969645D01*
X13456843Y5969711D01*
X13457544Y5997446D01*
X13457546Y5997540D01*
X13457547Y5997570D01*
X13458124Y6022921D01*
X13458125Y6023015D01*
X13458349Y6046140D01*
X13458349Y6046173D01*
X13458350Y6046290D01*
X13457987Y6067446D01*
X13456804Y6086500D01*
X13456778Y6086700D01*
X13454604Y6103224D01*
X13454602Y6103234D01*
X13454566Y6103509D01*
X13451043Y6118529D01*
X13450900Y6118901D01*
X13450900Y6118902D01*
X13448678Y6124667D01*
X13448900Y6133619D01*
X13451162Y6136985D01*
X13507262Y6195322D01*
X13581000Y6272000D01*
X13654655Y6195408D01*
G37*
%TD.AperFunction*%
%TD*%
%TA.AperFunction,Conductor*%
%TO.N,Net-(R7-Pad1)*%
G36*
X17028595Y8849918D02*
G01*
X17032183Y8841256D01*
X17022434Y8342557D01*
X17018846Y8334353D01*
X17014253Y8331627D01*
X16947367Y8310543D01*
X16946811Y8310383D01*
X16880130Y8293094D01*
X16879797Y8293013D01*
X16819089Y8279301D01*
X16819089Y8279302D01*
X16819085Y8279300D01*
X16762745Y8266593D01*
X16709153Y8252294D01*
X16708934Y8252217D01*
X16708931Y8252216D01*
X16656844Y8233882D01*
X16656836Y8233879D01*
X16656550Y8233778D01*
X16603175Y8208417D01*
X16602897Y8208244D01*
X16602890Y8208240D01*
X16547525Y8173749D01*
X16547262Y8173585D01*
X16547024Y8173399D01*
X16547019Y8173396D01*
X16487243Y8126805D01*
X16487236Y8126799D01*
X16487050Y8126654D01*
X16457807Y8099449D01*
X16429037Y8072685D01*
X16420646Y8069559D01*
X16412795Y8072978D01*
X16251977Y8233796D01*
X16248550Y8242069D01*
X16251683Y8250036D01*
X16305653Y8308051D01*
X16305798Y8308237D01*
X16305804Y8308244D01*
X16352395Y8368020D01*
X16352398Y8368025D01*
X16352584Y8368263D01*
X16352748Y8368526D01*
X16387239Y8423891D01*
X16387243Y8423898D01*
X16387416Y8424176D01*
X16412777Y8477551D01*
X16412878Y8477837D01*
X16412881Y8477845D01*
X16431215Y8529932D01*
X16431216Y8529935D01*
X16431293Y8530154D01*
X16445592Y8583746D01*
X16458299Y8640086D01*
X16458302Y8640090D01*
X16458300Y8640090D01*
X16472012Y8700798D01*
X16472100Y8701157D01*
X16489375Y8767782D01*
X16489541Y8768363D01*
X16510627Y8835254D01*
X16516383Y8842114D01*
X16521557Y8843434D01*
X17020256Y8853183D01*
X17028595Y8849918D01*
G37*
%TD.AperFunction*%
%TD*%
%TA.AperFunction,Conductor*%
%TO.N,Net-(J2-Pad1)*%
G36*
X18042988Y10333573D02*
G01*
X18046407Y10325722D01*
X18049266Y10246539D01*
X18058658Y10170778D01*
X18073564Y10106611D01*
X18093374Y10050936D01*
X18117476Y10000648D01*
X18145261Y9952641D01*
X18145304Y9952573D01*
X18145310Y9952563D01*
X18176116Y9903813D01*
X18176118Y9903810D01*
X18209320Y9851237D01*
X18209503Y9850939D01*
X18231118Y9814190D01*
X18244443Y9791535D01*
X18244736Y9791006D01*
X18277119Y9728809D01*
X18277900Y9719888D01*
X18275175Y9715298D01*
X18019005Y9448913D01*
X18019004Y9448912D01*
X18018929Y9448834D01*
X17927605Y9353868D01*
X17919401Y9350280D01*
X17918055Y9350548D01*
X17917716Y9350415D01*
X17917050Y9351108D01*
X17561000Y9721355D01*
X17597403Y9791275D01*
X17627685Y9842759D01*
X17627687Y9842761D01*
X17632486Y9850921D01*
X17632679Y9851237D01*
X17665881Y9903810D01*
X17665884Y9903812D01*
X17665883Y9903813D01*
X17696689Y9952563D01*
X17696695Y9952573D01*
X17696738Y9952641D01*
X17724523Y10000648D01*
X17748625Y10050936D01*
X17768435Y10106611D01*
X17783341Y10170778D01*
X17792733Y10246539D01*
X17795593Y10325722D01*
X17799316Y10333866D01*
X17807285Y10337000D01*
X18034715Y10337000D01*
X18042988Y10333573D01*
G37*
%TD.AperFunction*%
%TD*%
%TA.AperFunction,Conductor*%
%TO.N,+24V*%
G36*
X8255661Y3509407D02*
G01*
X8273953Y3509050D01*
X8305543Y3508432D01*
X8313747Y3504844D01*
X8316432Y3500378D01*
X8326965Y3468243D01*
X8337367Y3436502D01*
X8337442Y3436263D01*
X8356430Y3372425D01*
X8373109Y3314592D01*
X8373137Y3314502D01*
X8389576Y3261264D01*
X8389583Y3261244D01*
X8389626Y3261104D01*
X8408168Y3210179D01*
X8430920Y3160031D01*
X8460068Y3108876D01*
X8497799Y3054930D01*
X8497944Y3054755D01*
X8546164Y2996568D01*
X8546297Y2996407D01*
X8546413Y2996285D01*
X8546417Y2996280D01*
X8599920Y2939791D01*
X8603121Y2931427D01*
X8599698Y2923472D01*
X8389528Y2713302D01*
X8381255Y2709875D01*
X8373209Y2713080D01*
X8316720Y2766583D01*
X8316715Y2766587D01*
X8316593Y2766703D01*
X8258070Y2815201D01*
X8257895Y2815323D01*
X8257889Y2815328D01*
X8204341Y2852780D01*
X8204124Y2852932D01*
X8152969Y2882080D01*
X8102821Y2904832D01*
X8051896Y2923374D01*
X8051756Y2923417D01*
X8051736Y2923424D01*
X8012343Y2935588D01*
X7998408Y2939891D01*
X7998338Y2939911D01*
X7998322Y2939916D01*
X7940575Y2956570D01*
X7940481Y2956598D01*
X7935874Y2957968D01*
X7876737Y2975558D01*
X7876498Y2975633D01*
X7844757Y2986035D01*
X7812622Y2996568D01*
X7805828Y3002401D01*
X7804568Y3007457D01*
X7802205Y3128302D01*
X7794579Y3518421D01*
X8255661Y3509407D01*
G37*
%TD.AperFunction*%
%TD*%
%TA.AperFunction,Conductor*%
%TO.N,Net-(J2-Pad1)*%
G36*
X14589433Y10663231D02*
G01*
X14710838Y10536985D01*
X14714103Y10528646D01*
X14713322Y10524669D01*
X14710956Y10518529D01*
X14707433Y10503509D01*
X14707397Y10503234D01*
X14707395Y10503224D01*
X14705221Y10486700D01*
X14705195Y10486500D01*
X14704012Y10467446D01*
X14703649Y10446290D01*
X14703650Y10446173D01*
X14703650Y10446140D01*
X14703874Y10423015D01*
X14703875Y10422921D01*
X14704452Y10397570D01*
X14704453Y10397540D01*
X14704455Y10397446D01*
X14705156Y10369711D01*
X14705158Y10369645D01*
X14705748Y10339592D01*
X14705750Y10339452D01*
X14705909Y10318790D01*
X14702546Y10310491D01*
X14694209Y10307000D01*
X14467790Y10307000D01*
X14459517Y10310427D01*
X14456090Y10318790D01*
X14456249Y10339452D01*
X14456251Y10339592D01*
X14456841Y10369645D01*
X14456843Y10369711D01*
X14457544Y10397446D01*
X14457546Y10397540D01*
X14457547Y10397570D01*
X14458124Y10422921D01*
X14458125Y10423015D01*
X14458349Y10446140D01*
X14458349Y10446173D01*
X14458350Y10446290D01*
X14457987Y10467446D01*
X14456804Y10486500D01*
X14456778Y10486700D01*
X14454604Y10503224D01*
X14454602Y10503234D01*
X14454566Y10503509D01*
X14451043Y10518529D01*
X14450900Y10518901D01*
X14450900Y10518902D01*
X14448678Y10524667D01*
X14448900Y10533619D01*
X14451162Y10536985D01*
X14572567Y10663231D01*
X14580771Y10666819D01*
X14589433Y10663231D01*
G37*
%TD.AperFunction*%
%TD*%
%TA.AperFunction,Conductor*%
%TO.N,+24V*%
G36*
X8092886Y4163573D02*
G01*
X8096309Y4155618D01*
X8098425Y4077668D01*
X8105513Y4001992D01*
X8116980Y3937166D01*
X8132541Y3880383D01*
X8151912Y3828835D01*
X8174811Y3779714D01*
X8174877Y3779588D01*
X8174880Y3779583D01*
X8200936Y3730245D01*
X8200953Y3730213D01*
X8230054Y3677525D01*
X8230100Y3677439D01*
X8261751Y3618990D01*
X8261901Y3618704D01*
X8292249Y3558764D01*
X8292929Y3549835D01*
X8290245Y3545370D01*
X7936000Y3177000D01*
X7581756Y3545370D01*
X7578491Y3553708D01*
X7579751Y3558764D01*
X7610098Y3618704D01*
X7610248Y3618990D01*
X7641899Y3677439D01*
X7641945Y3677525D01*
X7671046Y3730213D01*
X7671063Y3730245D01*
X7697119Y3779583D01*
X7697122Y3779588D01*
X7697188Y3779714D01*
X7720087Y3828835D01*
X7739458Y3880383D01*
X7755019Y3937166D01*
X7766486Y4001992D01*
X7773574Y4077668D01*
X7775691Y4155618D01*
X7779342Y4163795D01*
X7787387Y4167000D01*
X8084613Y4167000D01*
X8092886Y4163573D01*
G37*
%TD.AperFunction*%
%TD*%
%TA.AperFunction,Conductor*%
%TO.N,+24V*%
G36*
X11443407Y15017339D02*
G01*
X11443360Y15014930D01*
X11442432Y14967457D01*
X11438844Y14959253D01*
X11434378Y14956568D01*
X11403345Y14946397D01*
X11370501Y14935633D01*
X11370262Y14935558D01*
X11311125Y14917968D01*
X11306518Y14916598D01*
X11306424Y14916570D01*
X11248677Y14899916D01*
X11248661Y14899911D01*
X11248591Y14899891D01*
X11234656Y14895588D01*
X11195263Y14883424D01*
X11195243Y14883417D01*
X11195103Y14883374D01*
X11144178Y14864832D01*
X11094030Y14842080D01*
X11042875Y14812932D01*
X11042658Y14812780D01*
X10989110Y14775328D01*
X10989104Y14775323D01*
X10988929Y14775201D01*
X10930406Y14726703D01*
X10930284Y14726587D01*
X10930279Y14726583D01*
X10873791Y14673080D01*
X10865428Y14669879D01*
X10857472Y14673302D01*
X10647302Y14883472D01*
X10643875Y14891745D01*
X10647080Y14899790D01*
X10700569Y14956265D01*
X10700590Y14956288D01*
X10700702Y14956407D01*
X10700836Y14956568D01*
X10749055Y15014755D01*
X10749200Y15014930D01*
X10749342Y15015132D01*
X10786779Y15068659D01*
X10786931Y15068876D01*
X10816079Y15120031D01*
X10838831Y15170179D01*
X10857373Y15221104D01*
X10857416Y15221244D01*
X10857423Y15221264D01*
X10873862Y15274502D01*
X10873890Y15274592D01*
X10890569Y15332425D01*
X10909557Y15396263D01*
X10909632Y15396502D01*
X10930568Y15460379D01*
X10936400Y15467172D01*
X10941456Y15468432D01*
X11057576Y15470702D01*
X11452421Y15478421D01*
X11443407Y15017339D01*
G37*
%TD.AperFunction*%
%TD*%
%TA.AperFunction,Conductor*%
%TO.N,+24V*%
G36*
X15653750Y3456292D02*
G01*
X15656259Y3453879D01*
X15657236Y3448964D01*
X15654685Y3318444D01*
X15651894Y3175687D01*
X15650079Y3082845D01*
X15647434Y2947557D01*
X15643846Y2939353D01*
X15639253Y2936627D01*
X15572367Y2915543D01*
X15571811Y2915383D01*
X15505130Y2898094D01*
X15504797Y2898013D01*
X15444089Y2884301D01*
X15444089Y2884302D01*
X15444085Y2884300D01*
X15387745Y2871593D01*
X15334153Y2857294D01*
X15333934Y2857217D01*
X15333931Y2857216D01*
X15281844Y2838882D01*
X15281836Y2838879D01*
X15281550Y2838778D01*
X15228175Y2813417D01*
X15227897Y2813244D01*
X15227890Y2813240D01*
X15172525Y2778749D01*
X15172262Y2778585D01*
X15172024Y2778399D01*
X15172019Y2778396D01*
X15112243Y2731805D01*
X15112236Y2731799D01*
X15112050Y2731654D01*
X15082807Y2704449D01*
X15054037Y2677685D01*
X15045646Y2674559D01*
X15037795Y2677978D01*
X14876977Y2838796D01*
X14873550Y2847069D01*
X14876683Y2855036D01*
X14930653Y2913051D01*
X14930798Y2913237D01*
X14930804Y2913244D01*
X14977395Y2973020D01*
X14977398Y2973025D01*
X14977584Y2973263D01*
X14977748Y2973526D01*
X15012239Y3028891D01*
X15012243Y3028898D01*
X15012416Y3029176D01*
X15037777Y3082551D01*
X15037878Y3082837D01*
X15037881Y3082845D01*
X15056215Y3134932D01*
X15056216Y3134935D01*
X15056293Y3135154D01*
X15070592Y3188746D01*
X15083299Y3245086D01*
X15083302Y3245090D01*
X15083300Y3245090D01*
X15097007Y3305776D01*
X15097094Y3306134D01*
X15099537Y3315558D01*
X15114454Y3373089D01*
X15138154Y3448270D01*
X15652858Y3458332D01*
X15653750Y3456292D01*
G37*
%TD.AperFunction*%
%TD*%
%TA.AperFunction,Conductor*%
%TO.N,+24V*%
G36*
X14589433Y6263231D02*
G01*
X14710838Y6136985D01*
X14714103Y6128646D01*
X14713322Y6124669D01*
X14710956Y6118529D01*
X14707433Y6103509D01*
X14707397Y6103234D01*
X14707395Y6103224D01*
X14705221Y6086700D01*
X14705195Y6086500D01*
X14704012Y6067446D01*
X14703649Y6046290D01*
X14703650Y6046173D01*
X14703650Y6046140D01*
X14703874Y6023015D01*
X14703875Y6022921D01*
X14704452Y5997570D01*
X14704453Y5997540D01*
X14704455Y5997446D01*
X14705156Y5969711D01*
X14705158Y5969645D01*
X14705748Y5939592D01*
X14705750Y5939452D01*
X14705909Y5918790D01*
X14702546Y5910491D01*
X14694209Y5907000D01*
X14467790Y5907000D01*
X14459517Y5910427D01*
X14456090Y5918790D01*
X14456249Y5939452D01*
X14456251Y5939592D01*
X14456841Y5969645D01*
X14456843Y5969711D01*
X14457544Y5997446D01*
X14457546Y5997540D01*
X14457547Y5997570D01*
X14458124Y6022921D01*
X14458125Y6023015D01*
X14458349Y6046140D01*
X14458349Y6046173D01*
X14458350Y6046290D01*
X14457987Y6067446D01*
X14456804Y6086500D01*
X14456778Y6086700D01*
X14454604Y6103224D01*
X14454602Y6103234D01*
X14454566Y6103509D01*
X14451043Y6118529D01*
X14450900Y6118901D01*
X14450900Y6118902D01*
X14448678Y6124667D01*
X14448900Y6133619D01*
X14451162Y6136985D01*
X14572567Y6263231D01*
X14580771Y6266819D01*
X14589433Y6263231D01*
G37*
%TD.AperFunction*%
%TD*%
%TA.AperFunction,Conductor*%
%TO.N,+24V*%
G36*
X15054037Y3956315D02*
G01*
X15084812Y3927686D01*
X15112050Y3902347D01*
X15112236Y3902202D01*
X15112243Y3902196D01*
X15172019Y3855605D01*
X15172024Y3855602D01*
X15172262Y3855416D01*
X15172523Y3855253D01*
X15172525Y3855252D01*
X15227890Y3820761D01*
X15227897Y3820757D01*
X15228175Y3820584D01*
X15281550Y3795223D01*
X15281836Y3795122D01*
X15281844Y3795119D01*
X15333931Y3776785D01*
X15334153Y3776707D01*
X15387745Y3762408D01*
X15444085Y3749701D01*
X15444089Y3749698D01*
X15444089Y3749700D01*
X15504797Y3735988D01*
X15505156Y3735900D01*
X15571781Y3718625D01*
X15572362Y3718459D01*
X15639254Y3697373D01*
X15646114Y3691617D01*
X15647434Y3686443D01*
X15654656Y3317010D01*
X15654656Y3317000D01*
X15654658Y3316898D01*
X15657236Y3185036D01*
X15653971Y3176697D01*
X15653034Y3176071D01*
X15652858Y3175668D01*
X15138154Y3185730D01*
X15114454Y3260912D01*
X15097094Y3327867D01*
X15097007Y3328225D01*
X15083300Y3388911D01*
X15083301Y3388911D01*
X15083299Y3388915D01*
X15070623Y3445117D01*
X15070592Y3445255D01*
X15056293Y3498847D01*
X15056215Y3499069D01*
X15037881Y3551156D01*
X15037878Y3551164D01*
X15037777Y3551450D01*
X15012416Y3604825D01*
X15012243Y3605103D01*
X15012239Y3605110D01*
X14977748Y3660475D01*
X14977747Y3660477D01*
X14977584Y3660738D01*
X14953516Y3691617D01*
X14930804Y3720757D01*
X14930798Y3720764D01*
X14930653Y3720950D01*
X14892085Y3762408D01*
X14876685Y3778963D01*
X14873559Y3787354D01*
X14876978Y3795205D01*
X15037795Y3956022D01*
X15046068Y3959449D01*
X15054037Y3956315D01*
G37*
%TD.AperFunction*%
%TD*%
%TA.AperFunction,Conductor*%
%TO.N,+24V*%
G36*
X12113791Y2395920D02*
G01*
X12170406Y2342298D01*
X12228929Y2293800D01*
X12229104Y2293678D01*
X12229110Y2293673D01*
X12263497Y2269623D01*
X12282875Y2256069D01*
X12334030Y2226921D01*
X12384178Y2204169D01*
X12435103Y2185627D01*
X12435243Y2185584D01*
X12435263Y2185577D01*
X12474656Y2173413D01*
X12488591Y2169110D01*
X12488661Y2169090D01*
X12488677Y2169085D01*
X12528820Y2157508D01*
X12546424Y2152431D01*
X12556354Y2149477D01*
X12556355Y2149477D01*
X12610389Y2133405D01*
X12682270Y2109846D01*
X12692313Y1596106D01*
X12692332Y1595142D01*
X12690292Y1594250D01*
X12687879Y1591741D01*
X12682964Y1590764D01*
X12551102Y1593342D01*
X12551000Y1593344D01*
X12550990Y1593344D01*
X12247261Y1599281D01*
X12181456Y1600568D01*
X12173252Y1604156D01*
X12170567Y1608622D01*
X12149632Y1672499D01*
X12149557Y1672738D01*
X12130569Y1736576D01*
X12113890Y1794409D01*
X12109587Y1808344D01*
X12097423Y1847737D01*
X12097416Y1847757D01*
X12097373Y1847897D01*
X12078831Y1898822D01*
X12056079Y1948970D01*
X12026931Y2000125D01*
X11989200Y2054071D01*
X11940702Y2112594D01*
X11934102Y2119563D01*
X11887080Y2169209D01*
X11883879Y2177573D01*
X11887302Y2185528D01*
X12097472Y2395698D01*
X12105745Y2399125D01*
X12113791Y2395920D01*
G37*
%TD.AperFunction*%
%TD*%
%TA.AperFunction,Conductor*%
%TO.N,Net-(R7-Pad1)*%
G36*
X13702482Y6483573D02*
G01*
X13705909Y6475210D01*
X13705750Y6454549D01*
X13705748Y6454409D01*
X13705158Y6424356D01*
X13704455Y6396555D01*
X13703874Y6371026D01*
X13703649Y6347711D01*
X13704012Y6326555D01*
X13705195Y6307501D01*
X13705220Y6307310D01*
X13705221Y6307301D01*
X13707395Y6290777D01*
X13707397Y6290767D01*
X13707433Y6290492D01*
X13710956Y6275472D01*
X13711100Y6275099D01*
X13711101Y6275095D01*
X13713322Y6269332D01*
X13713100Y6260380D01*
X13710838Y6257016D01*
X13581000Y6122000D01*
X13451162Y6257015D01*
X13447897Y6265354D01*
X13448677Y6269331D01*
X13450898Y6275095D01*
X13450899Y6275098D01*
X13451043Y6275472D01*
X13454566Y6290492D01*
X13454602Y6290767D01*
X13454604Y6290777D01*
X13456778Y6307301D01*
X13456779Y6307310D01*
X13456804Y6307501D01*
X13457987Y6326555D01*
X13458350Y6347711D01*
X13458125Y6371026D01*
X13457544Y6396555D01*
X13456841Y6424356D01*
X13456251Y6454409D01*
X13456249Y6454549D01*
X13456090Y6475210D01*
X13459453Y6483509D01*
X13467790Y6487000D01*
X13694209Y6487000D01*
X13702482Y6483573D01*
G37*
%TD.AperFunction*%
%TD*%
%TA.AperFunction,Conductor*%
%TO.N,+24V*%
G36*
X14153791Y15215920D02*
G01*
X14210406Y15162298D01*
X14268929Y15113800D01*
X14269104Y15113678D01*
X14269110Y15113673D01*
X14303497Y15089623D01*
X14322875Y15076069D01*
X14374030Y15046921D01*
X14424178Y15024169D01*
X14475103Y15005627D01*
X14475243Y15005584D01*
X14475263Y15005577D01*
X14514656Y14993413D01*
X14528591Y14989110D01*
X14528661Y14989090D01*
X14528677Y14989085D01*
X14586424Y14972431D01*
X14650262Y14953443D01*
X14650501Y14953368D01*
X14714379Y14932432D01*
X14721172Y14926600D01*
X14722432Y14921544D01*
X14732183Y14422744D01*
X14728918Y14414405D01*
X14720256Y14410817D01*
X14221456Y14420568D01*
X14213252Y14424156D01*
X14210567Y14428622D01*
X14189632Y14492499D01*
X14189557Y14492738D01*
X14170569Y14556576D01*
X14153890Y14614409D01*
X14149587Y14628344D01*
X14137423Y14667737D01*
X14137416Y14667757D01*
X14137373Y14667897D01*
X14118831Y14718822D01*
X14096079Y14768970D01*
X14066931Y14820125D01*
X14029200Y14874071D01*
X13982979Y14929846D01*
X13980819Y14932453D01*
X13980817Y14932456D01*
X13980702Y14932594D01*
X13927080Y14989209D01*
X13923879Y14997573D01*
X13927302Y15005528D01*
X14137472Y15215698D01*
X14145745Y15219125D01*
X14153791Y15215920D01*
G37*
%TD.AperFunction*%
%TD*%
%TA.AperFunction,Conductor*%
%TO.N,+24V*%
G36*
X13029204Y2371023D02*
G01*
X13190022Y2210205D01*
X13193449Y2201932D01*
X13190315Y2193963D01*
X13163551Y2165193D01*
X13136346Y2135950D01*
X13136201Y2135764D01*
X13136195Y2135757D01*
X13089604Y2075981D01*
X13089415Y2075738D01*
X13089252Y2075477D01*
X13089251Y2075475D01*
X13054760Y2020110D01*
X13054756Y2020103D01*
X13054583Y2019825D01*
X13029222Y1966450D01*
X13029121Y1966164D01*
X13029118Y1966156D01*
X13010784Y1914069D01*
X13010706Y1913847D01*
X12996407Y1860255D01*
X12996376Y1860117D01*
X12983700Y1803915D01*
X12983697Y1803911D01*
X12983699Y1803911D01*
X12969987Y1743203D01*
X12969906Y1742870D01*
X12952617Y1676189D01*
X12952457Y1675633D01*
X12931373Y1608747D01*
X12925617Y1601886D01*
X12920443Y1600566D01*
X12858914Y1599363D01*
X12551010Y1593344D01*
X12551000Y1593344D01*
X12550898Y1593342D01*
X12419036Y1590764D01*
X12410697Y1594029D01*
X12410071Y1594966D01*
X12409668Y1595142D01*
X12419730Y2109846D01*
X12494911Y2133546D01*
X12556354Y2149477D01*
X12561870Y2150907D01*
X12562202Y2150988D01*
X12622910Y2164700D01*
X12622910Y2164699D01*
X12622914Y2164701D01*
X12679254Y2177408D01*
X12732846Y2191707D01*
X12733068Y2191785D01*
X12785155Y2210119D01*
X12785163Y2210122D01*
X12785449Y2210223D01*
X12838824Y2235584D01*
X12839102Y2235757D01*
X12839109Y2235761D01*
X12894474Y2270252D01*
X12894476Y2270253D01*
X12894737Y2270416D01*
X12894975Y2270602D01*
X12894980Y2270605D01*
X12954756Y2317196D01*
X12954763Y2317202D01*
X12954949Y2317347D01*
X13012964Y2371317D01*
X13021353Y2374442D01*
X13029204Y2371023D01*
G37*
%TD.AperFunction*%
%TD*%
%TA.AperFunction,Conductor*%
%TO.N,+24V*%
G36*
X11492764Y15693249D02*
G01*
X11552703Y15662902D01*
X11552989Y15662752D01*
X11611438Y15631101D01*
X11611524Y15631055D01*
X11664212Y15601954D01*
X11713713Y15575812D01*
X11713861Y15575743D01*
X11762623Y15553011D01*
X11762631Y15553008D01*
X11762834Y15552913D01*
X11814382Y15533542D01*
X11814640Y15533471D01*
X11814647Y15533469D01*
X11870902Y15518053D01*
X11871165Y15517981D01*
X11871430Y15517934D01*
X11871435Y15517933D01*
X11912974Y15510585D01*
X11935991Y15506514D01*
X12011667Y15499426D01*
X12011832Y15499422D01*
X12011840Y15499421D01*
X12089618Y15497309D01*
X12097795Y15493658D01*
X12101000Y15485613D01*
X12101000Y15188387D01*
X12097573Y15180114D01*
X12089617Y15176691D01*
X12011840Y15174580D01*
X12011832Y15174579D01*
X12011667Y15174575D01*
X11935991Y15167487D01*
X11912974Y15163416D01*
X11871435Y15156068D01*
X11871430Y15156067D01*
X11871165Y15156020D01*
X11870904Y15155948D01*
X11870902Y15155948D01*
X11814647Y15140532D01*
X11814640Y15140530D01*
X11814382Y15140459D01*
X11762834Y15121088D01*
X11762631Y15120993D01*
X11762623Y15120990D01*
X11713861Y15098258D01*
X11713713Y15098189D01*
X11664212Y15072047D01*
X11664187Y15072033D01*
X11611524Y15042946D01*
X11611438Y15042900D01*
X11552989Y15011249D01*
X11552710Y15011103D01*
X11492763Y14980751D01*
X11483835Y14980071D01*
X11479369Y14982756D01*
X11463484Y14998032D01*
X11111000Y15337000D01*
X11479370Y15691244D01*
X11487708Y15694509D01*
X11492764Y15693249D01*
G37*
%TD.AperFunction*%
%TD*%
%TA.AperFunction,Conductor*%
%TO.N,Net-(R6-Pad2)*%
G36*
X14192988Y4178573D02*
G01*
X14196407Y4170722D01*
X14199266Y4091539D01*
X14208658Y4015778D01*
X14223564Y3951611D01*
X14243374Y3895936D01*
X14267476Y3845648D01*
X14295261Y3797641D01*
X14295304Y3797573D01*
X14295310Y3797563D01*
X14326116Y3748813D01*
X14326118Y3748810D01*
X14359320Y3696237D01*
X14359513Y3695922D01*
X14394443Y3636535D01*
X14394736Y3636006D01*
X14427119Y3573809D01*
X14427900Y3564888D01*
X14425175Y3560298D01*
X14079433Y3200769D01*
X14071229Y3197181D01*
X14062567Y3200769D01*
X13716826Y3560297D01*
X13713561Y3568636D01*
X13714881Y3573810D01*
X13747263Y3636006D01*
X13747556Y3636535D01*
X13782486Y3695922D01*
X13782679Y3696237D01*
X13815881Y3748810D01*
X13815884Y3748812D01*
X13815883Y3748813D01*
X13846689Y3797563D01*
X13846695Y3797573D01*
X13846738Y3797641D01*
X13874523Y3845648D01*
X13898625Y3895936D01*
X13918435Y3951611D01*
X13933341Y4015778D01*
X13942733Y4091539D01*
X13945593Y4170722D01*
X13949316Y4178866D01*
X13957285Y4182000D01*
X14184715Y4182000D01*
X14192988Y4178573D01*
G37*
%TD.AperFunction*%
%TD*%
%TA.AperFunction,Conductor*%
%TO.N,Net-(R6-Pad2)*%
G36*
X14202241Y6133614D02*
G01*
X14206584Y6128450D01*
X14209287Y6119913D01*
X14208269Y6116052D01*
X14205479Y6109958D01*
X14201155Y6095060D01*
X14198159Y6078054D01*
X14198139Y6077846D01*
X14198137Y6077835D01*
X14197428Y6070631D01*
X14196273Y6058904D01*
X14195277Y6037574D01*
X14195276Y6037498D01*
X14194954Y6014138D01*
X14194953Y6013977D01*
X14195083Y5988236D01*
X14195446Y5960161D01*
X14195446Y5960156D01*
X14195824Y5929839D01*
X14195825Y5929755D01*
X14195937Y5908762D01*
X14192554Y5900471D01*
X14184237Y5897000D01*
X13957827Y5897000D01*
X13949554Y5900427D01*
X13946128Y5908826D01*
X13946379Y5932098D01*
X13946383Y5932314D01*
X13947332Y5964740D01*
X13947337Y5964883D01*
X13948579Y5994810D01*
X13948581Y5994859D01*
X13949840Y6022437D01*
X13949841Y6022451D01*
X13950829Y6047556D01*
X13950832Y6047631D01*
X13951275Y6070524D01*
X13950888Y6091200D01*
X13950553Y6095361D01*
X13949413Y6109474D01*
X13949392Y6109739D01*
X13946506Y6126226D01*
X13944187Y6133614D01*
X13944979Y6142534D01*
X13947473Y6145769D01*
X14085988Y6271833D01*
X14202241Y6133614D01*
G37*
%TD.AperFunction*%
%TD*%
%TA.AperFunction,Conductor*%
%TO.N,Net-(R6-Pad2)*%
G36*
X16890862Y7458569D02*
G01*
X16893829Y7453990D01*
X16919257Y7382000D01*
X17062090Y6977616D01*
X17061614Y6968673D01*
X17054106Y6962423D01*
X16572844Y6832566D01*
X16563964Y6833719D01*
X16560166Y6837218D01*
X16528453Y6883185D01*
X16528380Y6883292D01*
X16495684Y6931821D01*
X16495621Y6931915D01*
X16464575Y6976104D01*
X16464457Y6976253D01*
X16464448Y6976265D01*
X16433556Y7015241D01*
X16433370Y7015476D01*
X16400097Y7049700D01*
X16399764Y7049957D01*
X16363249Y7078138D01*
X16363246Y7078140D01*
X16362852Y7078444D01*
X16319726Y7101378D01*
X16268813Y7118170D01*
X16268387Y7118243D01*
X16268381Y7118244D01*
X16208549Y7128430D01*
X16208545Y7128430D01*
X16208207Y7128488D01*
X16207858Y7128505D01*
X16147132Y7131459D01*
X16139035Y7135284D01*
X16136000Y7143145D01*
X16136000Y7370548D01*
X16139427Y7378821D01*
X16147450Y7382245D01*
X16196036Y7383285D01*
X16240627Y7384240D01*
X16289376Y7387588D01*
X16329035Y7390312D01*
X16329041Y7390313D01*
X16329149Y7390320D01*
X16405178Y7399280D01*
X16472326Y7410160D01*
X16472371Y7410169D01*
X16472379Y7410170D01*
X16534206Y7422000D01*
X16594326Y7433820D01*
X16594504Y7433853D01*
X16656392Y7444683D01*
X16656831Y7444751D01*
X16724056Y7453641D01*
X16724639Y7453703D01*
X16773246Y7457544D01*
X16800980Y7459736D01*
X16801610Y7459768D01*
X16862930Y7461299D01*
X16882506Y7461788D01*
X16890862Y7458569D01*
G37*
%TD.AperFunction*%
%TD*%
%TA.AperFunction,Conductor*%
%TO.N,Net-(R6-Pad2)*%
G36*
X14202482Y6483573D02*
G01*
X14205909Y6475210D01*
X14205750Y6454549D01*
X14205748Y6454409D01*
X14205158Y6424356D01*
X14204455Y6396555D01*
X14203874Y6371026D01*
X14203649Y6347711D01*
X14204012Y6326555D01*
X14205195Y6307501D01*
X14205220Y6307310D01*
X14205221Y6307301D01*
X14207395Y6290777D01*
X14207397Y6290767D01*
X14207433Y6290492D01*
X14210956Y6275472D01*
X14211100Y6275099D01*
X14211101Y6275095D01*
X14213322Y6269332D01*
X14213100Y6260380D01*
X14210838Y6257016D01*
X14081000Y6122000D01*
X13951162Y6257015D01*
X13947897Y6265354D01*
X13948677Y6269331D01*
X13950898Y6275095D01*
X13950899Y6275098D01*
X13951043Y6275472D01*
X13954566Y6290492D01*
X13954602Y6290767D01*
X13954604Y6290777D01*
X13956778Y6307301D01*
X13956779Y6307310D01*
X13956804Y6307501D01*
X13957987Y6326555D01*
X13958350Y6347711D01*
X13958125Y6371026D01*
X13957544Y6396555D01*
X13956841Y6424356D01*
X13956251Y6454409D01*
X13956249Y6454549D01*
X13956090Y6475210D01*
X13959453Y6483509D01*
X13967790Y6487000D01*
X14194209Y6487000D01*
X14202482Y6483573D01*
G37*
%TD.AperFunction*%
%TD*%
%TA.AperFunction,Conductor*%
%TO.N,Net-(R1-Pad1)*%
G36*
X11439266Y13006539D02*
G01*
X11448658Y12930778D01*
X11463564Y12866611D01*
X11483374Y12810936D01*
X11507476Y12760648D01*
X11535261Y12712641D01*
X11535304Y12712573D01*
X11535310Y12712563D01*
X11566116Y12663813D01*
X11566118Y12663810D01*
X11599320Y12611237D01*
X11599513Y12610922D01*
X11634443Y12551535D01*
X11634736Y12551006D01*
X11667119Y12488809D01*
X11667900Y12479888D01*
X11665175Y12475298D01*
X11311000Y12107000D01*
X10956826Y12475297D01*
X10953561Y12483636D01*
X10954881Y12488810D01*
X10987263Y12551006D01*
X10987556Y12551535D01*
X11022486Y12610922D01*
X11022679Y12611237D01*
X11055881Y12663810D01*
X11055884Y12663812D01*
X11055883Y12663813D01*
X11086689Y12712563D01*
X11086695Y12712573D01*
X11086738Y12712641D01*
X11114523Y12760648D01*
X11138625Y12810936D01*
X11158435Y12866611D01*
X11173341Y12930778D01*
X11182733Y13006539D01*
X11186000Y13097000D01*
X11436000Y13097000D01*
X11439266Y13006539D01*
G37*
%TD.AperFunction*%
%TD*%
%TA.AperFunction,Conductor*%
%TO.N,Net-(R1-Pad1)*%
G36*
X11319433Y13878231D02*
G01*
X11665174Y13518703D01*
X11668439Y13510365D01*
X11667119Y13505191D01*
X11634736Y13442995D01*
X11634443Y13442466D01*
X11599513Y13383079D01*
X11599320Y13382764D01*
X11566118Y13330191D01*
X11566115Y13330189D01*
X11566116Y13330188D01*
X11535261Y13281360D01*
X11507476Y13233353D01*
X11483374Y13183065D01*
X11463564Y13127390D01*
X11448658Y13063223D01*
X11440448Y12997001D01*
X11440448Y12996999D01*
X11439266Y12987462D01*
X11436000Y12897000D01*
X11186000Y12897000D01*
X11182733Y12987462D01*
X11181551Y12996999D01*
X11181551Y12997001D01*
X11173341Y13063223D01*
X11158435Y13127390D01*
X11138625Y13183065D01*
X11114523Y13233353D01*
X11086738Y13281360D01*
X11055883Y13330188D01*
X11022666Y13382786D01*
X11022486Y13383079D01*
X10987556Y13442466D01*
X10987263Y13442995D01*
X10954881Y13505190D01*
X10954100Y13514111D01*
X10956826Y13518703D01*
X11302567Y13878231D01*
X11310771Y13881819D01*
X11319433Y13878231D01*
G37*
%TD.AperFunction*%
%TD*%
%TA.AperFunction,Conductor*%
%TO.N,Net-(R1-Pad1)*%
G36*
X11843905Y11955321D02*
G01*
X11874850Y11930630D01*
X11906739Y11905186D01*
X11964714Y11867185D01*
X11964967Y11867053D01*
X11964972Y11867050D01*
X12019459Y11838606D01*
X12019470Y11838601D01*
X12019690Y11838486D01*
X12019922Y11838390D01*
X12019931Y11838386D01*
X12073360Y11816324D01*
X12073525Y11816256D01*
X12073690Y11816200D01*
X12073700Y11816196D01*
X12114092Y11802430D01*
X12128079Y11797663D01*
X12178091Y11782090D01*
X12185169Y11779886D01*
X12185276Y11779852D01*
X12246574Y11760120D01*
X12246988Y11759978D01*
X12314351Y11735480D01*
X12314936Y11735249D01*
X12382931Y11706292D01*
X12389200Y11699898D01*
X12390012Y11694623D01*
X12370961Y11449594D01*
X12351347Y11197325D01*
X12347289Y11189342D01*
X12338321Y11186612D01*
X12097417Y11214851D01*
X11842892Y11244686D01*
X11835074Y11249052D01*
X11832814Y11253853D01*
X11818430Y11320944D01*
X11818335Y11321442D01*
X11806977Y11388454D01*
X11806939Y11388689D01*
X11797886Y11449594D01*
X11797871Y11449686D01*
X11788765Y11505910D01*
X11788741Y11506060D01*
X11777133Y11559549D01*
X11760641Y11611847D01*
X11736851Y11664680D01*
X11703352Y11719773D01*
X11657731Y11778853D01*
X11597577Y11843646D01*
X11774354Y12020423D01*
X11843905Y11955321D01*
G37*
%TD.AperFunction*%
%TD*%
%TA.AperFunction,Conductor*%
%TO.N,Net-(R1-Pad1)*%
G36*
X11630661Y12439407D02*
G01*
X11651143Y12439007D01*
X11680443Y12438434D01*
X11688647Y12434846D01*
X11691373Y12430253D01*
X11712458Y12363363D01*
X11712624Y12362783D01*
X11729899Y12296157D01*
X11729987Y12295798D01*
X11743699Y12235090D01*
X11743698Y12235090D01*
X11743700Y12235086D01*
X11756407Y12178746D01*
X11770706Y12125154D01*
X11770783Y12124935D01*
X11770784Y12124932D01*
X11789118Y12072845D01*
X11789121Y12072837D01*
X11789222Y12072551D01*
X11814583Y12019176D01*
X11814756Y12018898D01*
X11814760Y12018891D01*
X11849251Y11963526D01*
X11849415Y11963263D01*
X11896346Y11903051D01*
X11958002Y11836775D01*
X11781225Y11659998D01*
X11714949Y11721654D01*
X11681594Y11747652D01*
X11654980Y11768396D01*
X11654975Y11768399D01*
X11654737Y11768585D01*
X11654474Y11768749D01*
X11599109Y11803240D01*
X11599102Y11803244D01*
X11598824Y11803417D01*
X11545449Y11828778D01*
X11545163Y11828879D01*
X11545155Y11828882D01*
X11493068Y11847216D01*
X11493065Y11847217D01*
X11492846Y11847294D01*
X11439254Y11861593D01*
X11382914Y11874300D01*
X11382910Y11874303D01*
X11382910Y11874301D01*
X11322202Y11888013D01*
X11321843Y11888101D01*
X11255217Y11905376D01*
X11254637Y11905542D01*
X11187747Y11926627D01*
X11180886Y11932383D01*
X11179566Y11937557D01*
X11174853Y12178630D01*
X11169579Y12448421D01*
X11630661Y12439407D01*
G37*
%TD.AperFunction*%
%TD*%
%TA.AperFunction,Conductor*%
%TO.N,Net-(C1-Pad2)*%
G36*
X11183714Y11032589D02*
G01*
X11187930Y11029316D01*
X11509455Y10632194D01*
X11199664Y10400819D01*
X11151190Y10364615D01*
X11100045Y10326416D01*
X11091366Y10324211D01*
X11086432Y10326138D01*
X11030266Y10364615D01*
X11029875Y10364895D01*
X10975667Y10405401D01*
X10975505Y10405524D01*
X10926985Y10443111D01*
X10881425Y10477216D01*
X10881269Y10477320D01*
X10836252Y10507181D01*
X10836243Y10507186D01*
X10836028Y10507329D01*
X10787921Y10532992D01*
X10787597Y10533117D01*
X10787591Y10533120D01*
X10734578Y10553615D01*
X10734575Y10553616D01*
X10734236Y10553747D01*
X10672101Y10569139D01*
X10671781Y10569181D01*
X10671774Y10569182D01*
X10598908Y10578675D01*
X10598902Y10578675D01*
X10598645Y10578709D01*
X10598126Y10578729D01*
X10598119Y10578729D01*
X10511000Y10582000D01*
X10511000Y10832000D01*
X10607417Y10835110D01*
X10607623Y10835132D01*
X10607630Y10835133D01*
X10688094Y10843934D01*
X10688346Y10843962D01*
X10738864Y10854152D01*
X10756887Y10857788D01*
X10756890Y10857789D01*
X10757159Y10857843D01*
X10757414Y10857920D01*
X10757421Y10857922D01*
X10817000Y10875970D01*
X10817003Y10875971D01*
X10817224Y10876038D01*
X10854962Y10891080D01*
X10871751Y10897771D01*
X10871757Y10897774D01*
X10871911Y10897835D01*
X10877589Y10900495D01*
X10924520Y10922485D01*
X10924536Y10922493D01*
X10924592Y10922519D01*
X10978579Y10949348D01*
X10978708Y10949411D01*
X11037206Y10977593D01*
X11037621Y10977783D01*
X11062984Y10988804D01*
X11104018Y11006635D01*
X11104583Y11006862D01*
X11174765Y11032921D01*
X11183714Y11032589D01*
G37*
%TD.AperFunction*%
%TD*%
%TA.AperFunction,Conductor*%
%TO.N,Net-(C1-Pad2)*%
G36*
X9994620Y11108071D02*
G01*
X9998275Y11106149D01*
X10066642Y11070191D01*
X10067259Y11069843D01*
X10134592Y11029049D01*
X10134988Y11028797D01*
X10194166Y10989612D01*
X10194239Y10989564D01*
X10248955Y10952748D01*
X10248997Y10952722D01*
X10249015Y10952710D01*
X10302370Y10919436D01*
X10302377Y10919432D01*
X10302563Y10919316D01*
X10358692Y10890099D01*
X10420971Y10865928D01*
X10421319Y10865840D01*
X10421321Y10865839D01*
X10492706Y10847715D01*
X10493029Y10847633D01*
X10534229Y10842048D01*
X10578212Y10836085D01*
X10578222Y10836084D01*
X10578496Y10836047D01*
X10595664Y10835369D01*
X10604353Y10835026D01*
X10604356Y10835026D01*
X10681000Y10832000D01*
X10681000Y10582000D01*
X10598128Y10578729D01*
X10598126Y10578729D01*
X10578496Y10577954D01*
X10578222Y10577917D01*
X10578212Y10577916D01*
X10534229Y10571953D01*
X10493029Y10566368D01*
X10492706Y10566286D01*
X10421321Y10548162D01*
X10421319Y10548161D01*
X10420971Y10548073D01*
X10358692Y10523902D01*
X10302563Y10494685D01*
X10302377Y10494569D01*
X10302370Y10494565D01*
X10249015Y10461291D01*
X10248997Y10461279D01*
X10248955Y10461253D01*
X10248896Y10461213D01*
X10194269Y10424457D01*
X10194197Y10424409D01*
X10134989Y10385204D01*
X10134592Y10384952D01*
X10067259Y10344158D01*
X10066642Y10343810D01*
X9994621Y10305930D01*
X9985704Y10305112D01*
X9981065Y10307852D01*
X9704217Y10574083D01*
X9574769Y10698567D01*
X9571181Y10706771D01*
X9574769Y10715433D01*
X9981066Y11106149D01*
X9989404Y11109414D01*
X9994620Y11108071D01*
G37*
%TD.AperFunction*%
%TD*%
%TA.AperFunction,Conductor*%
%TO.N,Net-(C1-Pad2)*%
G36*
X13312981Y9540907D02*
G01*
X13661501Y9205752D01*
X13669858Y9197715D01*
X13673446Y9189511D01*
X13670181Y9181172D01*
X13667662Y9179187D01*
X13205416Y8908410D01*
X13196545Y8907185D01*
X13191816Y8909684D01*
X13142086Y8953012D01*
X13142083Y8953014D01*
X13141755Y8953300D01*
X13087514Y8987834D01*
X13034648Y9011657D01*
X13034338Y9011758D01*
X12982530Y9028616D01*
X12982517Y9028620D01*
X12982372Y9028667D01*
X12955744Y9035820D01*
X12930031Y9042727D01*
X12929890Y9042765D01*
X12876840Y9057728D01*
X12876039Y9057986D01*
X12821852Y9077570D01*
X12820619Y9078097D01*
X12810553Y9083103D01*
X12764137Y9106189D01*
X12762792Y9106974D01*
X12702948Y9147522D01*
X12701739Y9148463D01*
X12646344Y9197695D01*
X12642436Y9205752D01*
X12645843Y9214713D01*
X12806422Y9375292D01*
X12814695Y9378719D01*
X12822026Y9376137D01*
X12842687Y9359525D01*
X12866878Y9340074D01*
X12867670Y9339753D01*
X12915461Y9320387D01*
X12915463Y9320387D01*
X12916444Y9319989D01*
X12963528Y9318923D01*
X13009120Y9333341D01*
X13021552Y9340611D01*
X13053897Y9359525D01*
X13053905Y9359531D01*
X13054207Y9359707D01*
X13099777Y9394484D01*
X13146818Y9434139D01*
X13196067Y9474925D01*
X13196588Y9475331D01*
X13227986Y9498339D01*
X13248746Y9513552D01*
X13249820Y9514252D01*
X13299029Y9542611D01*
X13307908Y9543773D01*
X13312981Y9540907D01*
G37*
%TD.AperFunction*%
%TD*%
%TA.AperFunction,Conductor*%
%TO.N,Net-(C1-Pad2)*%
G36*
X11675669Y10818203D02*
G01*
X11678790Y10813886D01*
X11707573Y10745109D01*
X11707791Y10744548D01*
X11732226Y10676545D01*
X11732355Y10676165D01*
X11752183Y10614291D01*
X11770166Y10556766D01*
X11789057Y10501884D01*
X11811672Y10447753D01*
X11811798Y10447515D01*
X11838019Y10397801D01*
X11840824Y10392482D01*
X11879327Y10334180D01*
X11929995Y10270955D01*
X11987898Y10209180D01*
X11991055Y10200803D01*
X11987634Y10192908D01*
X11826845Y10032119D01*
X11818572Y10028692D01*
X11810604Y10031824D01*
X11753376Y10085044D01*
X11753188Y10085219D01*
X11693368Y10131686D01*
X11637645Y10165970D01*
X11584253Y10190500D01*
X11531431Y10207706D01*
X11477414Y10220017D01*
X11477252Y10220045D01*
X11477247Y10220046D01*
X11420495Y10229855D01*
X11420460Y10229861D01*
X11420441Y10229864D01*
X11358822Y10239662D01*
X11358675Y10239687D01*
X11305864Y10249140D01*
X11290812Y10251834D01*
X11290330Y10251931D01*
X11260296Y10258622D01*
X11222319Y10267083D01*
X11214990Y10272226D01*
X11213234Y10277225D01*
X11200606Y10392246D01*
X11157465Y10785167D01*
X11373304Y10800357D01*
X11374955Y10800473D01*
X11478285Y10807746D01*
X11667177Y10821040D01*
X11675669Y10818203D01*
G37*
%TD.AperFunction*%
%TD*%
%TA.AperFunction,Conductor*%
%TO.N,Net-(C2-Pad2)*%
G36*
X13702482Y10883573D02*
G01*
X13705909Y10875210D01*
X13705750Y10854549D01*
X13705748Y10854409D01*
X13705158Y10824356D01*
X13704455Y10796555D01*
X13703874Y10771026D01*
X13703649Y10747711D01*
X13704012Y10726555D01*
X13705195Y10707501D01*
X13705220Y10707310D01*
X13705221Y10707301D01*
X13707395Y10690777D01*
X13707397Y10690767D01*
X13707433Y10690492D01*
X13710956Y10675472D01*
X13711100Y10675099D01*
X13711101Y10675095D01*
X13713322Y10669332D01*
X13713100Y10660380D01*
X13710838Y10657015D01*
X13589433Y10530769D01*
X13581229Y10527181D01*
X13572567Y10530769D01*
X13451162Y10657015D01*
X13447897Y10665354D01*
X13448677Y10669331D01*
X13450898Y10675095D01*
X13450899Y10675098D01*
X13451043Y10675472D01*
X13454566Y10690492D01*
X13454602Y10690767D01*
X13454604Y10690777D01*
X13456778Y10707301D01*
X13456779Y10707310D01*
X13456804Y10707501D01*
X13457987Y10726555D01*
X13458350Y10747711D01*
X13458125Y10771026D01*
X13457544Y10796555D01*
X13456841Y10824356D01*
X13456251Y10854409D01*
X13456249Y10854549D01*
X13456090Y10875210D01*
X13459453Y10883509D01*
X13467790Y10887000D01*
X13694209Y10887000D01*
X13702482Y10883573D01*
G37*
%TD.AperFunction*%
%TD*%
%TA.AperFunction,Conductor*%
%TO.N,Net-(C2-Pad2)*%
G36*
X12926858Y13107192D02*
G01*
X13512799Y12954142D01*
X13519937Y12948736D01*
X13521520Y12943540D01*
X13526180Y12867691D01*
X13540240Y12796634D01*
X13560960Y12735145D01*
X13586120Y12679541D01*
X13586181Y12679421D01*
X13586182Y12679420D01*
X13613477Y12626185D01*
X13613535Y12626070D01*
X13640706Y12571606D01*
X13641028Y12570904D01*
X13665802Y12511775D01*
X13666215Y12510624D01*
X13686556Y12442993D01*
X13686881Y12441614D01*
X13700701Y12361577D01*
X13700856Y12360206D01*
X13705346Y12275569D01*
X13702362Y12267126D01*
X13693662Y12263249D01*
X13466500Y12263249D01*
X13458227Y12266676D01*
X13454868Y12273688D01*
X13447707Y12339726D01*
X13447615Y12340579D01*
X13423819Y12396723D01*
X13386651Y12435380D01*
X13338151Y12460247D01*
X13337511Y12460411D01*
X13337510Y12460411D01*
X13280712Y12474930D01*
X13280356Y12475021D01*
X13280000Y12475067D01*
X13279994Y12475068D01*
X13251012Y12478801D01*
X13215305Y12483401D01*
X13166383Y12487357D01*
X13145102Y12489078D01*
X13144985Y12489088D01*
X13105739Y12492659D01*
X13071937Y12495735D01*
X13071243Y12495819D01*
X12997648Y12507049D01*
X12996381Y12507315D01*
X12931815Y12524644D01*
X12924713Y12530098D01*
X12923150Y12535715D01*
X12922448Y12571606D01*
X12912203Y13095643D01*
X12915468Y13103982D01*
X12923672Y13107570D01*
X12926858Y13107192D01*
G37*
%TD.AperFunction*%
%TD*%
%TA.AperFunction,Conductor*%
%TO.N,Net-(Q1-Pad3)*%
G36*
X9767808Y3733119D02*
G01*
X9822828Y3704473D01*
X9830005Y3700737D01*
X9830534Y3700444D01*
X9889938Y3665504D01*
X9890214Y3665334D01*
X9942809Y3632119D01*
X9942811Y3632116D01*
X9942812Y3632117D01*
X9991640Y3601262D01*
X10039647Y3573477D01*
X10039849Y3573380D01*
X10039855Y3573377D01*
X10070233Y3558818D01*
X10089935Y3549375D01*
X10145610Y3529565D01*
X10145931Y3529491D01*
X10145929Y3529491D01*
X10209475Y3514729D01*
X10209478Y3514729D01*
X10209777Y3514659D01*
X10210086Y3514621D01*
X10210090Y3514620D01*
X10243705Y3510453D01*
X10285538Y3505267D01*
X10376000Y3502000D01*
X10376000Y3252000D01*
X10286397Y3248765D01*
X10285538Y3248734D01*
X10254113Y3244838D01*
X10210090Y3239381D01*
X10210086Y3239380D01*
X10209777Y3239342D01*
X10209478Y3239272D01*
X10209475Y3239272D01*
X10171442Y3230437D01*
X10145610Y3224436D01*
X10089935Y3204626D01*
X10089660Y3204494D01*
X10039855Y3180624D01*
X10039849Y3180621D01*
X10039647Y3180524D01*
X9991640Y3152739D01*
X9942812Y3121884D01*
X9890214Y3088667D01*
X9889938Y3088497D01*
X9839260Y3058689D01*
X9830534Y3053557D01*
X9830005Y3053264D01*
X9767809Y3020881D01*
X9758889Y3020100D01*
X9754298Y3022825D01*
X9394769Y3368567D01*
X9391181Y3376771D01*
X9394769Y3385433D01*
X9754297Y3731174D01*
X9762636Y3734439D01*
X9767808Y3733119D01*
G37*
%TD.AperFunction*%
%TD*%
%TA.AperFunction,Conductor*%
%TO.N,Net-(Q1-Pad3)*%
G36*
X10858227Y3734020D02*
G01*
X10896787Y3697867D01*
X10896789Y3697866D01*
X11230983Y3384531D01*
X11088986Y3244477D01*
X11087386Y3242899D01*
X11069018Y3224782D01*
X10966144Y3123315D01*
X10867197Y3025722D01*
X10858900Y3022352D01*
X10853714Y3023604D01*
X10817951Y3041632D01*
X10790256Y3055594D01*
X10789757Y3055863D01*
X10729293Y3090321D01*
X10728990Y3090499D01*
X10675407Y3123315D01*
X10675408Y3123317D01*
X10675400Y3123319D01*
X10625783Y3153760D01*
X10625770Y3153768D01*
X10625714Y3153802D01*
X10576900Y3181270D01*
X10525824Y3205109D01*
X10469339Y3224711D01*
X10404303Y3239466D01*
X10404002Y3239502D01*
X10403999Y3239503D01*
X10327811Y3248736D01*
X10327809Y3248736D01*
X10327571Y3248765D01*
X10309782Y3249393D01*
X10306966Y3249493D01*
X10306964Y3249493D01*
X10236000Y3252000D01*
X10236000Y3502000D01*
X10313589Y3504782D01*
X10326402Y3505241D01*
X10326408Y3505241D01*
X10326674Y3505251D01*
X10353069Y3508504D01*
X10402336Y3514575D01*
X10402344Y3514576D01*
X10402641Y3514613D01*
X10402931Y3514680D01*
X10402936Y3514681D01*
X10466675Y3529432D01*
X10466674Y3529432D01*
X10466995Y3529506D01*
X10467306Y3529617D01*
X10467311Y3529618D01*
X10522528Y3549242D01*
X10522534Y3549245D01*
X10522828Y3549349D01*
X10529165Y3552393D01*
X10573016Y3573453D01*
X10573022Y3573456D01*
X10573234Y3573558D01*
X10621305Y3601554D01*
X10670134Y3632754D01*
X10722654Y3666473D01*
X10722943Y3666654D01*
X10782197Y3702295D01*
X10782703Y3702582D01*
X10844700Y3735798D01*
X10853610Y3736685D01*
X10858227Y3734020D01*
G37*
%TD.AperFunction*%
%TD*%
%TA.AperFunction,Conductor*%
%TO.N,Net-(Q1-Pad3)*%
G36*
X15542724Y9177154D02*
G01*
X15902252Y8831413D01*
X15905840Y8823209D01*
X15902252Y8814547D01*
X15542724Y8468806D01*
X15534386Y8465541D01*
X15529212Y8466861D01*
X15467015Y8499244D01*
X15466486Y8499537D01*
X15457760Y8504669D01*
X15407082Y8534477D01*
X15406806Y8534647D01*
X15354211Y8567862D01*
X15354209Y8567865D01*
X15354208Y8567864D01*
X15305458Y8598670D01*
X15305448Y8598676D01*
X15305380Y8598719D01*
X15257373Y8626504D01*
X15257171Y8626601D01*
X15257165Y8626604D01*
X15207360Y8650474D01*
X15207085Y8650606D01*
X15151410Y8670416D01*
X15125578Y8676417D01*
X15087545Y8685252D01*
X15087542Y8685252D01*
X15087243Y8685322D01*
X15086934Y8685360D01*
X15086930Y8685361D01*
X15042907Y8690818D01*
X15011482Y8694714D01*
X14955891Y8696721D01*
X14932299Y8697573D01*
X14924155Y8701296D01*
X14921021Y8709265D01*
X14921021Y8936695D01*
X14924448Y8944968D01*
X14932299Y8948387D01*
X14965233Y8949577D01*
X15011482Y8951247D01*
X15042907Y8955143D01*
X15086930Y8960600D01*
X15086934Y8960601D01*
X15087243Y8960639D01*
X15087542Y8960709D01*
X15087545Y8960709D01*
X15151091Y8975471D01*
X15151089Y8975471D01*
X15151410Y8975545D01*
X15207085Y8995355D01*
X15226787Y9004798D01*
X15257165Y9019357D01*
X15257171Y9019360D01*
X15257373Y9019457D01*
X15305380Y9047242D01*
X15354208Y9078097D01*
X15406806Y9111314D01*
X15407082Y9111484D01*
X15466486Y9146424D01*
X15467015Y9146717D01*
X15474900Y9150822D01*
X15529212Y9179099D01*
X15538132Y9179880D01*
X15542724Y9177154D01*
G37*
%TD.AperFunction*%
%TD*%
%TA.AperFunction,Conductor*%
%TO.N,Net-(Q1-Pad3)*%
G36*
X13154655Y6195408D02*
G01*
X13210838Y6136985D01*
X13214103Y6128646D01*
X13213322Y6124669D01*
X13210956Y6118529D01*
X13207433Y6103509D01*
X13207397Y6103234D01*
X13207395Y6103224D01*
X13205221Y6086700D01*
X13205195Y6086500D01*
X13204012Y6067446D01*
X13203649Y6046290D01*
X13203650Y6046173D01*
X13203650Y6046140D01*
X13203874Y6023015D01*
X13203875Y6022921D01*
X13204452Y5997570D01*
X13204453Y5997540D01*
X13204455Y5997446D01*
X13205156Y5969711D01*
X13205158Y5969645D01*
X13205748Y5939592D01*
X13205750Y5939452D01*
X13205909Y5918790D01*
X13202546Y5910491D01*
X13194209Y5907000D01*
X12967790Y5907000D01*
X12959517Y5910427D01*
X12956090Y5918790D01*
X12956249Y5939452D01*
X12956251Y5939592D01*
X12956841Y5969645D01*
X12956843Y5969711D01*
X12957544Y5997446D01*
X12957546Y5997540D01*
X12957547Y5997570D01*
X12958124Y6022921D01*
X12958125Y6023015D01*
X12958349Y6046140D01*
X12958349Y6046173D01*
X12958350Y6046290D01*
X12957987Y6067446D01*
X12956804Y6086500D01*
X12956778Y6086700D01*
X12954604Y6103224D01*
X12954602Y6103234D01*
X12954566Y6103509D01*
X12951043Y6118529D01*
X12950900Y6118901D01*
X12950900Y6118902D01*
X12948678Y6124667D01*
X12948900Y6133619D01*
X12951162Y6136985D01*
X13007262Y6195322D01*
X13081000Y6272000D01*
X13154655Y6195408D01*
G37*
%TD.AperFunction*%
%TD*%
%TA.AperFunction,Conductor*%
%TO.N,Net-(Q1-Pad3)*%
G36*
X11509204Y4021023D02*
G01*
X11670022Y3860205D01*
X11673449Y3851932D01*
X11670315Y3843963D01*
X11643551Y3815193D01*
X11616346Y3785950D01*
X11616201Y3785764D01*
X11616195Y3785757D01*
X11589450Y3751443D01*
X11569415Y3725738D01*
X11569252Y3725477D01*
X11569251Y3725475D01*
X11534760Y3670110D01*
X11534756Y3670103D01*
X11534583Y3669825D01*
X11509222Y3616450D01*
X11509121Y3616164D01*
X11509118Y3616156D01*
X11490784Y3564069D01*
X11490706Y3563847D01*
X11476407Y3510255D01*
X11476376Y3510117D01*
X11463700Y3453915D01*
X11463697Y3453911D01*
X11463699Y3453911D01*
X11449987Y3393203D01*
X11449906Y3392870D01*
X11432617Y3326189D01*
X11432457Y3325633D01*
X11411373Y3258747D01*
X11405617Y3251886D01*
X11400443Y3250566D01*
X11159282Y3245851D01*
X10889579Y3240579D01*
X10898487Y3696274D01*
X10899566Y3751443D01*
X10903154Y3759647D01*
X10907746Y3762373D01*
X10974637Y3783459D01*
X10975218Y3783625D01*
X11041843Y3800900D01*
X11042202Y3800988D01*
X11102910Y3814700D01*
X11102910Y3814699D01*
X11102914Y3814701D01*
X11159254Y3827408D01*
X11212846Y3841707D01*
X11213068Y3841785D01*
X11265155Y3860119D01*
X11265163Y3860122D01*
X11265449Y3860223D01*
X11318824Y3885584D01*
X11319102Y3885757D01*
X11319109Y3885761D01*
X11374474Y3920252D01*
X11374476Y3920253D01*
X11374737Y3920416D01*
X11374975Y3920602D01*
X11374980Y3920605D01*
X11434756Y3967196D01*
X11434763Y3967202D01*
X11434949Y3967347D01*
X11492964Y4021317D01*
X11501353Y4024442D01*
X11509204Y4021023D01*
G37*
%TD.AperFunction*%
%TD*%
%TA.AperFunction,Conductor*%
%TO.N,Net-(Q1-Pad3)*%
G36*
X13202482Y6483573D02*
G01*
X13205909Y6475210D01*
X13205750Y6454549D01*
X13205748Y6454409D01*
X13205158Y6424356D01*
X13204455Y6396555D01*
X13203874Y6371026D01*
X13203649Y6347711D01*
X13204012Y6326555D01*
X13205195Y6307501D01*
X13205220Y6307310D01*
X13205221Y6307301D01*
X13207395Y6290777D01*
X13207397Y6290767D01*
X13207433Y6290492D01*
X13210956Y6275472D01*
X13211100Y6275099D01*
X13211101Y6275095D01*
X13213322Y6269332D01*
X13213100Y6260380D01*
X13210838Y6257016D01*
X13081000Y6122000D01*
X12951162Y6257015D01*
X12947897Y6265354D01*
X12948677Y6269331D01*
X12950898Y6275095D01*
X12950899Y6275098D01*
X12951043Y6275472D01*
X12954566Y6290492D01*
X12954602Y6290767D01*
X12954604Y6290777D01*
X12956778Y6307301D01*
X12956779Y6307310D01*
X12956804Y6307501D01*
X12957987Y6326555D01*
X12958350Y6347711D01*
X12958125Y6371026D01*
X12957544Y6396555D01*
X12956841Y6424356D01*
X12956251Y6454409D01*
X12956249Y6454549D01*
X12956090Y6475210D01*
X12959453Y6483509D01*
X12967790Y6487000D01*
X13194209Y6487000D01*
X13202482Y6483573D01*
G37*
%TD.AperFunction*%
%TD*%
%TA.AperFunction,Conductor*%
%TO.N,Net-(R9-Pad2)*%
G36*
X14202482Y10883573D02*
G01*
X14205909Y10875210D01*
X14205750Y10854549D01*
X14205748Y10854409D01*
X14205158Y10824356D01*
X14204455Y10796555D01*
X14203874Y10771026D01*
X14203649Y10747711D01*
X14204012Y10726555D01*
X14205195Y10707501D01*
X14205220Y10707310D01*
X14205221Y10707301D01*
X14207395Y10690777D01*
X14207397Y10690767D01*
X14207433Y10690492D01*
X14210956Y10675472D01*
X14211100Y10675099D01*
X14211101Y10675095D01*
X14213322Y10669332D01*
X14213100Y10660380D01*
X14210838Y10657015D01*
X14089433Y10530769D01*
X14081229Y10527181D01*
X14072567Y10530769D01*
X13951162Y10657015D01*
X13947897Y10665354D01*
X13948677Y10669331D01*
X13950898Y10675095D01*
X13950899Y10675098D01*
X13951043Y10675472D01*
X13954566Y10690492D01*
X13954602Y10690767D01*
X13954604Y10690777D01*
X13956778Y10707301D01*
X13956779Y10707310D01*
X13956804Y10707501D01*
X13957987Y10726555D01*
X13958350Y10747711D01*
X13958125Y10771026D01*
X13957544Y10796555D01*
X13956841Y10824356D01*
X13956251Y10854409D01*
X13956249Y10854549D01*
X13956090Y10875210D01*
X13959453Y10883509D01*
X13967790Y10887000D01*
X14194209Y10887000D01*
X14202482Y10883573D01*
G37*
%TD.AperFunction*%
%TD*%
%TA.AperFunction,Conductor*%
%TO.N,Net-(R9-Pad2)*%
G36*
X14726335Y13038289D02*
G01*
X14731741Y13031151D01*
X14732119Y13027966D01*
X14725106Y12669196D01*
X14722445Y12533093D01*
X14718857Y12524889D01*
X14713599Y12521975D01*
X14653897Y12506972D01*
X14652326Y12506689D01*
X14582606Y12499012D01*
X14581680Y12498947D01*
X14555947Y12498165D01*
X14511617Y12496819D01*
X14511351Y12496814D01*
X14494843Y12496724D01*
X14443399Y12496442D01*
X14443375Y12496441D01*
X14443305Y12496441D01*
X14416958Y12495406D01*
X14380054Y12493957D01*
X14380051Y12493957D01*
X14379727Y12493944D01*
X14379410Y12493896D01*
X14379405Y12493896D01*
X14323528Y12485521D01*
X14322901Y12485427D01*
X14322308Y12485199D01*
X14275935Y12467366D01*
X14275932Y12467364D01*
X14274972Y12466995D01*
X14238083Y12434753D01*
X14237567Y12433666D01*
X14221326Y12399443D01*
X14214378Y12384803D01*
X14207475Y12325840D01*
X14207211Y12323588D01*
X14202845Y12315770D01*
X14195590Y12313249D01*
X13968627Y12313249D01*
X13960354Y12316676D01*
X13956961Y12325840D01*
X13962504Y12398443D01*
X13962826Y12400416D01*
X13980192Y12469206D01*
X13980854Y12471115D01*
X14006420Y12528246D01*
X14007212Y12529720D01*
X14038442Y12578972D01*
X14039027Y12579812D01*
X14073475Y12624881D01*
X14073583Y12625019D01*
X14108152Y12668872D01*
X14108159Y12668882D01*
X14108280Y12669035D01*
X14140239Y12715288D01*
X14140411Y12715628D01*
X14140415Y12715634D01*
X14166318Y12766713D01*
X14166560Y12767190D01*
X14184420Y12828255D01*
X14190269Y12893802D01*
X14194417Y12901737D01*
X14198963Y12904080D01*
X14673249Y13027965D01*
X14717464Y13039514D01*
X14726335Y13038289D01*
G37*
%TD.AperFunction*%
%TD*%
%TA.AperFunction,Conductor*%
%TO.N,Net-(R10-Pad2)*%
G36*
X15089433Y6263231D02*
G01*
X15210838Y6136985D01*
X15214103Y6128646D01*
X15213322Y6124669D01*
X15210956Y6118529D01*
X15207433Y6103509D01*
X15207397Y6103234D01*
X15207395Y6103224D01*
X15205221Y6086700D01*
X15205195Y6086500D01*
X15204012Y6067446D01*
X15203649Y6046290D01*
X15203650Y6046173D01*
X15203650Y6046140D01*
X15203874Y6023015D01*
X15203875Y6022921D01*
X15204452Y5997570D01*
X15204453Y5997540D01*
X15204455Y5997446D01*
X15205156Y5969711D01*
X15205158Y5969645D01*
X15205748Y5939592D01*
X15205750Y5939452D01*
X15205909Y5918790D01*
X15202546Y5910491D01*
X15194209Y5907000D01*
X14967790Y5907000D01*
X14959517Y5910427D01*
X14956090Y5918790D01*
X14956249Y5939452D01*
X14956251Y5939592D01*
X14956841Y5969645D01*
X14956843Y5969711D01*
X14957544Y5997446D01*
X14957546Y5997540D01*
X14957547Y5997570D01*
X14958124Y6022921D01*
X14958125Y6023015D01*
X14958349Y6046140D01*
X14958349Y6046173D01*
X14958350Y6046290D01*
X14957987Y6067446D01*
X14956804Y6086500D01*
X14956778Y6086700D01*
X14954604Y6103224D01*
X14954602Y6103234D01*
X14954566Y6103509D01*
X14951043Y6118529D01*
X14950900Y6118901D01*
X14950900Y6118902D01*
X14948678Y6124667D01*
X14948900Y6133619D01*
X14951162Y6136985D01*
X15072567Y6263231D01*
X15080771Y6266819D01*
X15089433Y6263231D01*
G37*
%TD.AperFunction*%
%TD*%
%TA.AperFunction,Conductor*%
%TO.N,Net-(R10-Pad2)*%
G36*
X16672213Y3942179D02*
G01*
X16729262Y3889144D01*
X16729269Y3889138D01*
X16729453Y3888967D01*
X16789110Y3842677D01*
X16823158Y3821759D01*
X16844373Y3808725D01*
X16844377Y3808723D01*
X16844673Y3808541D01*
X16844993Y3808394D01*
X16844997Y3808392D01*
X16897597Y3784249D01*
X16897900Y3784110D01*
X16898211Y3784008D01*
X16898215Y3784007D01*
X16918087Y3777524D01*
X16950543Y3766935D01*
X16950783Y3766880D01*
X16950786Y3766879D01*
X16959750Y3764819D01*
X17004359Y3754567D01*
X17061100Y3744557D01*
X17122419Y3734473D01*
X17122662Y3734430D01*
X17137544Y3731658D01*
X17190139Y3721861D01*
X17190604Y3721765D01*
X17258270Y3706078D01*
X17265556Y3700871D01*
X17267268Y3695851D01*
X17313821Y3232456D01*
X17317129Y3199526D01*
X17314547Y3190952D01*
X17306202Y3186679D01*
X16808328Y3156255D01*
X16799862Y3159171D01*
X16796779Y3163521D01*
X16785612Y3190952D01*
X16768946Y3231887D01*
X16768731Y3232456D01*
X16745194Y3300188D01*
X16745066Y3300579D01*
X16726081Y3362111D01*
X16726057Y3362189D01*
X16708848Y3419383D01*
X16708819Y3419480D01*
X16690611Y3474135D01*
X16668638Y3528012D01*
X16640105Y3582979D01*
X16602214Y3640902D01*
X16592826Y3652673D01*
X16552306Y3703477D01*
X16552298Y3703486D01*
X16552169Y3703648D01*
X16552025Y3703802D01*
X16494910Y3764819D01*
X16491758Y3773201D01*
X16495179Y3781088D01*
X16655974Y3941883D01*
X16664247Y3945310D01*
X16672213Y3942179D01*
G37*
%TD.AperFunction*%
%TD*%
%TA.AperFunction,Conductor*%
%TO.N,Net-(Q2-Pad4)*%
G36*
X15202482Y10883573D02*
G01*
X15205909Y10875210D01*
X15205750Y10854549D01*
X15205748Y10854409D01*
X15205158Y10824356D01*
X15204455Y10796555D01*
X15203874Y10771026D01*
X15203649Y10747711D01*
X15204012Y10726555D01*
X15205195Y10707501D01*
X15205220Y10707310D01*
X15205221Y10707301D01*
X15207395Y10690777D01*
X15207397Y10690767D01*
X15207433Y10690492D01*
X15210956Y10675472D01*
X15211100Y10675099D01*
X15211101Y10675095D01*
X15213322Y10669332D01*
X15213100Y10660380D01*
X15210838Y10657015D01*
X15089433Y10530769D01*
X15081229Y10527181D01*
X15072567Y10530769D01*
X14951162Y10657015D01*
X14947897Y10665354D01*
X14948677Y10669331D01*
X14950898Y10675095D01*
X14950899Y10675098D01*
X14951043Y10675472D01*
X14954566Y10690492D01*
X14954602Y10690767D01*
X14954604Y10690777D01*
X14956778Y10707301D01*
X14956779Y10707310D01*
X14956804Y10707501D01*
X14957987Y10726555D01*
X14958350Y10747711D01*
X14958125Y10771026D01*
X14957544Y10796555D01*
X14956841Y10824356D01*
X14956251Y10854409D01*
X14956249Y10854549D01*
X14956090Y10875210D01*
X14959453Y10883509D01*
X14967790Y10887000D01*
X15194209Y10887000D01*
X15202482Y10883573D01*
G37*
%TD.AperFunction*%
%TD*%
%TA.AperFunction,Conductor*%
%TO.N,Net-(C1-Pad2)*%
G36*
X9994620Y11108071D02*
G01*
X9998275Y11106149D01*
X10066642Y11070191D01*
X10067259Y11069843D01*
X10134592Y11029049D01*
X10134988Y11028797D01*
X10194166Y10989612D01*
X10194239Y10989564D01*
X10248955Y10952748D01*
X10248997Y10952722D01*
X10249015Y10952710D01*
X10302370Y10919436D01*
X10302377Y10919432D01*
X10302563Y10919316D01*
X10358692Y10890099D01*
X10420971Y10865928D01*
X10421319Y10865840D01*
X10421321Y10865839D01*
X10492706Y10847715D01*
X10493029Y10847633D01*
X10534229Y10842048D01*
X10578212Y10836085D01*
X10578222Y10836084D01*
X10578496Y10836047D01*
X10595664Y10835369D01*
X10604353Y10835026D01*
X10604356Y10835026D01*
X10681000Y10832000D01*
X10681000Y10582000D01*
X10598128Y10578729D01*
X10598126Y10578729D01*
X10578496Y10577954D01*
X10578222Y10577917D01*
X10578212Y10577916D01*
X10534229Y10571953D01*
X10493029Y10566368D01*
X10492706Y10566286D01*
X10421321Y10548162D01*
X10421319Y10548161D01*
X10420971Y10548073D01*
X10358692Y10523902D01*
X10302563Y10494685D01*
X10302377Y10494569D01*
X10302370Y10494565D01*
X10249015Y10461291D01*
X10248997Y10461279D01*
X10248955Y10461253D01*
X10248896Y10461213D01*
X10194269Y10424457D01*
X10194197Y10424409D01*
X10134989Y10385204D01*
X10134592Y10384952D01*
X10067259Y10344158D01*
X10066642Y10343810D01*
X9994621Y10305930D01*
X9985704Y10305112D01*
X9981065Y10307852D01*
X9704217Y10574083D01*
X9574769Y10698567D01*
X9571181Y10706771D01*
X9574769Y10715433D01*
X9981066Y11106149D01*
X9989404Y11109414D01*
X9994620Y11108071D01*
G37*
%TD.AperFunction*%
%TD*%
%TA.AperFunction,Conductor*%
%TO.N,Net-(C2-Pad2)*%
G36*
X12926858Y13107192D02*
G01*
X13512799Y12954142D01*
X13519937Y12948736D01*
X13521520Y12943540D01*
X13526180Y12867691D01*
X13540240Y12796634D01*
X13560960Y12735145D01*
X13586120Y12679541D01*
X13586181Y12679421D01*
X13586182Y12679420D01*
X13613477Y12626185D01*
X13613535Y12626070D01*
X13640706Y12571606D01*
X13641028Y12570904D01*
X13665802Y12511775D01*
X13666215Y12510624D01*
X13686556Y12442993D01*
X13686881Y12441614D01*
X13700701Y12361577D01*
X13700856Y12360206D01*
X13705346Y12275569D01*
X13702362Y12267126D01*
X13693662Y12263249D01*
X13466500Y12263249D01*
X13458227Y12266676D01*
X13454868Y12273688D01*
X13447707Y12339726D01*
X13447615Y12340579D01*
X13423819Y12396723D01*
X13386651Y12435380D01*
X13338151Y12460247D01*
X13337511Y12460411D01*
X13337510Y12460411D01*
X13280712Y12474930D01*
X13280356Y12475021D01*
X13280000Y12475067D01*
X13279994Y12475068D01*
X13251012Y12478801D01*
X13215305Y12483401D01*
X13166383Y12487357D01*
X13145102Y12489078D01*
X13144985Y12489088D01*
X13105739Y12492659D01*
X13071937Y12495735D01*
X13071243Y12495819D01*
X12997648Y12507049D01*
X12996381Y12507315D01*
X12931815Y12524644D01*
X12924713Y12530098D01*
X12923150Y12535715D01*
X12922448Y12571606D01*
X12912203Y13095643D01*
X12915468Y13103982D01*
X12923672Y13107570D01*
X12926858Y13107192D01*
G37*
%TD.AperFunction*%
%TD*%
%TA.AperFunction,Conductor*%
%TO.N,+24V*%
G36*
X14753121Y22536998D02*
G01*
X14799614Y22483342D01*
X14811000Y22431000D01*
X14811000Y18233000D01*
X14790998Y18164879D01*
X14737342Y18118386D01*
X14685000Y18107000D01*
X10220636Y18107000D01*
X10201477Y18108465D01*
X7611000Y18507000D01*
X3737000Y18507000D01*
X3668879Y18527002D01*
X3622386Y18580658D01*
X3611000Y18633000D01*
X3611000Y21331000D01*
X3631002Y21399121D01*
X3684658Y21445614D01*
X3737000Y21457000D01*
X7611000Y21457000D01*
X10187463Y22547042D01*
X10236558Y22557000D01*
X14685000Y22557000D01*
X14753121Y22536998D01*
G37*
%TD.AperFunction*%
%TD*%
%TA.AperFunction,Conductor*%
%TO.N,Net-(J2-Pad1)*%
G36*
X24553121Y21236998D02*
G01*
X24599614Y21183342D01*
X24611000Y21131000D01*
X24611000Y18283000D01*
X24590998Y18214879D01*
X24537342Y18168386D01*
X24485000Y18157000D01*
X16137000Y18157000D01*
X16068879Y18177002D01*
X16022386Y18230658D01*
X16011000Y18283000D01*
X16011000Y21131000D01*
X16031002Y21199121D01*
X16084658Y21245614D01*
X16137000Y21257000D01*
X24485000Y21257000D01*
X24553121Y21236998D01*
G37*
%TD.AperFunction*%
%TD*%
%TA.AperFunction,Conductor*%
%TO.N,GND*%
G36*
X25512461Y24309118D02*
G01*
X25526642Y24305857D01*
X25534772Y24307697D01*
X25539196Y24307689D01*
X25554788Y24308813D01*
X25643853Y24301803D01*
X25728319Y24295155D01*
X25739781Y24293340D01*
X25835128Y24270449D01*
X25930472Y24247558D01*
X25941515Y24243970D01*
X26122704Y24168920D01*
X26133047Y24163650D01*
X26206133Y24118863D01*
X26300261Y24061181D01*
X26309650Y24054360D01*
X26458780Y23926990D01*
X26466989Y23918781D01*
X26594360Y23769650D01*
X26601181Y23760261D01*
X26703648Y23593051D01*
X26708920Y23582704D01*
X26783970Y23401515D01*
X26787558Y23390472D01*
X26833339Y23199785D01*
X26835156Y23188316D01*
X26848777Y23015250D01*
X26847735Y23001155D01*
X26847725Y22995481D01*
X26845857Y22987358D01*
X26847697Y22979227D01*
X26849175Y22972694D01*
X26851000Y22956363D01*
X26851000Y1555123D01*
X26849118Y1538539D01*
X26845857Y1524358D01*
X26847697Y1516228D01*
X26847689Y1511804D01*
X26848813Y1496212D01*
X26835156Y1322684D01*
X26833339Y1311215D01*
X26787558Y1120528D01*
X26783970Y1109485D01*
X26708920Y928296D01*
X26703648Y917949D01*
X26601181Y750739D01*
X26594360Y741350D01*
X26466990Y592220D01*
X26458781Y584011D01*
X26309650Y456640D01*
X26300261Y449819D01*
X26133047Y347350D01*
X26122704Y342080D01*
X25941515Y267030D01*
X25930472Y263442D01*
X25835129Y240552D01*
X25739781Y217660D01*
X25728319Y215845D01*
X25555250Y202223D01*
X25541155Y203265D01*
X25535481Y203275D01*
X25527358Y205143D01*
X25515111Y202372D01*
X25512694Y201825D01*
X25496363Y200000D01*
X1555123Y200000D01*
X1538539Y201882D01*
X1538230Y201953D01*
X1524358Y205143D01*
X1516228Y203303D01*
X1511804Y203311D01*
X1496212Y202187D01*
X1407147Y209197D01*
X1322681Y215845D01*
X1311219Y217660D01*
X1215871Y240552D01*
X1120528Y263442D01*
X1109485Y267030D01*
X928296Y342080D01*
X917953Y347350D01*
X750739Y449819D01*
X741350Y456640D01*
X592219Y584011D01*
X584010Y592220D01*
X456640Y741350D01*
X449819Y750739D01*
X347352Y917949D01*
X342080Y928296D01*
X267030Y1109485D01*
X263442Y1120528D01*
X217661Y1311215D01*
X215844Y1322684D01*
X202223Y1495750D01*
X203265Y1509845D01*
X203275Y1515519D01*
X205143Y1523642D01*
X201825Y1538306D01*
X200000Y1554637D01*
X200000Y19172076D01*
X2510500Y19172076D01*
X2520698Y19057813D01*
X2573923Y18872194D01*
X2663385Y18701070D01*
X2665755Y18698164D01*
X2665757Y18698161D01*
X2768843Y18571766D01*
X2785429Y18551429D01*
X2788335Y18549059D01*
X2932161Y18431757D01*
X2932164Y18431755D01*
X2935070Y18429385D01*
X3106194Y18339923D01*
X3291813Y18286698D01*
X3295321Y18286385D01*
X3295326Y18286384D01*
X3404428Y18276647D01*
X3404430Y18276647D01*
X3406076Y18276500D01*
X3609806Y18276500D01*
X3630654Y18273503D01*
X3665440Y18263289D01*
X3737000Y18253000D01*
X7585916Y18253000D01*
X7597168Y18252140D01*
X10162184Y17857522D01*
X10162188Y17857521D01*
X10162854Y17857419D01*
X10163525Y17857342D01*
X10163546Y17857339D01*
X10181386Y17855287D01*
X10181406Y17855285D01*
X10182111Y17855204D01*
X10196626Y17854094D01*
X10200563Y17853793D01*
X10200566Y17853793D01*
X10201270Y17853739D01*
X10201975Y17853712D01*
X10201994Y17853711D01*
X10219948Y17853026D01*
X10219961Y17853026D01*
X10220636Y17853000D01*
X10636500Y17853000D01*
X10684066Y17835687D01*
X10709376Y17791850D01*
X10710500Y17779000D01*
X10710500Y15798111D01*
X10702434Y15764517D01*
X10650354Y15662304D01*
X10649443Y15656552D01*
X10649442Y15656549D01*
X10635955Y15571392D01*
X10635500Y15568519D01*
X10635500Y15565610D01*
X10635501Y15226701D01*
X10625797Y15190068D01*
X10620197Y15180238D01*
X10619436Y15178903D01*
X10615779Y15173124D01*
X10591718Y15138723D01*
X10588057Y15133919D01*
X10552499Y15091010D01*
X10549248Y15087341D01*
X10509306Y15045169D01*
X10507905Y15043729D01*
X7713871Y12249695D01*
X7701685Y12239854D01*
X7695165Y12235644D01*
X7695163Y12235642D01*
X7690024Y12232324D01*
X7686236Y12227519D01*
X7668608Y12205158D01*
X7662821Y12198645D01*
X7659910Y12195734D01*
X7658136Y12193252D01*
X7658133Y12193248D01*
X7648620Y12179936D01*
X7646528Y12177150D01*
X7615723Y12138074D01*
X7613695Y12132301D01*
X7612846Y12130756D01*
X7612457Y12130139D01*
X7612400Y12130027D01*
X7612118Y12129355D01*
X7611341Y12127769D01*
X7607784Y12122791D01*
X7606031Y12116929D01*
X7593527Y12075120D01*
X7592450Y12071804D01*
X7575957Y12024838D01*
X7575500Y12019561D01*
X7575500Y12018323D01*
X7575089Y12013464D01*
X7573397Y12007808D01*
X7573637Y12001698D01*
X7575443Y11955736D01*
X7575500Y11952831D01*
X7575500Y4152305D01*
X7575473Y4150296D01*
X7573894Y4092158D01*
X7573600Y4087289D01*
X7570656Y4055852D01*
X7548984Y4010111D01*
X7530575Y3996822D01*
X7497658Y3980050D01*
X7407950Y3890342D01*
X7405306Y3885152D01*
X7405304Y3885150D01*
X7353000Y3782498D01*
X7350354Y3777304D01*
X7349443Y3771552D01*
X7349442Y3771549D01*
X7339911Y3711369D01*
X7335500Y3683519D01*
X7335501Y3070482D01*
X7335956Y3067610D01*
X7335956Y3067608D01*
X7339322Y3046357D01*
X7350354Y2976696D01*
X7370209Y2937729D01*
X7405304Y2868850D01*
X7405306Y2868848D01*
X7407950Y2863658D01*
X7497658Y2773950D01*
X7502848Y2771306D01*
X7502850Y2771304D01*
X7605502Y2719000D01*
X7605505Y2718999D01*
X7610696Y2716354D01*
X7616448Y2715443D01*
X7616451Y2715442D01*
X7701608Y2701955D01*
X7704481Y2701500D01*
X7751182Y2701500D01*
X8046300Y2701501D01*
X8082936Y2691796D01*
X8094103Y2685433D01*
X8099879Y2681778D01*
X8134265Y2657728D01*
X8139071Y2654066D01*
X8181990Y2618499D01*
X8185659Y2615248D01*
X8227865Y2575273D01*
X8229304Y2573872D01*
X8482825Y2320351D01*
X8492666Y2308165D01*
X8496876Y2301645D01*
X8500196Y2296504D01*
X8505001Y2292716D01*
X8527362Y2275088D01*
X8533875Y2269301D01*
X8536786Y2266390D01*
X8539268Y2264616D01*
X8539272Y2264613D01*
X8552584Y2255100D01*
X8555370Y2253008D01*
X8594446Y2222203D01*
X8600219Y2220175D01*
X8601764Y2219326D01*
X8602381Y2218937D01*
X8602493Y2218880D01*
X8603165Y2218598D01*
X8604751Y2217821D01*
X8609729Y2214264D01*
X8615592Y2212511D01*
X8615591Y2212511D01*
X8657397Y2200008D01*
X8660713Y2198931D01*
X8707682Y2182437D01*
X8712959Y2181980D01*
X8714197Y2181980D01*
X8719056Y2181569D01*
X8724713Y2179877D01*
X8730824Y2180117D01*
X8776796Y2181923D01*
X8779701Y2181980D01*
X11560544Y2181980D01*
X11608110Y2164667D01*
X11612870Y2160306D01*
X11747854Y2025322D01*
X11749255Y2023883D01*
X11788888Y1982038D01*
X11789174Y1981736D01*
X11792491Y1977999D01*
X11817027Y1948392D01*
X11828065Y1935072D01*
X11831727Y1930266D01*
X11841969Y1915622D01*
X11855427Y1896381D01*
X11855775Y1895883D01*
X11859431Y1890105D01*
X11865796Y1878934D01*
X11875500Y1842300D01*
X11875501Y1500482D01*
X11890354Y1406696D01*
X11919152Y1350177D01*
X11945304Y1298850D01*
X11945306Y1298848D01*
X11947950Y1293658D01*
X12037658Y1203950D01*
X12042848Y1201306D01*
X12042850Y1201304D01*
X12145502Y1149000D01*
X12145505Y1148999D01*
X12150696Y1146354D01*
X12156448Y1145443D01*
X12156451Y1145442D01*
X12241602Y1131956D01*
X12244481Y1131500D01*
X12551000Y1131500D01*
X12857518Y1131501D01*
X12860390Y1131956D01*
X12860392Y1131956D01*
X12892090Y1136976D01*
X12951304Y1146354D01*
X13007823Y1175152D01*
X13059150Y1201304D01*
X13059152Y1201306D01*
X13064342Y1203950D01*
X13154050Y1293658D01*
X13156694Y1298848D01*
X13156696Y1298850D01*
X13209000Y1401502D01*
X13209001Y1401505D01*
X13211646Y1406696D01*
X13212557Y1412448D01*
X13212558Y1412451D01*
X13226045Y1497608D01*
X13226500Y1500481D01*
X13226499Y1896381D01*
X13237689Y1935508D01*
X13251567Y1957784D01*
X13256003Y1964135D01*
X13286729Y2003555D01*
X13290912Y2008465D01*
X13309982Y2028965D01*
X13309985Y2028969D01*
X13331626Y2052232D01*
X13333481Y2054155D01*
X13599632Y2320306D01*
X13645508Y2341698D01*
X13651958Y2341980D01*
X14849039Y2341980D01*
X14855489Y2341698D01*
X14888838Y2338780D01*
X14888839Y2338780D01*
X14895287Y2338216D01*
X14933884Y2348559D01*
X14940183Y2349955D01*
X14949751Y2351642D01*
X14973152Y2355768D01*
X14973154Y2355769D01*
X14979525Y2356892D01*
X14985127Y2360127D01*
X14989838Y2361841D01*
X14995362Y2364129D01*
X14999912Y2366251D01*
X15006164Y2367926D01*
X15015861Y2374716D01*
X15038891Y2390842D01*
X15044331Y2394308D01*
X15078935Y2414286D01*
X15083098Y2419247D01*
X15104620Y2444895D01*
X15108981Y2449655D01*
X15193845Y2534519D01*
X15195768Y2536374D01*
X15219031Y2558015D01*
X15219036Y2558019D01*
X15239535Y2577088D01*
X15244445Y2581271D01*
X15283865Y2611997D01*
X15290220Y2616435D01*
X15312489Y2630309D01*
X15351617Y2641500D01*
X15692997Y2641501D01*
X15747518Y2641501D01*
X15750390Y2641956D01*
X15750392Y2641956D01*
X15782090Y2646976D01*
X15841304Y2656354D01*
X15897823Y2685152D01*
X15949150Y2711304D01*
X15949152Y2711306D01*
X15954342Y2713950D01*
X16044050Y2803658D01*
X16046694Y2808848D01*
X16046696Y2808850D01*
X16099000Y2911502D01*
X16099001Y2911505D01*
X16101646Y2916696D01*
X16102557Y2922448D01*
X16102558Y2922451D01*
X16116045Y3007608D01*
X16116500Y3010481D01*
X16116499Y3623518D01*
X16107584Y3679808D01*
X16117243Y3729496D01*
X16156582Y3761352D01*
X16207193Y3760468D01*
X16232999Y3743709D01*
X16352891Y3623817D01*
X16354590Y3622061D01*
X16398758Y3574875D01*
X16402559Y3570478D01*
X16436467Y3527965D01*
X16436500Y3527923D01*
X16437820Y3526268D01*
X16441900Y3520629D01*
X16465192Y3485022D01*
X16468943Y3478607D01*
X16485341Y3447018D01*
X16488184Y3440869D01*
X16502028Y3406924D01*
X16503714Y3402367D01*
X16517796Y3360096D01*
X16518451Y3358030D01*
X16534539Y3304563D01*
X16534901Y3303372D01*
X16534925Y3303294D01*
X16534924Y3303294D01*
X16534938Y3303249D01*
X16534922Y3303244D01*
X16534939Y3303136D01*
X16534971Y3303146D01*
X16551956Y3248097D01*
X16553956Y3241614D01*
X16554992Y3238355D01*
X16555120Y3237964D01*
X16556276Y3234539D01*
X16556357Y3234305D01*
X16556358Y3234303D01*
X16561401Y3219790D01*
X16565501Y3195500D01*
X16565501Y3010482D01*
X16580354Y2916696D01*
X16596272Y2885455D01*
X16635304Y2808850D01*
X16635306Y2808848D01*
X16637950Y2803658D01*
X16727658Y2713950D01*
X16732848Y2711306D01*
X16732850Y2711304D01*
X16835502Y2659000D01*
X16835505Y2658999D01*
X16840696Y2656354D01*
X16846448Y2655443D01*
X16846451Y2655442D01*
X16931602Y2641956D01*
X16934481Y2641500D01*
X17166000Y2641500D01*
X17397518Y2641501D01*
X17400390Y2641956D01*
X17400392Y2641956D01*
X17432090Y2646976D01*
X17491304Y2656354D01*
X17547823Y2685152D01*
X17599150Y2711304D01*
X17599152Y2711306D01*
X17604342Y2713950D01*
X17694050Y2803658D01*
X17696694Y2808848D01*
X17696696Y2808850D01*
X17749000Y2911502D01*
X17749001Y2911505D01*
X17751646Y2916696D01*
X17752557Y2922448D01*
X17752558Y2922451D01*
X17766045Y3007608D01*
X17766500Y3010481D01*
X17766499Y3623518D01*
X17751646Y3717304D01*
X17701790Y3815152D01*
X17696696Y3825150D01*
X17696694Y3825152D01*
X17694050Y3830342D01*
X17604342Y3920050D01*
X17599152Y3922694D01*
X17599150Y3922696D01*
X17496498Y3975000D01*
X17496495Y3975001D01*
X17491304Y3977646D01*
X17485552Y3978557D01*
X17485549Y3978558D01*
X17400392Y3992045D01*
X17397519Y3992500D01*
X17316649Y3992500D01*
X16948229Y3992499D01*
X16909492Y4003448D01*
X16906528Y4005269D01*
X16899912Y4009848D01*
X16861690Y4039507D01*
X16856688Y4043758D01*
X16847286Y4052499D01*
X16813828Y4083602D01*
X16811887Y4085473D01*
X15450508Y5446852D01*
X15429116Y5492728D01*
X15430256Y5513611D01*
X15431500Y5519867D01*
X15431499Y6857500D01*
X15448812Y6905066D01*
X15492649Y6930376D01*
X15505499Y6931500D01*
X16139618Y6931500D01*
X16143229Y6931412D01*
X16145112Y6931320D01*
X16191777Y6911707D01*
X16214917Y6866686D01*
X16215501Y6857408D01*
X16215501Y6830482D01*
X16230354Y6736696D01*
X16259152Y6680177D01*
X16285304Y6628850D01*
X16285306Y6628848D01*
X16287950Y6623658D01*
X16377658Y6533950D01*
X16382848Y6531306D01*
X16382850Y6531304D01*
X16485502Y6479000D01*
X16485505Y6478999D01*
X16490696Y6476354D01*
X16496448Y6475443D01*
X16496451Y6475442D01*
X16581602Y6461956D01*
X16584481Y6461500D01*
X16891000Y6461500D01*
X17197518Y6461501D01*
X17200390Y6461956D01*
X17200392Y6461956D01*
X17232090Y6466976D01*
X17291304Y6476354D01*
X17347823Y6505152D01*
X17399150Y6531304D01*
X17399152Y6531306D01*
X17404342Y6533950D01*
X17494050Y6623658D01*
X17496694Y6628848D01*
X17496696Y6628850D01*
X17549000Y6731502D01*
X17549001Y6731505D01*
X17551646Y6736696D01*
X17552557Y6742448D01*
X17552558Y6742451D01*
X17566045Y6827608D01*
X17566500Y6830481D01*
X17566499Y7293518D01*
X17551646Y7387304D01*
X17522848Y7443823D01*
X17496696Y7495150D01*
X17496694Y7495152D01*
X17494050Y7500342D01*
X17404342Y7590050D01*
X17399152Y7592694D01*
X17399150Y7592696D01*
X17296498Y7645000D01*
X17296495Y7645001D01*
X17291304Y7647646D01*
X17285552Y7648557D01*
X17285549Y7648558D01*
X17200392Y7662045D01*
X17197519Y7662500D01*
X17194610Y7662500D01*
X16891001Y7662499D01*
X16584482Y7662499D01*
X16581610Y7662044D01*
X16581608Y7662044D01*
X16549910Y7657024D01*
X16490696Y7647646D01*
X16409211Y7606128D01*
X16387456Y7599017D01*
X16380940Y7597961D01*
X16379034Y7597652D01*
X16375863Y7597209D01*
X16312388Y7589728D01*
X16308796Y7589393D01*
X16275671Y7587118D01*
X16233369Y7584213D01*
X16229884Y7584056D01*
X16191754Y7583239D01*
X16191753Y7583239D01*
X16158024Y7582517D01*
X16156440Y7582500D01*
X14415478Y7582500D01*
X14367912Y7599813D01*
X14342602Y7643650D01*
X14351392Y7693500D01*
X14363152Y7708826D01*
X14405621Y7751295D01*
X14451497Y7772687D01*
X14457947Y7772969D01*
X16260028Y7772969D01*
X16266478Y7772687D01*
X16299827Y7769769D01*
X16299828Y7769769D01*
X16306276Y7769205D01*
X16344873Y7779548D01*
X16351172Y7780944D01*
X16360740Y7782631D01*
X16384141Y7786757D01*
X16384143Y7786758D01*
X16390514Y7787881D01*
X16396116Y7791116D01*
X16400827Y7792830D01*
X16406351Y7795118D01*
X16410901Y7797240D01*
X16417153Y7798915D01*
X16449880Y7821831D01*
X16455320Y7825297D01*
X16489924Y7845275D01*
X16494087Y7850236D01*
X16515609Y7875884D01*
X16519970Y7880644D01*
X16568845Y7929519D01*
X16570768Y7931374D01*
X16594031Y7953015D01*
X16594036Y7953019D01*
X16614535Y7972088D01*
X16619445Y7976271D01*
X16658865Y8006997D01*
X16665228Y8011440D01*
X16695700Y8030424D01*
X16703065Y8034451D01*
X16729384Y8046957D01*
X16736549Y8049910D01*
X16765505Y8060102D01*
X16770989Y8061796D01*
X16809164Y8071981D01*
X16811959Y8072669D01*
X16863088Y8084201D01*
X16863147Y8083941D01*
X16863212Y8083954D01*
X16863153Y8084215D01*
X16923861Y8097927D01*
X16923879Y8097931D01*
X16926986Y8098660D01*
X16927067Y8098679D01*
X16927400Y8098760D01*
X16927502Y8098786D01*
X16927536Y8098794D01*
X16930212Y8099467D01*
X16930264Y8099480D01*
X16930326Y8099496D01*
X16967490Y8109132D01*
X16986062Y8111501D01*
X17197518Y8111501D01*
X17200390Y8111956D01*
X17200392Y8111956D01*
X17232090Y8116976D01*
X17291304Y8126354D01*
X17347823Y8155152D01*
X17399150Y8181304D01*
X17399152Y8181306D01*
X17404342Y8183950D01*
X17494050Y8273658D01*
X17496694Y8278848D01*
X17496696Y8278850D01*
X17549000Y8381502D01*
X17549001Y8381505D01*
X17551646Y8386696D01*
X17552557Y8392448D01*
X17552558Y8392451D01*
X17566045Y8477608D01*
X17566500Y8480481D01*
X17566499Y8933113D01*
X17583812Y8980679D01*
X17627649Y9005989D01*
X17668817Y9001480D01*
X17752331Y8966888D01*
X17764238Y8961956D01*
X17769040Y8961324D01*
X17769043Y8961323D01*
X17916192Y8941951D01*
X17921000Y8941318D01*
X17925808Y8941951D01*
X18072957Y8961323D01*
X18072960Y8961324D01*
X18077762Y8961956D01*
X18223841Y9022464D01*
X18227685Y9025414D01*
X18227689Y9025416D01*
X18345431Y9115763D01*
X18349282Y9118718D01*
X18375007Y9152243D01*
X18442584Y9240311D01*
X18442586Y9240315D01*
X18445536Y9244159D01*
X18506044Y9390238D01*
X18526682Y9547000D01*
X18522601Y9578002D01*
X18506677Y9698957D01*
X18506676Y9698960D01*
X18506044Y9703762D01*
X18445536Y9849841D01*
X18442583Y9853689D01*
X18442581Y9853693D01*
X18430973Y9868821D01*
X18424046Y9879692D01*
X18422203Y9883232D01*
X18422189Y9883258D01*
X18422132Y9883368D01*
X18422083Y9883460D01*
X18422053Y9883516D01*
X18419800Y9887709D01*
X18419799Y9887711D01*
X18419692Y9887910D01*
X18419399Y9888439D01*
X18419313Y9888589D01*
X18419282Y9888645D01*
X18416949Y9892731D01*
X18416835Y9892931D01*
X18416744Y9893086D01*
X18416708Y9893148D01*
X18403510Y9915586D01*
X18403509Y9915587D01*
X18381894Y9952336D01*
X18380059Y9955389D01*
X18379933Y9955599D01*
X18379750Y9955897D01*
X18378421Y9958031D01*
X18358682Y9989286D01*
X18345355Y10010389D01*
X18345326Y10010434D01*
X18345219Y10010604D01*
X18345187Y10010653D01*
X18345188Y10010653D01*
X18317169Y10054992D01*
X18315702Y10057418D01*
X18295908Y10091617D01*
X18293222Y10096704D01*
X18279958Y10124380D01*
X18276972Y10131555D01*
X18276434Y10133069D01*
X18267215Y10158977D01*
X18264853Y10167038D01*
X18256726Y10202025D01*
X18255369Y10209663D01*
X18252355Y10233972D01*
X18249217Y10259287D01*
X18248704Y10265709D01*
X18246548Y10325434D01*
X18246500Y10328104D01*
X18246500Y17829000D01*
X18263813Y17876566D01*
X18307650Y17901876D01*
X18320500Y17903000D01*
X24485000Y17903000D01*
X24486971Y17903212D01*
X24486973Y17903212D01*
X24537022Y17908592D01*
X24537030Y17908593D01*
X24538990Y17908804D01*
X24563023Y17914032D01*
X24590373Y17919981D01*
X24590387Y17919984D01*
X24591332Y17920190D01*
X24617555Y17927384D01*
X24627929Y17933291D01*
X24697517Y17972918D01*
X24703676Y17976425D01*
X24744619Y18011902D01*
X24756098Y18021848D01*
X24756107Y18021857D01*
X24757332Y18022918D01*
X24788773Y18055502D01*
X24791953Y18061580D01*
X24833024Y18140098D01*
X24834709Y18143319D01*
X24854711Y18211440D01*
X24865000Y18283000D01*
X24865000Y21131000D01*
X24864788Y21132973D01*
X24859408Y21183022D01*
X24859407Y21183030D01*
X24859196Y21184990D01*
X24847810Y21237332D01*
X24840616Y21263555D01*
X24791575Y21349676D01*
X24755697Y21391082D01*
X24746152Y21402098D01*
X24746143Y21402107D01*
X24745082Y21403332D01*
X24712498Y21434773D01*
X24707142Y21437575D01*
X24627902Y21479024D01*
X24627903Y21479024D01*
X24624681Y21480709D01*
X24556560Y21500711D01*
X24485000Y21511000D01*
X16137000Y21511000D01*
X16135029Y21510788D01*
X16135027Y21510788D01*
X16084978Y21505408D01*
X16084970Y21505407D01*
X16083010Y21505196D01*
X16064116Y21501086D01*
X16031627Y21494019D01*
X16031613Y21494016D01*
X16030668Y21493810D01*
X16004445Y21486616D01*
X16000426Y21484327D01*
X16000425Y21484327D01*
X15972932Y21468671D01*
X15918324Y21437575D01*
X15900540Y21422165D01*
X15865902Y21392152D01*
X15865893Y21392143D01*
X15864668Y21391082D01*
X15833227Y21358498D01*
X15830774Y21353808D01*
X15830773Y21353807D01*
X15828612Y21349676D01*
X15787291Y21270681D01*
X15767289Y21202560D01*
X15757000Y21131000D01*
X15757000Y18283000D01*
X15757212Y18281029D01*
X15757212Y18281027D01*
X15762091Y18235647D01*
X15762804Y18229010D01*
X15774190Y18176668D01*
X15781384Y18150445D01*
X15830425Y18064324D01*
X15832803Y18061580D01*
X15875848Y18011902D01*
X15875857Y18011893D01*
X15876918Y18010668D01*
X15909502Y17979227D01*
X15914192Y17976774D01*
X15914193Y17976773D01*
X15961538Y17952008D01*
X15997319Y17933291D01*
X16065440Y17913289D01*
X16137000Y17903000D01*
X17521500Y17903000D01*
X17569066Y17885687D01*
X17594376Y17841850D01*
X17595500Y17829000D01*
X17595500Y10328109D01*
X17595452Y10325438D01*
X17593295Y10265708D01*
X17592782Y10259287D01*
X17589644Y10233972D01*
X17586630Y10209663D01*
X17585273Y10202025D01*
X17577146Y10167038D01*
X17574784Y10158977D01*
X17565566Y10133069D01*
X17565027Y10131555D01*
X17562041Y10124380D01*
X17548777Y10096704D01*
X17546091Y10091617D01*
X17526297Y10057418D01*
X17524830Y10054992D01*
X17496811Y10010653D01*
X17496451Y10010881D01*
X17496422Y10010834D01*
X17496782Y10010606D01*
X17496780Y10010604D01*
X17490723Y10001013D01*
X17467585Y9977907D01*
X17457738Y9971707D01*
X17457462Y9972145D01*
X17457412Y9972098D01*
X17457681Y9971671D01*
X17413284Y9943694D01*
X17410825Y9942210D01*
X17376523Y9922411D01*
X17371449Y9919739D01*
X17343651Y9906450D01*
X17336496Y9903479D01*
X17308939Y9893697D01*
X17300894Y9891345D01*
X17265750Y9883199D01*
X17258135Y9881850D01*
X17208383Y9875696D01*
X17201968Y9875184D01*
X17174436Y9874192D01*
X17142142Y9873028D01*
X17139477Y9872980D01*
X15505500Y9872980D01*
X15457934Y9890293D01*
X15432624Y9934130D01*
X15431500Y9946980D01*
X15431499Y11270492D01*
X15431499Y11274132D01*
X15429643Y11283467D01*
X15416937Y11347345D01*
X15416937Y11347346D01*
X15415515Y11354495D01*
X15411959Y11359817D01*
X15406500Y11387263D01*
X15406500Y11501522D01*
X15423813Y11549088D01*
X15428174Y11553848D01*
X16988832Y13114506D01*
X16993592Y13118867D01*
X17024194Y13144545D01*
X17044172Y13179149D01*
X17047638Y13184589D01*
X17066841Y13212013D01*
X17066842Y13212014D01*
X17070554Y13217316D01*
X17072229Y13223568D01*
X17074351Y13228118D01*
X17076639Y13233642D01*
X17078353Y13238353D01*
X17081588Y13243955D01*
X17088525Y13283297D01*
X17089922Y13289599D01*
X17100264Y13328193D01*
X17099656Y13335150D01*
X17096782Y13367991D01*
X17096500Y13374441D01*
X17096500Y14555892D01*
X17096548Y14558564D01*
X17098706Y14618301D01*
X17099220Y14624731D01*
X17103848Y14662071D01*
X17105369Y14674339D01*
X17106725Y14681977D01*
X17110665Y14698934D01*
X17114854Y14716968D01*
X17117216Y14725027D01*
X17126974Y14752450D01*
X17129958Y14759621D01*
X17141411Y14783518D01*
X17143227Y14787307D01*
X17145901Y14792371D01*
X17165697Y14826575D01*
X17167186Y14829035D01*
X17195188Y14873349D01*
X17195551Y14873120D01*
X17195581Y14873168D01*
X17195219Y14873397D01*
X17228421Y14925970D01*
X17228463Y14926037D01*
X17229796Y14928181D01*
X17229856Y14928277D01*
X17229962Y14928450D01*
X17229976Y14928472D01*
X17230143Y14928748D01*
X17231826Y14931553D01*
X17231827Y14931555D01*
X17231904Y14931683D01*
X17257147Y14974600D01*
X17266695Y14990833D01*
X17266717Y14990871D01*
X17266834Y14991070D01*
X17269399Y14995562D01*
X17269692Y14996091D01*
X17271996Y15000380D01*
X17272021Y15000426D01*
X17272052Y15000485D01*
X17272131Y15000632D01*
X17274042Y15004302D01*
X17280968Y15015174D01*
X17292584Y15030312D01*
X17295536Y15034159D01*
X17356044Y15180238D01*
X17358022Y15195257D01*
X17376049Y15332192D01*
X17376682Y15337000D01*
X17356044Y15493762D01*
X17295536Y15639841D01*
X17292586Y15643685D01*
X17292584Y15643689D01*
X17202237Y15761431D01*
X17199282Y15765282D01*
X17182848Y15777892D01*
X17077689Y15858584D01*
X17077685Y15858586D01*
X17073841Y15861536D01*
X16927762Y15922044D01*
X16922960Y15922676D01*
X16922957Y15922677D01*
X16775808Y15942049D01*
X16771000Y15942682D01*
X16766192Y15942049D01*
X16619043Y15922677D01*
X16619040Y15922676D01*
X16614238Y15922044D01*
X16468159Y15861536D01*
X16464315Y15858586D01*
X16464311Y15858584D01*
X16359152Y15777892D01*
X16342718Y15765282D01*
X16339763Y15761431D01*
X16249416Y15643689D01*
X16249414Y15643685D01*
X16246464Y15639841D01*
X16185956Y15493762D01*
X16165318Y15337000D01*
X16165951Y15332192D01*
X16183979Y15195257D01*
X16185956Y15180238D01*
X16246464Y15034159D01*
X16249416Y15030312D01*
X16249417Y15030311D01*
X16261025Y15015183D01*
X16267955Y15004305D01*
X16269867Y15000633D01*
X16272307Y14996091D01*
X16272600Y14995562D01*
X16275165Y14991070D01*
X16275282Y14990871D01*
X16275304Y14990833D01*
X16284852Y14974600D01*
X16310095Y14931683D01*
X16312075Y14928389D01*
X16312255Y14928096D01*
X16313564Y14925994D01*
X16346781Y14873397D01*
X16346811Y14873349D01*
X16374813Y14829035D01*
X16376302Y14826575D01*
X16396098Y14792371D01*
X16398772Y14787307D01*
X16400588Y14783518D01*
X16412041Y14759621D01*
X16415025Y14752450D01*
X16424783Y14725027D01*
X16427145Y14716968D01*
X16431335Y14698934D01*
X16435274Y14681977D01*
X16436630Y14674339D01*
X16438151Y14662071D01*
X16442779Y14624731D01*
X16443293Y14618302D01*
X16445452Y14558560D01*
X16445500Y14555887D01*
X16445500Y13522478D01*
X16428187Y13474912D01*
X16423826Y13470152D01*
X14863168Y11909494D01*
X14858409Y11905133D01*
X14827806Y11879455D01*
X14819195Y11864539D01*
X14807831Y11844856D01*
X14804362Y11839411D01*
X14785159Y11811987D01*
X14781446Y11806684D01*
X14779771Y11800432D01*
X14777649Y11795882D01*
X14775361Y11790358D01*
X14773647Y11785647D01*
X14770412Y11780045D01*
X14769289Y11773674D01*
X14769288Y11773672D01*
X14763476Y11740706D01*
X14762079Y11734404D01*
X14751736Y11695807D01*
X14752300Y11689359D01*
X14752300Y11689358D01*
X14755218Y11656009D01*
X14755500Y11649559D01*
X14755500Y11596500D01*
X14738187Y11548934D01*
X14694350Y11523624D01*
X14681500Y11522500D01*
X14580969Y11522499D01*
X14480500Y11522499D01*
X14432934Y11539811D01*
X14407624Y11583649D01*
X14406500Y11596499D01*
X14406500Y12222641D01*
X14423813Y12270207D01*
X14467650Y12295517D01*
X14480094Y12296640D01*
X14495939Y12296727D01*
X14495941Y12296727D01*
X14512441Y12296817D01*
X14514967Y12296847D01*
X14515014Y12296848D01*
X14515110Y12296849D01*
X14515376Y12296854D01*
X14517687Y12296911D01*
X14517715Y12296912D01*
X14517723Y12296912D01*
X14531210Y12297322D01*
X14562017Y12298257D01*
X14562034Y12298257D01*
X14587339Y12299026D01*
X14587372Y12299027D01*
X14587755Y12299039D01*
X14595684Y12299438D01*
X14596610Y12299503D01*
X14604496Y12300214D01*
X14604821Y12300250D01*
X14604843Y12300252D01*
X14612140Y12301056D01*
X14620242Y12301501D01*
X14897518Y12301501D01*
X14900390Y12301956D01*
X14900392Y12301956D01*
X14932090Y12306976D01*
X14991304Y12316354D01*
X15047823Y12345152D01*
X15099150Y12371304D01*
X15099152Y12371306D01*
X15104342Y12373950D01*
X15194050Y12463658D01*
X15196694Y12468848D01*
X15196696Y12468850D01*
X15249000Y12571502D01*
X15249001Y12571505D01*
X15251646Y12576696D01*
X15252557Y12582448D01*
X15252558Y12582451D01*
X15266045Y12667608D01*
X15266500Y12670481D01*
X15266499Y13133518D01*
X15251646Y13227304D01*
X15209446Y13310126D01*
X15196696Y13335150D01*
X15196694Y13335152D01*
X15194050Y13340342D01*
X15104342Y13430050D01*
X15099152Y13432694D01*
X15099150Y13432696D01*
X14996498Y13485000D01*
X14996495Y13485001D01*
X14991304Y13487646D01*
X14985552Y13488557D01*
X14985549Y13488558D01*
X14900392Y13502045D01*
X14897519Y13502500D01*
X14894610Y13502500D01*
X14591001Y13502499D01*
X14284482Y13502499D01*
X14281610Y13502044D01*
X14281608Y13502044D01*
X14249910Y13497024D01*
X14190696Y13487646D01*
X14134177Y13458848D01*
X14082850Y13432696D01*
X14082848Y13432694D01*
X14077658Y13430050D01*
X13987950Y13340342D01*
X13985306Y13335152D01*
X13985304Y13335150D01*
X13938838Y13243955D01*
X13930354Y13227304D01*
X13929443Y13221552D01*
X13929442Y13221549D01*
X13923170Y13181946D01*
X13915500Y13133519D01*
X13915501Y12949166D01*
X13915501Y12782004D01*
X13898188Y12734438D01*
X13854351Y12709128D01*
X13804501Y12717918D01*
X13775653Y12748240D01*
X13767146Y12764831D01*
X13765574Y12768090D01*
X13753080Y12795703D01*
X13746500Y12826208D01*
X13746500Y13210488D01*
X13742833Y13233642D01*
X13731631Y13304371D01*
X13731630Y13304374D01*
X13730719Y13310126D01*
X13728073Y13315320D01*
X13672174Y13425028D01*
X13672172Y13425030D01*
X13669528Y13430220D01*
X13574220Y13525528D01*
X13569030Y13528172D01*
X13569028Y13528174D01*
X13459320Y13584073D01*
X13459317Y13584074D01*
X13454126Y13586719D01*
X13448374Y13587630D01*
X13448371Y13587631D01*
X13357361Y13602045D01*
X13354488Y13602500D01*
X12787512Y13602500D01*
X12784639Y13602045D01*
X12693629Y13587631D01*
X12693626Y13587630D01*
X12687874Y13586719D01*
X12682683Y13584074D01*
X12682680Y13584073D01*
X12572972Y13528174D01*
X12572970Y13528172D01*
X12567780Y13525528D01*
X12472472Y13430220D01*
X12469828Y13425030D01*
X12469826Y13425028D01*
X12413927Y13315320D01*
X12411281Y13310126D01*
X12410370Y13304374D01*
X12410369Y13304371D01*
X12399167Y13233642D01*
X12395500Y13210488D01*
X12395500Y12693512D01*
X12395955Y12690639D01*
X12410369Y12599629D01*
X12410370Y12599626D01*
X12411281Y12593874D01*
X12413926Y12588683D01*
X12413927Y12588680D01*
X12469826Y12478972D01*
X12469828Y12478970D01*
X12472472Y12473780D01*
X12567780Y12378472D01*
X12572970Y12375828D01*
X12572972Y12375826D01*
X12682680Y12319927D01*
X12682683Y12319926D01*
X12687874Y12317281D01*
X12693626Y12316370D01*
X12693629Y12316369D01*
X12784633Y12301956D01*
X12787512Y12301500D01*
X13013233Y12301500D01*
X13024396Y12300653D01*
X13040804Y12298149D01*
X13040826Y12298146D01*
X13041074Y12298108D01*
X13047211Y12297268D01*
X13047905Y12297184D01*
X13048085Y12297165D01*
X13048119Y12297161D01*
X13051019Y12296854D01*
X13053812Y12296558D01*
X13054131Y12296529D01*
X13054151Y12296527D01*
X13087614Y12293482D01*
X13087426Y12291415D01*
X13087428Y12291415D01*
X13087616Y12293482D01*
X13126706Y12289925D01*
X13126726Y12289923D01*
X13126862Y12289911D01*
X13127953Y12289815D01*
X13128070Y12289805D01*
X13128220Y12289792D01*
X13128237Y12289791D01*
X13128559Y12289764D01*
X13128933Y12289733D01*
X13128981Y12289729D01*
X13150259Y12288008D01*
X13150263Y12288008D01*
X13161131Y12287129D01*
X13187466Y12284999D01*
X13233482Y12263908D01*
X13255175Y12218173D01*
X13255500Y12211240D01*
X13255500Y11387263D01*
X13250040Y11359816D01*
X13246485Y11354495D01*
X13230500Y11274133D01*
X13230501Y9919868D01*
X13231211Y9916300D01*
X13231211Y9916297D01*
X13239389Y9875184D01*
X13246485Y9839505D01*
X13250533Y9833447D01*
X13253324Y9826708D01*
X13251145Y9825806D01*
X13260580Y9787247D01*
X13238192Y9741848D01*
X13215338Y9726936D01*
X13178159Y9711536D01*
X13174312Y9708584D01*
X13127857Y9672937D01*
X13126580Y9671980D01*
X13109769Y9659661D01*
X13078373Y9636654D01*
X13078184Y9636511D01*
X13078173Y9636503D01*
X13073778Y9633182D01*
X13073742Y9633154D01*
X13073653Y9633087D01*
X13073132Y9632681D01*
X13068501Y9628961D01*
X13019252Y9588175D01*
X13019174Y9588110D01*
X13017912Y9587055D01*
X13017824Y9586981D01*
X13002129Y9573750D01*
X12954602Y9556328D01*
X12906997Y9573532D01*
X12902107Y9578002D01*
X12129619Y10350490D01*
X12127954Y10352210D01*
X12083184Y10399974D01*
X12079430Y10404303D01*
X12043281Y10449410D01*
X12039276Y10454907D01*
X12015141Y10491453D01*
X12011437Y10497711D01*
X11995046Y10528788D01*
X11986500Y10563309D01*
X11986499Y10680786D01*
X12003811Y10728353D01*
X12047648Y10753663D01*
X12070158Y10754154D01*
X12218558Y10734617D01*
X12223366Y10733984D01*
X12228174Y10734617D01*
X12375323Y10753989D01*
X12375326Y10753990D01*
X12380128Y10754622D01*
X12526207Y10815130D01*
X12530051Y10818080D01*
X12530055Y10818082D01*
X12647797Y10908429D01*
X12651648Y10911384D01*
X12690931Y10962579D01*
X12744950Y11032977D01*
X12744952Y11032981D01*
X12747902Y11036825D01*
X12808410Y11182904D01*
X12809258Y11189339D01*
X12828415Y11334858D01*
X12829048Y11339666D01*
X12826454Y11359367D01*
X12809043Y11491623D01*
X12809042Y11491626D01*
X12808410Y11496428D01*
X12747902Y11642507D01*
X12744952Y11646351D01*
X12744950Y11646355D01*
X12654603Y11764097D01*
X12651648Y11767948D01*
X12601166Y11806684D01*
X12530055Y11861250D01*
X12530051Y11861252D01*
X12526207Y11864202D01*
X12422368Y11907214D01*
X12393941Y11918989D01*
X12393798Y11919048D01*
X12393774Y11919058D01*
X12393741Y11919072D01*
X12393564Y11919146D01*
X12393300Y11919258D01*
X12392329Y11919656D01*
X12380128Y11924710D01*
X12380127Y11924710D01*
X12380125Y11924711D01*
X12380557Y11925754D01*
X12379309Y11926628D01*
X12378681Y11924901D01*
X12315522Y11947870D01*
X12315456Y11947894D01*
X12315342Y11947935D01*
X12311876Y11949159D01*
X12311643Y11949239D01*
X12311623Y11949246D01*
X12311594Y11949256D01*
X12311462Y11949301D01*
X12309018Y11950114D01*
X12307970Y11950462D01*
X12307932Y11950474D01*
X12307858Y11950499D01*
X12246560Y11970231D01*
X12245843Y11970461D01*
X12245736Y11970495D01*
X12244630Y11970842D01*
X12237552Y11973046D01*
X12190991Y11987544D01*
X12189162Y11988141D01*
X12178611Y11991737D01*
X12178610Y11991738D01*
X12146222Y12002776D01*
X12141869Y12004414D01*
X12107365Y12018662D01*
X12101368Y12021459D01*
X12069315Y12038192D01*
X12062994Y12041901D01*
X12031100Y12062806D01*
X12008857Y12085568D01*
X11997691Y12103492D01*
X11986500Y12142620D01*
X11986499Y12535609D01*
X11986499Y12538518D01*
X11971646Y12632304D01*
X11938977Y12696421D01*
X11916696Y12740150D01*
X11916694Y12740152D01*
X11914050Y12745342D01*
X11824342Y12835050D01*
X11819152Y12837694D01*
X11819150Y12837696D01*
X11716498Y12890000D01*
X11716495Y12890001D01*
X11711304Y12892646D01*
X11705549Y12893557D01*
X11700011Y12895357D01*
X11700870Y12898000D01*
X11665946Y12917358D01*
X11649713Y12949166D01*
X11646726Y12962027D01*
X11645369Y12969664D01*
X11643108Y12987902D01*
X11643108Y13006111D01*
X11645367Y13024332D01*
X11646725Y13031973D01*
X11649714Y13044839D01*
X11677341Y13087253D01*
X11700520Y13097075D01*
X11700011Y13098643D01*
X11705549Y13100443D01*
X11711304Y13101354D01*
X11780070Y13136392D01*
X11819150Y13156304D01*
X11819152Y13156306D01*
X11824342Y13158950D01*
X11914050Y13248658D01*
X11916694Y13253848D01*
X11916696Y13253850D01*
X11969000Y13356502D01*
X11969001Y13356505D01*
X11971646Y13361696D01*
X11972557Y13367448D01*
X11972558Y13367451D01*
X11986045Y13452608D01*
X11986500Y13455481D01*
X11986499Y13918518D01*
X11971646Y14012304D01*
X11922102Y14109539D01*
X11916696Y14120150D01*
X11916694Y14120152D01*
X11914050Y14125342D01*
X11824342Y14215050D01*
X11819152Y14217694D01*
X11819150Y14217696D01*
X11716498Y14270000D01*
X11716495Y14270001D01*
X11711304Y14272646D01*
X11705552Y14273557D01*
X11705549Y14273558D01*
X11620392Y14287045D01*
X11617519Y14287500D01*
X11614610Y14287500D01*
X11311001Y14287499D01*
X11004482Y14287499D01*
X11001610Y14287044D01*
X11001608Y14287044D01*
X10952389Y14279249D01*
X10902700Y14288908D01*
X10870845Y14328247D01*
X10871729Y14378858D01*
X10888488Y14404664D01*
X11017701Y14533877D01*
X11019140Y14535277D01*
X11061340Y14575247D01*
X11065009Y14578499D01*
X11107928Y14614066D01*
X11112734Y14617728D01*
X11147120Y14641778D01*
X11152898Y14645434D01*
X11182097Y14662071D01*
X11188156Y14665163D01*
X11212572Y14676241D01*
X11217237Y14678357D01*
X11222492Y14680502D01*
X11257123Y14693111D01*
X11260607Y14694283D01*
X11275669Y14698934D01*
X11293665Y14704491D01*
X11305236Y14708064D01*
X11306499Y14708441D01*
X11361844Y14724402D01*
X11363519Y14724893D01*
X11363613Y14724921D01*
X11368115Y14726260D01*
X11368137Y14726266D01*
X11368145Y14726268D01*
X11392222Y14733430D01*
X11413321Y14736501D01*
X11617518Y14736501D01*
X11620390Y14736956D01*
X11620392Y14736956D01*
X11652090Y14741976D01*
X11711304Y14751354D01*
X11786947Y14789896D01*
X11819150Y14806304D01*
X11819152Y14806306D01*
X11824342Y14808950D01*
X11914050Y14898658D01*
X11930823Y14931575D01*
X11967842Y14966096D01*
X11989855Y14971656D01*
X12021284Y14974600D01*
X12026166Y14974895D01*
X12084287Y14976473D01*
X12086294Y14976500D01*
X13626024Y14976500D01*
X13673590Y14959187D01*
X13678350Y14954826D01*
X13787870Y14845306D01*
X13789271Y14843866D01*
X13829248Y14801657D01*
X13832499Y14797989D01*
X13868064Y14755073D01*
X13871720Y14750275D01*
X13895784Y14715870D01*
X13899431Y14710105D01*
X13905796Y14698934D01*
X13915500Y14662300D01*
X13915501Y14320482D01*
X13930354Y14226696D01*
X13934940Y14217696D01*
X13985304Y14118850D01*
X13985306Y14118848D01*
X13987950Y14113658D01*
X14077658Y14023950D01*
X14082848Y14021306D01*
X14082850Y14021304D01*
X14185502Y13969000D01*
X14185505Y13968999D01*
X14190696Y13966354D01*
X14196448Y13965443D01*
X14196451Y13965442D01*
X14281602Y13951956D01*
X14284481Y13951500D01*
X14591000Y13951500D01*
X14897518Y13951501D01*
X14900390Y13951956D01*
X14900392Y13951956D01*
X14932090Y13956976D01*
X14991304Y13966354D01*
X15081486Y14012304D01*
X15099150Y14021304D01*
X15099152Y14021306D01*
X15104342Y14023950D01*
X15194050Y14113658D01*
X15196694Y14118848D01*
X15196696Y14118850D01*
X15249000Y14221502D01*
X15249001Y14221505D01*
X15251646Y14226696D01*
X15252557Y14232448D01*
X15252558Y14232451D01*
X15266045Y14317608D01*
X15266500Y14320481D01*
X15266499Y14783518D01*
X15251646Y14877304D01*
X15222848Y14933823D01*
X15196696Y14985150D01*
X15196694Y14985152D01*
X15194050Y14990342D01*
X15104342Y15080050D01*
X15099152Y15082694D01*
X15099150Y15082696D01*
X14996498Y15135000D01*
X14996495Y15135001D01*
X14991304Y15137646D01*
X14985552Y15138557D01*
X14985549Y15138558D01*
X14900392Y15152045D01*
X14897519Y15152500D01*
X14693319Y15152500D01*
X14672223Y15155571D01*
X14643443Y15164131D01*
X14641844Y15164599D01*
X14586448Y15180575D01*
X14585270Y15180927D01*
X14573664Y15184510D01*
X14540612Y15194716D01*
X14537127Y15195888D01*
X14506339Y15207098D01*
X14502486Y15208501D01*
X14497250Y15210638D01*
X14468150Y15223840D01*
X14462094Y15226931D01*
X14432884Y15243575D01*
X14427107Y15247231D01*
X14418139Y15253504D01*
X14418103Y15253531D01*
X14392733Y15271274D01*
X14387928Y15274935D01*
X14368298Y15291202D01*
X14344998Y15310510D01*
X14341351Y15313743D01*
X14299136Y15353727D01*
X14297697Y15355127D01*
X14093695Y15559129D01*
X14083854Y15571315D01*
X14079644Y15577835D01*
X14079642Y15577837D01*
X14076324Y15582976D01*
X14049158Y15604392D01*
X14042645Y15610179D01*
X14039734Y15613090D01*
X14037252Y15614864D01*
X14037248Y15614867D01*
X14023936Y15624380D01*
X14021147Y15626474D01*
X13982074Y15657277D01*
X13976301Y15659305D01*
X13974756Y15660154D01*
X13974139Y15660543D01*
X13974027Y15660600D01*
X13973355Y15660882D01*
X13971769Y15661659D01*
X13966791Y15665216D01*
X13919120Y15679473D01*
X13915804Y15680550D01*
X13908136Y15683243D01*
X13868838Y15697043D01*
X13863561Y15697500D01*
X13862323Y15697500D01*
X13857464Y15697911D01*
X13851808Y15699603D01*
X13845698Y15699363D01*
X13799736Y15697557D01*
X13796831Y15697500D01*
X12086304Y15697500D01*
X12084296Y15697527D01*
X12079036Y15697670D01*
X12026167Y15699106D01*
X12021284Y15699401D01*
X11989854Y15702345D01*
X11944109Y15724018D01*
X11930823Y15742423D01*
X11919565Y15764517D01*
X11911500Y15798111D01*
X11911500Y17779000D01*
X11928813Y17826566D01*
X11972650Y17851876D01*
X11985500Y17853000D01*
X14685000Y17853000D01*
X14686971Y17853212D01*
X14686973Y17853212D01*
X14737022Y17858592D01*
X14737030Y17858593D01*
X14738990Y17858804D01*
X14762298Y17863874D01*
X14790373Y17869981D01*
X14790387Y17869984D01*
X14791332Y17870190D01*
X14817555Y17877384D01*
X14903676Y17926425D01*
X14921460Y17941835D01*
X14956098Y17971848D01*
X14956107Y17971857D01*
X14957332Y17972918D01*
X14988773Y18005502D01*
X14997324Y18021848D01*
X15033024Y18090098D01*
X15034709Y18093319D01*
X15054711Y18161440D01*
X15065000Y18233000D01*
X15065000Y22431000D01*
X15059196Y22484990D01*
X15047810Y22537332D01*
X15040616Y22563555D01*
X14991575Y22649676D01*
X14976165Y22667460D01*
X14946152Y22702098D01*
X14946143Y22702107D01*
X14945082Y22703332D01*
X14912498Y22734773D01*
X14824681Y22780709D01*
X14756560Y22800711D01*
X14685000Y22811000D01*
X10236558Y22811000D01*
X10219537Y22809291D01*
X10187916Y22806117D01*
X10187909Y22806116D01*
X10186067Y22805931D01*
X10136972Y22795973D01*
X10088494Y22780968D01*
X10086801Y22780252D01*
X10086799Y22780251D01*
X7573302Y21716848D01*
X7544469Y21711000D01*
X3737000Y21711000D01*
X3735029Y21710788D01*
X3735027Y21710788D01*
X3684978Y21705408D01*
X3684970Y21705407D01*
X3683010Y21705196D01*
X3659702Y21700126D01*
X3631627Y21694019D01*
X3631613Y21694016D01*
X3630668Y21693810D01*
X3604445Y21686616D01*
X3600417Y21684322D01*
X3597546Y21683133D01*
X3569226Y21677500D01*
X3406076Y21677500D01*
X3404430Y21677353D01*
X3404428Y21677353D01*
X3295326Y21667616D01*
X3295321Y21667615D01*
X3291813Y21667302D01*
X3106194Y21614077D01*
X2935070Y21524615D01*
X2932164Y21522245D01*
X2932161Y21522243D01*
X2824913Y21434773D01*
X2785429Y21402571D01*
X2776059Y21391082D01*
X2665757Y21255839D01*
X2665755Y21255836D01*
X2663385Y21252930D01*
X2661647Y21249605D01*
X2661646Y21249604D01*
X2628878Y21186924D01*
X2573923Y21081806D01*
X2520698Y20896187D01*
X2510500Y20781924D01*
X2510500Y19172076D01*
X200000Y19172076D01*
X200000Y22955877D01*
X201882Y22972461D01*
X201953Y22972770D01*
X205143Y22986642D01*
X203303Y22994772D01*
X203311Y22999196D01*
X202187Y23014788D01*
X215844Y23188316D01*
X217661Y23199785D01*
X263442Y23390472D01*
X267030Y23401515D01*
X342080Y23582704D01*
X347352Y23593051D01*
X449819Y23760261D01*
X456640Y23769650D01*
X584011Y23918781D01*
X592220Y23926990D01*
X741350Y24054360D01*
X750739Y24061181D01*
X844867Y24118863D01*
X917953Y24163650D01*
X928296Y24168920D01*
X1109485Y24243970D01*
X1120528Y24247558D01*
X1215872Y24270449D01*
X1311219Y24293340D01*
X1322681Y24295155D01*
X1495750Y24308777D01*
X1509845Y24307735D01*
X1515519Y24307725D01*
X1523642Y24305857D01*
X1538305Y24309175D01*
X1554637Y24311000D01*
X25495877Y24311000D01*
X25512461Y24309118D01*
G37*
%TD.AperFunction*%
%TA.AperFunction,Conductor*%
G36*
X10613106Y14042802D02*
G01*
X10642140Y14001338D01*
X10643750Y13970609D01*
X10635500Y13918519D01*
X10635501Y13455482D01*
X10650354Y13361696D01*
X10667425Y13328193D01*
X10705304Y13253850D01*
X10705306Y13253848D01*
X10707950Y13248658D01*
X10797658Y13158950D01*
X10802848Y13156306D01*
X10802850Y13156304D01*
X10905502Y13104000D01*
X10905505Y13103999D01*
X10910696Y13101354D01*
X10916451Y13100443D01*
X10921989Y13098643D01*
X10921131Y13096001D01*
X10956060Y13076634D01*
X10972285Y13044839D01*
X10975274Y13031973D01*
X10976632Y13024332D01*
X10978891Y13006111D01*
X10978891Y12987902D01*
X10976630Y12969664D01*
X10975273Y12962027D01*
X10972286Y12949166D01*
X10944662Y12906750D01*
X10921480Y12896923D01*
X10921989Y12895357D01*
X10916451Y12893557D01*
X10910696Y12892646D01*
X10854177Y12863848D01*
X10802850Y12837696D01*
X10802848Y12837694D01*
X10797658Y12835050D01*
X10707950Y12745342D01*
X10705306Y12740152D01*
X10705304Y12740150D01*
X10655208Y12641831D01*
X10650354Y12632304D01*
X10649443Y12626552D01*
X10649442Y12626549D01*
X10640724Y12571502D01*
X10635500Y12538519D01*
X10635501Y12075482D01*
X10635956Y12072610D01*
X10635956Y12072608D01*
X10640819Y12041901D01*
X10650354Y11981696D01*
X10678413Y11926628D01*
X10705304Y11873850D01*
X10705306Y11873848D01*
X10707950Y11868658D01*
X10797658Y11778950D01*
X10802848Y11776306D01*
X10802850Y11776304D01*
X10905502Y11724000D01*
X10905505Y11723999D01*
X10910696Y11721354D01*
X10916448Y11720443D01*
X10916451Y11720442D01*
X11001608Y11706955D01*
X11004481Y11706500D01*
X11215940Y11706500D01*
X11234512Y11704131D01*
X11271646Y11694503D01*
X11274228Y11693852D01*
X11274257Y11693845D01*
X11274284Y11693838D01*
X11274335Y11693826D01*
X11274587Y11693764D01*
X11278138Y11692927D01*
X11338846Y11679215D01*
X11338737Y11678732D01*
X11338802Y11678717D01*
X11338911Y11679201D01*
X11390040Y11667669D01*
X11392835Y11666981D01*
X11431010Y11656796D01*
X11436494Y11655102D01*
X11465450Y11644910D01*
X11472615Y11641957D01*
X11498931Y11629453D01*
X11506293Y11625428D01*
X11524112Y11614327D01*
X11548213Y11589963D01*
X11557180Y11575215D01*
X11561424Y11567155D01*
X11571653Y11544440D01*
X11574750Y11536318D01*
X11582614Y11511382D01*
X11584352Y11504837D01*
X11591748Y11470754D01*
X11592479Y11466892D01*
X11600170Y11419399D01*
X11600300Y11418566D01*
X11609112Y11359284D01*
X11609504Y11356763D01*
X11609542Y11356528D01*
X11609789Y11355032D01*
X11611682Y11343866D01*
X11602563Y11294078D01*
X11563573Y11261797D01*
X11538723Y11257500D01*
X11026308Y11257499D01*
X11004482Y11257499D01*
X11001610Y11257044D01*
X11001608Y11257044D01*
X10969910Y11252024D01*
X10910696Y11242646D01*
X10854177Y11213848D01*
X10802850Y11187696D01*
X10802848Y11187694D01*
X10797658Y11185050D01*
X10707950Y11095342D01*
X10705308Y11090157D01*
X10705306Y11090154D01*
X10700175Y11080083D01*
X10663155Y11045560D01*
X10642286Y11040116D01*
X10633690Y11039176D01*
X10606843Y11036240D01*
X10588858Y11036472D01*
X10561106Y11040234D01*
X10561105Y11040234D01*
X10561098Y11040235D01*
X10561095Y11040235D01*
X10535382Y11043721D01*
X10527117Y11045325D01*
X10504287Y11051121D01*
X10486342Y11055677D01*
X10477783Y11058413D01*
X10474639Y11059634D01*
X10435487Y11095020D01*
X10389528Y11185220D01*
X10294220Y11280528D01*
X10289030Y11283172D01*
X10289028Y11283174D01*
X10179320Y11339073D01*
X10179317Y11339074D01*
X10174126Y11341719D01*
X10168374Y11342630D01*
X10168371Y11342631D01*
X10077361Y11357045D01*
X10074488Y11357500D01*
X9507512Y11357500D01*
X9504639Y11357045D01*
X9413629Y11342631D01*
X9413626Y11342630D01*
X9407874Y11341719D01*
X9402683Y11339074D01*
X9402680Y11339073D01*
X9292972Y11283174D01*
X9292970Y11283172D01*
X9287780Y11280528D01*
X9192472Y11185220D01*
X9189829Y11180032D01*
X9189826Y11180028D01*
X9133927Y11070320D01*
X9131281Y11065126D01*
X9130370Y11059374D01*
X9130369Y11059371D01*
X9126706Y11036240D01*
X9115500Y10965488D01*
X9115500Y10448512D01*
X9115955Y10445639D01*
X9130369Y10354629D01*
X9130370Y10354626D01*
X9131281Y10348874D01*
X9133926Y10343683D01*
X9133927Y10343680D01*
X9189826Y10233972D01*
X9189828Y10233970D01*
X9192472Y10228780D01*
X9287780Y10133472D01*
X9292970Y10130828D01*
X9292972Y10130826D01*
X9402680Y10074927D01*
X9402683Y10074926D01*
X9407874Y10072281D01*
X9413626Y10071370D01*
X9413629Y10071369D01*
X9501716Y10057418D01*
X9507512Y10056500D01*
X10074488Y10056500D01*
X10080284Y10057418D01*
X10168371Y10071369D01*
X10168374Y10071370D01*
X10174126Y10072281D01*
X10179317Y10074926D01*
X10179320Y10074927D01*
X10289028Y10130826D01*
X10289030Y10130828D01*
X10294220Y10133472D01*
X10389528Y10228780D01*
X10435488Y10318980D01*
X10474634Y10354365D01*
X10477783Y10355587D01*
X10486342Y10358324D01*
X10514009Y10365349D01*
X10527116Y10368676D01*
X10535383Y10370280D01*
X10550134Y10372280D01*
X10561095Y10373766D01*
X10561100Y10373766D01*
X10567100Y10374580D01*
X10573188Y10375405D01*
X10622648Y10364639D01*
X10648854Y10330932D01*
X10650354Y10331696D01*
X10705304Y10223850D01*
X10705306Y10223848D01*
X10707950Y10218658D01*
X10797658Y10128950D01*
X10802848Y10126306D01*
X10802850Y10126304D01*
X10905502Y10074000D01*
X10905505Y10073999D01*
X10910696Y10071354D01*
X10916448Y10070443D01*
X10916451Y10070442D01*
X10998685Y10057418D01*
X11004481Y10056500D01*
X11240513Y10056500D01*
X11254335Y10055198D01*
X11255416Y10054992D01*
X11255469Y10054982D01*
X11255576Y10054962D01*
X11270628Y10052268D01*
X11323436Y10042816D01*
X11323555Y10042795D01*
X11323594Y10042788D01*
X11325143Y10042518D01*
X11325290Y10042493D01*
X11325336Y10042485D01*
X11327291Y10042163D01*
X11327415Y10042143D01*
X11327606Y10042113D01*
X11327616Y10042111D01*
X11387266Y10032626D01*
X11388248Y10032463D01*
X11436196Y10024176D01*
X11440037Y10023407D01*
X11474853Y10015472D01*
X11481322Y10013685D01*
X11507211Y10005252D01*
X11515184Y10002134D01*
X11539084Y9991154D01*
X11546968Y9986937D01*
X11575844Y9969171D01*
X11582463Y9964585D01*
X11620895Y9934731D01*
X11625893Y9930480D01*
X11668936Y9890452D01*
X11670868Y9888589D01*
X12590289Y8969168D01*
X12594650Y8964409D01*
X12620328Y8933806D01*
X12654932Y8913828D01*
X12660372Y8910362D01*
X12693099Y8887446D01*
X12699351Y8885771D01*
X12703901Y8883649D01*
X12709425Y8881361D01*
X12714136Y8879647D01*
X12719738Y8876412D01*
X12726109Y8875289D01*
X12726111Y8875288D01*
X12749512Y8871162D01*
X12759080Y8869475D01*
X12765379Y8868079D01*
X12803976Y8857736D01*
X12824959Y8859572D01*
X12851491Y8857074D01*
X12875597Y8850275D01*
X12877846Y8849655D01*
X12877987Y8849617D01*
X12878146Y8849574D01*
X12903859Y8842667D01*
X12903863Y8842666D01*
X12923574Y8837371D01*
X12927273Y8836274D01*
X12958581Y8826087D01*
X12966086Y8823184D01*
X12987383Y8813587D01*
X12996724Y8808543D01*
X13017004Y8795631D01*
X13025873Y8789002D01*
X13031172Y8784385D01*
X13041267Y8773641D01*
X13052718Y8758718D01*
X13056569Y8755763D01*
X13174311Y8665416D01*
X13174315Y8665414D01*
X13178159Y8662464D01*
X13314828Y8605854D01*
X13352148Y8571656D01*
X13358755Y8521471D01*
X13338835Y8485161D01*
X12863168Y8009494D01*
X12858409Y8005133D01*
X12827806Y7979455D01*
X12812543Y7953017D01*
X12807831Y7944856D01*
X12804362Y7939411D01*
X12785159Y7911987D01*
X12781446Y7906684D01*
X12779771Y7900432D01*
X12777649Y7895882D01*
X12775361Y7890358D01*
X12773647Y7885647D01*
X12770412Y7880045D01*
X12764282Y7845275D01*
X12763476Y7840706D01*
X12762079Y7834404D01*
X12751736Y7795807D01*
X12752300Y7789359D01*
X12752300Y7789358D01*
X12755218Y7756009D01*
X12755500Y7749559D01*
X12755500Y6987263D01*
X12750040Y6959816D01*
X12746485Y6954495D01*
X12745063Y6947346D01*
X12741894Y6931412D01*
X12730500Y6874133D01*
X12730500Y6870493D01*
X12730501Y5572479D01*
X12713188Y5524913D01*
X12708827Y5520153D01*
X11353170Y4164496D01*
X11351247Y4162641D01*
X11307473Y4121919D01*
X11302567Y4117739D01*
X11271467Y4093499D01*
X11263133Y4087003D01*
X11256771Y4082561D01*
X11226299Y4063577D01*
X11218934Y4059550D01*
X11192615Y4047044D01*
X11185450Y4044091D01*
X11156494Y4033899D01*
X11151010Y4032205D01*
X11112835Y4022020D01*
X11110040Y4021332D01*
X11058911Y4009800D01*
X11058852Y4010060D01*
X11058787Y4010047D01*
X11058846Y4009786D01*
X10998138Y3996074D01*
X10994587Y3995237D01*
X10994228Y3995149D01*
X10991646Y3994498D01*
X10991517Y3994465D01*
X10991507Y3994462D01*
X10954506Y3984868D01*
X10935933Y3982499D01*
X10724482Y3982499D01*
X10721610Y3982044D01*
X10721608Y3982044D01*
X10709018Y3980050D01*
X10630696Y3967646D01*
X10574177Y3938848D01*
X10522850Y3912696D01*
X10522848Y3912694D01*
X10517658Y3910050D01*
X10427950Y3820342D01*
X10425307Y3815154D01*
X10425305Y3815152D01*
X10390840Y3747511D01*
X10353820Y3712989D01*
X10333962Y3707663D01*
X10328609Y3707003D01*
X10328605Y3707002D01*
X10315256Y3705357D01*
X10297109Y3705364D01*
X10283911Y3707000D01*
X10268310Y3708934D01*
X10268309Y3708934D01*
X10248655Y3711370D01*
X10241035Y3712723D01*
X10228160Y3715715D01*
X10185747Y3743340D01*
X10175925Y3766520D01*
X10174357Y3766011D01*
X10172557Y3771550D01*
X10171646Y3777304D01*
X10142523Y3834461D01*
X10116696Y3885150D01*
X10116694Y3885152D01*
X10114050Y3890342D01*
X10024342Y3980050D01*
X10019152Y3982694D01*
X10019150Y3982696D01*
X9916498Y4035000D01*
X9916495Y4035001D01*
X9911304Y4037646D01*
X9905552Y4038557D01*
X9905549Y4038558D01*
X9820392Y4052045D01*
X9817519Y4052500D01*
X9814610Y4052500D01*
X9586001Y4052499D01*
X9354482Y4052499D01*
X9351610Y4052044D01*
X9351608Y4052044D01*
X9320082Y4047051D01*
X9260696Y4037646D01*
X9221283Y4017564D01*
X9152850Y3982696D01*
X9152848Y3982694D01*
X9147658Y3980050D01*
X9057950Y3890342D01*
X9055306Y3885152D01*
X9055304Y3885150D01*
X9003000Y3782498D01*
X9000354Y3777304D01*
X8999443Y3771552D01*
X8999442Y3771549D01*
X8989911Y3711369D01*
X8985500Y3683519D01*
X8985501Y3070482D01*
X8985956Y3067610D01*
X8985956Y3067608D01*
X8993751Y3018389D01*
X8984092Y2968700D01*
X8944753Y2936845D01*
X8894142Y2937729D01*
X8868336Y2954488D01*
X8739128Y3083696D01*
X8737727Y3085135D01*
X8697754Y3127339D01*
X8694503Y3131008D01*
X8658935Y3173928D01*
X8655273Y3178733D01*
X8631215Y3213131D01*
X8627569Y3218895D01*
X8610930Y3248097D01*
X8607837Y3254157D01*
X8594644Y3283235D01*
X8592498Y3288492D01*
X8587163Y3303146D01*
X8579887Y3323128D01*
X8578715Y3326613D01*
X8564948Y3371198D01*
X8564561Y3372495D01*
X8548649Y3427669D01*
X8548598Y3427846D01*
X8548130Y3429444D01*
X8544732Y3440869D01*
X8539570Y3458222D01*
X8536499Y3479320D01*
X8536499Y3683518D01*
X8533153Y3704649D01*
X8522557Y3771550D01*
X8521646Y3777304D01*
X8492523Y3834461D01*
X8466696Y3885150D01*
X8466694Y3885152D01*
X8464050Y3890342D01*
X8374342Y3980050D01*
X8344678Y3995165D01*
X8341424Y3996823D01*
X8306902Y4033844D01*
X8301343Y4055850D01*
X8298399Y4087289D01*
X8298105Y4092159D01*
X8296527Y4150287D01*
X8296500Y4152295D01*
X8296500Y11782024D01*
X8313813Y11829590D01*
X8318174Y11834350D01*
X10518335Y14034511D01*
X10564211Y14055903D01*
X10613106Y14042802D01*
G37*
%TD.AperFunction*%
%TD*%
M02*
