%TF.GenerationSoftware,KiCad,Pcbnew,(6.0.1)*%
%TF.CreationDate,2023-03-26T21:04:12+08:00*%
%TF.ProjectId,Solenoid valve,536f6c65-6e6f-4696-9420-76616c76652e,rev?*%
%TF.SameCoordinates,Original*%
%TF.FileFunction,Copper,L1,Top*%
%TF.FilePolarity,Positive*%
%FSLAX46Y46*%
G04 Gerber Fmt 4.6, Leading zero omitted, Abs format (unit mm)*
G04 Created by KiCad (PCBNEW (6.0.1)) date 2023-03-26 21:04:12*
%MOMM*%
%LPD*%
G01*
G04 APERTURE LIST*
G04 Aperture macros list*
%AMRoundRect*
0 Rectangle with rounded corners*
0 $1 Rounding radius*
0 $2 $3 $4 $5 $6 $7 $8 $9 X,Y pos of 4 corners*
0 Add a 4 corners polygon primitive as box body*
4,1,4,$2,$3,$4,$5,$6,$7,$8,$9,$2,$3,0*
0 Add four circle primitives for the rounded corners*
1,1,$1+$1,$2,$3*
1,1,$1+$1,$4,$5*
1,1,$1+$1,$6,$7*
1,1,$1+$1,$8,$9*
0 Add four rect primitives between the rounded corners*
20,1,$1+$1,$2,$3,$4,$5,0*
20,1,$1+$1,$4,$5,$6,$7,0*
20,1,$1+$1,$6,$7,$8,$9,0*
20,1,$1+$1,$8,$9,$2,$3,0*%
G04 Aperture macros list end*
%TA.AperFunction,SMDPad,CuDef*%
%ADD10RoundRect,0.218750X0.218750X0.256250X-0.218750X0.256250X-0.218750X-0.256250X0.218750X-0.256250X0*%
%TD*%
%TA.AperFunction,SMDPad,CuDef*%
%ADD11RoundRect,0.137500X-0.662500X-0.137500X0.662500X-0.137500X0.662500X0.137500X-0.662500X0.137500X0*%
%TD*%
%TA.AperFunction,SMDPad,CuDef*%
%ADD12RoundRect,0.150000X0.150000X-0.587500X0.150000X0.587500X-0.150000X0.587500X-0.150000X-0.587500X0*%
%TD*%
%TA.AperFunction,ComponentPad*%
%ADD13R,3.000000X3.000000*%
%TD*%
%TA.AperFunction,ComponentPad*%
%ADD14C,3.000000*%
%TD*%
%TA.AperFunction,SMDPad,CuDef*%
%ADD15R,4.550000X4.410000*%
%TD*%
%TA.AperFunction,SMDPad,CuDef*%
%ADD16R,0.850000X0.500000*%
%TD*%
%TA.AperFunction,SMDPad,CuDef*%
%ADD17RoundRect,0.200000X0.200000X0.275000X-0.200000X0.275000X-0.200000X-0.275000X0.200000X-0.275000X0*%
%TD*%
%TA.AperFunction,ComponentPad*%
%ADD18RoundRect,0.750000X0.750000X-0.750000X0.750000X0.750000X-0.750000X0.750000X-0.750000X-0.750000X0*%
%TD*%
%TA.AperFunction,SMDPad,CuDef*%
%ADD19RoundRect,0.150000X-0.150000X-0.700000X0.150000X-0.700000X0.150000X0.700000X-0.150000X0.700000X0*%
%TD*%
%TA.AperFunction,SMDPad,CuDef*%
%ADD20RoundRect,0.250000X-0.250000X-1.100000X0.250000X-1.100000X0.250000X1.100000X-0.250000X1.100000X0*%
%TD*%
%TA.AperFunction,ViaPad*%
%ADD21C,0.800000*%
%TD*%
%TA.AperFunction,Conductor*%
%ADD22C,0.250000*%
%TD*%
G04 APERTURE END LIST*
D10*
%TO.P,D1,1,K*%
%TO.N,GND*%
X24063500Y9547000D03*
%TO.P,D1,2,A*%
%TO.N,Net-(D1-Pad2)*%
X22488500Y9547000D03*
%TD*%
D11*
%TO.P,U1,1*%
%TO.N,Net-(R12-Pad1)*%
X4401000Y11677000D03*
%TO.P,U1,2*%
%TO.N,Net-(J1-Pad1)*%
X4401000Y9137000D03*
%TO.P,U1,3*%
%TO.N,GND*%
X10901000Y9137000D03*
%TO.P,U1,4*%
%TO.N,Net-(R1-Pad1)*%
X10901000Y11677000D03*
%TD*%
D12*
%TO.P,Q1,1,Base*%
%TO.N,Net-(C1-Pad1)*%
X14761000Y9229500D03*
%TO.P,Q1,2,Emitter*%
%TO.N,GND*%
X16661000Y9229500D03*
%TO.P,Q1,3,Collector*%
%TO.N,Net-(Q1-Pad3)*%
X15711000Y11104500D03*
%TD*%
D13*
%TO.P,J2,1,Pin_2*%
%TO.N,GND*%
X23111000Y15927000D03*
D14*
%TO.P,J2,2,Pin_1*%
%TO.N,Net-(D2-Pad1)*%
X23111000Y20927000D03*
%TD*%
D15*
%TO.P,Q2,5,D*%
%TO.N,+24V*%
X12501000Y21437000D03*
D16*
%TO.P,Q2,4,G*%
%TO.N,Net-(Q2-Pad4)*%
X16451000Y23342000D03*
%TO.P,Q2,3,S*%
%TO.N,Net-(D2-Pad2)*%
X16451000Y22072000D03*
%TO.P,Q2,2,S*%
X16451000Y20802000D03*
%TO.P,Q2,1,S*%
X16451000Y19532000D03*
%TD*%
D17*
%TO.P,R11,1*%
%TO.N,Net-(D1-Pad2)*%
X21081000Y9547000D03*
%TO.P,R11,2*%
%TO.N,Net-(D2-Pad2)*%
X19431000Y9547000D03*
%TD*%
D14*
%TO.P,J3,2,Pin_2*%
%TO.N,GND*%
X4211000Y16077000D03*
D18*
%TO.P,J3,1,Pin_1*%
%TO.N,+24V*%
X4211000Y21077000D03*
%TD*%
D19*
%TO.P,J1,1,Pin_1*%
%TO.N,Net-(J1-Pad1)*%
X7126000Y5287000D03*
%TO.P,J1,2,Pin_2*%
%TO.N,Net-(J1-Pad2)*%
X8376000Y5287000D03*
D20*
%TO.P,J1,MP*%
%TO.N,N/C*%
X5276000Y2087000D03*
X10226000Y2087000D03*
%TD*%
D21*
%TO.N,Net-(D2-Pad2)*%
X18201000Y16677000D03*
X17111000Y17517000D03*
X16451000Y19537000D03*
X16451000Y20827000D03*
X16461000Y21877000D03*
X18200520Y9547480D03*
%TO.N,Net-(Q2-Pad4)*%
X15471000Y17127000D03*
%TO.N,GND*%
X10511000Y7427000D03*
%TO.N,Net-(R12-Pad1)*%
X6051000Y10537000D03*
%TO.N,Net-(J1-Pad2)*%
X8771000Y6967000D03*
%TO.N,+24V*%
X9611000Y20457000D03*
X12111000Y20957000D03*
X8111000Y20457000D03*
X14111000Y21957000D03*
X11111000Y20957000D03*
X11111000Y19957000D03*
X13111000Y21957000D03*
X14111000Y19957000D03*
X14111000Y22957000D03*
X13111000Y22957000D03*
X12111000Y22957000D03*
X13111000Y20957000D03*
X12111000Y19957000D03*
X8111000Y21457000D03*
X11111000Y21957000D03*
X6611000Y20457000D03*
X9611000Y21457000D03*
X13111000Y19957000D03*
X6611000Y21457000D03*
X11111000Y22957000D03*
X14111000Y20957000D03*
X12111000Y21957000D03*
%TO.N,Net-(R1-Pad1)*%
X12475930Y11664105D03*
%TO.N,GND*%
X19381000Y6967000D03*
X21881000Y5467000D03*
X20881000Y6967000D03*
X20381000Y5467000D03*
%TO.N,Net-(C1-Pad1)*%
X13481000Y9187000D03*
%TO.N,Net-(Q1-Pad3)*%
X15711021Y8822980D03*
%TD*%
D22*
%TO.N,Net-(D2-Pad2)*%
X18201000Y9547000D02*
X18200520Y9547480D01*
X19431000Y9547000D02*
X18201000Y9547000D01*
%TO.N,Net-(Q2-Pad4)*%
X15471000Y17737000D02*
X15471000Y17127000D01*
%TO.N,Net-(R12-Pad1)*%
X4911000Y11677000D02*
X6051000Y10537000D01*
X4401000Y11677000D02*
X4911000Y11677000D01*
%TO.N,Net-(J1-Pad2)*%
X8376000Y5287000D02*
X8376000Y6572000D01*
X8376000Y6572000D02*
X8771000Y6967000D01*
%TO.N,Net-(J1-Pad1)*%
X7126000Y6952000D02*
X7126000Y5287000D01*
X4941000Y9137000D02*
X7126000Y6952000D01*
X4401000Y9137000D02*
X4941000Y9137000D01*
%TO.N,Net-(R1-Pad1)*%
X10913895Y11664105D02*
X10901000Y11677000D01*
X12475930Y11664105D02*
X10913895Y11664105D01*
%TO.N,Net-(Q2-Pad4)*%
X16266000Y23342000D02*
X15471000Y22547000D01*
X15471000Y22547000D02*
X15471000Y17737000D01*
X16451000Y23342000D02*
X16266000Y23342000D01*
%TO.N,Net-(C1-Pad1)*%
X13481000Y9187000D02*
X14718500Y9187000D01*
%TO.N,Net-(D1-Pad2)*%
X21081000Y9547000D02*
X22488500Y9547000D01*
%TO.N,Net-(Q1-Pad3)*%
X15711021Y8822980D02*
X15711021Y11104479D01*
%TO.N,Net-(Q2-Pad4)*%
X16396978Y23342000D02*
X16451000Y23342000D01*
%TD*%
%TA.AperFunction,Conductor*%
%TO.N,+24V*%
G36*
X14753121Y23636998D02*
G01*
X14799614Y23583342D01*
X14811000Y23531000D01*
X14811000Y19333000D01*
X14790998Y19264879D01*
X14737342Y19218386D01*
X14685000Y19207000D01*
X10219919Y19207000D01*
X10202167Y19208257D01*
X7615408Y19576373D01*
X7615404Y19576373D01*
X7611000Y19577000D01*
X3737000Y19577000D01*
X3668879Y19597002D01*
X3622386Y19650658D01*
X3611000Y19703000D01*
X3611000Y22451000D01*
X3631002Y22519121D01*
X3684658Y22565614D01*
X3737000Y22577000D01*
X7611000Y22577000D01*
X7622487Y22581772D01*
X7622489Y22581772D01*
X10187795Y23647361D01*
X10236129Y23657000D01*
X14685000Y23657000D01*
X14753121Y23636998D01*
G37*
%TD.AperFunction*%
%TD*%
%TA.AperFunction,Conductor*%
%TO.N,Net-(D2-Pad1)*%
G36*
X24763121Y22616998D02*
G01*
X24809614Y22563342D01*
X24821000Y22511000D01*
X24821000Y19353000D01*
X24800998Y19284879D01*
X24747342Y19238386D01*
X24695000Y19227000D01*
X22754455Y19227000D01*
X22747542Y19227190D01*
X19112717Y19426906D01*
X19112705Y19426906D01*
X19111000Y19427000D01*
X17427000Y19427000D01*
X17358879Y19447002D01*
X17312386Y19500658D01*
X17301000Y19553000D01*
X17301000Y21801000D01*
X17321002Y21869121D01*
X17374658Y21915614D01*
X17427000Y21927000D01*
X19101000Y21927000D01*
X22291673Y22563342D01*
X22648796Y22634566D01*
X22673440Y22637000D01*
X24695000Y22637000D01*
X24763121Y22616998D01*
G37*
%TD.AperFunction*%
%TD*%
%TA.AperFunction,Conductor*%
%TO.N,GND*%
G36*
X25512461Y24309118D02*
G01*
X25526642Y24305857D01*
X25534772Y24307697D01*
X25539196Y24307689D01*
X25554788Y24308813D01*
X25643853Y24301803D01*
X25728319Y24295155D01*
X25739781Y24293340D01*
X25835128Y24270449D01*
X25930472Y24247558D01*
X25941515Y24243970D01*
X26122704Y24168920D01*
X26133047Y24163650D01*
X26206133Y24118863D01*
X26300261Y24061181D01*
X26309650Y24054360D01*
X26458780Y23926990D01*
X26466989Y23918781D01*
X26594360Y23769650D01*
X26601181Y23760261D01*
X26690003Y23615318D01*
X26703648Y23593051D01*
X26708920Y23582704D01*
X26783970Y23401515D01*
X26787558Y23390472D01*
X26833339Y23199785D01*
X26835156Y23188316D01*
X26848777Y23015250D01*
X26847735Y23001155D01*
X26847725Y22995481D01*
X26845857Y22987358D01*
X26847697Y22979227D01*
X26849175Y22972694D01*
X26851000Y22956363D01*
X26851000Y1555123D01*
X26849118Y1538539D01*
X26845857Y1524358D01*
X26847697Y1516228D01*
X26847689Y1511804D01*
X26848813Y1496212D01*
X26835156Y1322684D01*
X26833339Y1311215D01*
X26787558Y1120528D01*
X26783970Y1109485D01*
X26708920Y928296D01*
X26703650Y917953D01*
X26635042Y805995D01*
X26601181Y750739D01*
X26594360Y741350D01*
X26526216Y661564D01*
X26466990Y592220D01*
X26458781Y584011D01*
X26309650Y456640D01*
X26300261Y449819D01*
X26133047Y347350D01*
X26122704Y342080D01*
X25941515Y267030D01*
X25930472Y263442D01*
X25835129Y240552D01*
X25739781Y217660D01*
X25728319Y215845D01*
X25555250Y202223D01*
X25541155Y203265D01*
X25535481Y203275D01*
X25527358Y205143D01*
X25515111Y202372D01*
X25512694Y201825D01*
X25496363Y200000D01*
X1555123Y200000D01*
X1538539Y201882D01*
X1538230Y201953D01*
X1524358Y205143D01*
X1516228Y203303D01*
X1511804Y203311D01*
X1496212Y202187D01*
X1407147Y209197D01*
X1322681Y215845D01*
X1311219Y217660D01*
X1215871Y240552D01*
X1120528Y263442D01*
X1109485Y267030D01*
X928296Y342080D01*
X917953Y347350D01*
X750739Y449819D01*
X741350Y456640D01*
X592219Y584011D01*
X584010Y592220D01*
X524784Y661564D01*
X456640Y741350D01*
X449819Y750739D01*
X415958Y805995D01*
X347350Y917953D01*
X342080Y928296D01*
X267030Y1109485D01*
X263442Y1120528D01*
X217661Y1311215D01*
X215844Y1322684D01*
X202223Y1495750D01*
X203265Y1509845D01*
X203275Y1515519D01*
X205143Y1523642D01*
X201825Y1538306D01*
X200000Y1554637D01*
X200000Y2147000D01*
X605551Y2147000D01*
X625317Y1895852D01*
X684127Y1650889D01*
X685240Y1648202D01*
X736983Y1523284D01*
X780534Y1418141D01*
X782055Y1415659D01*
X782057Y1415655D01*
X866399Y1278022D01*
X912164Y1203341D01*
X914056Y1201126D01*
X914058Y1201123D01*
X1054188Y1037052D01*
X1075776Y1011776D01*
X1077990Y1009885D01*
X1257417Y856640D01*
X1267341Y848164D01*
X1269828Y846640D01*
X1479655Y718057D01*
X1479659Y718055D01*
X1482141Y716534D01*
X1714889Y620127D01*
X1959852Y561317D01*
X1962739Y561090D01*
X1962744Y561089D01*
X2085363Y551439D01*
X2148118Y546500D01*
X2273882Y546500D01*
X2336637Y551439D01*
X2459256Y561089D01*
X2459261Y561090D01*
X2462148Y561317D01*
X2707111Y620127D01*
X2939859Y716534D01*
X2942341Y718055D01*
X2942345Y718057D01*
X3152172Y846640D01*
X3154659Y848164D01*
X3164584Y856640D01*
X3254184Y933166D01*
X4575500Y933166D01*
X4578481Y901631D01*
X4623366Y773816D01*
X4626650Y769370D01*
X4626651Y769368D01*
X4664550Y718057D01*
X4703850Y664850D01*
X4708299Y661564D01*
X4808178Y587792D01*
X4812816Y584366D01*
X4940631Y539481D01*
X4945114Y539057D01*
X4945115Y539057D01*
X4970438Y536663D01*
X4970445Y536663D01*
X4972166Y536500D01*
X5579834Y536500D01*
X5581555Y536663D01*
X5581562Y536663D01*
X5606885Y539057D01*
X5606886Y539057D01*
X5611369Y539481D01*
X5739184Y584366D01*
X5743823Y587792D01*
X5843701Y661564D01*
X5848150Y664850D01*
X5887450Y718057D01*
X5925349Y769368D01*
X5925350Y769370D01*
X5928634Y773816D01*
X5973519Y901631D01*
X5976500Y933166D01*
X9525500Y933166D01*
X9528481Y901631D01*
X9573366Y773816D01*
X9576650Y769370D01*
X9576651Y769368D01*
X9614550Y718057D01*
X9653850Y664850D01*
X9658299Y661564D01*
X9758178Y587792D01*
X9762816Y584366D01*
X9890631Y539481D01*
X9895114Y539057D01*
X9895115Y539057D01*
X9920438Y536663D01*
X9920445Y536663D01*
X9922166Y536500D01*
X10529834Y536500D01*
X10531555Y536663D01*
X10531562Y536663D01*
X10556885Y539057D01*
X10556886Y539057D01*
X10561369Y539481D01*
X10689184Y584366D01*
X10693823Y587792D01*
X10793701Y661564D01*
X10798150Y664850D01*
X10837450Y718057D01*
X10875349Y769368D01*
X10875350Y769370D01*
X10878634Y773816D01*
X10923519Y901631D01*
X10926500Y933166D01*
X10926500Y2157000D01*
X23255551Y2157000D01*
X23275317Y1905852D01*
X23334127Y1660889D01*
X23335240Y1658202D01*
X23402530Y1495750D01*
X23430534Y1428141D01*
X23432055Y1425659D01*
X23432057Y1425655D01*
X23522527Y1278022D01*
X23562164Y1213341D01*
X23564056Y1211126D01*
X23564058Y1211123D01*
X23572599Y1201123D01*
X23725776Y1021776D01*
X23727990Y1019885D01*
X23866448Y901631D01*
X23917341Y858164D01*
X23919828Y856640D01*
X24129655Y728057D01*
X24129659Y728055D01*
X24132141Y726534D01*
X24134834Y725419D01*
X24134835Y725418D01*
X24270319Y669299D01*
X24364889Y630127D01*
X24367716Y629448D01*
X24367717Y629448D01*
X24522784Y592220D01*
X24609852Y571317D01*
X24612739Y571090D01*
X24612744Y571089D01*
X24728298Y561995D01*
X24798118Y556500D01*
X24923882Y556500D01*
X24993702Y561995D01*
X25109256Y571089D01*
X25109261Y571090D01*
X25112148Y571317D01*
X25199216Y592220D01*
X25354283Y629448D01*
X25354284Y629448D01*
X25357111Y630127D01*
X25451681Y669299D01*
X25587165Y725418D01*
X25587166Y725419D01*
X25589859Y726534D01*
X25592341Y728055D01*
X25592345Y728057D01*
X25802172Y856640D01*
X25804659Y858164D01*
X25855553Y901631D01*
X25994010Y1019885D01*
X25996224Y1021776D01*
X26149401Y1201123D01*
X26157942Y1211123D01*
X26157944Y1211126D01*
X26159836Y1213341D01*
X26199473Y1278022D01*
X26289943Y1425655D01*
X26289945Y1425659D01*
X26291466Y1428141D01*
X26319471Y1495750D01*
X26386760Y1658202D01*
X26387873Y1660889D01*
X26446683Y1905852D01*
X26466449Y2157000D01*
X26446683Y2408148D01*
X26387873Y2653111D01*
X26291466Y2885859D01*
X26159836Y3100659D01*
X26038640Y3242562D01*
X25998115Y3290010D01*
X25996224Y3292224D01*
X25818585Y3443942D01*
X25806877Y3453942D01*
X25806874Y3453944D01*
X25804659Y3455836D01*
X25717659Y3509150D01*
X25592345Y3585943D01*
X25592341Y3585945D01*
X25589859Y3587466D01*
X25357111Y3683873D01*
X25112148Y3742683D01*
X25109261Y3742910D01*
X25109256Y3742911D01*
X24986637Y3752561D01*
X24923882Y3757500D01*
X24798118Y3757500D01*
X24735363Y3752561D01*
X24612744Y3742911D01*
X24612739Y3742910D01*
X24609852Y3742683D01*
X24364889Y3683873D01*
X24132141Y3587466D01*
X24129659Y3585945D01*
X24129655Y3585943D01*
X24004341Y3509150D01*
X23917341Y3455836D01*
X23915126Y3453944D01*
X23915123Y3453942D01*
X23903415Y3443942D01*
X23725776Y3292224D01*
X23723885Y3290010D01*
X23683361Y3242562D01*
X23562164Y3100659D01*
X23430534Y2885859D01*
X23334127Y2653111D01*
X23275317Y2408148D01*
X23255551Y2157000D01*
X10926500Y2157000D01*
X10926500Y3240834D01*
X10923519Y3272369D01*
X10878634Y3400184D01*
X10838928Y3453942D01*
X10801436Y3504701D01*
X10798150Y3509150D01*
X10705658Y3577466D01*
X10693632Y3586349D01*
X10693630Y3586350D01*
X10689184Y3589634D01*
X10561369Y3634519D01*
X10556886Y3634943D01*
X10556885Y3634943D01*
X10531562Y3637337D01*
X10531555Y3637337D01*
X10529834Y3637500D01*
X9922166Y3637500D01*
X9920445Y3637337D01*
X9920438Y3637337D01*
X9895115Y3634943D01*
X9895114Y3634943D01*
X9890631Y3634519D01*
X9762816Y3589634D01*
X9758370Y3586350D01*
X9758368Y3586349D01*
X9746342Y3577466D01*
X9653850Y3509150D01*
X9650564Y3504701D01*
X9613073Y3453942D01*
X9573366Y3400184D01*
X9528481Y3272369D01*
X9525500Y3240834D01*
X9525500Y933166D01*
X5976500Y933166D01*
X5976500Y3240834D01*
X5973519Y3272369D01*
X5928634Y3400184D01*
X5888928Y3453942D01*
X5851436Y3504701D01*
X5848150Y3509150D01*
X5755658Y3577466D01*
X5743632Y3586349D01*
X5743630Y3586350D01*
X5739184Y3589634D01*
X5611369Y3634519D01*
X5606886Y3634943D01*
X5606885Y3634943D01*
X5581562Y3637337D01*
X5581555Y3637337D01*
X5579834Y3637500D01*
X4972166Y3637500D01*
X4970445Y3637337D01*
X4970438Y3637337D01*
X4945115Y3634943D01*
X4945114Y3634943D01*
X4940631Y3634519D01*
X4812816Y3589634D01*
X4808370Y3586350D01*
X4808368Y3586349D01*
X4796342Y3577466D01*
X4703850Y3509150D01*
X4700564Y3504701D01*
X4663073Y3453942D01*
X4623366Y3400184D01*
X4578481Y3272369D01*
X4575500Y3240834D01*
X4575500Y933166D01*
X3254184Y933166D01*
X3344010Y1009885D01*
X3346224Y1011776D01*
X3367812Y1037052D01*
X3507942Y1201123D01*
X3507944Y1201126D01*
X3509836Y1203341D01*
X3555601Y1278022D01*
X3639943Y1415655D01*
X3639945Y1415659D01*
X3641466Y1418141D01*
X3685018Y1523284D01*
X3736760Y1648202D01*
X3737873Y1650889D01*
X3796683Y1895852D01*
X3816449Y2147000D01*
X3796683Y2398148D01*
X3737873Y2643111D01*
X3641466Y2875859D01*
X3509836Y3090659D01*
X3503420Y3098172D01*
X3348115Y3280010D01*
X3346224Y3282224D01*
X3334516Y3292224D01*
X3156877Y3443942D01*
X3156874Y3443944D01*
X3154659Y3445836D01*
X3134176Y3458388D01*
X2942345Y3575943D01*
X2942341Y3575945D01*
X2939859Y3577466D01*
X2918414Y3586349D01*
X2709798Y3672760D01*
X2707111Y3673873D01*
X2662630Y3684552D01*
X2464972Y3732005D01*
X2462148Y3732683D01*
X2459261Y3732910D01*
X2459256Y3732911D01*
X2332190Y3742911D01*
X2273882Y3747500D01*
X2148118Y3747500D01*
X2089810Y3742911D01*
X1962744Y3732911D01*
X1962739Y3732910D01*
X1959852Y3732683D01*
X1957028Y3732005D01*
X1759371Y3684552D01*
X1714889Y3673873D01*
X1712202Y3672760D01*
X1503587Y3586349D01*
X1482141Y3577466D01*
X1479659Y3575945D01*
X1479655Y3575943D01*
X1287824Y3458388D01*
X1267341Y3445836D01*
X1265126Y3443944D01*
X1265123Y3443942D01*
X1087484Y3292224D01*
X1075776Y3282224D01*
X1073885Y3280010D01*
X918581Y3098172D01*
X912164Y3090659D01*
X780534Y2875859D01*
X684127Y2643111D01*
X625317Y2398148D01*
X605551Y2147000D01*
X200000Y2147000D01*
X200000Y9314103D01*
X3400500Y9314103D01*
X3400501Y8959898D01*
X3400818Y8957492D01*
X3400818Y8957488D01*
X3402949Y8941304D01*
X3406981Y8910670D01*
X3409372Y8905543D01*
X3409372Y8905542D01*
X3418745Y8885442D01*
X3457356Y8802641D01*
X3541641Y8718356D01*
X3649670Y8667981D01*
X3698897Y8661500D01*
X3791178Y8661500D01*
X4925521Y8661501D01*
X4973087Y8644188D01*
X4977847Y8639827D01*
X6778826Y6838848D01*
X6800218Y6792972D01*
X6800500Y6786522D01*
X6800500Y6335175D01*
X6783187Y6287609D01*
X6772193Y6277429D01*
X6769145Y6275932D01*
X6764822Y6271601D01*
X6691527Y6198178D01*
X6686707Y6193350D01*
X6684020Y6187853D01*
X6638278Y6094274D01*
X6635464Y6088518D01*
X6625500Y6020218D01*
X6625500Y4553782D01*
X6625895Y4551099D01*
X6634804Y4490577D01*
X6634805Y4490574D01*
X6635642Y4484888D01*
X6687068Y4380145D01*
X6691397Y4375824D01*
X6691398Y4375822D01*
X6765321Y4302028D01*
X6769650Y4297707D01*
X6775147Y4295020D01*
X6868934Y4249176D01*
X6874482Y4246464D01*
X6942782Y4236500D01*
X7309218Y4236500D01*
X7315363Y4237405D01*
X7372423Y4245804D01*
X7372426Y4245805D01*
X7378112Y4246642D01*
X7383272Y4249175D01*
X7383274Y4249176D01*
X7429117Y4271684D01*
X7482855Y4298068D01*
X7487176Y4302397D01*
X7487178Y4302398D01*
X7560972Y4376321D01*
X7560973Y4376323D01*
X7565293Y4380650D01*
X7567980Y4386147D01*
X7614012Y4480318D01*
X7614012Y4480319D01*
X7616536Y4485482D01*
X7626500Y4553782D01*
X7875500Y4553782D01*
X7875895Y4551099D01*
X7884804Y4490577D01*
X7884805Y4490574D01*
X7885642Y4484888D01*
X7937068Y4380145D01*
X7941397Y4375824D01*
X7941398Y4375822D01*
X8015321Y4302028D01*
X8019650Y4297707D01*
X8025147Y4295020D01*
X8118934Y4249176D01*
X8124482Y4246464D01*
X8192782Y4236500D01*
X8559218Y4236500D01*
X8565363Y4237405D01*
X8622423Y4245804D01*
X8622426Y4245805D01*
X8628112Y4246642D01*
X8633272Y4249175D01*
X8633274Y4249176D01*
X8679117Y4271684D01*
X8732855Y4298068D01*
X8737176Y4302397D01*
X8737178Y4302398D01*
X8810972Y4376321D01*
X8810973Y4376323D01*
X8815293Y4380650D01*
X8817980Y4386147D01*
X8864012Y4480318D01*
X8864012Y4480319D01*
X8866536Y4485482D01*
X8876500Y4553782D01*
X8876500Y6020218D01*
X8875595Y6026363D01*
X8867196Y6083423D01*
X8867195Y6083426D01*
X8866358Y6089112D01*
X8814932Y6193855D01*
X8810603Y6198176D01*
X8810602Y6198178D01*
X8767920Y6240785D01*
X8746487Y6286643D01*
X8759546Y6335549D01*
X8800985Y6364619D01*
X8810536Y6366523D01*
X8862580Y6373375D01*
X8922957Y6381323D01*
X8922960Y6381324D01*
X8927762Y6381956D01*
X9073841Y6442464D01*
X9077685Y6445414D01*
X9077689Y6445416D01*
X9195431Y6535763D01*
X9199282Y6538718D01*
X9213913Y6557786D01*
X9292584Y6660311D01*
X9292586Y6660315D01*
X9295536Y6664159D01*
X9356044Y6810238D01*
X9356958Y6817174D01*
X9376049Y6962192D01*
X9376682Y6967000D01*
X9363774Y7065045D01*
X9356677Y7118957D01*
X9356676Y7118960D01*
X9356044Y7123762D01*
X9295536Y7269841D01*
X9292586Y7273685D01*
X9292584Y7273689D01*
X9202237Y7391431D01*
X9199282Y7395282D01*
X9195431Y7398237D01*
X9077689Y7488584D01*
X9077685Y7488586D01*
X9073841Y7491536D01*
X8927762Y7552044D01*
X8922960Y7552676D01*
X8922957Y7552677D01*
X8775808Y7572049D01*
X8771000Y7572682D01*
X8766192Y7572049D01*
X8619043Y7552677D01*
X8619040Y7552676D01*
X8614238Y7552044D01*
X8468159Y7491536D01*
X8464315Y7488586D01*
X8464311Y7488584D01*
X8346569Y7398237D01*
X8342718Y7395282D01*
X8339763Y7391431D01*
X8249416Y7273689D01*
X8249414Y7273685D01*
X8246464Y7269841D01*
X8185956Y7123762D01*
X8185324Y7118960D01*
X8185323Y7118957D01*
X8178226Y7065045D01*
X8165318Y6967000D01*
X8165951Y6962192D01*
X8165951Y6962191D01*
X8177431Y6874987D01*
X8166475Y6825568D01*
X8151630Y6808642D01*
X8127770Y6788621D01*
X8127768Y6788618D01*
X8122806Y6784455D01*
X8119568Y6778846D01*
X8102831Y6749856D01*
X8099362Y6744411D01*
X8076446Y6711684D01*
X8074771Y6705432D01*
X8072649Y6700882D01*
X8070361Y6695358D01*
X8068647Y6690647D01*
X8065412Y6685045D01*
X8064289Y6678674D01*
X8064288Y6678672D01*
X8058476Y6645706D01*
X8057079Y6639404D01*
X8046736Y6600807D01*
X8047300Y6594359D01*
X8047300Y6594358D01*
X8050218Y6561009D01*
X8050500Y6554559D01*
X8050500Y6335175D01*
X8033187Y6287609D01*
X8022193Y6277429D01*
X8019145Y6275932D01*
X8014822Y6271601D01*
X7941527Y6198178D01*
X7936707Y6193350D01*
X7934020Y6187853D01*
X7888278Y6094274D01*
X7885464Y6088518D01*
X7875500Y6020218D01*
X7875500Y4553782D01*
X7626500Y4553782D01*
X7626500Y6020218D01*
X7625595Y6026363D01*
X7617196Y6083423D01*
X7617195Y6083426D01*
X7616358Y6089112D01*
X7564932Y6193855D01*
X7560603Y6198176D01*
X7560602Y6198178D01*
X7487050Y6271601D01*
X7482350Y6276293D01*
X7481211Y6276850D01*
X7453858Y6316647D01*
X7451500Y6335177D01*
X7451500Y6934559D01*
X7451782Y6941009D01*
X7454700Y6974358D01*
X7454700Y6974359D01*
X7455264Y6980807D01*
X7444921Y7019404D01*
X7443524Y7025706D01*
X7437712Y7058672D01*
X7437711Y7058674D01*
X7436588Y7065045D01*
X7433353Y7070647D01*
X7431639Y7075358D01*
X7429351Y7080882D01*
X7427229Y7085432D01*
X7425554Y7091684D01*
X7402638Y7124411D01*
X7399169Y7129856D01*
X7382430Y7158850D01*
X7379194Y7164455D01*
X7374233Y7168618D01*
X7348585Y7190140D01*
X7343825Y7194501D01*
X5423174Y9115152D01*
X5401782Y9161028D01*
X5401500Y9167477D01*
X5401500Y9187000D01*
X12875318Y9187000D01*
X12875951Y9182192D01*
X12895049Y9037130D01*
X12895956Y9030238D01*
X12956464Y8884159D01*
X12959414Y8880315D01*
X12959416Y8880311D01*
X13022527Y8798064D01*
X13052718Y8758718D01*
X13056569Y8755763D01*
X13174311Y8665416D01*
X13174315Y8665414D01*
X13178159Y8662464D01*
X13324238Y8601956D01*
X13329040Y8601324D01*
X13329043Y8601323D01*
X13476192Y8581951D01*
X13481000Y8581318D01*
X13485808Y8581951D01*
X13632957Y8601323D01*
X13632960Y8601324D01*
X13637762Y8601956D01*
X13783841Y8662464D01*
X13787685Y8665414D01*
X13787689Y8665416D01*
X13905431Y8755763D01*
X13909282Y8758718D01*
X13965934Y8832549D01*
X14008624Y8859746D01*
X14024641Y8861500D01*
X14186500Y8861500D01*
X14234066Y8844187D01*
X14259376Y8800350D01*
X14260500Y8787500D01*
X14260500Y8608782D01*
X14260895Y8606099D01*
X14269804Y8545577D01*
X14269805Y8545574D01*
X14270642Y8539888D01*
X14322068Y8435145D01*
X14326397Y8430824D01*
X14326398Y8430822D01*
X14400321Y8357028D01*
X14404650Y8352707D01*
X14410147Y8350020D01*
X14503934Y8304176D01*
X14509482Y8301464D01*
X14577782Y8291500D01*
X14944218Y8291500D01*
X14950363Y8292405D01*
X15007423Y8300804D01*
X15007426Y8300805D01*
X15013112Y8301642D01*
X15018272Y8304175D01*
X15018274Y8304176D01*
X15064117Y8326684D01*
X15117855Y8353068D01*
X15122179Y8357400D01*
X15122181Y8357401D01*
X15169475Y8404777D01*
X15215332Y8426210D01*
X15264238Y8413151D01*
X15276145Y8401764D01*
X15276357Y8401976D01*
X15279784Y8398549D01*
X15282739Y8394698D01*
X15286590Y8391743D01*
X15404332Y8301396D01*
X15404336Y8301394D01*
X15408180Y8298444D01*
X15554259Y8237936D01*
X15559061Y8237304D01*
X15559064Y8237303D01*
X15706213Y8217931D01*
X15711021Y8217298D01*
X15715829Y8217931D01*
X15862978Y8237303D01*
X15862981Y8237304D01*
X15867783Y8237936D01*
X16013862Y8298444D01*
X16017706Y8301394D01*
X16017710Y8301396D01*
X16135452Y8391743D01*
X16139303Y8394698D01*
X16147037Y8404777D01*
X16232605Y8516291D01*
X16232607Y8516295D01*
X16235557Y8520139D01*
X16296065Y8666218D01*
X16316703Y8822980D01*
X16308059Y8888638D01*
X16296698Y8974937D01*
X16296697Y8974940D01*
X16296065Y8979742D01*
X16235557Y9125821D01*
X16232607Y9129665D01*
X16232605Y9129669D01*
X16142258Y9247411D01*
X16139303Y9251262D01*
X16065472Y9307914D01*
X16038275Y9350604D01*
X16036521Y9366621D01*
X16036521Y9547480D01*
X17594838Y9547480D01*
X17615476Y9390718D01*
X17675984Y9244639D01*
X17678934Y9240795D01*
X17678936Y9240791D01*
X17764203Y9129669D01*
X17772238Y9119198D01*
X17776089Y9116243D01*
X17893831Y9025896D01*
X17893835Y9025894D01*
X17897679Y9022944D01*
X18043758Y8962436D01*
X18048560Y8961804D01*
X18048563Y8961803D01*
X18195712Y8942431D01*
X18200520Y8941798D01*
X18205328Y8942431D01*
X18352477Y8961803D01*
X18352480Y8961804D01*
X18357282Y8962436D01*
X18503361Y9022944D01*
X18507205Y9025894D01*
X18507209Y9025896D01*
X18624951Y9116243D01*
X18628802Y9119198D01*
X18685086Y9192548D01*
X18727776Y9219746D01*
X18743793Y9221500D01*
X18770304Y9221500D01*
X18817870Y9204187D01*
X18843393Y9159078D01*
X18845354Y9146696D01*
X18857403Y9123049D01*
X18900304Y9038850D01*
X18900306Y9038848D01*
X18902950Y9033658D01*
X18992658Y8943950D01*
X18997848Y8941306D01*
X18997850Y8941304D01*
X19100502Y8889000D01*
X19100505Y8888999D01*
X19105696Y8886354D01*
X19111448Y8885443D01*
X19111451Y8885442D01*
X19196602Y8871956D01*
X19199481Y8871500D01*
X19431000Y8871500D01*
X19662518Y8871501D01*
X19665390Y8871956D01*
X19665392Y8871956D01*
X19697090Y8876976D01*
X19756304Y8886354D01*
X19815041Y8916282D01*
X19864150Y8941304D01*
X19864152Y8941306D01*
X19869342Y8943950D01*
X19959050Y9033658D01*
X19961694Y9038848D01*
X19961696Y9038850D01*
X20014000Y9141502D01*
X20014001Y9141505D01*
X20016646Y9146696D01*
X20017557Y9152449D01*
X20017558Y9152451D01*
X20031045Y9237608D01*
X20031500Y9240481D01*
X20031499Y9853518D01*
X20031499Y9853519D01*
X20480500Y9853519D01*
X20480501Y9240482D01*
X20495354Y9146696D01*
X20507403Y9123049D01*
X20550304Y9038850D01*
X20550306Y9038848D01*
X20552950Y9033658D01*
X20642658Y8943950D01*
X20647848Y8941306D01*
X20647850Y8941304D01*
X20750502Y8889000D01*
X20750505Y8888999D01*
X20755696Y8886354D01*
X20761448Y8885443D01*
X20761451Y8885442D01*
X20846602Y8871956D01*
X20849481Y8871500D01*
X21081000Y8871500D01*
X21312518Y8871501D01*
X21315390Y8871956D01*
X21315392Y8871956D01*
X21347090Y8876976D01*
X21406304Y8886354D01*
X21465041Y8916282D01*
X21514150Y8941304D01*
X21514152Y8941306D01*
X21519342Y8943950D01*
X21609050Y9033658D01*
X21611694Y9038848D01*
X21611696Y9038850D01*
X21664000Y9141502D01*
X21664001Y9141505D01*
X21666646Y9146696D01*
X21668607Y9159077D01*
X21693149Y9203349D01*
X21741696Y9221500D01*
X21793124Y9221500D01*
X21840690Y9204187D01*
X21863502Y9170368D01*
X21865138Y9165333D01*
X21866049Y9159580D01*
X21868693Y9154391D01*
X21868694Y9154388D01*
X21923696Y9046441D01*
X21923698Y9046439D01*
X21926342Y9041249D01*
X22020249Y8947342D01*
X22025439Y8944698D01*
X22025441Y8944696D01*
X22129597Y8891626D01*
X22138580Y8887049D01*
X22144332Y8886138D01*
X22144335Y8886137D01*
X22233875Y8871956D01*
X22236754Y8871500D01*
X22740246Y8871500D01*
X22743125Y8871956D01*
X22832665Y8886137D01*
X22832668Y8886138D01*
X22838420Y8887049D01*
X22847403Y8891626D01*
X22951559Y8944696D01*
X22951561Y8944698D01*
X22956751Y8947342D01*
X23050658Y9041249D01*
X23053302Y9046439D01*
X23053304Y9046441D01*
X23108305Y9154387D01*
X23110951Y9159580D01*
X23111862Y9165332D01*
X23111863Y9165335D01*
X23126045Y9254881D01*
X23126500Y9257754D01*
X23126500Y9836246D01*
X23123867Y9852870D01*
X23111863Y9928665D01*
X23111862Y9928668D01*
X23110951Y9934420D01*
X23089886Y9975762D01*
X23053304Y10047559D01*
X23053302Y10047561D01*
X23050658Y10052751D01*
X22956751Y10146658D01*
X22951561Y10149302D01*
X22951559Y10149304D01*
X22843613Y10204305D01*
X22838420Y10206951D01*
X22832668Y10207862D01*
X22832665Y10207863D01*
X22743119Y10222045D01*
X22740246Y10222500D01*
X22236754Y10222500D01*
X22233881Y10222045D01*
X22144335Y10207863D01*
X22144332Y10207862D01*
X22138580Y10206951D01*
X22133387Y10204305D01*
X22025441Y10149304D01*
X22025439Y10149302D01*
X22020249Y10146658D01*
X21926342Y10052751D01*
X21923698Y10047561D01*
X21923696Y10047559D01*
X21869681Y9941549D01*
X21866049Y9934420D01*
X21865138Y9928667D01*
X21863502Y9923632D01*
X21832337Y9883744D01*
X21793124Y9872500D01*
X21741696Y9872500D01*
X21694130Y9889813D01*
X21668607Y9934922D01*
X21667557Y9941551D01*
X21666646Y9947304D01*
X21630699Y10017853D01*
X21611696Y10055150D01*
X21611694Y10055152D01*
X21609050Y10060342D01*
X21519342Y10150050D01*
X21514152Y10152694D01*
X21514150Y10152696D01*
X21411498Y10205000D01*
X21411495Y10205001D01*
X21406304Y10207646D01*
X21400552Y10208557D01*
X21400549Y10208558D01*
X21315392Y10222045D01*
X21312519Y10222500D01*
X21309610Y10222500D01*
X21081001Y10222499D01*
X20849482Y10222499D01*
X20846610Y10222044D01*
X20846608Y10222044D01*
X20814910Y10217024D01*
X20755696Y10207646D01*
X20699177Y10178848D01*
X20647850Y10152696D01*
X20647848Y10152694D01*
X20642658Y10150050D01*
X20552950Y10060342D01*
X20550306Y10055152D01*
X20550304Y10055150D01*
X20504106Y9964481D01*
X20495354Y9947304D01*
X20494443Y9941552D01*
X20494442Y9941549D01*
X20490541Y9916915D01*
X20480500Y9853519D01*
X20031499Y9853519D01*
X20016646Y9947304D01*
X19980699Y10017853D01*
X19961696Y10055150D01*
X19961694Y10055152D01*
X19959050Y10060342D01*
X19869342Y10150050D01*
X19864152Y10152694D01*
X19864150Y10152696D01*
X19761498Y10205000D01*
X19761495Y10205001D01*
X19756304Y10207646D01*
X19750552Y10208557D01*
X19750549Y10208558D01*
X19665392Y10222045D01*
X19662519Y10222500D01*
X19659610Y10222500D01*
X19431001Y10222499D01*
X19199482Y10222499D01*
X19196610Y10222044D01*
X19196608Y10222044D01*
X19164910Y10217024D01*
X19105696Y10207646D01*
X19049177Y10178848D01*
X18997850Y10152696D01*
X18997848Y10152694D01*
X18992658Y10150050D01*
X18902950Y10060342D01*
X18900306Y10055152D01*
X18900304Y10055150D01*
X18854106Y9964481D01*
X18845354Y9947304D01*
X18844136Y9939613D01*
X18843393Y9934923D01*
X18818851Y9890651D01*
X18770304Y9872500D01*
X18744530Y9872500D01*
X18696964Y9889813D01*
X18685822Y9901452D01*
X18668765Y9923682D01*
X18628802Y9975762D01*
X18624951Y9978717D01*
X18507209Y10069064D01*
X18507205Y10069066D01*
X18503361Y10072016D01*
X18357282Y10132524D01*
X18352480Y10133156D01*
X18352477Y10133157D01*
X18205328Y10152529D01*
X18200520Y10153162D01*
X18195712Y10152529D01*
X18048563Y10133157D01*
X18048560Y10133156D01*
X18043758Y10132524D01*
X17897679Y10072016D01*
X17893835Y10069066D01*
X17893831Y10069064D01*
X17776089Y9978717D01*
X17772238Y9975762D01*
X17769283Y9971911D01*
X17678936Y9854169D01*
X17678934Y9854165D01*
X17675984Y9850321D01*
X17615476Y9704242D01*
X17594838Y9547480D01*
X16036521Y9547480D01*
X16036521Y10168839D01*
X16053834Y10216405D01*
X16064818Y10226577D01*
X16067855Y10228068D01*
X16109074Y10269359D01*
X16145972Y10306321D01*
X16145973Y10306323D01*
X16150293Y10310650D01*
X16152980Y10316147D01*
X16199012Y10410318D01*
X16199012Y10410319D01*
X16201536Y10415482D01*
X16211500Y10483782D01*
X16211500Y11725218D01*
X16210595Y11731363D01*
X16202196Y11788423D01*
X16202195Y11788426D01*
X16201358Y11794112D01*
X16186024Y11825345D01*
X16173096Y11851675D01*
X16149932Y11898855D01*
X16145603Y11903176D01*
X16145602Y11903178D01*
X16071679Y11976972D01*
X16071677Y11976973D01*
X16067350Y11981293D01*
X16061853Y11983980D01*
X15967682Y12030012D01*
X15967681Y12030012D01*
X15962518Y12032536D01*
X15894218Y12042500D01*
X15527782Y12042500D01*
X15525099Y12042105D01*
X15464577Y12033196D01*
X15464574Y12033195D01*
X15458888Y12032358D01*
X15453728Y12029825D01*
X15453726Y12029824D01*
X15425440Y12015936D01*
X15354145Y11980932D01*
X15349824Y11976603D01*
X15349822Y11976602D01*
X15276028Y11902679D01*
X15271707Y11898350D01*
X15269020Y11892853D01*
X15223278Y11799274D01*
X15220464Y11793518D01*
X15210500Y11725218D01*
X15210500Y10483782D01*
X15210895Y10481099D01*
X15219804Y10420577D01*
X15219805Y10420574D01*
X15220642Y10414888D01*
X15272068Y10310145D01*
X15276397Y10305824D01*
X15276398Y10305822D01*
X15350319Y10232030D01*
X15354650Y10227707D01*
X15355806Y10227142D01*
X15383163Y10187338D01*
X15385521Y10168808D01*
X15385521Y9964481D01*
X15368208Y9916915D01*
X15324371Y9891605D01*
X15274521Y9900395D01*
X15245095Y9931868D01*
X15241293Y9939612D01*
X15199932Y10023855D01*
X15195603Y10028176D01*
X15195602Y10028178D01*
X15121679Y10101972D01*
X15121677Y10101973D01*
X15117350Y10106293D01*
X15043199Y10142539D01*
X15017682Y10155012D01*
X15017681Y10155012D01*
X15012518Y10157536D01*
X14944218Y10167500D01*
X14577782Y10167500D01*
X14575099Y10167105D01*
X14514577Y10158196D01*
X14514574Y10158195D01*
X14508888Y10157358D01*
X14503728Y10154825D01*
X14503726Y10154824D01*
X14478705Y10142539D01*
X14404145Y10105932D01*
X14399824Y10101603D01*
X14399822Y10101602D01*
X14326028Y10027679D01*
X14321707Y10023350D01*
X14319020Y10017853D01*
X14276990Y9931868D01*
X14270464Y9918518D01*
X14260500Y9850218D01*
X14260500Y9586500D01*
X14243187Y9538934D01*
X14199350Y9513624D01*
X14186500Y9512500D01*
X14024641Y9512500D01*
X13977075Y9529813D01*
X13965933Y9541452D01*
X13958556Y9551067D01*
X13909282Y9615282D01*
X13905431Y9618237D01*
X13787689Y9708584D01*
X13787685Y9708586D01*
X13783841Y9711536D01*
X13637762Y9772044D01*
X13632960Y9772676D01*
X13632957Y9772677D01*
X13485808Y9792049D01*
X13481000Y9792682D01*
X13476192Y9792049D01*
X13329043Y9772677D01*
X13329040Y9772676D01*
X13324238Y9772044D01*
X13178159Y9711536D01*
X13174315Y9708586D01*
X13174311Y9708584D01*
X13056569Y9618237D01*
X13052718Y9615282D01*
X13049763Y9611431D01*
X12959416Y9493689D01*
X12959414Y9493685D01*
X12956464Y9489841D01*
X12895956Y9343762D01*
X12895324Y9338960D01*
X12895323Y9338957D01*
X12884167Y9254217D01*
X12875318Y9187000D01*
X5401500Y9187000D01*
X5401499Y9311672D01*
X5401499Y9314102D01*
X5401182Y9316512D01*
X5395758Y9357718D01*
X5395757Y9357720D01*
X5395019Y9363330D01*
X5392627Y9368461D01*
X5347379Y9465493D01*
X5344644Y9471359D01*
X5260359Y9555644D01*
X5152330Y9606019D01*
X5103103Y9612500D01*
X4401290Y9612500D01*
X3698898Y9612499D01*
X3696492Y9612182D01*
X3696488Y9612182D01*
X3655282Y9606758D01*
X3655280Y9606757D01*
X3649670Y9606019D01*
X3644543Y9603628D01*
X3644542Y9603628D01*
X3644538Y9603626D01*
X3541641Y9555644D01*
X3457356Y9471359D01*
X3406981Y9363330D01*
X3400500Y9314103D01*
X200000Y9314103D01*
X200000Y11854103D01*
X3400500Y11854103D01*
X3400501Y11499898D01*
X3406981Y11450670D01*
X3457356Y11342641D01*
X3541641Y11258356D01*
X3649670Y11207981D01*
X3698897Y11201500D01*
X3788976Y11201500D01*
X4895521Y11201501D01*
X4943087Y11184188D01*
X4947847Y11179827D01*
X5436424Y10691249D01*
X5457816Y10645372D01*
X5457465Y10629267D01*
X5445318Y10537000D01*
X5445951Y10532192D01*
X5460568Y10421167D01*
X5465956Y10380238D01*
X5526464Y10234159D01*
X5529414Y10230315D01*
X5529416Y10230311D01*
X5596766Y10142539D01*
X5622718Y10108718D01*
X5626569Y10105763D01*
X5744311Y10015416D01*
X5744315Y10015414D01*
X5748159Y10012464D01*
X5894238Y9951956D01*
X5899040Y9951324D01*
X5899043Y9951323D01*
X6046192Y9931951D01*
X6051000Y9931318D01*
X6055808Y9931951D01*
X6202957Y9951323D01*
X6202960Y9951324D01*
X6207762Y9951956D01*
X6353841Y10012464D01*
X6357685Y10015414D01*
X6357689Y10015416D01*
X6475431Y10105763D01*
X6479282Y10108718D01*
X6505234Y10142539D01*
X6572584Y10230311D01*
X6572586Y10230315D01*
X6575536Y10234159D01*
X6636044Y10380238D01*
X6641433Y10421167D01*
X6656049Y10532192D01*
X6656682Y10537000D01*
X6655235Y10547995D01*
X6636677Y10688957D01*
X6636676Y10688960D01*
X6636044Y10693762D01*
X6575536Y10839841D01*
X6572586Y10843685D01*
X6572584Y10843689D01*
X6482237Y10961431D01*
X6479282Y10965282D01*
X6475431Y10968237D01*
X6357689Y11058584D01*
X6357685Y11058586D01*
X6353841Y11061536D01*
X6207762Y11122044D01*
X6202960Y11122676D01*
X6202957Y11122677D01*
X6055808Y11142049D01*
X6051000Y11142682D01*
X5958735Y11130535D01*
X5909317Y11141491D01*
X5896751Y11151576D01*
X5423174Y11625153D01*
X5401782Y11671029D01*
X5401500Y11677479D01*
X5401499Y11851672D01*
X5401499Y11854102D01*
X5401499Y11854103D01*
X9900500Y11854103D01*
X9900501Y11499898D01*
X9906981Y11450670D01*
X9957356Y11342641D01*
X10041641Y11258356D01*
X10149670Y11207981D01*
X10198897Y11201500D01*
X10900710Y11201500D01*
X11603102Y11201501D01*
X11605508Y11201818D01*
X11605512Y11201818D01*
X11646718Y11207242D01*
X11646720Y11207243D01*
X11652330Y11207981D01*
X11657457Y11210372D01*
X11657458Y11210372D01*
X11712037Y11235823D01*
X11760359Y11258356D01*
X11818934Y11316931D01*
X11864810Y11338323D01*
X11871260Y11338605D01*
X11932289Y11338605D01*
X11979855Y11321292D01*
X11990995Y11309655D01*
X12047648Y11235823D01*
X12051499Y11232868D01*
X12169241Y11142521D01*
X12169245Y11142519D01*
X12173089Y11139569D01*
X12319168Y11079061D01*
X12323970Y11078429D01*
X12323973Y11078428D01*
X12471122Y11059056D01*
X12475930Y11058423D01*
X12480738Y11059056D01*
X12627887Y11078428D01*
X12627890Y11078429D01*
X12632692Y11079061D01*
X12778771Y11139569D01*
X12782615Y11142519D01*
X12782619Y11142521D01*
X12900361Y11232868D01*
X12904212Y11235823D01*
X12907167Y11239674D01*
X12997514Y11357416D01*
X12997516Y11357420D01*
X13000466Y11361264D01*
X13060974Y11507343D01*
X13081612Y11664105D01*
X13079851Y11677479D01*
X13061607Y11816062D01*
X13061606Y11816065D01*
X13060974Y11820867D01*
X13000466Y11966946D01*
X12997516Y11970790D01*
X12997514Y11970794D01*
X12907167Y12088536D01*
X12904212Y12092387D01*
X12837436Y12143626D01*
X12782619Y12185689D01*
X12782615Y12185691D01*
X12778771Y12188641D01*
X12632692Y12249149D01*
X12627890Y12249781D01*
X12627887Y12249782D01*
X12480738Y12269154D01*
X12475930Y12269787D01*
X12471122Y12269154D01*
X12323973Y12249782D01*
X12323970Y12249781D01*
X12319168Y12249149D01*
X12173089Y12188641D01*
X12169245Y12185691D01*
X12169241Y12185689D01*
X12114424Y12143626D01*
X12047648Y12092387D01*
X11999787Y12030012D01*
X11990997Y12018557D01*
X11948306Y11991359D01*
X11932289Y11989605D01*
X11897026Y11989605D01*
X11849460Y12006918D01*
X11845034Y12011749D01*
X11844644Y12011359D01*
X11760359Y12095644D01*
X11652330Y12146019D01*
X11603103Y12152500D01*
X10901290Y12152500D01*
X10198898Y12152499D01*
X10196492Y12152182D01*
X10196488Y12152182D01*
X10155282Y12146758D01*
X10155280Y12146757D01*
X10149670Y12146019D01*
X10144543Y12143628D01*
X10144542Y12143628D01*
X10144538Y12143626D01*
X10041641Y12095644D01*
X9957356Y12011359D01*
X9906981Y11903330D01*
X9900500Y11854103D01*
X5401499Y11854103D01*
X5395019Y11903330D01*
X5392627Y11908461D01*
X5363560Y11970794D01*
X5344644Y12011359D01*
X5260359Y12095644D01*
X5152330Y12146019D01*
X5103103Y12152500D01*
X4401290Y12152500D01*
X3698898Y12152499D01*
X3696492Y12152182D01*
X3696488Y12152182D01*
X3655282Y12146758D01*
X3655280Y12146757D01*
X3649670Y12146019D01*
X3644543Y12143628D01*
X3644542Y12143628D01*
X3644538Y12143626D01*
X3541641Y12095644D01*
X3457356Y12011359D01*
X3406981Y11903330D01*
X3400500Y11854103D01*
X200000Y11854103D01*
X200000Y20272076D01*
X2510500Y20272076D01*
X2520698Y20157813D01*
X2573923Y19972194D01*
X2663385Y19801070D01*
X2665755Y19798164D01*
X2665757Y19798161D01*
X2768843Y19671766D01*
X2785429Y19651429D01*
X2788335Y19649059D01*
X2932161Y19531757D01*
X2932164Y19531755D01*
X2935070Y19529385D01*
X3106194Y19439923D01*
X3291813Y19386698D01*
X3295321Y19386385D01*
X3295326Y19386384D01*
X3404428Y19376647D01*
X3404430Y19376647D01*
X3406076Y19376500D01*
X3534764Y19376500D01*
X3569064Y19368071D01*
X3594099Y19354975D01*
X3594102Y19354974D01*
X3597319Y19353291D01*
X3600801Y19352269D01*
X3600805Y19352267D01*
X3631905Y19343136D01*
X3665440Y19333289D01*
X3737000Y19323000D01*
X7587783Y19323000D01*
X7598209Y19322262D01*
X10165747Y18956881D01*
X10165759Y18956880D01*
X10166381Y18956791D01*
X10175933Y18955774D01*
X10183593Y18954958D01*
X10183615Y18954956D01*
X10184226Y18954891D01*
X10194240Y18954182D01*
X10201299Y18953682D01*
X10201304Y18953682D01*
X10201978Y18953634D01*
X10202636Y18953611D01*
X10202650Y18953610D01*
X10211571Y18953295D01*
X10219919Y18953000D01*
X14685000Y18953000D01*
X14686971Y18953212D01*
X14686973Y18953212D01*
X14737022Y18958592D01*
X14737030Y18958593D01*
X14738990Y18958804D01*
X14762298Y18963874D01*
X14790373Y18969981D01*
X14790387Y18969984D01*
X14791332Y18970190D01*
X14817555Y18977384D01*
X14903676Y19026425D01*
X14929502Y19048803D01*
X14956098Y19071848D01*
X14956107Y19071857D01*
X14957332Y19072918D01*
X14975598Y19091848D01*
X14985099Y19101694D01*
X14985100Y19101696D01*
X14988773Y19105502D01*
X15005929Y19138300D01*
X15043317Y19172424D01*
X15093892Y19174532D01*
X15133989Y19143638D01*
X15145500Y19104001D01*
X15145500Y17670641D01*
X15128187Y17623075D01*
X15116550Y17611935D01*
X15042718Y17555282D01*
X15039763Y17551431D01*
X14949416Y17433689D01*
X14949414Y17433685D01*
X14946464Y17429841D01*
X14885956Y17283762D01*
X14865318Y17127000D01*
X14885956Y16970238D01*
X14946464Y16824159D01*
X14949414Y16820315D01*
X14949416Y16820311D01*
X15039763Y16702569D01*
X15042718Y16698718D01*
X15046569Y16695763D01*
X15164311Y16605416D01*
X15164315Y16605414D01*
X15168159Y16602464D01*
X15314238Y16541956D01*
X15319040Y16541324D01*
X15319043Y16541323D01*
X15466192Y16521951D01*
X15471000Y16521318D01*
X15475808Y16521951D01*
X15622957Y16541323D01*
X15622960Y16541324D01*
X15627762Y16541956D01*
X15773841Y16602464D01*
X15777685Y16605414D01*
X15777689Y16605416D01*
X15895431Y16695763D01*
X15899282Y16698718D01*
X15902237Y16702569D01*
X15992584Y16820311D01*
X15992586Y16820315D01*
X15995536Y16824159D01*
X16056044Y16970238D01*
X16076682Y17127000D01*
X16056044Y17283762D01*
X15995536Y17429841D01*
X15992586Y17433685D01*
X15992584Y17433689D01*
X15902237Y17551431D01*
X15899282Y17555282D01*
X15825451Y17611934D01*
X15798254Y17654624D01*
X15796500Y17670641D01*
X15796500Y18690017D01*
X15813813Y18737583D01*
X15857650Y18762893D01*
X15907500Y18754103D01*
X15940721Y18713363D01*
X17031297Y15433114D01*
X17035946Y15420292D01*
X17040897Y15407702D01*
X17085315Y15334324D01*
X17096259Y15321694D01*
X17130738Y15281902D01*
X17130747Y15281893D01*
X17131808Y15280668D01*
X17164392Y15249227D01*
X17169082Y15246774D01*
X17169083Y15246773D01*
X17173186Y15244627D01*
X17252209Y15203291D01*
X17320330Y15183289D01*
X17391890Y15173000D01*
X18975000Y15173000D01*
X18976971Y15173212D01*
X18976973Y15173212D01*
X19027022Y15178592D01*
X19027030Y15178593D01*
X19028990Y15178804D01*
X19053023Y15184032D01*
X19080373Y15189981D01*
X19080387Y15189984D01*
X19081332Y15190190D01*
X19107555Y15197384D01*
X19117929Y15203291D01*
X19139068Y15215329D01*
X19193676Y15246425D01*
X19234619Y15281902D01*
X19246098Y15291848D01*
X19246107Y15291857D01*
X19247332Y15292918D01*
X19278773Y15325502D01*
X19282148Y15331953D01*
X19323024Y15410098D01*
X19324709Y15413319D01*
X19344711Y15481440D01*
X19355000Y15553000D01*
X19355000Y17801000D01*
X19349196Y17854990D01*
X19337810Y17907332D01*
X19330616Y17933555D01*
X19281575Y18019676D01*
X19266165Y18037460D01*
X19236152Y18072098D01*
X19236143Y18072107D01*
X19235082Y18073332D01*
X19202498Y18104773D01*
X19114681Y18150709D01*
X19046560Y18170711D01*
X18975000Y18181000D01*
X17542463Y18181000D01*
X17494897Y18198313D01*
X17471804Y18233017D01*
X17199177Y19109317D01*
X17201577Y19159879D01*
X17235917Y19197069D01*
X17290684Y19202303D01*
X17355440Y19183289D01*
X17427000Y19173000D01*
X19102002Y19173000D01*
X19106062Y19172889D01*
X22733607Y18973573D01*
X22740564Y18973286D01*
X22747477Y18973096D01*
X22754455Y18973000D01*
X24695000Y18973000D01*
X24696971Y18973212D01*
X24696973Y18973212D01*
X24747022Y18978592D01*
X24747030Y18978593D01*
X24748990Y18978804D01*
X24772298Y18983874D01*
X24800373Y18989981D01*
X24800387Y18989984D01*
X24801332Y18990190D01*
X24827555Y18997384D01*
X24913676Y19046425D01*
X24945607Y19074093D01*
X24966098Y19091848D01*
X24966107Y19091857D01*
X24967332Y19092918D01*
X24975800Y19101694D01*
X24995099Y19121694D01*
X24995100Y19121696D01*
X24998773Y19125502D01*
X25005468Y19138300D01*
X25025992Y19177538D01*
X25044709Y19213319D01*
X25064711Y19281440D01*
X25075000Y19353000D01*
X25075000Y22511000D01*
X25072658Y22532786D01*
X25069408Y22563022D01*
X25069407Y22563030D01*
X25069196Y22564990D01*
X25057810Y22617332D01*
X25050616Y22643555D01*
X25001575Y22729676D01*
X24980632Y22753846D01*
X24956152Y22782098D01*
X24956143Y22782107D01*
X24955082Y22783332D01*
X24922498Y22814773D01*
X24891477Y22831000D01*
X24837902Y22859024D01*
X24837903Y22859024D01*
X24834681Y22860709D01*
X24766560Y22880711D01*
X24695000Y22891000D01*
X22673440Y22891000D01*
X22660957Y22890385D01*
X22649380Y22889815D01*
X22649363Y22889814D01*
X22648475Y22889770D01*
X22623831Y22887336D01*
X22609712Y22885236D01*
X22599989Y22883790D01*
X22599977Y22883788D01*
X22599117Y22883660D01*
X22307037Y22825408D01*
X22241994Y22812436D01*
X19083085Y22182429D01*
X19068612Y22181000D01*
X17427000Y22181000D01*
X17425029Y22180788D01*
X17425027Y22180788D01*
X17374978Y22175408D01*
X17374970Y22175407D01*
X17373010Y22175196D01*
X17349702Y22170126D01*
X17321627Y22164019D01*
X17321613Y22164016D01*
X17320668Y22163810D01*
X17294445Y22156616D01*
X17290426Y22154327D01*
X17290425Y22154327D01*
X17245618Y22128812D01*
X17195716Y22120319D01*
X17152031Y22145889D01*
X17135000Y22193117D01*
X17135000Y22201000D01*
X17129196Y22254990D01*
X17117810Y22307332D01*
X17110616Y22333555D01*
X17061575Y22419676D01*
X17025697Y22461082D01*
X17016152Y22472098D01*
X17016143Y22472107D01*
X17015082Y22473332D01*
X16982498Y22504773D01*
X16977142Y22507575D01*
X16897902Y22549024D01*
X16897903Y22549024D01*
X16894681Y22550709D01*
X16826560Y22570711D01*
X16755000Y22581000D01*
X16147000Y22581000D01*
X16147000Y22581168D01*
X16099340Y22595679D01*
X16071723Y22638100D01*
X16077834Y22688349D01*
X16091481Y22707155D01*
X16254152Y22869826D01*
X16300028Y22891218D01*
X16306478Y22891500D01*
X16895748Y22891500D01*
X16899317Y22892210D01*
X16899318Y22892210D01*
X16909705Y22894276D01*
X16954231Y22903133D01*
X17020552Y22947448D01*
X17032032Y22964629D01*
X17060816Y23007706D01*
X17060816Y23007707D01*
X17064867Y23013769D01*
X17076500Y23072252D01*
X17076500Y23611748D01*
X17064867Y23670231D01*
X17041632Y23705005D01*
X17024602Y23730491D01*
X17020552Y23736552D01*
X16954231Y23780867D01*
X16909705Y23789724D01*
X16899318Y23791790D01*
X16899317Y23791790D01*
X16895748Y23792500D01*
X16006252Y23792500D01*
X16002683Y23791790D01*
X16002682Y23791790D01*
X15992295Y23789724D01*
X15947769Y23780867D01*
X15881448Y23736552D01*
X15877398Y23730491D01*
X15860369Y23705005D01*
X15837133Y23670231D01*
X15825500Y23611748D01*
X15825500Y23392478D01*
X15808187Y23344912D01*
X15803826Y23340152D01*
X15253168Y22789494D01*
X15248409Y22785133D01*
X15217806Y22759455D01*
X15214568Y22753846D01*
X15203086Y22733958D01*
X15164310Y22701421D01*
X15113691Y22701421D01*
X15074914Y22733958D01*
X15065000Y22770958D01*
X15065000Y23531000D01*
X15059196Y23584990D01*
X15047810Y23637332D01*
X15040616Y23663555D01*
X15036815Y23670231D01*
X14993373Y23746518D01*
X14991575Y23749676D01*
X14963316Y23782289D01*
X14946152Y23802098D01*
X14946143Y23802107D01*
X14945082Y23803332D01*
X14912498Y23834773D01*
X14824681Y23880709D01*
X14756560Y23900711D01*
X14685000Y23911000D01*
X10236129Y23911000D01*
X10186453Y23906095D01*
X10138119Y23896456D01*
X10136379Y23895927D01*
X10136372Y23895925D01*
X10092110Y23882462D01*
X10092103Y23882459D01*
X10090359Y23881929D01*
X10088678Y23881231D01*
X10088676Y23881230D01*
X7573974Y22836661D01*
X7545587Y22831000D01*
X3737000Y22831000D01*
X3735029Y22830788D01*
X3735027Y22830788D01*
X3684978Y22825408D01*
X3684970Y22825407D01*
X3683010Y22825196D01*
X3659702Y22820126D01*
X3631627Y22814019D01*
X3631613Y22814016D01*
X3630668Y22813810D01*
X3629723Y22813551D01*
X3629720Y22813550D01*
X3620994Y22811156D01*
X3604445Y22806616D01*
X3600426Y22804327D01*
X3600425Y22804327D01*
X3570340Y22787195D01*
X3533722Y22777500D01*
X3406076Y22777500D01*
X3404430Y22777353D01*
X3404428Y22777353D01*
X3295326Y22767616D01*
X3295321Y22767615D01*
X3291813Y22767302D01*
X3106194Y22714077D01*
X3026927Y22672637D01*
X2962764Y22639093D01*
X2935070Y22624615D01*
X2932164Y22622245D01*
X2932161Y22622243D01*
X2859549Y22563022D01*
X2785429Y22502571D01*
X2783059Y22499665D01*
X2665757Y22355839D01*
X2665755Y22355836D01*
X2663385Y22352930D01*
X2661647Y22349605D01*
X2661646Y22349604D01*
X2653256Y22333555D01*
X2573923Y22181806D01*
X2520698Y21996187D01*
X2510500Y21881924D01*
X2510500Y20272076D01*
X200000Y20272076D01*
X200000Y22955877D01*
X201882Y22972461D01*
X201953Y22972770D01*
X205143Y22986642D01*
X203303Y22994772D01*
X203311Y22999196D01*
X202187Y23014788D01*
X215844Y23188316D01*
X217661Y23199785D01*
X263442Y23390472D01*
X267030Y23401515D01*
X342080Y23582704D01*
X347352Y23593051D01*
X360998Y23615318D01*
X449819Y23760261D01*
X456640Y23769650D01*
X584011Y23918781D01*
X592220Y23926990D01*
X741350Y24054360D01*
X750739Y24061181D01*
X844867Y24118863D01*
X917953Y24163650D01*
X928296Y24168920D01*
X1109485Y24243970D01*
X1120528Y24247558D01*
X1215872Y24270449D01*
X1311219Y24293340D01*
X1322681Y24295155D01*
X1495750Y24308777D01*
X1509845Y24307735D01*
X1515519Y24307725D01*
X1523642Y24305857D01*
X1538305Y24309175D01*
X1554637Y24311000D01*
X25495877Y24311000D01*
X25512461Y24309118D01*
G37*
%TD.AperFunction*%
%TD*%
%TA.AperFunction,Conductor*%
%TO.N,Net-(D2-Pad2)*%
G36*
X16823121Y22306998D02*
G01*
X16869614Y22253342D01*
X16881000Y22201000D01*
X16881000Y19277000D01*
X17301000Y17927000D01*
X18975000Y17927000D01*
X19043121Y17906998D01*
X19089614Y17853342D01*
X19101000Y17801000D01*
X19101000Y15553000D01*
X19080998Y15484879D01*
X19027342Y15438386D01*
X18975000Y15427000D01*
X17391890Y15427000D01*
X17323769Y15447002D01*
X17277276Y15500658D01*
X17272325Y15513248D01*
X16027435Y19257645D01*
X16021000Y19297397D01*
X16021000Y22201000D01*
X16041002Y22269121D01*
X16094658Y22315614D01*
X16147000Y22327000D01*
X16755000Y22327000D01*
X16823121Y22306998D01*
G37*
%TD.AperFunction*%
%TD*%
M02*
