%TF.GenerationSoftware,KiCad,Pcbnew,(6.0.1)*%
%TF.CreationDate,2023-01-05T10:23:13+08:00*%
%TF.ProjectId,Solenoid valve,536f6c65-6e6f-4696-9420-76616c76652e,rev?*%
%TF.SameCoordinates,Original*%
%TF.FileFunction,Soldermask,Top*%
%TF.FilePolarity,Negative*%
%FSLAX46Y46*%
G04 Gerber Fmt 4.6, Leading zero omitted, Abs format (unit mm)*
G04 Created by KiCad (PCBNEW (6.0.1)) date 2023-01-05 10:23:13*
%MOMM*%
%LPD*%
G01*
G04 APERTURE LIST*
G04 Aperture macros list*
%AMRoundRect*
0 Rectangle with rounded corners*
0 $1 Rounding radius*
0 $2 $3 $4 $5 $6 $7 $8 $9 X,Y pos of 4 corners*
0 Add a 4 corners polygon primitive as box body*
4,1,4,$2,$3,$4,$5,$6,$7,$8,$9,$2,$3,0*
0 Add four circle primitives for the rounded corners*
1,1,$1+$1,$2,$3*
1,1,$1+$1,$4,$5*
1,1,$1+$1,$6,$7*
1,1,$1+$1,$8,$9*
0 Add four rect primitives between the rounded corners*
20,1,$1+$1,$2,$3,$4,$5,0*
20,1,$1+$1,$4,$5,$6,$7,0*
20,1,$1+$1,$6,$7,$8,$9,0*
20,1,$1+$1,$8,$9,$2,$3,0*%
%AMFreePoly0*
4,1,17,2.675000,1.605000,1.875000,1.605000,1.875000,0.935000,2.675000,0.935000,2.675000,0.335000,1.875000,0.335000,1.875000,-0.335000,2.675000,-0.335000,2.675000,-0.935000,1.875000,-0.935000,1.875000,-1.605000,2.675000,-1.605000,2.675000,-2.205000,-1.875000,-2.205000,-1.875000,2.205000,2.675000,2.205000,2.675000,1.605000,2.675000,1.605000,$1*%
G04 Aperture macros list end*
%ADD10RoundRect,0.137500X-0.662500X-0.137500X0.662500X-0.137500X0.662500X0.137500X-0.662500X0.137500X0*%
%ADD11RoundRect,0.150000X0.150000X-0.587500X0.150000X0.587500X-0.150000X0.587500X-0.150000X-0.587500X0*%
%ADD12R,3.000000X3.000000*%
%ADD13C,3.000000*%
%ADD14FreePoly0,180.000000*%
%ADD15R,0.850000X0.500000*%
%ADD16RoundRect,0.200000X0.200000X0.275000X-0.200000X0.275000X-0.200000X-0.275000X0.200000X-0.275000X0*%
%ADD17RoundRect,0.218750X0.218750X0.256250X-0.218750X0.256250X-0.218750X-0.256250X0.218750X-0.256250X0*%
%ADD18RoundRect,0.750000X0.750000X-0.750000X0.750000X0.750000X-0.750000X0.750000X-0.750000X-0.750000X0*%
%ADD19RoundRect,0.150000X-0.150000X-0.700000X0.150000X-0.700000X0.150000X0.700000X-0.150000X0.700000X0*%
%ADD20RoundRect,0.250000X-0.250000X-1.100000X0.250000X-1.100000X0.250000X1.100000X-0.250000X1.100000X0*%
G04 APERTURE END LIST*
D10*
%TO.C,U1*%
X5271000Y10127000D03*
X5271000Y7587000D03*
X11771000Y7587000D03*
X11771000Y10127000D03*
%TD*%
D11*
%TO.C,Q1*%
X14761000Y9229500D03*
X16661000Y9229500D03*
X15711000Y11104500D03*
%TD*%
D12*
%TO.C,J2*%
X23111000Y19707000D03*
D13*
X23111000Y14707000D03*
%TD*%
D14*
%TO.C,Q2*%
X12901000Y20337000D03*
D15*
X16451000Y18432000D03*
X16451000Y19702000D03*
X16451000Y20972000D03*
X16451000Y22242000D03*
%TD*%
D16*
%TO.C,R11*%
X21081000Y9547000D03*
X19431000Y9547000D03*
%TD*%
D17*
%TO.C,D1*%
X24063500Y9547000D03*
X22488500Y9547000D03*
%TD*%
D18*
%TO.C,J3*%
X4211000Y19977000D03*
D13*
X4211000Y14977000D03*
%TD*%
D19*
%TO.C,J1*%
X7126000Y5287000D03*
X8376000Y5287000D03*
D20*
X5276000Y2087000D03*
X10226000Y2087000D03*
%TD*%
G36*
X14713121Y21436998D02*
G01*
X14759614Y21383342D01*
X14771000Y21331000D01*
X14771000Y18633000D01*
X14750998Y18564879D01*
X14697342Y18518386D01*
X14645000Y18507000D01*
X3737000Y18507000D01*
X3668879Y18527002D01*
X3622386Y18580658D01*
X3611000Y18633000D01*
X3611000Y21331000D01*
X3631002Y21399121D01*
X3684658Y21445614D01*
X3737000Y21457000D01*
X14645000Y21457000D01*
X14713121Y21436998D01*
G37*
G36*
X24553121Y21236998D02*
G01*
X24599614Y21183342D01*
X24611000Y21131000D01*
X24611000Y18283000D01*
X24590998Y18214879D01*
X24537342Y18168386D01*
X24485000Y18157000D01*
X16137000Y18157000D01*
X16068879Y18177002D01*
X16022386Y18230658D01*
X16011000Y18283000D01*
X16011000Y21131000D01*
X16031002Y21199121D01*
X16084658Y21245614D01*
X16137000Y21257000D01*
X24485000Y21257000D01*
X24553121Y21236998D01*
G37*
M02*
