%TF.GenerationSoftware,KiCad,Pcbnew,(6.0.1)*%
%TF.CreationDate,2023-01-05T10:23:13+08:00*%
%TF.ProjectId,Solenoid valve,536f6c65-6e6f-4696-9420-76616c76652e,rev?*%
%TF.SameCoordinates,Original*%
%TF.FileFunction,Legend,Top*%
%TF.FilePolarity,Positive*%
%FSLAX46Y46*%
G04 Gerber Fmt 4.6, Leading zero omitted, Abs format (unit mm)*
G04 Created by KiCad (PCBNEW (6.0.1)) date 2023-01-05 10:23:13*
%MOMM*%
%LPD*%
G01*
G04 APERTURE LIST*
%ADD10C,0.150000*%
%ADD11C,0.100000*%
%ADD12C,0.120000*%
G04 APERTURE END LIST*
D10*
X1587190Y11004620D02*
X1587190Y12004620D01*
X2063380Y11004620D02*
X2063380Y12004620D01*
X2634809Y11004620D01*
X2634809Y12004620D01*
D11*
X20103857Y8180810D02*
X19818142Y8180810D01*
X19961000Y8180810D02*
X19961000Y8680810D01*
X19913380Y8609381D01*
X19865761Y8561762D01*
X19818142Y8537953D01*
X20318142Y8180810D02*
X20318142Y8680810D01*
X20603857Y8180810D02*
X20389571Y8466524D01*
X20603857Y8680810D02*
X20318142Y8395096D01*
D10*
X23761000Y11604620D02*
X23951476Y11604620D01*
X24046714Y11557000D01*
X24141952Y11461762D01*
X24189571Y11271286D01*
X24189571Y10937953D01*
X24141952Y10747477D01*
X24046714Y10652239D01*
X23951476Y10604620D01*
X23761000Y10604620D01*
X23665761Y10652239D01*
X23570523Y10747477D01*
X23522904Y10937953D01*
X23522904Y11271286D01*
X23570523Y11461762D01*
X23665761Y11557000D01*
X23761000Y11604620D01*
X24618142Y11604620D02*
X24618142Y10795096D01*
X24665761Y10699858D01*
X24713380Y10652239D01*
X24808619Y10604620D01*
X24999095Y10604620D01*
X25094333Y10652239D01*
X25141952Y10699858D01*
X25189571Y10795096D01*
X25189571Y11604620D01*
X25522904Y11604620D02*
X26094333Y11604620D01*
X25808619Y10604620D02*
X25808619Y11604620D01*
X2372904Y928429D02*
X2706238Y928429D01*
X2849095Y404620D02*
X2372904Y404620D01*
X2372904Y1404620D01*
X2849095Y1404620D01*
X3277666Y404620D02*
X3277666Y1404620D01*
X3849095Y404620D01*
X3849095Y1404620D01*
D12*
%TO.C,U1*%
X8521000Y10817000D02*
X10796000Y10817000D01*
X8521000Y10817000D02*
X4471000Y10817000D01*
X8521000Y6897000D02*
X10796000Y6897000D01*
X8521000Y6897000D02*
X6246000Y6897000D01*
%TO.C,Q1*%
X17271000Y10167000D02*
X17271000Y9517000D01*
X14151000Y10167000D02*
X14151000Y8492000D01*
X17271000Y10167000D02*
X17271000Y10817000D01*
X14151000Y10167000D02*
X14151000Y10817000D01*
%TO.C,J2*%
X24521000Y22417000D02*
X21701000Y22417000D01*
X24521000Y22417000D02*
X25821000Y20717000D01*
X20401000Y20717000D02*
X20401000Y11997000D01*
X25821000Y11997000D02*
X20401000Y11997000D01*
X25821000Y20717000D02*
X25821000Y11997000D01*
X21701000Y22417000D02*
X20401000Y20717000D01*
%TO.C,Q2*%
X10491000Y23022000D02*
X16611000Y23022000D01*
X10491000Y17952000D02*
X10491000Y17652000D01*
X10491000Y17652000D02*
X16611000Y17652000D01*
X16611000Y22672000D02*
X16611000Y23022000D01*
X10491000Y22722000D02*
X10491000Y23022000D01*
%TO.C,R11*%
X20493258Y9024500D02*
X20018742Y9024500D01*
X20493258Y10069500D02*
X20018742Y10069500D01*
%TO.C,D1*%
X24761000Y10282000D02*
X22476000Y10282000D01*
X22476000Y8812000D02*
X24761000Y8812000D01*
X24761000Y8812000D02*
X24761000Y10282000D01*
%TO.C,J3*%
X5621000Y12267000D02*
X6921000Y13967000D01*
X1501000Y22687000D02*
X6921000Y22687000D01*
X1501000Y13967000D02*
X1501000Y22687000D01*
X2801000Y12267000D02*
X5621000Y12267000D01*
X6921000Y13967000D02*
X6921000Y22687000D01*
X2801000Y12267000D02*
X1501000Y13967000D01*
%TO.C,J1*%
X6566000Y5147000D02*
X6566000Y6137000D01*
X10736000Y3697000D02*
X10736000Y5147000D01*
X6036000Y877000D02*
X9466000Y877000D01*
X4766000Y5147000D02*
X6566000Y5147000D01*
X4766000Y3697000D02*
X4766000Y5147000D01*
X10736000Y5147000D02*
X8936000Y5147000D01*
%TD*%
M02*
