M48
; DRILL file {KiCad (6.0.1)} date Thu Jan  5 10:23:13 2023
; FORMAT={-:-/ absolute / metric / decimal}
; #@! TF.CreationDate,2023-01-05T10:23:13+08:00
; #@! TF.GenerationSoftware,Kicad,Pcbnew,(6.0.1)
; #@! TF.FileFunction,Plated,1,2,PTH
FMAT,2
METRIC
; #@! TA.AperFunction,Plated,PTH,ViaDrill
T1C0.400
; #@! TA.AperFunction,Plated,PTH,ComponentDrill
T2C1.800
%
G90
G05
T1
X6.611Y20.357
X6.611Y19.357
X8.111Y20.357
X8.111Y19.357
X9.611Y20.357
X9.611Y19.357
X10.011Y6.107
X11.111Y21.857
X11.111Y20.857
X11.111Y19.857
X11.111Y18.857
X12.111Y21.857
X12.111Y20.857
X12.111Y19.857
X12.111Y18.857
X12.223Y11.34
X13.111Y21.857
X13.111Y20.857
X13.111Y19.857
X13.111Y18.857
X13.481Y9.187
X14.111Y21.857
X14.111Y20.857
X14.111Y19.857
X14.111Y18.857
X15.711Y8.823
X16.771Y15.337
X17.611Y20.357
X17.611Y19.357
X17.921Y9.547
X19.111Y20.357
X19.111Y19.357
X20.611Y20.357
X20.611Y19.357
X21.111Y6.357
X22.111Y4.857
X22.611Y6.357
X23.611Y4.857
T2
X4.211Y19.977
X4.211Y14.977
X23.111Y19.707
X23.111Y14.707
T0
M30
