%TF.GenerationSoftware,KiCad,Pcbnew,(6.0.1)*%
%TF.CreationDate,2023-03-26T21:04:12+08:00*%
%TF.ProjectId,Solenoid valve,536f6c65-6e6f-4696-9420-76616c76652e,rev?*%
%TF.SameCoordinates,Original*%
%TF.FileFunction,Copper,L2,Bot*%
%TF.FilePolarity,Positive*%
%FSLAX46Y46*%
G04 Gerber Fmt 4.6, Leading zero omitted, Abs format (unit mm)*
G04 Created by KiCad (PCBNEW (6.0.1)) date 2023-03-26 21:04:12*
%MOMM*%
%LPD*%
G01*
G04 APERTURE LIST*
G04 Aperture macros list*
%AMRoundRect*
0 Rectangle with rounded corners*
0 $1 Rounding radius*
0 $2 $3 $4 $5 $6 $7 $8 $9 X,Y pos of 4 corners*
0 Add a 4 corners polygon primitive as box body*
4,1,4,$2,$3,$4,$5,$6,$7,$8,$9,$2,$3,0*
0 Add four circle primitives for the rounded corners*
1,1,$1+$1,$2,$3*
1,1,$1+$1,$4,$5*
1,1,$1+$1,$6,$7*
1,1,$1+$1,$8,$9*
0 Add four rect primitives between the rounded corners*
20,1,$1+$1,$2,$3,$4,$5,0*
20,1,$1+$1,$4,$5,$6,$7,0*
20,1,$1+$1,$6,$7,$8,$9,0*
20,1,$1+$1,$8,$9,$2,$3,0*%
G04 Aperture macros list end*
%TA.AperFunction,SMDPad,CuDef*%
%ADD10R,1.800000X2.500000*%
%TD*%
%TA.AperFunction,ComponentPad*%
%ADD11R,3.000000X3.000000*%
%TD*%
%TA.AperFunction,ComponentPad*%
%ADD12C,3.000000*%
%TD*%
%TA.AperFunction,ComponentPad*%
%ADD13RoundRect,0.750000X0.750000X-0.750000X0.750000X0.750000X-0.750000X0.750000X-0.750000X-0.750000X0*%
%TD*%
%TA.AperFunction,SMDPad,CuDef*%
%ADD14RoundRect,0.200000X-0.275000X0.200000X-0.275000X-0.200000X0.275000X-0.200000X0.275000X0.200000X0*%
%TD*%
%TA.AperFunction,SMDPad,CuDef*%
%ADD15RoundRect,0.225000X0.250000X-0.225000X0.250000X0.225000X-0.250000X0.225000X-0.250000X-0.225000X0*%
%TD*%
%TA.AperFunction,SMDPad,CuDef*%
%ADD16RoundRect,0.200000X0.275000X-0.200000X0.275000X0.200000X-0.275000X0.200000X-0.275000X-0.200000X0*%
%TD*%
%TA.AperFunction,SMDPad,CuDef*%
%ADD17RoundRect,0.200000X-0.200000X-0.275000X0.200000X-0.275000X0.200000X0.275000X-0.200000X0.275000X0*%
%TD*%
%TA.AperFunction,SMDPad,CuDef*%
%ADD18RoundRect,0.200000X0.200000X0.275000X-0.200000X0.275000X-0.200000X-0.275000X0.200000X-0.275000X0*%
%TD*%
%TA.AperFunction,SMDPad,CuDef*%
%ADD19RoundRect,0.075000X0.075000X-0.650000X0.075000X0.650000X-0.075000X0.650000X-0.075000X-0.650000X0*%
%TD*%
%TA.AperFunction,ViaPad*%
%ADD20C,0.800000*%
%TD*%
%TA.AperFunction,Conductor*%
%ADD21C,0.250000*%
%TD*%
%TA.AperFunction,Conductor*%
%ADD22C,0.500000*%
%TD*%
%TA.AperFunction,Conductor*%
%ADD23C,0.800000*%
%TD*%
%TA.AperFunction,Conductor*%
%ADD24C,0.320000*%
%TD*%
G04 APERTURE END LIST*
D10*
%TO.P,D2,2,A*%
%TO.N,Net-(D2-Pad2)*%
X18201000Y16677000D03*
%TO.P,D2,1,K*%
%TO.N,Net-(D2-Pad1)*%
X18201000Y20677000D03*
%TD*%
D11*
%TO.P,J2,1,Pin_2*%
%TO.N,GND*%
X23111000Y15927000D03*
D12*
%TO.P,J2,2,Pin_1*%
%TO.N,Net-(D2-Pad1)*%
X23111000Y20927000D03*
%TD*%
%TO.P,J3,2,Pin_2*%
%TO.N,GND*%
X4211000Y16077000D03*
D13*
%TO.P,J3,1,Pin_1*%
%TO.N,+24V*%
X4211000Y21077000D03*
%TD*%
D14*
%TO.P,R8,1*%
%TO.N,Net-(R7-Pad1)*%
X12551000Y3382000D03*
%TO.P,R8,2*%
%TO.N,+24V*%
X12551000Y1732000D03*
%TD*%
D15*
%TO.P,C2,1*%
%TO.N,Net-(C2-Pad1)*%
X13071000Y12952000D03*
%TO.P,C2,2*%
%TO.N,GND*%
X13071000Y14502000D03*
%TD*%
D16*
%TO.P,R2,1*%
%TO.N,Net-(C1-Pad1)*%
X11311000Y10657000D03*
%TO.P,R2,2*%
%TO.N,Net-(R1-Pad1)*%
X11311000Y12307000D03*
%TD*%
%TO.P,R1,1*%
%TO.N,Net-(R1-Pad1)*%
X11311000Y13687000D03*
%TO.P,R1,2*%
%TO.N,+24V*%
X11311000Y15337000D03*
%TD*%
%TO.P,R6,1*%
%TO.N,GND*%
X14071000Y1742000D03*
%TO.P,R6,2*%
%TO.N,Net-(R6-Pad2)*%
X14071000Y3392000D03*
%TD*%
D17*
%TO.P,R10,1*%
%TO.N,+24V*%
X15516000Y3317000D03*
%TO.P,R10,2*%
%TO.N,Net-(R10-Pad2)*%
X17166000Y3317000D03*
%TD*%
D18*
%TO.P,R4,1*%
%TO.N,Net-(Q1-Pad3)*%
X9586000Y3377000D03*
%TO.P,R4,2*%
%TO.N,+24V*%
X7936000Y3377000D03*
%TD*%
D17*
%TO.P,R12,1*%
%TO.N,Net-(R12-Pad1)*%
X7126000Y8077000D03*
%TO.P,R12,2*%
%TO.N,Net-(J1-Pad2)*%
X8776000Y8077000D03*
%TD*%
D14*
%TO.P,R7,1*%
%TO.N,Net-(R7-Pad1)*%
X16891000Y8712000D03*
%TO.P,R7,2*%
%TO.N,Net-(R6-Pad2)*%
X16891000Y7062000D03*
%TD*%
D16*
%TO.P,R9,1*%
%TO.N,Net-(R9-Pad1)*%
X14591000Y12902000D03*
%TO.P,R9,2*%
%TO.N,+24V*%
X14591000Y14552000D03*
%TD*%
%TO.P,R5,1*%
%TO.N,GND*%
X11031000Y1732000D03*
%TO.P,R5,2*%
%TO.N,Net-(Q1-Pad3)*%
X11031000Y3382000D03*
%TD*%
D15*
%TO.P,C1,1*%
%TO.N,Net-(C1-Pad1)*%
X9791000Y10707000D03*
%TO.P,C1,2*%
%TO.N,GND*%
X9791000Y12257000D03*
%TD*%
D19*
%TO.P,U2,1,SENSE*%
%TO.N,Net-(R10-Pad2)*%
X15081000Y6197000D03*
%TO.P,U2,2,Vin*%
%TO.N,+24V*%
X14581000Y6197000D03*
%TO.P,U2,3,OVP*%
%TO.N,Net-(R6-Pad2)*%
X14081000Y6197000D03*
%TO.P,U2,4,UVLO*%
%TO.N,Net-(R7-Pad1)*%
X13581000Y6197000D03*
%TO.P,U2,5,EN*%
%TO.N,Net-(Q1-Pad3)*%
X13081000Y6197000D03*
%TO.P,U2,6,GND*%
%TO.N,GND*%
X13081000Y10597000D03*
%TO.P,U2,7,TIMER*%
%TO.N,Net-(C2-Pad1)*%
X13581000Y10597000D03*
%TO.P,U2,8,nPGD*%
%TO.N,Net-(R9-Pad1)*%
X14081000Y10597000D03*
%TO.P,U2,9,OUT*%
%TO.N,Net-(D2-Pad2)*%
X14581000Y10597000D03*
%TO.P,U2,10,GATE*%
%TO.N,Net-(Q2-Pad4)*%
X15081000Y10597000D03*
%TD*%
D20*
%TO.N,Net-(D2-Pad2)*%
X18201000Y16677000D03*
X17111000Y17517000D03*
X16451000Y19537000D03*
X16451000Y20827000D03*
X16461000Y21877000D03*
X18200520Y9547480D03*
%TO.N,Net-(Q2-Pad4)*%
X15471000Y17127000D03*
%TO.N,GND*%
X10511000Y7427000D03*
%TO.N,Net-(R12-Pad1)*%
X6051000Y10537000D03*
%TO.N,Net-(J1-Pad2)*%
X8771000Y6967000D03*
%TO.N,+24V*%
X9611000Y20457000D03*
X12111000Y20957000D03*
X8111000Y20457000D03*
X14111000Y21957000D03*
X11111000Y20957000D03*
X11111000Y19957000D03*
X13111000Y21957000D03*
X14111000Y19957000D03*
X14111000Y22957000D03*
X13111000Y22957000D03*
X12111000Y22957000D03*
X13111000Y20957000D03*
X12111000Y19957000D03*
X8111000Y21457000D03*
X11111000Y21957000D03*
X6611000Y20457000D03*
X9611000Y21457000D03*
X13111000Y19957000D03*
X6611000Y21457000D03*
X11111000Y22957000D03*
X14111000Y20957000D03*
X12111000Y21957000D03*
%TO.N,Net-(R1-Pad1)*%
X12475930Y11664105D03*
%TO.N,GND*%
X19381000Y6967000D03*
X21881000Y5467000D03*
X20881000Y6967000D03*
X20381000Y5467000D03*
%TO.N,Net-(C1-Pad1)*%
X13481000Y9187000D03*
%TO.N,Net-(Q1-Pad3)*%
X15711021Y8822980D03*
%TD*%
D21*
%TO.N,Net-(D2-Pad2)*%
X18201000Y9547960D02*
X18200520Y9547480D01*
D22*
X18201000Y16677000D02*
X18201000Y9547960D01*
D21*
X14840514Y9547480D02*
X18200520Y9547480D01*
X14581000Y9806994D02*
X14840514Y9547480D01*
X14581000Y10597000D02*
X14581000Y9806994D01*
%TO.N,Net-(Q2-Pad4)*%
X16091000Y16507000D02*
X15471000Y17127000D01*
X16091000Y13185217D02*
X16091000Y16507000D01*
X15081000Y10597000D02*
X15081000Y12175217D01*
X15081000Y12175217D02*
X16091000Y13185217D01*
D23*
%TO.N,+24V*%
X11311000Y19757000D02*
X11111000Y19957000D01*
X11311000Y18657000D02*
X11311000Y19757000D01*
D21*
%TO.N,Net-(R12-Pad1)*%
X7126000Y9462000D02*
X6051000Y10537000D01*
X7126000Y8077000D02*
X7126000Y9462000D01*
%TO.N,Net-(R1-Pad1)*%
X11953895Y11664105D02*
X11311000Y12307000D01*
X12475930Y11664105D02*
X11953895Y11664105D01*
D23*
%TO.N,+24V*%
X11311000Y15337000D02*
X11311000Y18657000D01*
D24*
X7936000Y3377000D02*
X7936000Y11962000D01*
D21*
X11311000Y18657000D02*
X11111000Y18857000D01*
D24*
X7936000Y11962000D02*
X11311000Y15337000D01*
D21*
X15516000Y3317000D02*
X14866480Y2667480D01*
X14581000Y6197000D02*
X14581000Y4252000D01*
X14866480Y2667480D02*
X13486480Y2667480D01*
X14581000Y4252000D02*
X15516000Y3317000D01*
D24*
X8770520Y2542480D02*
X11740520Y2542480D01*
X11740520Y2542480D02*
X12551000Y1732000D01*
X7936000Y3377000D02*
X8770520Y2542480D01*
X13806000Y15337000D02*
X14591000Y14552000D01*
D21*
X13486480Y2667480D02*
X12551000Y1732000D01*
D24*
X11311000Y15337000D02*
X13806000Y15337000D01*
D21*
%TO.N,Net-(R6-Pad2)*%
X14071000Y6187000D02*
X14081000Y6197000D01*
X16696000Y7257000D02*
X16891000Y7062000D01*
X14071000Y3392000D02*
X14071000Y6187000D01*
X14261000Y7257000D02*
X16696000Y7257000D01*
X14081000Y7077000D02*
X14261000Y7257000D01*
X14081000Y6197000D02*
X14081000Y7077000D01*
%TO.N,Net-(R1-Pad1)*%
X11311000Y12307000D02*
X11311000Y13687000D01*
%TO.N,Net-(J1-Pad2)*%
X8771000Y6967000D02*
X8771000Y8072000D01*
X8771000Y8072000D02*
X8776000Y8077000D01*
%TO.N,Net-(C1-Pad1)*%
X11261000Y10707000D02*
X11311000Y10657000D01*
X9791000Y10707000D02*
X11261000Y10707000D01*
X12832783Y9187000D02*
X13481000Y9187000D01*
X11362783Y10657000D02*
X12832783Y9187000D01*
X11311000Y10657000D02*
X11362783Y10657000D01*
%TO.N,Net-(C2-Pad1)*%
X13581000Y10597000D02*
X13581000Y12442000D01*
X13581000Y12442000D02*
X13071000Y12952000D01*
%TO.N,Net-(Q1-Pad3)*%
X11026000Y3377000D02*
X11031000Y3382000D01*
X13781103Y8462489D02*
X14141594Y8822980D01*
X9586000Y3377000D02*
X11026000Y3377000D01*
X14141594Y8822980D02*
X15711021Y8822980D01*
X13081000Y5432000D02*
X13081000Y6197000D01*
X13081000Y7767000D02*
X13776489Y8462489D01*
X11031000Y3382000D02*
X13081000Y5432000D01*
X13081000Y6197000D02*
X13081000Y7767000D01*
X13776489Y8462489D02*
X13781103Y8462489D01*
%TO.N,Net-(R9-Pad1)*%
X14081000Y10597000D02*
X14081000Y12392000D01*
X14081000Y12392000D02*
X14591000Y12902000D01*
%TO.N,Net-(R10-Pad2)*%
X17166000Y3317000D02*
X17120034Y3317000D01*
X15081000Y5356034D02*
X15081000Y6197000D01*
X17120034Y3317000D02*
X15081000Y5356034D01*
%TO.N,Net-(R7-Pad1)*%
X12551000Y3382000D02*
X13581000Y4412000D01*
X13581000Y4412000D02*
X13581000Y6197000D01*
X16277469Y8098469D02*
X16891000Y8712000D01*
X14292469Y8098469D02*
X16277469Y8098469D01*
X13581000Y6197000D02*
X13581000Y7387000D01*
X13581000Y7387000D02*
X14292469Y8098469D01*
%TD*%
%TA.AperFunction,Conductor*%
%TO.N,+24V*%
G36*
X14753121Y23636998D02*
G01*
X14799614Y23583342D01*
X14811000Y23531000D01*
X14811000Y19333000D01*
X14790998Y19264879D01*
X14737342Y19218386D01*
X14685000Y19207000D01*
X10219919Y19207000D01*
X10202167Y19208257D01*
X7615408Y19576373D01*
X7615404Y19576373D01*
X7611000Y19577000D01*
X3737000Y19577000D01*
X3668879Y19597002D01*
X3622386Y19650658D01*
X3611000Y19703000D01*
X3611000Y22451000D01*
X3631002Y22519121D01*
X3684658Y22565614D01*
X3737000Y22577000D01*
X7611000Y22577000D01*
X7622487Y22581772D01*
X7622489Y22581772D01*
X10187795Y23647361D01*
X10236129Y23657000D01*
X14685000Y23657000D01*
X14753121Y23636998D01*
G37*
%TD.AperFunction*%
%TD*%
%TA.AperFunction,Conductor*%
%TO.N,Net-(D2-Pad1)*%
G36*
X24763121Y22616998D02*
G01*
X24809614Y22563342D01*
X24821000Y22511000D01*
X24821000Y19353000D01*
X24800998Y19284879D01*
X24747342Y19238386D01*
X24695000Y19227000D01*
X22754455Y19227000D01*
X22747542Y19227190D01*
X19112717Y19426906D01*
X19112705Y19426906D01*
X19111000Y19427000D01*
X17427000Y19427000D01*
X17358879Y19447002D01*
X17312386Y19500658D01*
X17301000Y19553000D01*
X17301000Y21801000D01*
X17321002Y21869121D01*
X17374658Y21915614D01*
X17427000Y21927000D01*
X19101000Y21927000D01*
X22291673Y22563342D01*
X22648796Y22634566D01*
X22673440Y22637000D01*
X24695000Y22637000D01*
X24763121Y22616998D01*
G37*
%TD.AperFunction*%
%TD*%
%TA.AperFunction,Conductor*%
%TO.N,GND*%
G36*
X25512461Y24309118D02*
G01*
X25526642Y24305857D01*
X25534772Y24307697D01*
X25539196Y24307689D01*
X25554788Y24308813D01*
X25643853Y24301803D01*
X25728319Y24295155D01*
X25739781Y24293340D01*
X25835128Y24270449D01*
X25930472Y24247558D01*
X25941515Y24243970D01*
X26122704Y24168920D01*
X26133047Y24163650D01*
X26206133Y24118863D01*
X26300261Y24061181D01*
X26309650Y24054360D01*
X26458780Y23926990D01*
X26466989Y23918781D01*
X26594360Y23769650D01*
X26601181Y23760261D01*
X26703648Y23593051D01*
X26708920Y23582704D01*
X26783970Y23401515D01*
X26787558Y23390472D01*
X26833339Y23199785D01*
X26835156Y23188316D01*
X26848777Y23015250D01*
X26847735Y23001155D01*
X26847725Y22995481D01*
X26845857Y22987358D01*
X26847697Y22979227D01*
X26849175Y22972694D01*
X26851000Y22956363D01*
X26851000Y1555123D01*
X26849118Y1538539D01*
X26845857Y1524358D01*
X26847697Y1516228D01*
X26847689Y1511804D01*
X26848813Y1496212D01*
X26835156Y1322684D01*
X26833339Y1311215D01*
X26787558Y1120528D01*
X26783970Y1109485D01*
X26708920Y928296D01*
X26703650Y917953D01*
X26635042Y805995D01*
X26601181Y750739D01*
X26594360Y741350D01*
X26500317Y631240D01*
X26466990Y592220D01*
X26458781Y584011D01*
X26309650Y456640D01*
X26300261Y449819D01*
X26133047Y347350D01*
X26122704Y342080D01*
X25941515Y267030D01*
X25930472Y263442D01*
X25835129Y240552D01*
X25739781Y217660D01*
X25728319Y215845D01*
X25555250Y202223D01*
X25541155Y203265D01*
X25535481Y203275D01*
X25527358Y205143D01*
X25515111Y202372D01*
X25512694Y201825D01*
X25496363Y200000D01*
X1555123Y200000D01*
X1538539Y201882D01*
X1538230Y201953D01*
X1524358Y205143D01*
X1516228Y203303D01*
X1511804Y203311D01*
X1496212Y202187D01*
X1407147Y209197D01*
X1322681Y215845D01*
X1311219Y217660D01*
X1215871Y240552D01*
X1120528Y263442D01*
X1109485Y267030D01*
X928296Y342080D01*
X917953Y347350D01*
X750739Y449819D01*
X741350Y456640D01*
X592219Y584011D01*
X584010Y592220D01*
X550683Y631240D01*
X456640Y741350D01*
X449819Y750739D01*
X415958Y805995D01*
X347350Y917953D01*
X342080Y928296D01*
X267030Y1109485D01*
X263442Y1120528D01*
X217661Y1311215D01*
X215844Y1322684D01*
X202223Y1495750D01*
X203265Y1509845D01*
X203275Y1515519D01*
X205143Y1523642D01*
X201825Y1538306D01*
X200000Y1554637D01*
X200000Y2147000D01*
X605551Y2147000D01*
X605779Y2144103D01*
X623468Y1919350D01*
X625317Y1895852D01*
X684127Y1650889D01*
X685240Y1648202D01*
X736983Y1523284D01*
X780534Y1418141D01*
X782055Y1415659D01*
X782057Y1415655D01*
X866399Y1278022D01*
X912164Y1203341D01*
X914056Y1201126D01*
X914058Y1201123D01*
X1054188Y1037052D01*
X1075776Y1011776D01*
X1077990Y1009885D01*
X1257417Y856640D01*
X1267341Y848164D01*
X1269828Y846640D01*
X1479655Y718057D01*
X1479659Y718055D01*
X1482141Y716534D01*
X1714889Y620127D01*
X1959852Y561317D01*
X1962739Y561090D01*
X1962744Y561089D01*
X2085363Y551439D01*
X2148118Y546500D01*
X2273882Y546500D01*
X2336637Y551439D01*
X2459256Y561089D01*
X2459261Y561090D01*
X2462148Y561317D01*
X2707111Y620127D01*
X2939859Y716534D01*
X2942341Y718055D01*
X2942345Y718057D01*
X3152172Y846640D01*
X3154659Y848164D01*
X3164584Y856640D01*
X3344010Y1009885D01*
X3346224Y1011776D01*
X3367812Y1037052D01*
X3507942Y1201123D01*
X3507944Y1201126D01*
X3509836Y1203341D01*
X3555601Y1278022D01*
X3639943Y1415655D01*
X3639945Y1415659D01*
X3641466Y1418141D01*
X3685018Y1523284D01*
X3736760Y1648202D01*
X3737873Y1650889D01*
X3796683Y1895852D01*
X3798533Y1919350D01*
X3816221Y2144103D01*
X3816449Y2147000D01*
X3815059Y2164667D01*
X3796911Y2395256D01*
X3796910Y2395261D01*
X3796683Y2398148D01*
X3737873Y2643111D01*
X3706439Y2719000D01*
X3642582Y2873165D01*
X3642581Y2873166D01*
X3641466Y2875859D01*
X3634278Y2887590D01*
X3511360Y3088172D01*
X3509836Y3090659D01*
X3503420Y3098172D01*
X3348115Y3280010D01*
X3346224Y3282224D01*
X3334516Y3292224D01*
X3156877Y3443942D01*
X3156874Y3443944D01*
X3154659Y3445836D01*
X3134176Y3458388D01*
X2942345Y3575943D01*
X2942341Y3575945D01*
X2939859Y3577466D01*
X2913023Y3588582D01*
X2709798Y3672760D01*
X2707111Y3673873D01*
X2679054Y3680609D01*
X2464972Y3732005D01*
X2462148Y3732683D01*
X2459261Y3732910D01*
X2459256Y3732911D01*
X2332190Y3742911D01*
X2273882Y3747500D01*
X2148118Y3747500D01*
X2089810Y3742911D01*
X1962744Y3732911D01*
X1962739Y3732910D01*
X1959852Y3732683D01*
X1957028Y3732005D01*
X1742947Y3680609D01*
X1714889Y3673873D01*
X1712202Y3672760D01*
X1508978Y3588582D01*
X1482141Y3577466D01*
X1479659Y3575945D01*
X1479655Y3575943D01*
X1287824Y3458388D01*
X1267341Y3445836D01*
X1265126Y3443944D01*
X1265123Y3443942D01*
X1087484Y3292224D01*
X1075776Y3282224D01*
X1073885Y3280010D01*
X918581Y3098172D01*
X912164Y3090659D01*
X910640Y3088172D01*
X787723Y2887590D01*
X780534Y2875859D01*
X779419Y2873166D01*
X779418Y2873165D01*
X715561Y2719000D01*
X684127Y2643111D01*
X625317Y2398148D01*
X625090Y2395261D01*
X625089Y2395256D01*
X606941Y2164667D01*
X605551Y2147000D01*
X200000Y2147000D01*
X200000Y20272076D01*
X2510500Y20272076D01*
X2520698Y20157813D01*
X2573923Y19972194D01*
X2663385Y19801070D01*
X2665755Y19798164D01*
X2665757Y19798161D01*
X2768843Y19671766D01*
X2785429Y19651429D01*
X2788335Y19649059D01*
X2932161Y19531757D01*
X2932164Y19531755D01*
X2935070Y19529385D01*
X3106194Y19439923D01*
X3291813Y19386698D01*
X3295321Y19386385D01*
X3295326Y19386384D01*
X3404428Y19376647D01*
X3404430Y19376647D01*
X3406076Y19376500D01*
X3534764Y19376500D01*
X3569064Y19368071D01*
X3594099Y19354975D01*
X3594102Y19354974D01*
X3597319Y19353291D01*
X3600801Y19352269D01*
X3600805Y19352267D01*
X3631905Y19343136D01*
X3665440Y19333289D01*
X3737000Y19323000D01*
X7587783Y19323000D01*
X7598209Y19322262D01*
X10165747Y18956881D01*
X10165759Y18956880D01*
X10166381Y18956791D01*
X10175933Y18955774D01*
X10183593Y18954958D01*
X10183615Y18954956D01*
X10184226Y18954891D01*
X10194240Y18954182D01*
X10201299Y18953682D01*
X10201304Y18953682D01*
X10201978Y18953634D01*
X10202636Y18953611D01*
X10202650Y18953610D01*
X10211571Y18953295D01*
X10219919Y18953000D01*
X10636500Y18953000D01*
X10684066Y18935687D01*
X10709376Y18891850D01*
X10710500Y18879000D01*
X10710500Y15798111D01*
X10702434Y15764517D01*
X10650354Y15662304D01*
X10649443Y15656552D01*
X10649442Y15656549D01*
X10635955Y15571392D01*
X10635500Y15568519D01*
X10635500Y15565610D01*
X10635501Y15201977D01*
X10618188Y15154411D01*
X10613827Y15149651D01*
X7713871Y12249695D01*
X7701685Y12239854D01*
X7695165Y12235644D01*
X7695163Y12235642D01*
X7690024Y12232324D01*
X7686236Y12227519D01*
X7668608Y12205158D01*
X7662821Y12198645D01*
X7659910Y12195734D01*
X7658136Y12193252D01*
X7658133Y12193248D01*
X7648620Y12179936D01*
X7646528Y12177150D01*
X7615723Y12138074D01*
X7613695Y12132301D01*
X7612846Y12130756D01*
X7612457Y12130139D01*
X7612400Y12130027D01*
X7612118Y12129355D01*
X7611341Y12127769D01*
X7607784Y12122791D01*
X7606031Y12116929D01*
X7593527Y12075120D01*
X7592450Y12071804D01*
X7575957Y12024838D01*
X7575500Y12019561D01*
X7575500Y12018323D01*
X7575089Y12013464D01*
X7573397Y12007808D01*
X7573637Y12001698D01*
X7575443Y11955736D01*
X7575500Y11952831D01*
X7575500Y9609776D01*
X7558187Y9562210D01*
X7514350Y9536900D01*
X7464500Y9545690D01*
X7438796Y9576321D01*
X7436588Y9575046D01*
X7434188Y9579203D01*
X7432054Y9584355D01*
X7431964Y9584462D01*
X7431633Y9585372D01*
X7429351Y9590882D01*
X7427229Y9595432D01*
X7425554Y9601684D01*
X7419888Y9609776D01*
X7402638Y9634411D01*
X7399169Y9639856D01*
X7394760Y9647494D01*
X7379194Y9674455D01*
X7363666Y9687485D01*
X7348585Y9700140D01*
X7343825Y9704501D01*
X6665576Y10382750D01*
X6644184Y10428626D01*
X6644535Y10444735D01*
X6650970Y10493609D01*
X6656682Y10537000D01*
X6636044Y10693762D01*
X6575536Y10839841D01*
X6572586Y10843685D01*
X6572584Y10843689D01*
X6482237Y10961431D01*
X6479282Y10965282D01*
X6464597Y10976550D01*
X6357689Y11058584D01*
X6357685Y11058586D01*
X6353841Y11061536D01*
X6207762Y11122044D01*
X6202960Y11122676D01*
X6202957Y11122677D01*
X6055808Y11142049D01*
X6051000Y11142682D01*
X6046192Y11142049D01*
X5899043Y11122677D01*
X5899040Y11122676D01*
X5894238Y11122044D01*
X5748159Y11061536D01*
X5744315Y11058586D01*
X5744311Y11058584D01*
X5637403Y10976550D01*
X5622718Y10965282D01*
X5619763Y10961431D01*
X5529416Y10843689D01*
X5529414Y10843685D01*
X5526464Y10839841D01*
X5465956Y10693762D01*
X5445318Y10537000D01*
X5445951Y10532192D01*
X5459586Y10428626D01*
X5465956Y10380238D01*
X5526464Y10234159D01*
X5529414Y10230315D01*
X5529416Y10230311D01*
X5604033Y10133069D01*
X5622718Y10108718D01*
X5626569Y10105763D01*
X5744311Y10015416D01*
X5744315Y10015414D01*
X5748159Y10012464D01*
X5894238Y9951956D01*
X5899040Y9951324D01*
X5899043Y9951323D01*
X6046192Y9931951D01*
X6051000Y9931318D01*
X6143266Y9943465D01*
X6192684Y9932509D01*
X6205250Y9922424D01*
X6778826Y9348848D01*
X6800218Y9302972D01*
X6800500Y9296522D01*
X6800500Y8782893D01*
X6783187Y8735327D01*
X6760096Y8716959D01*
X6687658Y8680050D01*
X6597950Y8590342D01*
X6595306Y8585152D01*
X6595304Y8585150D01*
X6543000Y8482498D01*
X6540354Y8477304D01*
X6539443Y8471552D01*
X6539442Y8471549D01*
X6529835Y8410892D01*
X6525500Y8383519D01*
X6525501Y7770482D01*
X6525956Y7767610D01*
X6525956Y7767608D01*
X6528540Y7751295D01*
X6540354Y7676696D01*
X6547820Y7662044D01*
X6595304Y7568850D01*
X6595306Y7568848D01*
X6597950Y7563658D01*
X6687658Y7473950D01*
X6692848Y7471306D01*
X6692850Y7471304D01*
X6795502Y7419000D01*
X6795505Y7418999D01*
X6800696Y7416354D01*
X6806448Y7415443D01*
X6806451Y7415442D01*
X6882396Y7403414D01*
X6894481Y7401500D01*
X7126000Y7401500D01*
X7357518Y7401501D01*
X7360390Y7401956D01*
X7360392Y7401956D01*
X7392090Y7406976D01*
X7451304Y7416354D01*
X7467906Y7424813D01*
X7518145Y7430983D01*
X7560598Y7403414D01*
X7575500Y7358879D01*
X7575500Y4065060D01*
X7558187Y4017494D01*
X7535096Y3999126D01*
X7497658Y3980050D01*
X7407950Y3890342D01*
X7405306Y3885152D01*
X7405304Y3885150D01*
X7353000Y3782498D01*
X7350354Y3777304D01*
X7349443Y3771552D01*
X7349442Y3771549D01*
X7339438Y3708383D01*
X7335500Y3683519D01*
X7335501Y3070482D01*
X7335956Y3067610D01*
X7335956Y3067608D01*
X7336106Y3066662D01*
X7350354Y2976696D01*
X7370209Y2937729D01*
X7405304Y2868850D01*
X7405306Y2868848D01*
X7407950Y2863658D01*
X7497658Y2773950D01*
X7502848Y2771306D01*
X7502850Y2771304D01*
X7605502Y2719000D01*
X7605505Y2718999D01*
X7610696Y2716354D01*
X7616448Y2715443D01*
X7616451Y2715442D01*
X7701608Y2701955D01*
X7704481Y2701500D01*
X7738909Y2701500D01*
X8071023Y2701501D01*
X8118589Y2684188D01*
X8123349Y2679827D01*
X8482825Y2320351D01*
X8492666Y2308165D01*
X8496876Y2301645D01*
X8500196Y2296504D01*
X8505001Y2292716D01*
X8527362Y2275088D01*
X8533875Y2269301D01*
X8536786Y2266390D01*
X8539268Y2264616D01*
X8539272Y2264613D01*
X8552584Y2255100D01*
X8555370Y2253008D01*
X8594446Y2222203D01*
X8600219Y2220175D01*
X8601764Y2219326D01*
X8602381Y2218937D01*
X8602493Y2218880D01*
X8603165Y2218598D01*
X8604751Y2217821D01*
X8609729Y2214264D01*
X8615592Y2212511D01*
X8615591Y2212511D01*
X8657397Y2200008D01*
X8660713Y2198931D01*
X8707682Y2182437D01*
X8712959Y2181980D01*
X8714197Y2181980D01*
X8719056Y2181569D01*
X8724713Y2179877D01*
X8730824Y2180117D01*
X8776796Y2181923D01*
X8779701Y2181980D01*
X11560544Y2181980D01*
X11608110Y2164667D01*
X11612870Y2160306D01*
X11853826Y1919350D01*
X11875218Y1873474D01*
X11875500Y1867024D01*
X11875501Y1500482D01*
X11890354Y1406696D01*
X11919152Y1350177D01*
X11945304Y1298850D01*
X11945306Y1298848D01*
X11947950Y1293658D01*
X12037658Y1203950D01*
X12042848Y1201306D01*
X12042850Y1201304D01*
X12145502Y1149000D01*
X12145505Y1148999D01*
X12150696Y1146354D01*
X12156448Y1145443D01*
X12156451Y1145442D01*
X12241602Y1131956D01*
X12244481Y1131500D01*
X12551000Y1131500D01*
X12857518Y1131501D01*
X12860390Y1131956D01*
X12860392Y1131956D01*
X12892090Y1136976D01*
X12951304Y1146354D01*
X13007823Y1175152D01*
X13059150Y1201304D01*
X13059152Y1201306D01*
X13064342Y1203950D01*
X13154050Y1293658D01*
X13156694Y1298848D01*
X13156696Y1298850D01*
X13209000Y1401502D01*
X13209001Y1401505D01*
X13211646Y1406696D01*
X13212557Y1412448D01*
X13212558Y1412451D01*
X13226045Y1497608D01*
X13226500Y1500481D01*
X13226499Y1916521D01*
X13243812Y1964087D01*
X13248173Y1968847D01*
X13436326Y2157000D01*
X23255551Y2157000D01*
X23255779Y2154103D01*
X23274255Y1919350D01*
X23275317Y1905852D01*
X23334127Y1660889D01*
X23335240Y1658202D01*
X23402530Y1495750D01*
X23430534Y1428141D01*
X23432055Y1425659D01*
X23432057Y1425655D01*
X23515470Y1289539D01*
X23562164Y1213341D01*
X23564056Y1211126D01*
X23564058Y1211123D01*
X23572599Y1201123D01*
X23725776Y1021776D01*
X23727990Y1019885D01*
X23847342Y917949D01*
X23917341Y858164D01*
X23919828Y856640D01*
X24129655Y728057D01*
X24129659Y728055D01*
X24132141Y726534D01*
X24134834Y725419D01*
X24134835Y725418D01*
X24339524Y640634D01*
X24364889Y630127D01*
X24367716Y629448D01*
X24367717Y629448D01*
X24522784Y592220D01*
X24609852Y571317D01*
X24612739Y571090D01*
X24612744Y571089D01*
X24728298Y561995D01*
X24798118Y556500D01*
X24923882Y556500D01*
X24993702Y561995D01*
X25109256Y571089D01*
X25109261Y571090D01*
X25112148Y571317D01*
X25199216Y592220D01*
X25354283Y629448D01*
X25354284Y629448D01*
X25357111Y630127D01*
X25382476Y640634D01*
X25587165Y725418D01*
X25587166Y725419D01*
X25589859Y726534D01*
X25592341Y728055D01*
X25592345Y728057D01*
X25802172Y856640D01*
X25804659Y858164D01*
X25874659Y917949D01*
X25994010Y1019885D01*
X25996224Y1021776D01*
X26149401Y1201123D01*
X26157942Y1211123D01*
X26157944Y1211126D01*
X26159836Y1213341D01*
X26206530Y1289539D01*
X26289943Y1425655D01*
X26289945Y1425659D01*
X26291466Y1428141D01*
X26319471Y1495750D01*
X26386760Y1658202D01*
X26387873Y1660889D01*
X26446683Y1905852D01*
X26447746Y1919350D01*
X26466221Y2154103D01*
X26466449Y2157000D01*
X26464521Y2181497D01*
X26446911Y2405256D01*
X26446910Y2405261D01*
X26446683Y2408148D01*
X26387873Y2653111D01*
X26367641Y2701955D01*
X26292582Y2883165D01*
X26292581Y2883166D01*
X26291466Y2885859D01*
X26289627Y2888861D01*
X26161360Y3098172D01*
X26159836Y3100659D01*
X26138312Y3125861D01*
X25998115Y3290010D01*
X25996224Y3292224D01*
X25856912Y3411208D01*
X25806877Y3453942D01*
X25806874Y3453944D01*
X25804659Y3455836D01*
X25699302Y3520399D01*
X25592345Y3585943D01*
X25592341Y3585945D01*
X25589859Y3587466D01*
X25509845Y3620609D01*
X25359798Y3682760D01*
X25357111Y3683873D01*
X25279524Y3702500D01*
X25114972Y3742005D01*
X25112148Y3742683D01*
X25109261Y3742910D01*
X25109256Y3742911D01*
X24986637Y3752561D01*
X24923882Y3757500D01*
X24798118Y3757500D01*
X24735363Y3752561D01*
X24612744Y3742911D01*
X24612739Y3742910D01*
X24609852Y3742683D01*
X24607028Y3742005D01*
X24442477Y3702500D01*
X24364889Y3683873D01*
X24362202Y3682760D01*
X24212156Y3620609D01*
X24132141Y3587466D01*
X24129659Y3585945D01*
X24129655Y3585943D01*
X24022698Y3520399D01*
X23917341Y3455836D01*
X23915126Y3453944D01*
X23915123Y3453942D01*
X23865088Y3411208D01*
X23725776Y3292224D01*
X23723885Y3290010D01*
X23583689Y3125861D01*
X23562164Y3100659D01*
X23560640Y3098172D01*
X23432374Y2888861D01*
X23430534Y2885859D01*
X23429419Y2883166D01*
X23429418Y2883165D01*
X23354359Y2701955D01*
X23334127Y2653111D01*
X23275317Y2408148D01*
X23275090Y2405261D01*
X23275089Y2405256D01*
X23257479Y2181497D01*
X23255551Y2157000D01*
X13436326Y2157000D01*
X13599632Y2320306D01*
X13645508Y2341698D01*
X13651958Y2341980D01*
X14849039Y2341980D01*
X14855489Y2341698D01*
X14888838Y2338780D01*
X14888839Y2338780D01*
X14895287Y2338216D01*
X14933884Y2348559D01*
X14940183Y2349955D01*
X14949751Y2351642D01*
X14973152Y2355768D01*
X14973154Y2355769D01*
X14979525Y2356892D01*
X14985127Y2360127D01*
X14989838Y2361841D01*
X14995362Y2364129D01*
X14999912Y2366251D01*
X15006164Y2367926D01*
X15038891Y2390842D01*
X15044331Y2394308D01*
X15078935Y2414286D01*
X15083098Y2419247D01*
X15104620Y2444895D01*
X15108981Y2449655D01*
X15279152Y2619826D01*
X15325028Y2641218D01*
X15331478Y2641500D01*
X15708800Y2641501D01*
X15747518Y2641501D01*
X15750390Y2641956D01*
X15750392Y2641956D01*
X15782090Y2646976D01*
X15841304Y2656354D01*
X15930801Y2701955D01*
X15949150Y2711304D01*
X15949152Y2711306D01*
X15954342Y2713950D01*
X16044050Y2803658D01*
X16046694Y2808848D01*
X16046696Y2808850D01*
X16099000Y2911502D01*
X16099001Y2911505D01*
X16101646Y2916696D01*
X16102557Y2922448D01*
X16102558Y2922451D01*
X16116045Y3007608D01*
X16116500Y3010481D01*
X16116499Y3623518D01*
X16107584Y3679808D01*
X16117243Y3729496D01*
X16156582Y3761352D01*
X16207193Y3760468D01*
X16232999Y3743709D01*
X16543826Y3432882D01*
X16565218Y3387006D01*
X16565500Y3380556D01*
X16565501Y3186478D01*
X16565501Y3010482D01*
X16565956Y3007610D01*
X16565956Y3007608D01*
X16569447Y2985566D01*
X16580354Y2916696D01*
X16596272Y2885455D01*
X16635304Y2808850D01*
X16635306Y2808848D01*
X16637950Y2803658D01*
X16727658Y2713950D01*
X16732848Y2711306D01*
X16732850Y2711304D01*
X16835502Y2659000D01*
X16835505Y2658999D01*
X16840696Y2656354D01*
X16846448Y2655443D01*
X16846451Y2655442D01*
X16924309Y2643111D01*
X16934481Y2641500D01*
X17166000Y2641500D01*
X17397518Y2641501D01*
X17400390Y2641956D01*
X17400392Y2641956D01*
X17432090Y2646976D01*
X17491304Y2656354D01*
X17580801Y2701955D01*
X17599150Y2711304D01*
X17599152Y2711306D01*
X17604342Y2713950D01*
X17694050Y2803658D01*
X17696694Y2808848D01*
X17696696Y2808850D01*
X17749000Y2911502D01*
X17749001Y2911505D01*
X17751646Y2916696D01*
X17752557Y2922448D01*
X17752558Y2922451D01*
X17766045Y3007608D01*
X17766500Y3010481D01*
X17766499Y3623518D01*
X17751646Y3717304D01*
X17701789Y3815154D01*
X17696696Y3825150D01*
X17696694Y3825152D01*
X17694050Y3830342D01*
X17604342Y3920050D01*
X17599152Y3922694D01*
X17599150Y3922696D01*
X17496498Y3975000D01*
X17496495Y3975001D01*
X17491304Y3977646D01*
X17485552Y3978557D01*
X17485549Y3978558D01*
X17400392Y3992045D01*
X17397519Y3992500D01*
X17394610Y3992500D01*
X17055647Y3992499D01*
X16935513Y3992499D01*
X16887947Y4009812D01*
X16883187Y4014173D01*
X15450508Y5446852D01*
X15429116Y5492728D01*
X15430256Y5513611D01*
X15431500Y5519867D01*
X15431499Y6857500D01*
X15448812Y6905066D01*
X15492649Y6930376D01*
X15505499Y6931500D01*
X16141501Y6931500D01*
X16189067Y6914187D01*
X16214377Y6870350D01*
X16215501Y6857500D01*
X16215501Y6830482D01*
X16230354Y6736696D01*
X16259152Y6680177D01*
X16285304Y6628850D01*
X16285306Y6628848D01*
X16287950Y6623658D01*
X16377658Y6533950D01*
X16382848Y6531306D01*
X16382850Y6531304D01*
X16485502Y6479000D01*
X16485505Y6478999D01*
X16490696Y6476354D01*
X16496448Y6475443D01*
X16496451Y6475442D01*
X16581602Y6461956D01*
X16584481Y6461500D01*
X16891000Y6461500D01*
X17197518Y6461501D01*
X17200390Y6461956D01*
X17200392Y6461956D01*
X17232090Y6466976D01*
X17291304Y6476354D01*
X17347823Y6505152D01*
X17399150Y6531304D01*
X17399152Y6531306D01*
X17404342Y6533950D01*
X17494050Y6623658D01*
X17496694Y6628848D01*
X17496696Y6628850D01*
X17549000Y6731502D01*
X17549001Y6731505D01*
X17551646Y6736696D01*
X17552557Y6742448D01*
X17552558Y6742451D01*
X17566045Y6827608D01*
X17566500Y6830481D01*
X17566499Y7293518D01*
X17551646Y7387304D01*
X17508846Y7471304D01*
X17496696Y7495150D01*
X17496694Y7495152D01*
X17494050Y7500342D01*
X17404342Y7590050D01*
X17399152Y7592694D01*
X17399150Y7592696D01*
X17296498Y7645000D01*
X17296495Y7645001D01*
X17291304Y7647646D01*
X17285552Y7648557D01*
X17285549Y7648558D01*
X17200392Y7662045D01*
X17197519Y7662500D01*
X17194610Y7662500D01*
X16891001Y7662499D01*
X16584482Y7662499D01*
X16581610Y7662044D01*
X16581608Y7662044D01*
X16549910Y7657024D01*
X16490696Y7647646D01*
X16396819Y7599813D01*
X16378671Y7590566D01*
X16345076Y7582500D01*
X14415478Y7582500D01*
X14367912Y7599813D01*
X14342602Y7643650D01*
X14351392Y7693500D01*
X14363152Y7708826D01*
X14405621Y7751295D01*
X14451497Y7772687D01*
X14457947Y7772969D01*
X16260028Y7772969D01*
X16266478Y7772687D01*
X16299827Y7769769D01*
X16299828Y7769769D01*
X16306276Y7769205D01*
X16344873Y7779548D01*
X16351172Y7780944D01*
X16360740Y7782631D01*
X16384141Y7786757D01*
X16384143Y7786758D01*
X16390514Y7787881D01*
X16396116Y7791116D01*
X16400827Y7792830D01*
X16406351Y7795118D01*
X16410901Y7797240D01*
X16417153Y7798915D01*
X16449880Y7821831D01*
X16455320Y7825297D01*
X16489924Y7845275D01*
X16494087Y7850236D01*
X16515609Y7875884D01*
X16519970Y7880644D01*
X16729152Y8089826D01*
X16775028Y8111218D01*
X16781478Y8111500D01*
X17158800Y8111501D01*
X17197518Y8111501D01*
X17200390Y8111956D01*
X17200392Y8111956D01*
X17232090Y8116976D01*
X17291304Y8126354D01*
X17347823Y8155152D01*
X17399150Y8181304D01*
X17399152Y8181306D01*
X17404342Y8183950D01*
X17494050Y8273658D01*
X17496694Y8278848D01*
X17496696Y8278850D01*
X17549000Y8381502D01*
X17549001Y8381505D01*
X17551646Y8386696D01*
X17552557Y8392448D01*
X17552558Y8392451D01*
X17566045Y8477608D01*
X17566500Y8480481D01*
X17566499Y8943518D01*
X17551646Y9037304D01*
X17512371Y9114385D01*
X17506202Y9164626D01*
X17533771Y9207079D01*
X17578305Y9221980D01*
X17656879Y9221980D01*
X17704445Y9204667D01*
X17715585Y9193030D01*
X17772238Y9119198D01*
X17776089Y9116243D01*
X17893831Y9025896D01*
X17893835Y9025894D01*
X17897679Y9022944D01*
X18043758Y8962436D01*
X18048560Y8961804D01*
X18048563Y8961803D01*
X18195712Y8942431D01*
X18200520Y8941798D01*
X18205328Y8942431D01*
X18352477Y8961803D01*
X18352480Y8961804D01*
X18357282Y8962436D01*
X18503361Y9022944D01*
X18507205Y9025894D01*
X18507209Y9025896D01*
X18624951Y9116243D01*
X18628802Y9119198D01*
X18651271Y9148480D01*
X18722104Y9240791D01*
X18722106Y9240795D01*
X18725056Y9244639D01*
X18785564Y9390718D01*
X18806202Y9547480D01*
X18801333Y9584462D01*
X18786197Y9699437D01*
X18786196Y9699440D01*
X18785564Y9704242D01*
X18725056Y9850321D01*
X18666792Y9926252D01*
X18651500Y9971300D01*
X18651500Y15099000D01*
X18668813Y15146566D01*
X18712650Y15171876D01*
X18725500Y15173000D01*
X18975000Y15173000D01*
X18976971Y15173212D01*
X18976973Y15173212D01*
X19027022Y15178592D01*
X19027030Y15178593D01*
X19028990Y15178804D01*
X19053023Y15184032D01*
X19080373Y15189981D01*
X19080387Y15189984D01*
X19081332Y15190190D01*
X19107555Y15197384D01*
X19111571Y15199671D01*
X19111576Y15199673D01*
X19178581Y15237829D01*
X19179052Y15238097D01*
X19179231Y15238133D01*
X19179903Y15238582D01*
X19188030Y15243210D01*
X19188031Y15243210D01*
X19190518Y15244626D01*
X19190523Y15244630D01*
X19193676Y15246425D01*
X19197037Y15249337D01*
X19204373Y15254932D01*
X19245552Y15282448D01*
X19260614Y15304990D01*
X19268892Y15315262D01*
X19275098Y15321694D01*
X19278773Y15325502D01*
X19324709Y15413319D01*
X19344711Y15481440D01*
X19355000Y15553000D01*
X19355000Y17801000D01*
X19349196Y17854990D01*
X19337810Y17907332D01*
X19330616Y17933555D01*
X19328329Y17937571D01*
X19328327Y17937576D01*
X19290171Y18004581D01*
X19289903Y18005052D01*
X19289867Y18005231D01*
X19289418Y18005903D01*
X19284790Y18014031D01*
X19283374Y18016518D01*
X19283370Y18016523D01*
X19281575Y18019676D01*
X19278663Y18023037D01*
X19273064Y18030378D01*
X19249602Y18065491D01*
X19245552Y18071552D01*
X19223010Y18086614D01*
X19212738Y18094892D01*
X19206306Y18101098D01*
X19202498Y18104773D01*
X19114681Y18150709D01*
X19046560Y18170711D01*
X18975000Y18181000D01*
X17542463Y18181000D01*
X17494897Y18198313D01*
X17471804Y18233017D01*
X17199177Y19109317D01*
X17201577Y19159879D01*
X17235917Y19197069D01*
X17290684Y19202303D01*
X17355440Y19183289D01*
X17427000Y19173000D01*
X19102002Y19173000D01*
X19106062Y19172889D01*
X22733607Y18973573D01*
X22740564Y18973286D01*
X22747477Y18973096D01*
X22754455Y18973000D01*
X24695000Y18973000D01*
X24696971Y18973212D01*
X24696973Y18973212D01*
X24747022Y18978592D01*
X24747030Y18978593D01*
X24748990Y18978804D01*
X24772298Y18983874D01*
X24800373Y18989981D01*
X24800387Y18989984D01*
X24801332Y18990190D01*
X24827555Y18997384D01*
X24913676Y19046425D01*
X24945607Y19074093D01*
X24966098Y19091848D01*
X24966107Y19091857D01*
X24967332Y19092918D01*
X24998773Y19125502D01*
X25044709Y19213319D01*
X25064711Y19281440D01*
X25075000Y19353000D01*
X25075000Y22511000D01*
X25074788Y22512973D01*
X25069408Y22563022D01*
X25069407Y22563030D01*
X25069196Y22564990D01*
X25057810Y22617332D01*
X25050616Y22643555D01*
X25001575Y22729676D01*
X24986165Y22747460D01*
X24956152Y22782098D01*
X24956143Y22782107D01*
X24955082Y22783332D01*
X24922498Y22814773D01*
X24891477Y22831000D01*
X24837902Y22859024D01*
X24837903Y22859024D01*
X24834681Y22860709D01*
X24766560Y22880711D01*
X24695000Y22891000D01*
X22673440Y22891000D01*
X22660957Y22890385D01*
X22649380Y22889815D01*
X22649363Y22889814D01*
X22648475Y22889770D01*
X22623831Y22887336D01*
X22609712Y22885236D01*
X22599989Y22883790D01*
X22599977Y22883788D01*
X22599117Y22883660D01*
X22307037Y22825408D01*
X22241994Y22812436D01*
X19083085Y22182429D01*
X19068612Y22181000D01*
X17427000Y22181000D01*
X17425029Y22180788D01*
X17425027Y22180788D01*
X17374978Y22175408D01*
X17374970Y22175407D01*
X17373010Y22175196D01*
X17349702Y22170126D01*
X17321627Y22164019D01*
X17321613Y22164016D01*
X17320668Y22163810D01*
X17294445Y22156616D01*
X17290426Y22154327D01*
X17290425Y22154327D01*
X17245618Y22128812D01*
X17195716Y22120319D01*
X17152031Y22145889D01*
X17135000Y22193117D01*
X17135000Y22201000D01*
X17134788Y22202973D01*
X17129408Y22253022D01*
X17129407Y22253030D01*
X17129196Y22254990D01*
X17117810Y22307332D01*
X17110616Y22333555D01*
X17061575Y22419676D01*
X17025697Y22461082D01*
X17016152Y22472098D01*
X17016143Y22472107D01*
X17015082Y22473332D01*
X16982498Y22504773D01*
X16977142Y22507575D01*
X16897902Y22549024D01*
X16897903Y22549024D01*
X16894681Y22550709D01*
X16826560Y22570711D01*
X16755000Y22581000D01*
X16147000Y22581000D01*
X16145029Y22580788D01*
X16145027Y22580788D01*
X16094978Y22575408D01*
X16094970Y22575407D01*
X16093010Y22575196D01*
X16074116Y22571086D01*
X16041627Y22564019D01*
X16041613Y22564016D01*
X16040668Y22563810D01*
X16039723Y22563551D01*
X16039720Y22563550D01*
X16030994Y22561156D01*
X16014445Y22556616D01*
X16010426Y22554327D01*
X16010425Y22554327D01*
X15982932Y22538671D01*
X15928324Y22507575D01*
X15910540Y22492165D01*
X15875902Y22462152D01*
X15875893Y22462143D01*
X15874668Y22461082D01*
X15843227Y22428498D01*
X15840774Y22423808D01*
X15840773Y22423807D01*
X15838612Y22419676D01*
X15797291Y22340681D01*
X15777289Y22272560D01*
X15767000Y22201000D01*
X15767000Y19297397D01*
X15770264Y19256808D01*
X15776699Y19217056D01*
X15778407Y19210098D01*
X15785081Y19182914D01*
X15786407Y19177511D01*
X17031297Y15433114D01*
X17035946Y15420292D01*
X17040897Y15407702D01*
X17085315Y15334324D01*
X17096259Y15321694D01*
X17130738Y15281902D01*
X17130747Y15281893D01*
X17131808Y15280668D01*
X17132981Y15279537D01*
X17132983Y15279534D01*
X17134161Y15278398D01*
X17164392Y15249227D01*
X17169082Y15246774D01*
X17169083Y15246773D01*
X17185669Y15238097D01*
X17252209Y15203291D01*
X17320330Y15183289D01*
X17391890Y15173000D01*
X17676500Y15173000D01*
X17724066Y15155687D01*
X17749376Y15111850D01*
X17750500Y15099000D01*
X17750500Y9972551D01*
X17735210Y9927505D01*
X17715585Y9901930D01*
X17672896Y9874734D01*
X17656879Y9872980D01*
X15505500Y9872980D01*
X15457934Y9890293D01*
X15432624Y9934130D01*
X15431500Y9946980D01*
X15431499Y11270492D01*
X15431499Y11274132D01*
X15415515Y11354495D01*
X15411959Y11359817D01*
X15406500Y11387263D01*
X15406500Y12009739D01*
X15423813Y12057305D01*
X15428174Y12062065D01*
X16308832Y12942723D01*
X16313592Y12947084D01*
X16344194Y12972762D01*
X16364172Y13007366D01*
X16367638Y13012806D01*
X16386841Y13040230D01*
X16386842Y13040231D01*
X16390554Y13045533D01*
X16392229Y13051785D01*
X16394351Y13056335D01*
X16396639Y13061859D01*
X16398353Y13066570D01*
X16401588Y13072172D01*
X16404645Y13089507D01*
X16408524Y13111511D01*
X16409922Y13117816D01*
X16413350Y13130610D01*
X16420264Y13156410D01*
X16419682Y13163069D01*
X16416782Y13196212D01*
X16416500Y13202661D01*
X16416500Y16489571D01*
X16416782Y16496021D01*
X16419699Y16529358D01*
X16419699Y16529359D01*
X16420263Y16535807D01*
X16409923Y16574393D01*
X16408526Y16580695D01*
X16402712Y16613671D01*
X16402712Y16613672D01*
X16401588Y16620045D01*
X16398352Y16625650D01*
X16396643Y16630346D01*
X16394351Y16635879D01*
X16392229Y16640431D01*
X16390553Y16646684D01*
X16367640Y16679408D01*
X16364172Y16684852D01*
X16347432Y16713847D01*
X16347431Y16713848D01*
X16344194Y16719455D01*
X16339236Y16723615D01*
X16339232Y16723620D01*
X16313591Y16745135D01*
X16308831Y16749496D01*
X16085576Y16972751D01*
X16064184Y17018627D01*
X16064535Y17034736D01*
X16076049Y17122192D01*
X16076682Y17127000D01*
X16056044Y17283762D01*
X15995536Y17429841D01*
X15992586Y17433685D01*
X15992584Y17433689D01*
X15902237Y17551431D01*
X15899282Y17555282D01*
X15895431Y17558237D01*
X15777689Y17648584D01*
X15777685Y17648586D01*
X15773841Y17651536D01*
X15627762Y17712044D01*
X15622960Y17712676D01*
X15622957Y17712677D01*
X15475808Y17732049D01*
X15471000Y17732682D01*
X15466192Y17732049D01*
X15319043Y17712677D01*
X15319040Y17712676D01*
X15314238Y17712044D01*
X15168159Y17651536D01*
X15164315Y17648586D01*
X15164311Y17648584D01*
X15046569Y17558237D01*
X15042718Y17555282D01*
X15039763Y17551431D01*
X14949416Y17433689D01*
X14949414Y17433685D01*
X14946464Y17429841D01*
X14885956Y17283762D01*
X14865318Y17127000D01*
X14865951Y17122192D01*
X14879586Y17018627D01*
X14885956Y16970238D01*
X14946464Y16824159D01*
X14949414Y16820315D01*
X14949416Y16820311D01*
X15005508Y16747211D01*
X15042718Y16698718D01*
X15046569Y16695763D01*
X15164311Y16605416D01*
X15164315Y16605414D01*
X15168159Y16602464D01*
X15314238Y16541956D01*
X15319040Y16541324D01*
X15319043Y16541323D01*
X15466192Y16521951D01*
X15471000Y16521318D01*
X15563265Y16533465D01*
X15612683Y16522509D01*
X15625249Y16512424D01*
X15743826Y16393847D01*
X15765218Y16347971D01*
X15765500Y16341521D01*
X15765500Y13350695D01*
X15748187Y13303129D01*
X15743826Y13298369D01*
X15392825Y12947368D01*
X15346949Y12925976D01*
X15298054Y12939077D01*
X15269020Y12980541D01*
X15266499Y12999694D01*
X15266499Y13133518D01*
X15251646Y13227304D01*
X15222848Y13283823D01*
X15196696Y13335150D01*
X15196694Y13335152D01*
X15194050Y13340342D01*
X15104342Y13430050D01*
X15099152Y13432694D01*
X15099150Y13432696D01*
X14996498Y13485000D01*
X14996495Y13485001D01*
X14991304Y13487646D01*
X14985552Y13488557D01*
X14985549Y13488558D01*
X14900392Y13502045D01*
X14897519Y13502500D01*
X14894610Y13502500D01*
X14591001Y13502499D01*
X14284482Y13502499D01*
X14281610Y13502044D01*
X14281608Y13502044D01*
X14249910Y13497024D01*
X14190696Y13487646D01*
X14134177Y13458848D01*
X14082850Y13432696D01*
X14082848Y13432694D01*
X14077658Y13430050D01*
X13987950Y13340342D01*
X13985306Y13335152D01*
X13985304Y13335150D01*
X13933000Y13232498D01*
X13930354Y13227304D01*
X13929443Y13221552D01*
X13929442Y13221549D01*
X13919109Y13156304D01*
X13915500Y13133519D01*
X13915501Y12919149D01*
X13915501Y12746477D01*
X13898188Y12698911D01*
X13854351Y12673601D01*
X13804501Y12682391D01*
X13789175Y12694151D01*
X13768174Y12715152D01*
X13746782Y12761028D01*
X13746500Y12767478D01*
X13746500Y13210488D01*
X13739632Y13253850D01*
X13731631Y13304371D01*
X13731630Y13304374D01*
X13730719Y13310126D01*
X13728073Y13315320D01*
X13672174Y13425028D01*
X13672172Y13425030D01*
X13669528Y13430220D01*
X13574220Y13525528D01*
X13569030Y13528172D01*
X13569028Y13528174D01*
X13459320Y13584073D01*
X13459317Y13584074D01*
X13454126Y13586719D01*
X13448374Y13587630D01*
X13448371Y13587631D01*
X13357361Y13602045D01*
X13354488Y13602500D01*
X12787512Y13602500D01*
X12784639Y13602045D01*
X12693629Y13587631D01*
X12693626Y13587630D01*
X12687874Y13586719D01*
X12682683Y13584074D01*
X12682680Y13584073D01*
X12572972Y13528174D01*
X12572970Y13528172D01*
X12567780Y13525528D01*
X12472472Y13430220D01*
X12469828Y13425030D01*
X12469826Y13425028D01*
X12413927Y13315320D01*
X12411281Y13310126D01*
X12410370Y13304374D01*
X12410369Y13304371D01*
X12402368Y13253850D01*
X12395500Y13210488D01*
X12395500Y12693512D01*
X12395955Y12690639D01*
X12410369Y12599629D01*
X12410370Y12599626D01*
X12411281Y12593874D01*
X12413926Y12588683D01*
X12413927Y12588680D01*
X12469826Y12478972D01*
X12469828Y12478970D01*
X12472472Y12473780D01*
X12552721Y12393531D01*
X12574113Y12347655D01*
X12561012Y12298760D01*
X12519548Y12269726D01*
X12490737Y12267838D01*
X12480740Y12269154D01*
X12480738Y12269154D01*
X12475930Y12269787D01*
X12471122Y12269154D01*
X12323973Y12249782D01*
X12323970Y12249781D01*
X12319168Y12249149D01*
X12173089Y12188641D01*
X12169245Y12185691D01*
X12169241Y12185689D01*
X12105548Y12136815D01*
X12057272Y12121593D01*
X12010506Y12140964D01*
X11987133Y12185864D01*
X11986500Y12195523D01*
X11986499Y12535609D01*
X11986499Y12538518D01*
X11971646Y12632304D01*
X11929433Y12715152D01*
X11916696Y12740150D01*
X11916694Y12740152D01*
X11914050Y12745342D01*
X11824342Y12835050D01*
X11819152Y12837694D01*
X11819150Y12837696D01*
X11716498Y12890000D01*
X11716495Y12890001D01*
X11711304Y12892646D01*
X11698923Y12894607D01*
X11654651Y12919149D01*
X11636500Y12967696D01*
X11636500Y13026304D01*
X11653813Y13073870D01*
X11698922Y13099393D01*
X11699614Y13099503D01*
X11711304Y13101354D01*
X11780070Y13136392D01*
X11819150Y13156304D01*
X11819152Y13156306D01*
X11824342Y13158950D01*
X11914050Y13248658D01*
X11916694Y13253848D01*
X11916696Y13253850D01*
X11969000Y13356502D01*
X11969001Y13356505D01*
X11971646Y13361696D01*
X11972557Y13367448D01*
X11972558Y13367451D01*
X11986045Y13452608D01*
X11986500Y13455481D01*
X11986499Y13918518D01*
X11971646Y14012304D01*
X11922102Y14109539D01*
X11916696Y14120150D01*
X11916694Y14120152D01*
X11914050Y14125342D01*
X11824342Y14215050D01*
X11819152Y14217694D01*
X11819150Y14217696D01*
X11716498Y14270000D01*
X11716495Y14270001D01*
X11711304Y14272646D01*
X11705552Y14273557D01*
X11705549Y14273558D01*
X11620392Y14287045D01*
X11617519Y14287500D01*
X11614610Y14287500D01*
X11311001Y14287499D01*
X11004482Y14287499D01*
X11001610Y14287044D01*
X11001608Y14287044D01*
X10952389Y14279249D01*
X10902700Y14288908D01*
X10870845Y14328247D01*
X10871729Y14378858D01*
X10888488Y14404664D01*
X11198650Y14714826D01*
X11244526Y14736218D01*
X11250976Y14736500D01*
X11266786Y14736500D01*
X11276443Y14735867D01*
X11311000Y14731318D01*
X11345558Y14735868D01*
X11355218Y14736501D01*
X11617518Y14736501D01*
X11620390Y14736956D01*
X11620392Y14736956D01*
X11652090Y14741976D01*
X11711304Y14751354D01*
X11780070Y14786392D01*
X11819150Y14806304D01*
X11819152Y14806306D01*
X11824342Y14808950D01*
X11914050Y14898658D01*
X11933126Y14936096D01*
X11970146Y14970618D01*
X11999060Y14976500D01*
X13626024Y14976500D01*
X13673590Y14959187D01*
X13678350Y14954826D01*
X13893826Y14739350D01*
X13915218Y14693474D01*
X13915500Y14687024D01*
X13915501Y14320482D01*
X13930354Y14226696D01*
X13934940Y14217696D01*
X13985304Y14118850D01*
X13985306Y14118848D01*
X13987950Y14113658D01*
X14077658Y14023950D01*
X14082848Y14021306D01*
X14082850Y14021304D01*
X14185502Y13969000D01*
X14185505Y13968999D01*
X14190696Y13966354D01*
X14196448Y13965443D01*
X14196451Y13965442D01*
X14281602Y13951956D01*
X14284481Y13951500D01*
X14591000Y13951500D01*
X14897518Y13951501D01*
X14900390Y13951956D01*
X14900392Y13951956D01*
X14932090Y13956976D01*
X14991304Y13966354D01*
X15081486Y14012304D01*
X15099150Y14021304D01*
X15099152Y14021306D01*
X15104342Y14023950D01*
X15194050Y14113658D01*
X15196694Y14118848D01*
X15196696Y14118850D01*
X15249000Y14221502D01*
X15249001Y14221505D01*
X15251646Y14226696D01*
X15252557Y14232448D01*
X15252558Y14232451D01*
X15266045Y14317608D01*
X15266500Y14320481D01*
X15266499Y14783518D01*
X15251646Y14877304D01*
X15221690Y14936096D01*
X15196696Y14985150D01*
X15196694Y14985152D01*
X15194050Y14990342D01*
X15104342Y15080050D01*
X15099152Y15082694D01*
X15099150Y15082696D01*
X14996498Y15135000D01*
X14996495Y15135001D01*
X14991304Y15137646D01*
X14985552Y15138557D01*
X14985549Y15138558D01*
X14900392Y15152045D01*
X14897519Y15152500D01*
X14863091Y15152500D01*
X14530977Y15152499D01*
X14483411Y15169812D01*
X14478651Y15174173D01*
X14093695Y15559129D01*
X14083854Y15571315D01*
X14079644Y15577835D01*
X14079642Y15577837D01*
X14076324Y15582976D01*
X14049158Y15604392D01*
X14042645Y15610179D01*
X14039734Y15613090D01*
X14037252Y15614864D01*
X14037248Y15614867D01*
X14023936Y15624380D01*
X14021147Y15626474D01*
X13982074Y15657277D01*
X13976301Y15659305D01*
X13974756Y15660154D01*
X13974139Y15660543D01*
X13974027Y15660600D01*
X13973355Y15660882D01*
X13971769Y15661659D01*
X13966791Y15665216D01*
X13919120Y15679473D01*
X13915804Y15680550D01*
X13908136Y15683243D01*
X13868838Y15697043D01*
X13863561Y15697500D01*
X13862323Y15697500D01*
X13857464Y15697911D01*
X13851808Y15699603D01*
X13845698Y15699363D01*
X13799736Y15697557D01*
X13796831Y15697500D01*
X11999060Y15697500D01*
X11951494Y15714813D01*
X11933126Y15737904D01*
X11919566Y15764516D01*
X11911500Y15798112D01*
X11911500Y18879000D01*
X11928813Y18926566D01*
X11972650Y18951876D01*
X11985500Y18953000D01*
X14685000Y18953000D01*
X14686971Y18953212D01*
X14686973Y18953212D01*
X14737022Y18958592D01*
X14737030Y18958593D01*
X14738990Y18958804D01*
X14762298Y18963874D01*
X14790373Y18969981D01*
X14790387Y18969984D01*
X14791332Y18970190D01*
X14817555Y18977384D01*
X14903676Y19026425D01*
X14929502Y19048803D01*
X14956098Y19071848D01*
X14956107Y19071857D01*
X14957332Y19072918D01*
X14975598Y19091848D01*
X14985099Y19101694D01*
X14985100Y19101696D01*
X14988773Y19105502D01*
X15034709Y19193319D01*
X15054711Y19261440D01*
X15065000Y19333000D01*
X15065000Y23531000D01*
X15059196Y23584990D01*
X15047810Y23637332D01*
X15040616Y23663555D01*
X14991575Y23749676D01*
X14974262Y23769656D01*
X14946152Y23802098D01*
X14946143Y23802107D01*
X14945082Y23803332D01*
X14912498Y23834773D01*
X14824681Y23880709D01*
X14756560Y23900711D01*
X14685000Y23911000D01*
X10236129Y23911000D01*
X10186453Y23906095D01*
X10138119Y23896456D01*
X10136379Y23895927D01*
X10136372Y23895925D01*
X10092110Y23882462D01*
X10092103Y23882459D01*
X10090359Y23881929D01*
X10088678Y23881231D01*
X10088676Y23881230D01*
X7573974Y22836661D01*
X7545587Y22831000D01*
X3737000Y22831000D01*
X3735029Y22830788D01*
X3735027Y22830788D01*
X3684978Y22825408D01*
X3684970Y22825407D01*
X3683010Y22825196D01*
X3659702Y22820126D01*
X3631627Y22814019D01*
X3631613Y22814016D01*
X3630668Y22813810D01*
X3629723Y22813551D01*
X3629720Y22813550D01*
X3620994Y22811156D01*
X3604445Y22806616D01*
X3600426Y22804327D01*
X3600425Y22804327D01*
X3570340Y22787195D01*
X3533722Y22777500D01*
X3406076Y22777500D01*
X3404430Y22777353D01*
X3404428Y22777353D01*
X3295326Y22767616D01*
X3295321Y22767615D01*
X3291813Y22767302D01*
X3106194Y22714077D01*
X3102870Y22712339D01*
X2962764Y22639093D01*
X2935070Y22624615D01*
X2932164Y22622245D01*
X2932161Y22622243D01*
X2851695Y22556616D01*
X2785429Y22502571D01*
X2783059Y22499665D01*
X2665757Y22355839D01*
X2665755Y22355836D01*
X2663385Y22352930D01*
X2661647Y22349605D01*
X2661646Y22349604D01*
X2655159Y22337196D01*
X2573923Y22181806D01*
X2520698Y21996187D01*
X2510500Y21881924D01*
X2510500Y20272076D01*
X200000Y20272076D01*
X200000Y22955877D01*
X201882Y22972461D01*
X201953Y22972770D01*
X205143Y22986642D01*
X203303Y22994772D01*
X203311Y22999196D01*
X202187Y23014788D01*
X215844Y23188316D01*
X217661Y23199785D01*
X263442Y23390472D01*
X267030Y23401515D01*
X342080Y23582704D01*
X347352Y23593051D01*
X449819Y23760261D01*
X456640Y23769650D01*
X584011Y23918781D01*
X592220Y23926990D01*
X741350Y24054360D01*
X750739Y24061181D01*
X844867Y24118863D01*
X917953Y24163650D01*
X928296Y24168920D01*
X1109485Y24243970D01*
X1120528Y24247558D01*
X1215872Y24270449D01*
X1311219Y24293340D01*
X1322681Y24295155D01*
X1495750Y24308777D01*
X1509845Y24307735D01*
X1515519Y24307725D01*
X1523642Y24305857D01*
X1538305Y24309175D01*
X1554637Y24311000D01*
X25495877Y24311000D01*
X25512461Y24309118D01*
G37*
%TD.AperFunction*%
%TA.AperFunction,Conductor*%
G36*
X10613106Y14042802D02*
G01*
X10642140Y14001338D01*
X10643750Y13970609D01*
X10635500Y13918519D01*
X10635501Y13455482D01*
X10650354Y13361696D01*
X10673984Y13315320D01*
X10705304Y13253850D01*
X10705306Y13253848D01*
X10707950Y13248658D01*
X10797658Y13158950D01*
X10802848Y13156306D01*
X10802850Y13156304D01*
X10905502Y13104000D01*
X10905505Y13103999D01*
X10910696Y13101354D01*
X10922983Y13099408D01*
X10923077Y13099393D01*
X10967349Y13074851D01*
X10985500Y13026304D01*
X10985500Y12967696D01*
X10968187Y12920130D01*
X10923078Y12894607D01*
X10910696Y12892646D01*
X10854177Y12863848D01*
X10802850Y12837696D01*
X10802848Y12837694D01*
X10797658Y12835050D01*
X10707950Y12745342D01*
X10705306Y12740152D01*
X10705304Y12740150D01*
X10653000Y12637498D01*
X10650354Y12632304D01*
X10649443Y12626552D01*
X10649442Y12626549D01*
X10635955Y12541392D01*
X10635500Y12538519D01*
X10635501Y12075482D01*
X10635956Y12072610D01*
X10635956Y12072608D01*
X10638380Y12057305D01*
X10650354Y11981696D01*
X10664321Y11954285D01*
X10705304Y11873850D01*
X10705306Y11873848D01*
X10707950Y11868658D01*
X10797658Y11778950D01*
X10802848Y11776306D01*
X10802850Y11776304D01*
X10905502Y11724000D01*
X10905505Y11723999D01*
X10910696Y11721354D01*
X10916448Y11720443D01*
X10916451Y11720442D01*
X11001608Y11706955D01*
X11004481Y11706500D01*
X11043199Y11706500D01*
X11420521Y11706501D01*
X11468087Y11689188D01*
X11472847Y11684827D01*
X11711401Y11446273D01*
X11715762Y11441514D01*
X11741440Y11410911D01*
X11776044Y11390933D01*
X11781484Y11387467D01*
X11808908Y11368264D01*
X11814211Y11364551D01*
X11820463Y11362876D01*
X11825013Y11360754D01*
X11830537Y11358466D01*
X11835248Y11356752D01*
X11840850Y11353517D01*
X11847221Y11352394D01*
X11847223Y11352393D01*
X11870624Y11348267D01*
X11880192Y11346580D01*
X11886491Y11345184D01*
X11925088Y11334841D01*
X11931538Y11335405D01*
X11937987Y11334841D01*
X11937789Y11332577D01*
X11977183Y11322026D01*
X11993452Y11306453D01*
X12047648Y11235823D01*
X12051499Y11232868D01*
X12169241Y11142521D01*
X12169245Y11142519D01*
X12173089Y11139569D01*
X12319168Y11079061D01*
X12323970Y11078429D01*
X12323973Y11078428D01*
X12471122Y11059056D01*
X12475930Y11058423D01*
X12480738Y11059056D01*
X12627887Y11078428D01*
X12627890Y11078429D01*
X12632692Y11079061D01*
X12778771Y11139569D01*
X12782615Y11142519D01*
X12782619Y11142521D01*
X12900361Y11232868D01*
X12904212Y11235823D01*
X12907417Y11240000D01*
X12997514Y11357416D01*
X12997516Y11357420D01*
X13000466Y11361264D01*
X13060974Y11507343D01*
X13062970Y11522499D01*
X13080979Y11659297D01*
X13081612Y11664105D01*
X13076031Y11706500D01*
X13061607Y11816062D01*
X13061606Y11816065D01*
X13060974Y11820867D01*
X13000466Y11966946D01*
X12997516Y11970790D01*
X12997514Y11970794D01*
X12907167Y12088536D01*
X12904212Y12092387D01*
X12855366Y12129868D01*
X12804639Y12168792D01*
X12777441Y12211483D01*
X12784048Y12261669D01*
X12821368Y12295867D01*
X12849687Y12301500D01*
X13181500Y12301500D01*
X13229066Y12284187D01*
X13254376Y12240350D01*
X13255500Y12227500D01*
X13255500Y11387263D01*
X13250040Y11359816D01*
X13246485Y11354495D01*
X13245063Y11347346D01*
X13240027Y11322026D01*
X13230500Y11274133D01*
X13230501Y9919868D01*
X13231211Y9916300D01*
X13231211Y9916297D01*
X13244334Y9850321D01*
X13246485Y9839505D01*
X13250533Y9833447D01*
X13253324Y9826708D01*
X13251145Y9825806D01*
X13260580Y9787247D01*
X13238192Y9741848D01*
X13215338Y9726936D01*
X13182640Y9713393D01*
X13182634Y9713390D01*
X13178159Y9711536D01*
X13174315Y9708586D01*
X13174311Y9708584D01*
X13056569Y9618237D01*
X13052718Y9615282D01*
X13022507Y9575910D01*
X12979818Y9548714D01*
X12929632Y9555321D01*
X12911475Y9568634D01*
X12008174Y10471935D01*
X11986782Y10517811D01*
X11986500Y10524261D01*
X11986499Y10885609D01*
X11986499Y10888518D01*
X11971646Y10982304D01*
X11929446Y11065126D01*
X11916696Y11090150D01*
X11916693Y11090154D01*
X11914050Y11095342D01*
X11824342Y11185050D01*
X11819152Y11187694D01*
X11819150Y11187696D01*
X11716498Y11240000D01*
X11716495Y11240001D01*
X11711304Y11242646D01*
X11705552Y11243557D01*
X11705549Y11243558D01*
X11620392Y11257045D01*
X11617519Y11257500D01*
X11614610Y11257500D01*
X11311001Y11257499D01*
X11004482Y11257499D01*
X11001610Y11257044D01*
X11001608Y11257044D01*
X10969910Y11252024D01*
X10910696Y11242646D01*
X10891506Y11232868D01*
X10802850Y11187696D01*
X10802848Y11187694D01*
X10797658Y11185050D01*
X10707950Y11095342D01*
X10699654Y11079061D01*
X10696517Y11072904D01*
X10659496Y11038382D01*
X10630583Y11032500D01*
X10512689Y11032500D01*
X10465123Y11049813D01*
X10446758Y11072900D01*
X10389528Y11185220D01*
X10294220Y11280528D01*
X10289030Y11283172D01*
X10289028Y11283174D01*
X10179320Y11339073D01*
X10179317Y11339074D01*
X10174126Y11341719D01*
X10168374Y11342630D01*
X10168371Y11342631D01*
X10077361Y11357045D01*
X10074488Y11357500D01*
X9507512Y11357500D01*
X9504639Y11357045D01*
X9413629Y11342631D01*
X9413626Y11342630D01*
X9407874Y11341719D01*
X9402683Y11339074D01*
X9402680Y11339073D01*
X9292972Y11283174D01*
X9292970Y11283172D01*
X9287780Y11280528D01*
X9192472Y11185220D01*
X9189829Y11180032D01*
X9189826Y11180028D01*
X9135244Y11072904D01*
X9131281Y11065126D01*
X9130370Y11059374D01*
X9130369Y11059371D01*
X9118986Y10987496D01*
X9115500Y10965488D01*
X9115500Y10448512D01*
X9115955Y10445639D01*
X9130369Y10354629D01*
X9130370Y10354626D01*
X9131281Y10348874D01*
X9133926Y10343683D01*
X9133927Y10343680D01*
X9189826Y10233972D01*
X9189828Y10233970D01*
X9192472Y10228780D01*
X9287780Y10133472D01*
X9292970Y10130828D01*
X9292972Y10130826D01*
X9402680Y10074927D01*
X9402683Y10074926D01*
X9407874Y10072281D01*
X9413626Y10071370D01*
X9413629Y10071369D01*
X9504639Y10056955D01*
X9507512Y10056500D01*
X10074488Y10056500D01*
X10077361Y10056955D01*
X10168371Y10071369D01*
X10168374Y10071370D01*
X10174126Y10072281D01*
X10179317Y10074926D01*
X10179320Y10074927D01*
X10289028Y10130826D01*
X10289030Y10130828D01*
X10294220Y10133472D01*
X10389528Y10228780D01*
X10446757Y10341097D01*
X10483775Y10375617D01*
X10512689Y10381500D01*
X10581366Y10381500D01*
X10628932Y10364187D01*
X10650202Y10332654D01*
X10650354Y10331696D01*
X10679152Y10275177D01*
X10705304Y10223850D01*
X10705306Y10223848D01*
X10707950Y10218658D01*
X10797658Y10128950D01*
X10802848Y10126306D01*
X10802850Y10126304D01*
X10905502Y10074000D01*
X10905505Y10073999D01*
X10910696Y10071354D01*
X10916448Y10070443D01*
X10916451Y10070442D01*
X11001608Y10056955D01*
X11004481Y10056500D01*
X11047688Y10056500D01*
X11472304Y10056501D01*
X11519870Y10039188D01*
X11524630Y10034827D01*
X12590289Y8969168D01*
X12594650Y8964409D01*
X12620328Y8933806D01*
X12654932Y8913828D01*
X12660372Y8910362D01*
X12693099Y8887446D01*
X12699351Y8885771D01*
X12703901Y8883649D01*
X12709425Y8881361D01*
X12714136Y8879647D01*
X12719738Y8876412D01*
X12726109Y8875289D01*
X12726111Y8875288D01*
X12749512Y8871162D01*
X12759080Y8869475D01*
X12765379Y8868079D01*
X12803976Y8857736D01*
X12810424Y8858300D01*
X12810425Y8858300D01*
X12843774Y8861218D01*
X12850224Y8861500D01*
X12937359Y8861500D01*
X12984925Y8844187D01*
X12996065Y8832550D01*
X13052718Y8758718D01*
X13056569Y8755763D01*
X13174311Y8665416D01*
X13174315Y8665414D01*
X13178159Y8662464D01*
X13314828Y8605854D01*
X13352148Y8571656D01*
X13358755Y8521471D01*
X13338835Y8485161D01*
X12863168Y8009494D01*
X12858409Y8005133D01*
X12827806Y7979455D01*
X12824568Y7973846D01*
X12807831Y7944856D01*
X12804362Y7939411D01*
X12781446Y7906684D01*
X12779771Y7900432D01*
X12777649Y7895882D01*
X12775361Y7890358D01*
X12773647Y7885647D01*
X12770412Y7880045D01*
X12764282Y7845275D01*
X12763476Y7840706D01*
X12762079Y7834404D01*
X12751736Y7795807D01*
X12752300Y7789359D01*
X12752300Y7789358D01*
X12755218Y7756009D01*
X12755500Y7749559D01*
X12755500Y6987263D01*
X12750040Y6959816D01*
X12746485Y6954495D01*
X12730500Y6874133D01*
X12730500Y6870493D01*
X12730501Y5572479D01*
X12713188Y5524913D01*
X12708827Y5520153D01*
X11192848Y4004174D01*
X11146972Y3982782D01*
X11140522Y3982500D01*
X10763200Y3982499D01*
X10724482Y3982499D01*
X10721610Y3982044D01*
X10721608Y3982044D01*
X10709018Y3980050D01*
X10630696Y3967646D01*
X10574177Y3938848D01*
X10522850Y3912696D01*
X10522848Y3912694D01*
X10517658Y3910050D01*
X10427950Y3820342D01*
X10388493Y3742903D01*
X10351474Y3708383D01*
X10322560Y3702500D01*
X10246696Y3702500D01*
X10199130Y3719813D01*
X10173607Y3764922D01*
X10172557Y3771551D01*
X10171646Y3777304D01*
X10142523Y3834461D01*
X10116696Y3885150D01*
X10116694Y3885152D01*
X10114050Y3890342D01*
X10024342Y3980050D01*
X10019152Y3982694D01*
X10019150Y3982696D01*
X9916498Y4035000D01*
X9916495Y4035001D01*
X9911304Y4037646D01*
X9905552Y4038557D01*
X9905549Y4038558D01*
X9820392Y4052045D01*
X9817519Y4052500D01*
X9814610Y4052500D01*
X9586001Y4052499D01*
X9354482Y4052499D01*
X9351610Y4052044D01*
X9351608Y4052044D01*
X9319910Y4047024D01*
X9260696Y4037646D01*
X9225501Y4019713D01*
X9152850Y3982696D01*
X9152848Y3982694D01*
X9147658Y3980050D01*
X9057950Y3890342D01*
X9055306Y3885152D01*
X9055304Y3885150D01*
X9003000Y3782498D01*
X9000354Y3777304D01*
X8999443Y3771552D01*
X8999442Y3771549D01*
X8989438Y3708383D01*
X8985500Y3683519D01*
X8985501Y3070482D01*
X8985956Y3067610D01*
X8985956Y3067608D01*
X8993751Y3018389D01*
X8984092Y2968700D01*
X8944753Y2936845D01*
X8894142Y2937729D01*
X8868336Y2954488D01*
X8558174Y3264650D01*
X8536782Y3310526D01*
X8536500Y3316976D01*
X8536499Y3680609D01*
X8536499Y3683518D01*
X8521646Y3777304D01*
X8492523Y3834461D01*
X8466696Y3885150D01*
X8466694Y3885152D01*
X8464050Y3890342D01*
X8374342Y3980050D01*
X8336904Y3999126D01*
X8302382Y4036146D01*
X8296500Y4065060D01*
X8296500Y6424126D01*
X8313813Y6471692D01*
X8357650Y6497002D01*
X8407500Y6488212D01*
X8415545Y6482836D01*
X8468159Y6442464D01*
X8614238Y6381956D01*
X8619040Y6381324D01*
X8619043Y6381323D01*
X8766192Y6361951D01*
X8771000Y6361318D01*
X8775808Y6361951D01*
X8922957Y6381323D01*
X8922960Y6381324D01*
X8927762Y6381956D01*
X9073841Y6442464D01*
X9077685Y6445414D01*
X9077689Y6445416D01*
X9195431Y6535763D01*
X9199282Y6538718D01*
X9202237Y6542569D01*
X9292584Y6660311D01*
X9292586Y6660315D01*
X9295536Y6664159D01*
X9356044Y6810238D01*
X9358710Y6830482D01*
X9376049Y6962192D01*
X9376682Y6967000D01*
X9356044Y7123762D01*
X9295536Y7269841D01*
X9211170Y7379789D01*
X9195949Y7428063D01*
X9217553Y7477161D01*
X9304050Y7563658D01*
X9306694Y7568848D01*
X9306696Y7568850D01*
X9359000Y7671502D01*
X9359001Y7671505D01*
X9361646Y7676696D01*
X9362557Y7682448D01*
X9362558Y7682451D01*
X9376045Y7767608D01*
X9376500Y7770481D01*
X9376499Y8383518D01*
X9361646Y8477304D01*
X9313571Y8571656D01*
X9306696Y8585150D01*
X9306694Y8585152D01*
X9304050Y8590342D01*
X9214342Y8680050D01*
X9209152Y8682694D01*
X9209150Y8682696D01*
X9106498Y8735000D01*
X9106495Y8735001D01*
X9101304Y8737646D01*
X9095552Y8738557D01*
X9095549Y8738558D01*
X9010392Y8752045D01*
X9007519Y8752500D01*
X9004610Y8752500D01*
X8776001Y8752499D01*
X8544482Y8752499D01*
X8541610Y8752044D01*
X8541608Y8752044D01*
X8509910Y8747024D01*
X8450696Y8737646D01*
X8404093Y8713901D01*
X8353854Y8707731D01*
X8311401Y8735300D01*
X8296500Y8779835D01*
X8296500Y11782024D01*
X8313813Y11829590D01*
X8318174Y11834350D01*
X10518335Y14034511D01*
X10564211Y14055903D01*
X10613106Y14042802D01*
G37*
%TD.AperFunction*%
%TD*%
%TA.AperFunction,Conductor*%
%TO.N,Net-(D2-Pad2)*%
G36*
X16823121Y22306998D02*
G01*
X16869614Y22253342D01*
X16881000Y22201000D01*
X16881000Y19277000D01*
X17301000Y17927000D01*
X18975000Y17927000D01*
X19043121Y17906998D01*
X19089614Y17853342D01*
X19101000Y17801000D01*
X19101000Y15553000D01*
X19080998Y15484879D01*
X19027342Y15438386D01*
X18975000Y15427000D01*
X17391890Y15427000D01*
X17323769Y15447002D01*
X17277276Y15500658D01*
X17272325Y15513248D01*
X16027435Y19257645D01*
X16021000Y19297397D01*
X16021000Y22201000D01*
X16041002Y22269121D01*
X16094658Y22315614D01*
X16147000Y22327000D01*
X16755000Y22327000D01*
X16823121Y22306998D01*
G37*
%TD.AperFunction*%
%TD*%
M02*
