%TF.GenerationSoftware,KiCad,Pcbnew,(6.0.1)*%
%TF.CreationDate,2023-01-05T10:23:13+08:00*%
%TF.ProjectId,Solenoid valve,536f6c65-6e6f-4696-9420-76616c76652e,rev?*%
%TF.SameCoordinates,Original*%
%TF.FileFunction,Copper,L1,Top*%
%TF.FilePolarity,Positive*%
%FSLAX46Y46*%
G04 Gerber Fmt 4.6, Leading zero omitted, Abs format (unit mm)*
G04 Created by KiCad (PCBNEW (6.0.1)) date 2023-01-05 10:23:13*
%MOMM*%
%LPD*%
G01*
G04 APERTURE LIST*
G04 Aperture macros list*
%AMRoundRect*
0 Rectangle with rounded corners*
0 $1 Rounding radius*
0 $2 $3 $4 $5 $6 $7 $8 $9 X,Y pos of 4 corners*
0 Add a 4 corners polygon primitive as box body*
4,1,4,$2,$3,$4,$5,$6,$7,$8,$9,$2,$3,0*
0 Add four circle primitives for the rounded corners*
1,1,$1+$1,$2,$3*
1,1,$1+$1,$4,$5*
1,1,$1+$1,$6,$7*
1,1,$1+$1,$8,$9*
0 Add four rect primitives between the rounded corners*
20,1,$1+$1,$2,$3,$4,$5,0*
20,1,$1+$1,$4,$5,$6,$7,0*
20,1,$1+$1,$6,$7,$8,$9,0*
20,1,$1+$1,$8,$9,$2,$3,0*%
G04 Aperture macros list end*
%TA.AperFunction,SMDPad,CuDef*%
%ADD10RoundRect,0.137500X-0.662500X-0.137500X0.662500X-0.137500X0.662500X0.137500X-0.662500X0.137500X0*%
%TD*%
%TA.AperFunction,SMDPad,CuDef*%
%ADD11RoundRect,0.150000X0.150000X-0.587500X0.150000X0.587500X-0.150000X0.587500X-0.150000X-0.587500X0*%
%TD*%
%TA.AperFunction,ComponentPad*%
%ADD12R,3.000000X3.000000*%
%TD*%
%TA.AperFunction,ComponentPad*%
%ADD13C,3.000000*%
%TD*%
%TA.AperFunction,SMDPad,CuDef*%
%ADD14R,0.850000X0.500000*%
%TD*%
%TA.AperFunction,SMDPad,CuDef*%
%ADD15R,4.550000X4.410000*%
%TD*%
%TA.AperFunction,SMDPad,CuDef*%
%ADD16RoundRect,0.200000X0.200000X0.275000X-0.200000X0.275000X-0.200000X-0.275000X0.200000X-0.275000X0*%
%TD*%
%TA.AperFunction,SMDPad,CuDef*%
%ADD17RoundRect,0.218750X0.218750X0.256250X-0.218750X0.256250X-0.218750X-0.256250X0.218750X-0.256250X0*%
%TD*%
%TA.AperFunction,ComponentPad*%
%ADD18RoundRect,0.750000X0.750000X-0.750000X0.750000X0.750000X-0.750000X0.750000X-0.750000X-0.750000X0*%
%TD*%
%TA.AperFunction,SMDPad,CuDef*%
%ADD19RoundRect,0.150000X-0.150000X-0.700000X0.150000X-0.700000X0.150000X0.700000X-0.150000X0.700000X0*%
%TD*%
%TA.AperFunction,SMDPad,CuDef*%
%ADD20RoundRect,0.250000X-0.250000X-1.100000X0.250000X-1.100000X0.250000X1.100000X-0.250000X1.100000X0*%
%TD*%
%TA.AperFunction,ViaPad*%
%ADD21C,0.800000*%
%TD*%
%TA.AperFunction,Conductor*%
%ADD22C,0.250000*%
%TD*%
G04 APERTURE END LIST*
D10*
%TO.P,U1,1*%
%TO.N,Net-(J1-Pad2)*%
X5271000Y10127000D03*
%TO.P,U1,2*%
%TO.N,Net-(J1-Pad1)*%
X5271000Y7587000D03*
%TO.P,U1,3*%
%TO.N,GND*%
X11771000Y7587000D03*
%TO.P,U1,4*%
%TO.N,Net-(R1-Pad1)*%
X11771000Y10127000D03*
%TD*%
D11*
%TO.P,Q1,1,Base*%
%TO.N,Net-(C1-Pad2)*%
X14761000Y9229500D03*
%TO.P,Q1,2,Emitter*%
%TO.N,GND*%
X16661000Y9229500D03*
%TO.P,Q1,3,Collector*%
%TO.N,Net-(Q1-Pad3)*%
X15711000Y11104500D03*
%TD*%
D12*
%TO.P,J2,1,Pin_1*%
%TO.N,Net-(J2-Pad1)*%
X23111000Y19707000D03*
D13*
%TO.P,J2,2,Pin_2*%
%TO.N,GND*%
X23111000Y14707000D03*
%TD*%
D14*
%TO.P,Q2,1,S*%
%TO.N,Net-(J2-Pad1)*%
X16451000Y18432000D03*
%TO.P,Q2,2,S*%
X16451000Y19702000D03*
%TO.P,Q2,3,S*%
X16451000Y20972000D03*
%TO.P,Q2,4,G*%
%TO.N,Net-(Q2-Pad4)*%
X16451000Y22242000D03*
D15*
%TO.P,Q2,5,D*%
%TO.N,+24V*%
X12501000Y20337000D03*
%TD*%
D16*
%TO.P,R11,1*%
%TO.N,Net-(D1-Pad2)*%
X21081000Y9547000D03*
%TO.P,R11,2*%
%TO.N,Net-(J2-Pad1)*%
X19431000Y9547000D03*
%TD*%
D17*
%TO.P,D1,1,K*%
%TO.N,GND*%
X24063500Y9547000D03*
%TO.P,D1,2,A*%
%TO.N,Net-(D1-Pad2)*%
X22488500Y9547000D03*
%TD*%
D18*
%TO.P,J3,1,Pin_1*%
%TO.N,+24V*%
X4211000Y19977000D03*
D13*
%TO.P,J3,2,Pin_2*%
%TO.N,GND*%
X4211000Y14977000D03*
%TD*%
D19*
%TO.P,J1,1,Pin_1*%
%TO.N,Net-(J1-Pad1)*%
X7126000Y5287000D03*
%TO.P,J1,2,Pin_2*%
%TO.N,Net-(J1-Pad2)*%
X8376000Y5287000D03*
D20*
%TO.P,J1,MP*%
%TO.N,N/C*%
X5276000Y2087000D03*
X10226000Y2087000D03*
%TD*%
D21*
%TO.N,Net-(J2-Pad1)*%
X20611000Y20357000D03*
X17611000Y19357000D03*
X17921000Y9547000D03*
X19111000Y20357000D03*
X20611000Y19357000D03*
X17611000Y20357000D03*
X19111000Y19357000D03*
%TO.N,+24V*%
X9611000Y19357000D03*
X12111000Y19857000D03*
X8111000Y19357000D03*
X14111000Y20857000D03*
X11111000Y19857000D03*
X11111000Y18857000D03*
X13111000Y20857000D03*
X14111000Y18857000D03*
X14111000Y21857000D03*
X13111000Y21857000D03*
X12111000Y21857000D03*
X13111000Y19857000D03*
X12111000Y18857000D03*
X8111000Y20357000D03*
X11111000Y20857000D03*
X6611000Y19357000D03*
X9611000Y20357000D03*
X13111000Y18857000D03*
X6611000Y20357000D03*
X11111000Y21857000D03*
X14111000Y19857000D03*
X12111000Y20857000D03*
%TO.N,Net-(R1-Pad1)*%
X12223366Y11339666D03*
%TO.N,GND*%
X21111000Y6357000D03*
X23611000Y4857000D03*
X22611000Y6357000D03*
X10011000Y6107000D03*
X22111000Y4857000D03*
%TO.N,Net-(C1-Pad2)*%
X13481000Y9187000D03*
%TO.N,Net-(Q1-Pad3)*%
X15711021Y8822980D03*
%TO.N,Net-(Q2-Pad4)*%
X16771000Y15337000D03*
%TD*%
D22*
%TO.N,Net-(J2-Pad1)*%
X17921000Y9547000D02*
X19431000Y9547000D01*
%TO.N,Net-(R1-Pad1)*%
X11771000Y10127000D02*
X11771000Y10887300D01*
X11771000Y10887300D02*
X12223366Y11339666D01*
%TO.N,Net-(J1-Pad1)*%
X6761000Y7587000D02*
X5271000Y7587000D01*
X7126000Y5287000D02*
X7126000Y7222000D01*
X7126000Y7222000D02*
X6761000Y7587000D01*
%TO.N,Net-(J1-Pad2)*%
X8376000Y5287000D02*
X8376000Y9152000D01*
X8376000Y9152000D02*
X7401000Y10127000D01*
X7401000Y10127000D02*
X5271000Y10127000D01*
%TO.N,Net-(C1-Pad2)*%
X13481000Y9187000D02*
X14718500Y9187000D01*
%TO.N,Net-(D1-Pad2)*%
X21081000Y9547000D02*
X22488500Y9547000D01*
%TO.N,Net-(Q1-Pad3)*%
X15711021Y11104479D02*
X15711000Y11104500D01*
X15711021Y8822980D02*
X15711021Y11104479D01*
%TO.N,Net-(Q2-Pad4)*%
X16451000Y22242000D02*
X15471000Y21262000D01*
X15471000Y16637000D02*
X16771000Y15337000D01*
X16396978Y22242000D02*
X16451000Y22242000D01*
X15471000Y21262000D02*
X15471000Y16637000D01*
%TD*%
%TA.AperFunction,Conductor*%
%TO.N,Net-(J2-Pad1)*%
G36*
X18102808Y9903119D02*
G01*
X18157828Y9874473D01*
X18165005Y9870737D01*
X18165534Y9870444D01*
X18224938Y9835504D01*
X18225214Y9835334D01*
X18277809Y9802119D01*
X18277811Y9802116D01*
X18277812Y9802117D01*
X18326640Y9771262D01*
X18374647Y9743477D01*
X18374849Y9743380D01*
X18374855Y9743377D01*
X18405233Y9728818D01*
X18424935Y9719375D01*
X18480610Y9699565D01*
X18480931Y9699491D01*
X18480929Y9699491D01*
X18544475Y9684729D01*
X18544478Y9684729D01*
X18544777Y9684659D01*
X18545086Y9684621D01*
X18545090Y9684620D01*
X18589113Y9679163D01*
X18620538Y9675267D01*
X18672290Y9673398D01*
X18675778Y9673272D01*
X18675779Y9673272D01*
X18711000Y9672000D01*
X18711000Y9422000D01*
X18620538Y9418734D01*
X18589113Y9414838D01*
X18545090Y9409381D01*
X18545086Y9409380D01*
X18544777Y9409342D01*
X18544478Y9409272D01*
X18544475Y9409272D01*
X18506442Y9400437D01*
X18480610Y9394436D01*
X18424935Y9374626D01*
X18424660Y9374494D01*
X18374855Y9350624D01*
X18374849Y9350621D01*
X18374647Y9350524D01*
X18326640Y9322739D01*
X18277812Y9291884D01*
X18225214Y9258667D01*
X18224938Y9258497D01*
X18174260Y9228689D01*
X18165534Y9223557D01*
X18165005Y9223264D01*
X18102809Y9190881D01*
X18093889Y9190100D01*
X18089298Y9192825D01*
X17729769Y9538567D01*
X17726181Y9546771D01*
X17729769Y9555433D01*
X18089297Y9901174D01*
X18097636Y9904439D01*
X18102808Y9903119D01*
G37*
%TD.AperFunction*%
%TD*%
%TA.AperFunction,Conductor*%
%TO.N,Net-(J2-Pad1)*%
G36*
X19262703Y9901174D02*
G01*
X19622231Y9555433D01*
X19625819Y9547229D01*
X19622231Y9538567D01*
X19262703Y9192826D01*
X19254365Y9189561D01*
X19249191Y9190881D01*
X19186994Y9223264D01*
X19186465Y9223557D01*
X19177739Y9228689D01*
X19127061Y9258497D01*
X19126785Y9258667D01*
X19074190Y9291882D01*
X19074188Y9291885D01*
X19074187Y9291884D01*
X19025437Y9322690D01*
X19025427Y9322696D01*
X19025359Y9322739D01*
X18977352Y9350524D01*
X18977150Y9350621D01*
X18977144Y9350624D01*
X18927339Y9374494D01*
X18927064Y9374626D01*
X18871389Y9394436D01*
X18845557Y9400437D01*
X18807524Y9409272D01*
X18807521Y9409272D01*
X18807222Y9409342D01*
X18806913Y9409380D01*
X18806909Y9409381D01*
X18762886Y9414838D01*
X18731461Y9418734D01*
X18641000Y9422000D01*
X18641000Y9672000D01*
X18676000Y9673264D01*
X18731461Y9675267D01*
X18762886Y9679163D01*
X18806909Y9684620D01*
X18806913Y9684621D01*
X18807222Y9684659D01*
X18807521Y9684729D01*
X18807524Y9684729D01*
X18871070Y9699491D01*
X18871068Y9699491D01*
X18871389Y9699565D01*
X18927064Y9719375D01*
X18946766Y9728818D01*
X18977144Y9743377D01*
X18977150Y9743380D01*
X18977352Y9743477D01*
X19025359Y9771262D01*
X19074187Y9802117D01*
X19126785Y9835334D01*
X19127061Y9835504D01*
X19186465Y9870444D01*
X19186994Y9870737D01*
X19194879Y9874842D01*
X19249191Y9903119D01*
X19258111Y9903900D01*
X19262703Y9901174D01*
G37*
%TD.AperFunction*%
%TD*%
%TA.AperFunction,Conductor*%
%TO.N,Net-(R1-Pad1)*%
G36*
X11892820Y10668573D02*
G01*
X11896244Y10660550D01*
X11897303Y10610732D01*
X11901180Y10558450D01*
X11907576Y10513347D01*
X11916440Y10473617D01*
X11927720Y10437452D01*
X11941361Y10403046D01*
X11957312Y10368592D01*
X11957358Y10368501D01*
X11975510Y10332303D01*
X11975521Y10332282D01*
X11995901Y10292374D01*
X11995960Y10292257D01*
X12014837Y10254246D01*
X12015448Y10245312D01*
X12012791Y10240932D01*
X11779433Y9998269D01*
X11771229Y9994681D01*
X11762567Y9998269D01*
X11529209Y10240932D01*
X11525944Y10249271D01*
X11527163Y10254246D01*
X11546039Y10292257D01*
X11546098Y10292374D01*
X11566478Y10332282D01*
X11566489Y10332303D01*
X11584641Y10368501D01*
X11584687Y10368592D01*
X11600638Y10403046D01*
X11614279Y10437452D01*
X11625559Y10473617D01*
X11634423Y10513347D01*
X11640819Y10558450D01*
X11644696Y10610732D01*
X11645756Y10660550D01*
X11649358Y10668747D01*
X11657453Y10672000D01*
X11884547Y10672000D01*
X11892820Y10668573D01*
G37*
%TD.AperFunction*%
%TD*%
%TA.AperFunction,Conductor*%
%TO.N,Net-(R1-Pad1)*%
G36*
X12358701Y11475955D02*
G01*
X12364107Y11468817D01*
X12364485Y11465631D01*
X12354807Y10970590D01*
X12351219Y10962386D01*
X12346169Y10959526D01*
X12291855Y10944808D01*
X12290641Y10944548D01*
X12227427Y10934447D01*
X12226769Y10934360D01*
X12163863Y10927938D01*
X12163787Y10927931D01*
X12103506Y10922176D01*
X12103504Y10922176D01*
X12103360Y10922162D01*
X12047335Y10913946D01*
X11997549Y10900169D01*
X11955762Y10877710D01*
X11923734Y10843450D01*
X11903227Y10794268D01*
X11903137Y10793435D01*
X11903137Y10793433D01*
X11897123Y10737492D01*
X11892831Y10729633D01*
X11885490Y10727043D01*
X11658384Y10727043D01*
X11650111Y10730470D01*
X11646703Y10739408D01*
X11650924Y10813591D01*
X11651101Y10815058D01*
X11664307Y10886301D01*
X11664678Y10887768D01*
X11684112Y10947881D01*
X11684580Y10949093D01*
X11708264Y11001593D01*
X11708626Y11002326D01*
X11734641Y11050671D01*
X11734709Y11050796D01*
X11760858Y11098006D01*
X11760933Y11098141D01*
X11785054Y11147435D01*
X11804919Y11201925D01*
X11818399Y11264904D01*
X11822807Y11331253D01*
X11826774Y11339280D01*
X11831524Y11341797D01*
X12349830Y11477180D01*
X12358701Y11475955D01*
G37*
%TD.AperFunction*%
%TD*%
%TA.AperFunction,Conductor*%
%TO.N,Net-(J1-Pad1)*%
G36*
X5398245Y7830837D02*
G01*
X5417749Y7821152D01*
X5436256Y7811961D01*
X5436373Y7811902D01*
X5476281Y7791522D01*
X5512591Y7773313D01*
X5512704Y7773261D01*
X5512722Y7773252D01*
X5546895Y7757431D01*
X5546908Y7757425D01*
X5547045Y7757362D01*
X5547192Y7757304D01*
X5547196Y7757302D01*
X5581233Y7743807D01*
X5581243Y7743803D01*
X5581451Y7743721D01*
X5581670Y7743653D01*
X5581672Y7743652D01*
X5617375Y7732516D01*
X5617379Y7732515D01*
X5617616Y7732441D01*
X5617859Y7732387D01*
X5617862Y7732386D01*
X5650327Y7725143D01*
X5657346Y7723577D01*
X5657573Y7723545D01*
X5657572Y7723545D01*
X5702265Y7717207D01*
X5702268Y7717207D01*
X5702449Y7717181D01*
X5702623Y7717168D01*
X5702633Y7717167D01*
X5754577Y7713315D01*
X5754731Y7713304D01*
X5804550Y7712244D01*
X5812747Y7708642D01*
X5816000Y7700547D01*
X5816000Y7473453D01*
X5812573Y7465180D01*
X5804550Y7461756D01*
X5754731Y7460697D01*
X5754577Y7460686D01*
X5702633Y7456834D01*
X5702623Y7456833D01*
X5702449Y7456820D01*
X5702268Y7456794D01*
X5702265Y7456794D01*
X5672969Y7452639D01*
X5657346Y7450424D01*
X5657121Y7450374D01*
X5657122Y7450374D01*
X5617862Y7441615D01*
X5617859Y7441614D01*
X5617616Y7441560D01*
X5617379Y7441486D01*
X5617375Y7441485D01*
X5581672Y7430349D01*
X5581451Y7430280D01*
X5581243Y7430198D01*
X5581233Y7430194D01*
X5547196Y7416699D01*
X5547045Y7416639D01*
X5546908Y7416576D01*
X5546895Y7416570D01*
X5512729Y7400752D01*
X5512591Y7400688D01*
X5476281Y7382479D01*
X5436373Y7362099D01*
X5436256Y7362040D01*
X5421389Y7354657D01*
X5398245Y7343163D01*
X5389312Y7342552D01*
X5384932Y7345209D01*
X5327175Y7400752D01*
X5142269Y7578567D01*
X5138681Y7586771D01*
X5142269Y7595433D01*
X5384933Y7828791D01*
X5393271Y7832056D01*
X5398245Y7830837D01*
G37*
%TD.AperFunction*%
%TD*%
%TA.AperFunction,Conductor*%
%TO.N,Net-(J1-Pad1)*%
G36*
X7247870Y5873573D02*
G01*
X7251293Y5865601D01*
X7252711Y5810478D01*
X7257731Y5754014D01*
X7265883Y5705554D01*
X7276994Y5663042D01*
X7290888Y5624422D01*
X7307391Y5587640D01*
X7307457Y5587510D01*
X7307458Y5587509D01*
X7326309Y5550676D01*
X7326328Y5550638D01*
X7347500Y5511408D01*
X7347525Y5511362D01*
X7370753Y5467858D01*
X7370880Y5467612D01*
X7392270Y5425167D01*
X7392933Y5416237D01*
X7390255Y5411792D01*
X7134433Y5145769D01*
X7126229Y5142181D01*
X7117567Y5145769D01*
X6861745Y5411792D01*
X6858480Y5420131D01*
X6859730Y5425167D01*
X6881119Y5467612D01*
X6881246Y5467858D01*
X6904449Y5511316D01*
X6904474Y5511362D01*
X6925671Y5550638D01*
X6925690Y5550676D01*
X6944541Y5587509D01*
X6944542Y5587510D01*
X6944608Y5587640D01*
X6961111Y5624422D01*
X6975005Y5663042D01*
X6986116Y5705554D01*
X6994268Y5754014D01*
X6999288Y5810478D01*
X7000707Y5865601D01*
X7004345Y5873783D01*
X7012403Y5877000D01*
X7239597Y5877000D01*
X7247870Y5873573D01*
G37*
%TD.AperFunction*%
%TD*%
%TA.AperFunction,Conductor*%
%TO.N,Net-(J1-Pad2)*%
G36*
X8497870Y5873573D02*
G01*
X8501293Y5865601D01*
X8502711Y5810478D01*
X8507731Y5754014D01*
X8515883Y5705554D01*
X8526994Y5663042D01*
X8540888Y5624422D01*
X8557391Y5587640D01*
X8557457Y5587510D01*
X8557458Y5587509D01*
X8576309Y5550676D01*
X8576328Y5550638D01*
X8597500Y5511408D01*
X8597525Y5511362D01*
X8620753Y5467858D01*
X8620880Y5467612D01*
X8642270Y5425167D01*
X8642933Y5416237D01*
X8640255Y5411792D01*
X8384433Y5145769D01*
X8376229Y5142181D01*
X8367567Y5145769D01*
X8111745Y5411792D01*
X8108480Y5420131D01*
X8109730Y5425167D01*
X8131119Y5467612D01*
X8131246Y5467858D01*
X8154449Y5511316D01*
X8154474Y5511362D01*
X8175671Y5550638D01*
X8175690Y5550676D01*
X8194541Y5587509D01*
X8194542Y5587510D01*
X8194608Y5587640D01*
X8211111Y5624422D01*
X8225005Y5663042D01*
X8236116Y5705554D01*
X8244268Y5754014D01*
X8249288Y5810478D01*
X8250707Y5865601D01*
X8254345Y5873783D01*
X8262403Y5877000D01*
X8489597Y5877000D01*
X8497870Y5873573D01*
G37*
%TD.AperFunction*%
%TD*%
%TA.AperFunction,Conductor*%
%TO.N,Net-(J1-Pad2)*%
G36*
X5398245Y10370837D02*
G01*
X5417749Y10361152D01*
X5436256Y10351961D01*
X5436373Y10351902D01*
X5476281Y10331522D01*
X5512591Y10313313D01*
X5512704Y10313261D01*
X5512722Y10313252D01*
X5546895Y10297431D01*
X5546908Y10297425D01*
X5547045Y10297362D01*
X5547192Y10297304D01*
X5547196Y10297302D01*
X5581233Y10283807D01*
X5581243Y10283803D01*
X5581451Y10283721D01*
X5581670Y10283653D01*
X5581672Y10283652D01*
X5617375Y10272516D01*
X5617379Y10272515D01*
X5617616Y10272441D01*
X5617859Y10272387D01*
X5617862Y10272386D01*
X5650327Y10265143D01*
X5657346Y10263577D01*
X5657573Y10263545D01*
X5657572Y10263545D01*
X5702265Y10257207D01*
X5702268Y10257207D01*
X5702449Y10257181D01*
X5702623Y10257168D01*
X5702633Y10257167D01*
X5754577Y10253315D01*
X5754731Y10253304D01*
X5804550Y10252244D01*
X5812747Y10248642D01*
X5816000Y10240547D01*
X5816000Y10013453D01*
X5812573Y10005180D01*
X5804550Y10001756D01*
X5754731Y10000697D01*
X5754577Y10000686D01*
X5702633Y9996834D01*
X5702623Y9996833D01*
X5702449Y9996820D01*
X5702268Y9996794D01*
X5702265Y9996794D01*
X5672969Y9992639D01*
X5657346Y9990424D01*
X5657121Y9990374D01*
X5657122Y9990374D01*
X5617862Y9981615D01*
X5617859Y9981614D01*
X5617616Y9981560D01*
X5617379Y9981486D01*
X5617375Y9981485D01*
X5581672Y9970349D01*
X5581451Y9970280D01*
X5581243Y9970198D01*
X5581233Y9970194D01*
X5547196Y9956699D01*
X5547045Y9956639D01*
X5546908Y9956576D01*
X5546895Y9956570D01*
X5512729Y9940752D01*
X5512591Y9940688D01*
X5476281Y9922479D01*
X5436373Y9902099D01*
X5436256Y9902040D01*
X5421389Y9894657D01*
X5398245Y9883163D01*
X5389312Y9882552D01*
X5384932Y9885209D01*
X5327175Y9940752D01*
X5142269Y10118567D01*
X5138681Y10126771D01*
X5142269Y10135433D01*
X5384933Y10368791D01*
X5393271Y10372056D01*
X5398245Y10370837D01*
G37*
%TD.AperFunction*%
%TD*%
%TA.AperFunction,Conductor*%
%TO.N,Net-(C1-Pad2)*%
G36*
X13662808Y9543119D02*
G01*
X13717828Y9514473D01*
X13725005Y9510737D01*
X13725534Y9510444D01*
X13784938Y9475504D01*
X13785214Y9475334D01*
X13837809Y9442119D01*
X13837811Y9442116D01*
X13837812Y9442117D01*
X13886640Y9411262D01*
X13934647Y9383477D01*
X13934849Y9383380D01*
X13934855Y9383377D01*
X13965233Y9368818D01*
X13984935Y9359375D01*
X14040610Y9339565D01*
X14040931Y9339491D01*
X14040929Y9339491D01*
X14104475Y9324729D01*
X14104478Y9324729D01*
X14104777Y9324659D01*
X14105086Y9324621D01*
X14105090Y9324620D01*
X14149113Y9319163D01*
X14180538Y9315267D01*
X14213508Y9314076D01*
X14222342Y9313757D01*
X14222346Y9313757D01*
X14222539Y9313750D01*
X14222541Y9313750D01*
X14271000Y9312000D01*
X14271000Y9062000D01*
X14180538Y9058734D01*
X14164244Y9056714D01*
X14105090Y9049381D01*
X14105086Y9049380D01*
X14104777Y9049342D01*
X14104478Y9049272D01*
X14104475Y9049272D01*
X14066442Y9040437D01*
X14040610Y9034436D01*
X13984935Y9014626D01*
X13984660Y9014494D01*
X13934855Y8990624D01*
X13934849Y8990621D01*
X13934647Y8990524D01*
X13886640Y8962739D01*
X13837812Y8931884D01*
X13785214Y8898667D01*
X13784938Y8898497D01*
X13734260Y8868689D01*
X13725534Y8863557D01*
X13725005Y8863264D01*
X13662809Y8830881D01*
X13653889Y8830100D01*
X13649298Y8832825D01*
X13289769Y9178567D01*
X13286181Y9186771D01*
X13289769Y9195433D01*
X13649297Y9541174D01*
X13657636Y9544439D01*
X13662808Y9543119D01*
G37*
%TD.AperFunction*%
%TD*%
%TA.AperFunction,Conductor*%
%TO.N,Net-(C1-Pad2)*%
G36*
X14600621Y9473847D02*
G01*
X14819787Y9315299D01*
X14899684Y9257500D01*
X14904378Y9249874D01*
X14902030Y9240798D01*
X14698741Y8981743D01*
X14674185Y8950451D01*
X14666382Y8946058D01*
X14661225Y8946593D01*
X14639992Y8953791D01*
X14611724Y8963374D01*
X14611541Y8963439D01*
X14570297Y8978619D01*
X14561811Y8981743D01*
X14561682Y8981792D01*
X14517172Y8998775D01*
X14517150Y8998783D01*
X14517137Y8998788D01*
X14475611Y9014205D01*
X14475581Y9014216D01*
X14475534Y9014233D01*
X14475484Y9014250D01*
X14475449Y9014262D01*
X14434696Y9027865D01*
X14434694Y9027866D01*
X14434546Y9027915D01*
X14391896Y9039601D01*
X14391706Y9039640D01*
X14391696Y9039642D01*
X14370394Y9043969D01*
X14345276Y9049072D01*
X14292376Y9056108D01*
X14272740Y9057508D01*
X14231047Y9060480D01*
X14231031Y9060481D01*
X14230887Y9060491D01*
X14230745Y9060494D01*
X14230722Y9060494D01*
X14158500Y9062000D01*
X14158500Y9312000D01*
X14222537Y9313750D01*
X14222539Y9313750D01*
X14222720Y9313755D01*
X14222723Y9313755D01*
X14222809Y9313757D01*
X14222822Y9313758D01*
X14223009Y9313763D01*
X14277903Y9319009D01*
X14310943Y9325083D01*
X14324747Y9327620D01*
X14324750Y9327621D01*
X14325040Y9327674D01*
X14352882Y9335789D01*
X14365987Y9339608D01*
X14365990Y9339609D01*
X14366278Y9339693D01*
X14366557Y9339808D01*
X14366566Y9339811D01*
X14403215Y9354896D01*
X14403218Y9354897D01*
X14403477Y9355004D01*
X14438495Y9373541D01*
X14443461Y9376647D01*
X14473102Y9395185D01*
X14473112Y9395192D01*
X14473191Y9395241D01*
X14509425Y9420041D01*
X14549055Y9447875D01*
X14587142Y9474014D01*
X14595903Y9475870D01*
X14600621Y9473847D01*
G37*
%TD.AperFunction*%
%TD*%
%TA.AperFunction,Conductor*%
%TO.N,Net-(D1-Pad2)*%
G36*
X21262808Y9903119D02*
G01*
X21317828Y9874473D01*
X21325005Y9870737D01*
X21325534Y9870444D01*
X21384938Y9835504D01*
X21385214Y9835334D01*
X21437809Y9802119D01*
X21437811Y9802116D01*
X21437812Y9802117D01*
X21486640Y9771262D01*
X21534647Y9743477D01*
X21534849Y9743380D01*
X21534855Y9743377D01*
X21565233Y9728818D01*
X21584935Y9719375D01*
X21640610Y9699565D01*
X21653563Y9696556D01*
X21704475Y9684729D01*
X21704478Y9684729D01*
X21704777Y9684659D01*
X21705086Y9684621D01*
X21705090Y9684620D01*
X21720345Y9682729D01*
X21780538Y9675267D01*
X21871000Y9672000D01*
X21871000Y9422000D01*
X21780538Y9418734D01*
X21720345Y9411272D01*
X21705090Y9409381D01*
X21705086Y9409380D01*
X21704777Y9409342D01*
X21704478Y9409272D01*
X21704475Y9409272D01*
X21673253Y9402019D01*
X21640610Y9394436D01*
X21584935Y9374626D01*
X21584660Y9374494D01*
X21534855Y9350624D01*
X21534849Y9350621D01*
X21534647Y9350524D01*
X21486640Y9322739D01*
X21437812Y9291884D01*
X21385214Y9258667D01*
X21384938Y9258497D01*
X21334260Y9228689D01*
X21325534Y9223557D01*
X21325005Y9223264D01*
X21262809Y9190881D01*
X21253889Y9190100D01*
X21249298Y9192825D01*
X20889769Y9538567D01*
X20886181Y9546771D01*
X20889769Y9555433D01*
X21010807Y9671829D01*
X21085434Y9743595D01*
X21249297Y9901174D01*
X21257636Y9904439D01*
X21262808Y9903119D01*
G37*
%TD.AperFunction*%
%TD*%
%TA.AperFunction,Conductor*%
%TO.N,Net-(D1-Pad2)*%
G36*
X22303876Y9934906D02*
G01*
X22573273Y9675840D01*
X22698481Y9555433D01*
X22702069Y9547229D01*
X22698481Y9538567D01*
X22381251Y9233502D01*
X22303876Y9159094D01*
X22295537Y9155829D01*
X22290333Y9157165D01*
X22220499Y9193784D01*
X22219908Y9194116D01*
X22154331Y9233502D01*
X22153984Y9233719D01*
X22096145Y9271492D01*
X22042738Y9306778D01*
X22042728Y9306784D01*
X22042683Y9306814D01*
X21990257Y9338809D01*
X21970597Y9348801D01*
X21935646Y9366565D01*
X21935641Y9366567D01*
X21935362Y9366709D01*
X21935067Y9366821D01*
X21935064Y9366822D01*
X21874819Y9389624D01*
X21874494Y9389747D01*
X21804148Y9407153D01*
X21720818Y9418161D01*
X21621000Y9422000D01*
X21621000Y9672000D01*
X21720818Y9675840D01*
X21804148Y9686848D01*
X21874494Y9704254D01*
X21874819Y9704377D01*
X21935064Y9727179D01*
X21935067Y9727180D01*
X21935362Y9727292D01*
X21935641Y9727434D01*
X21935646Y9727436D01*
X21990052Y9755088D01*
X21990257Y9755192D01*
X22042683Y9787187D01*
X22042728Y9787217D01*
X22042738Y9787223D01*
X22096145Y9822509D01*
X22096197Y9822543D01*
X22153984Y9860282D01*
X22154331Y9860499D01*
X22219908Y9899885D01*
X22220499Y9900217D01*
X22290333Y9936835D01*
X22299251Y9937642D01*
X22303876Y9934906D01*
G37*
%TD.AperFunction*%
%TD*%
%TA.AperFunction,Conductor*%
%TO.N,Net-(Q1-Pad3)*%
G36*
X15833009Y9609553D02*
G01*
X15836428Y9601702D01*
X15839287Y9522519D01*
X15848679Y9446758D01*
X15863585Y9382591D01*
X15883395Y9326916D01*
X15907497Y9276628D01*
X15935282Y9228621D01*
X15935325Y9228553D01*
X15935331Y9228543D01*
X15966137Y9179793D01*
X15966139Y9179790D01*
X15999341Y9127217D01*
X15999534Y9126902D01*
X16034464Y9067515D01*
X16034757Y9066986D01*
X16067140Y9004789D01*
X16067921Y8995868D01*
X16065196Y8991278D01*
X15719454Y8631749D01*
X15711250Y8628161D01*
X15702588Y8631749D01*
X15356847Y8991277D01*
X15353582Y8999616D01*
X15354902Y9004790D01*
X15387284Y9066986D01*
X15387577Y9067515D01*
X15422507Y9126902D01*
X15422700Y9127217D01*
X15455902Y9179790D01*
X15455905Y9179792D01*
X15455904Y9179793D01*
X15486710Y9228543D01*
X15486716Y9228553D01*
X15486759Y9228621D01*
X15514544Y9276628D01*
X15538646Y9326916D01*
X15558456Y9382591D01*
X15573362Y9446758D01*
X15582754Y9522519D01*
X15585614Y9601702D01*
X15589337Y9609846D01*
X15597306Y9612980D01*
X15824736Y9612980D01*
X15833009Y9609553D01*
G37*
%TD.AperFunction*%
%TD*%
%TA.AperFunction,Conductor*%
%TO.N,Net-(Q1-Pad3)*%
G36*
X15719424Y11245730D02*
G01*
X15975265Y10979726D01*
X15978529Y10971389D01*
X15977280Y10966352D01*
X15955865Y10923851D01*
X15955737Y10923606D01*
X15932562Y10880194D01*
X15932538Y10880148D01*
X15911371Y10840923D01*
X15911317Y10840820D01*
X15896222Y10811319D01*
X15892407Y10803863D01*
X15875905Y10767077D01*
X15875832Y10766873D01*
X15875830Y10766869D01*
X15871785Y10755624D01*
X15862012Y10728454D01*
X15850903Y10685938D01*
X15842751Y10637475D01*
X15837732Y10581007D01*
X15837727Y10580824D01*
X15837727Y10580819D01*
X15836314Y10525878D01*
X15832676Y10517696D01*
X15824618Y10514479D01*
X15597424Y10514479D01*
X15589151Y10517906D01*
X15585728Y10525878D01*
X15584314Y10580815D01*
X15584314Y10580820D01*
X15584309Y10581003D01*
X15579289Y10637467D01*
X15571137Y10685928D01*
X15560027Y10728441D01*
X15546132Y10767061D01*
X15546037Y10767274D01*
X15529679Y10803731D01*
X15529675Y10803740D01*
X15529628Y10803844D01*
X15510690Y10840845D01*
X15489491Y10880121D01*
X15466270Y10923606D01*
X15466269Y10923608D01*
X15466142Y10923853D01*
X15444740Y10966313D01*
X15444076Y10975243D01*
X15446754Y10979688D01*
X15702558Y11245729D01*
X15710762Y11249318D01*
X15719424Y11245730D01*
G37*
%TD.AperFunction*%
%TD*%
%TA.AperFunction,Conductor*%
%TO.N,Net-(Q2-Pad4)*%
G36*
X16535562Y22326885D02*
G01*
X16539150Y22318223D01*
X16533203Y22014031D01*
X16529615Y22005827D01*
X16525298Y22003192D01*
X16491110Y21991477D01*
X16453922Y21978708D01*
X16453904Y21978702D01*
X16453882Y21978694D01*
X16420256Y21966442D01*
X16389125Y21953671D01*
X16388985Y21953603D01*
X16388975Y21953599D01*
X16375228Y21946967D01*
X16359386Y21939325D01*
X16359198Y21939217D01*
X16359191Y21939213D01*
X16341892Y21929244D01*
X16329934Y21922353D01*
X16299665Y21901700D01*
X16267473Y21876314D01*
X16232255Y21845142D01*
X16232187Y21845076D01*
X16201177Y21815120D01*
X16192846Y21811837D01*
X16184775Y21815262D01*
X16024261Y21975776D01*
X16020834Y21984049D01*
X16024118Y21992177D01*
X16054141Y22023256D01*
X16085313Y22058474D01*
X16110699Y22090666D01*
X16131352Y22120935D01*
X16148324Y22150387D01*
X16162670Y22180126D01*
X16175441Y22211257D01*
X16187693Y22244883D01*
X16200476Y22282111D01*
X16212192Y22316298D01*
X16218116Y22323013D01*
X16223031Y22324203D01*
X16527223Y22330150D01*
X16535562Y22326885D01*
G37*
%TD.AperFunction*%
%TD*%
%TA.AperFunction,Conductor*%
%TO.N,Net-(Q2-Pad4)*%
G36*
X16309037Y15976315D02*
G01*
X16339812Y15947686D01*
X16367050Y15922347D01*
X16367236Y15922202D01*
X16367243Y15922196D01*
X16427019Y15875605D01*
X16427024Y15875602D01*
X16427262Y15875416D01*
X16427523Y15875253D01*
X16427525Y15875252D01*
X16482890Y15840761D01*
X16482897Y15840757D01*
X16483175Y15840584D01*
X16536550Y15815223D01*
X16536836Y15815122D01*
X16536844Y15815119D01*
X16588931Y15796785D01*
X16589153Y15796707D01*
X16642745Y15782408D01*
X16699085Y15769701D01*
X16699089Y15769698D01*
X16699089Y15769700D01*
X16759797Y15755988D01*
X16760156Y15755900D01*
X16826781Y15738625D01*
X16827362Y15738459D01*
X16894254Y15717373D01*
X16901114Y15711617D01*
X16902434Y15706443D01*
X16912183Y15207744D01*
X16908918Y15199405D01*
X16900256Y15195817D01*
X16401557Y15205566D01*
X16393353Y15209154D01*
X16390627Y15213746D01*
X16369541Y15280638D01*
X16369375Y15281219D01*
X16352100Y15347844D01*
X16352012Y15348203D01*
X16338300Y15408911D01*
X16338301Y15408911D01*
X16338299Y15408915D01*
X16325623Y15465117D01*
X16325592Y15465255D01*
X16311293Y15518847D01*
X16311215Y15519069D01*
X16292881Y15571156D01*
X16292878Y15571164D01*
X16292777Y15571450D01*
X16267416Y15624825D01*
X16267243Y15625103D01*
X16267239Y15625110D01*
X16232748Y15680475D01*
X16232747Y15680477D01*
X16232584Y15680738D01*
X16208516Y15711617D01*
X16185804Y15740757D01*
X16185798Y15740764D01*
X16185653Y15740950D01*
X16147085Y15782408D01*
X16131685Y15798963D01*
X16128559Y15807354D01*
X16131978Y15815205D01*
X16292795Y15976022D01*
X16301068Y15979449D01*
X16309037Y15976315D01*
G37*
%TD.AperFunction*%
%TD*%
%TA.AperFunction,Conductor*%
%TO.N,Net-(D1-Pad2)*%
G36*
X22303876Y9934906D02*
G01*
X22573273Y9675840D01*
X22698481Y9555433D01*
X22702069Y9547229D01*
X22698481Y9538567D01*
X22381251Y9233502D01*
X22303876Y9159094D01*
X22295537Y9155829D01*
X22290333Y9157165D01*
X22220499Y9193784D01*
X22219908Y9194116D01*
X22154331Y9233502D01*
X22153984Y9233719D01*
X22096145Y9271492D01*
X22042738Y9306778D01*
X22042728Y9306784D01*
X22042683Y9306814D01*
X21990257Y9338809D01*
X21970597Y9348801D01*
X21935646Y9366565D01*
X21935641Y9366567D01*
X21935362Y9366709D01*
X21935067Y9366821D01*
X21935064Y9366822D01*
X21874819Y9389624D01*
X21874494Y9389747D01*
X21804148Y9407153D01*
X21720818Y9418161D01*
X21621000Y9422000D01*
X21621000Y9672000D01*
X21720818Y9675840D01*
X21804148Y9686848D01*
X21874494Y9704254D01*
X21874819Y9704377D01*
X21935064Y9727179D01*
X21935067Y9727180D01*
X21935362Y9727292D01*
X21935641Y9727434D01*
X21935646Y9727436D01*
X21990052Y9755088D01*
X21990257Y9755192D01*
X22042683Y9787187D01*
X22042728Y9787217D01*
X22042738Y9787223D01*
X22096145Y9822509D01*
X22096197Y9822543D01*
X22153984Y9860282D01*
X22154331Y9860499D01*
X22219908Y9899885D01*
X22220499Y9900217D01*
X22290333Y9936835D01*
X22299251Y9937642D01*
X22303876Y9934906D01*
G37*
%TD.AperFunction*%
%TD*%
%TA.AperFunction,Conductor*%
%TO.N,+24V*%
G36*
X14753121Y22536998D02*
G01*
X14799614Y22483342D01*
X14811000Y22431000D01*
X14811000Y18233000D01*
X14790998Y18164879D01*
X14737342Y18118386D01*
X14685000Y18107000D01*
X10220636Y18107000D01*
X10201477Y18108465D01*
X7611000Y18507000D01*
X3737000Y18507000D01*
X3668879Y18527002D01*
X3622386Y18580658D01*
X3611000Y18633000D01*
X3611000Y21331000D01*
X3631002Y21399121D01*
X3684658Y21445614D01*
X3737000Y21457000D01*
X7611000Y21457000D01*
X10187463Y22547042D01*
X10236558Y22557000D01*
X14685000Y22557000D01*
X14753121Y22536998D01*
G37*
%TD.AperFunction*%
%TD*%
%TA.AperFunction,Conductor*%
%TO.N,Net-(J2-Pad1)*%
G36*
X24553121Y21236998D02*
G01*
X24599614Y21183342D01*
X24611000Y21131000D01*
X24611000Y18283000D01*
X24590998Y18214879D01*
X24537342Y18168386D01*
X24485000Y18157000D01*
X16137000Y18157000D01*
X16068879Y18177002D01*
X16022386Y18230658D01*
X16011000Y18283000D01*
X16011000Y21131000D01*
X16031002Y21199121D01*
X16084658Y21245614D01*
X16137000Y21257000D01*
X24485000Y21257000D01*
X24553121Y21236998D01*
G37*
%TD.AperFunction*%
%TD*%
%TA.AperFunction,Conductor*%
%TO.N,GND*%
G36*
X25512461Y24309118D02*
G01*
X25526642Y24305857D01*
X25534772Y24307697D01*
X25539196Y24307689D01*
X25554788Y24308813D01*
X25643853Y24301803D01*
X25728319Y24295155D01*
X25739781Y24293340D01*
X25835128Y24270449D01*
X25930472Y24247558D01*
X25941515Y24243970D01*
X26122704Y24168920D01*
X26133047Y24163650D01*
X26206133Y24118863D01*
X26300261Y24061181D01*
X26309650Y24054360D01*
X26458780Y23926990D01*
X26466989Y23918781D01*
X26594360Y23769650D01*
X26601181Y23760261D01*
X26703648Y23593051D01*
X26708920Y23582704D01*
X26783970Y23401515D01*
X26787558Y23390472D01*
X26833339Y23199785D01*
X26835156Y23188316D01*
X26848777Y23015250D01*
X26847735Y23001155D01*
X26847725Y22995481D01*
X26845857Y22987358D01*
X26847697Y22979227D01*
X26849175Y22972694D01*
X26851000Y22956363D01*
X26851000Y1555123D01*
X26849118Y1538539D01*
X26845857Y1524358D01*
X26847697Y1516228D01*
X26847689Y1511804D01*
X26848813Y1496212D01*
X26835156Y1322684D01*
X26833339Y1311215D01*
X26787558Y1120528D01*
X26783970Y1109485D01*
X26708920Y928296D01*
X26703648Y917949D01*
X26601181Y750739D01*
X26594360Y741350D01*
X26526216Y661564D01*
X26466990Y592220D01*
X26458781Y584011D01*
X26309650Y456640D01*
X26300261Y449819D01*
X26133047Y347350D01*
X26122704Y342080D01*
X25941515Y267030D01*
X25930472Y263442D01*
X25835129Y240552D01*
X25739781Y217660D01*
X25728319Y215845D01*
X25555250Y202223D01*
X25541155Y203265D01*
X25535481Y203275D01*
X25527358Y205143D01*
X25515111Y202372D01*
X25512694Y201825D01*
X25496363Y200000D01*
X1555123Y200000D01*
X1538539Y201882D01*
X1538230Y201953D01*
X1524358Y205143D01*
X1516228Y203303D01*
X1511804Y203311D01*
X1496212Y202187D01*
X1407147Y209197D01*
X1322681Y215845D01*
X1311219Y217660D01*
X1215871Y240552D01*
X1120528Y263442D01*
X1109485Y267030D01*
X928296Y342080D01*
X917953Y347350D01*
X750739Y449819D01*
X741350Y456640D01*
X592219Y584011D01*
X584010Y592220D01*
X524784Y661564D01*
X456640Y741350D01*
X449819Y750739D01*
X347352Y917949D01*
X342080Y928296D01*
X340063Y933166D01*
X4575500Y933166D01*
X4578481Y901631D01*
X4623366Y773816D01*
X4703850Y664850D01*
X4708299Y661564D01*
X4808178Y587792D01*
X4812816Y584366D01*
X4940631Y539481D01*
X4945114Y539057D01*
X4945115Y539057D01*
X4970438Y536663D01*
X4970445Y536663D01*
X4972166Y536500D01*
X5579834Y536500D01*
X5581555Y536663D01*
X5581562Y536663D01*
X5606885Y539057D01*
X5606886Y539057D01*
X5611369Y539481D01*
X5739184Y584366D01*
X5743823Y587792D01*
X5843701Y661564D01*
X5848150Y664850D01*
X5928634Y773816D01*
X5973519Y901631D01*
X5976500Y933166D01*
X9525500Y933166D01*
X9528481Y901631D01*
X9573366Y773816D01*
X9653850Y664850D01*
X9658299Y661564D01*
X9758178Y587792D01*
X9762816Y584366D01*
X9890631Y539481D01*
X9895114Y539057D01*
X9895115Y539057D01*
X9920438Y536663D01*
X9920445Y536663D01*
X9922166Y536500D01*
X10529834Y536500D01*
X10531555Y536663D01*
X10531562Y536663D01*
X10556885Y539057D01*
X10556886Y539057D01*
X10561369Y539481D01*
X10689184Y584366D01*
X10693823Y587792D01*
X10793701Y661564D01*
X10798150Y664850D01*
X10878634Y773816D01*
X10923519Y901631D01*
X10926500Y933166D01*
X10926500Y3240834D01*
X10923519Y3272369D01*
X10878634Y3400184D01*
X10798150Y3509150D01*
X10689184Y3589634D01*
X10561369Y3634519D01*
X10556886Y3634943D01*
X10556885Y3634943D01*
X10531562Y3637337D01*
X10531555Y3637337D01*
X10529834Y3637500D01*
X9922166Y3637500D01*
X9920445Y3637337D01*
X9920438Y3637337D01*
X9895115Y3634943D01*
X9895114Y3634943D01*
X9890631Y3634519D01*
X9762816Y3589634D01*
X9653850Y3509150D01*
X9573366Y3400184D01*
X9528481Y3272369D01*
X9525500Y3240834D01*
X9525500Y933166D01*
X5976500Y933166D01*
X5976500Y3240834D01*
X5973519Y3272369D01*
X5928634Y3400184D01*
X5848150Y3509150D01*
X5739184Y3589634D01*
X5611369Y3634519D01*
X5606886Y3634943D01*
X5606885Y3634943D01*
X5581562Y3637337D01*
X5581555Y3637337D01*
X5579834Y3637500D01*
X4972166Y3637500D01*
X4970445Y3637337D01*
X4970438Y3637337D01*
X4945115Y3634943D01*
X4945114Y3634943D01*
X4940631Y3634519D01*
X4812816Y3589634D01*
X4703850Y3509150D01*
X4623366Y3400184D01*
X4578481Y3272369D01*
X4575500Y3240834D01*
X4575500Y933166D01*
X340063Y933166D01*
X267030Y1109485D01*
X263442Y1120528D01*
X217661Y1311215D01*
X215844Y1322684D01*
X202223Y1495750D01*
X203265Y1509845D01*
X203275Y1515519D01*
X205143Y1523642D01*
X201825Y1538306D01*
X200000Y1554637D01*
X200000Y7764103D01*
X4270500Y7764103D01*
X4270501Y7409898D01*
X4270818Y7407492D01*
X4270818Y7407488D01*
X4272540Y7394411D01*
X4276981Y7360670D01*
X4327356Y7252641D01*
X4411641Y7168356D01*
X4519670Y7117981D01*
X4568897Y7111500D01*
X5270710Y7111500D01*
X5973102Y7111501D01*
X5975508Y7111818D01*
X5975512Y7111818D01*
X6016718Y7117242D01*
X6016720Y7117243D01*
X6022330Y7117981D01*
X6027457Y7120372D01*
X6027458Y7120372D01*
X6065131Y7137939D01*
X6130359Y7168356D01*
X6201829Y7239826D01*
X6247705Y7261218D01*
X6254155Y7261500D01*
X6595522Y7261500D01*
X6643088Y7244187D01*
X6647848Y7239826D01*
X6778826Y7108848D01*
X6800218Y7062972D01*
X6800500Y7056522D01*
X6800500Y6335175D01*
X6783187Y6287609D01*
X6772193Y6277429D01*
X6769145Y6275932D01*
X6764822Y6271601D01*
X6691527Y6198178D01*
X6686707Y6193350D01*
X6684020Y6187853D01*
X6638278Y6094274D01*
X6635464Y6088518D01*
X6625500Y6020218D01*
X6625500Y4553782D01*
X6625895Y4551099D01*
X6634804Y4490577D01*
X6634805Y4490574D01*
X6635642Y4484888D01*
X6687068Y4380145D01*
X6691397Y4375824D01*
X6691398Y4375822D01*
X6765321Y4302028D01*
X6769650Y4297707D01*
X6775147Y4295020D01*
X6868934Y4249176D01*
X6874482Y4246464D01*
X6942782Y4236500D01*
X7309218Y4236500D01*
X7315363Y4237405D01*
X7372423Y4245804D01*
X7372426Y4245805D01*
X7378112Y4246642D01*
X7383272Y4249175D01*
X7383274Y4249176D01*
X7429117Y4271684D01*
X7482855Y4298068D01*
X7487176Y4302397D01*
X7487178Y4302398D01*
X7560972Y4376321D01*
X7560973Y4376323D01*
X7565293Y4380650D01*
X7567980Y4386147D01*
X7614012Y4480318D01*
X7614012Y4480319D01*
X7616536Y4485482D01*
X7626500Y4553782D01*
X7626500Y6020218D01*
X7625595Y6026363D01*
X7617196Y6083423D01*
X7617195Y6083426D01*
X7616358Y6089112D01*
X7564932Y6193855D01*
X7560603Y6198176D01*
X7560602Y6198178D01*
X7487050Y6271601D01*
X7482350Y6276293D01*
X7481211Y6276850D01*
X7453858Y6316647D01*
X7451500Y6335177D01*
X7451500Y7204559D01*
X7451782Y7211009D01*
X7454700Y7244358D01*
X7454700Y7244359D01*
X7455264Y7250807D01*
X7444921Y7289404D01*
X7443524Y7295706D01*
X7437712Y7328672D01*
X7437711Y7328674D01*
X7436588Y7335045D01*
X7433353Y7340647D01*
X7431639Y7345358D01*
X7429351Y7350882D01*
X7427229Y7355432D01*
X7425554Y7361684D01*
X7402638Y7394411D01*
X7399169Y7399856D01*
X7393372Y7409898D01*
X7379194Y7434455D01*
X7374233Y7438618D01*
X7348585Y7460140D01*
X7343825Y7464501D01*
X7003494Y7804832D01*
X6999133Y7809592D01*
X6977619Y7835231D01*
X6973455Y7840194D01*
X6938851Y7860172D01*
X6933411Y7863638D01*
X6905987Y7882841D01*
X6905986Y7882842D01*
X6900684Y7886554D01*
X6894432Y7888229D01*
X6889882Y7890351D01*
X6884358Y7892639D01*
X6879647Y7894353D01*
X6874045Y7897588D01*
X6867674Y7898711D01*
X6867672Y7898712D01*
X6844271Y7902838D01*
X6834703Y7904525D01*
X6828401Y7905922D01*
X6789807Y7916264D01*
X6783359Y7915700D01*
X6783358Y7915700D01*
X6750009Y7912782D01*
X6743559Y7912500D01*
X6254155Y7912500D01*
X6206589Y7929813D01*
X6201829Y7934174D01*
X6130359Y8005644D01*
X6022330Y8056019D01*
X5973103Y8062500D01*
X5271290Y8062500D01*
X4568898Y8062499D01*
X4566492Y8062182D01*
X4566488Y8062182D01*
X4525282Y8056758D01*
X4525280Y8056757D01*
X4519670Y8056019D01*
X4514543Y8053628D01*
X4514542Y8053628D01*
X4514538Y8053626D01*
X4411641Y8005644D01*
X4327356Y7921359D01*
X4276981Y7813330D01*
X4270500Y7764103D01*
X200000Y7764103D01*
X200000Y10304103D01*
X4270500Y10304103D01*
X4270501Y9949898D01*
X4270818Y9947492D01*
X4270818Y9947488D01*
X4274843Y9916915D01*
X4276981Y9900670D01*
X4279372Y9895543D01*
X4279372Y9895542D01*
X4289034Y9874822D01*
X4327356Y9792641D01*
X4411641Y9708356D01*
X4519670Y9657981D01*
X4568897Y9651500D01*
X5270710Y9651500D01*
X5973102Y9651501D01*
X5975508Y9651818D01*
X5975512Y9651818D01*
X6016718Y9657242D01*
X6016720Y9657243D01*
X6022330Y9657981D01*
X6027457Y9660372D01*
X6027458Y9660372D01*
X6091089Y9690044D01*
X6130359Y9708356D01*
X6201829Y9779826D01*
X6247705Y9801218D01*
X6254155Y9801500D01*
X7235522Y9801500D01*
X7283088Y9784187D01*
X7287848Y9779826D01*
X8028826Y9038847D01*
X8050218Y8992970D01*
X8050500Y8986521D01*
X8050500Y6335175D01*
X8033187Y6287609D01*
X8022193Y6277429D01*
X8019145Y6275932D01*
X8014822Y6271601D01*
X7941527Y6198178D01*
X7936707Y6193350D01*
X7934020Y6187853D01*
X7888278Y6094274D01*
X7885464Y6088518D01*
X7875500Y6020218D01*
X7875500Y4553782D01*
X7875895Y4551099D01*
X7884804Y4490577D01*
X7884805Y4490574D01*
X7885642Y4484888D01*
X7937068Y4380145D01*
X7941397Y4375824D01*
X7941398Y4375822D01*
X8015321Y4302028D01*
X8019650Y4297707D01*
X8025147Y4295020D01*
X8118934Y4249176D01*
X8124482Y4246464D01*
X8192782Y4236500D01*
X8559218Y4236500D01*
X8565363Y4237405D01*
X8622423Y4245804D01*
X8622426Y4245805D01*
X8628112Y4246642D01*
X8633272Y4249175D01*
X8633274Y4249176D01*
X8679117Y4271684D01*
X8732855Y4298068D01*
X8737176Y4302397D01*
X8737178Y4302398D01*
X8810972Y4376321D01*
X8810973Y4376323D01*
X8815293Y4380650D01*
X8817980Y4386147D01*
X8864012Y4480318D01*
X8864012Y4480319D01*
X8866536Y4485482D01*
X8876500Y4553782D01*
X8876500Y6020218D01*
X8875595Y6026363D01*
X8867196Y6083423D01*
X8867195Y6083426D01*
X8866358Y6089112D01*
X8814932Y6193855D01*
X8810603Y6198176D01*
X8810602Y6198178D01*
X8737050Y6271601D01*
X8732350Y6276293D01*
X8731211Y6276850D01*
X8703858Y6316647D01*
X8701500Y6335177D01*
X8701500Y9134567D01*
X8701782Y9141016D01*
X8703064Y9155672D01*
X8705263Y9180807D01*
X8703604Y9187000D01*
X12875318Y9187000D01*
X12875951Y9182192D01*
X12895062Y9037032D01*
X12895956Y9030238D01*
X12956464Y8884159D01*
X12959414Y8880315D01*
X12959416Y8880311D01*
X13033798Y8783375D01*
X13052718Y8758718D01*
X13056569Y8755763D01*
X13174311Y8665416D01*
X13174315Y8665414D01*
X13178159Y8662464D01*
X13324238Y8601956D01*
X13329040Y8601324D01*
X13329043Y8601323D01*
X13476192Y8581951D01*
X13481000Y8581318D01*
X13485808Y8581951D01*
X13632957Y8601323D01*
X13632960Y8601324D01*
X13637762Y8601956D01*
X13783841Y8662464D01*
X13802826Y8677032D01*
X13813699Y8683959D01*
X13817368Y8685869D01*
X13817515Y8685948D01*
X13817574Y8685979D01*
X13820115Y8687345D01*
X13821909Y8688308D01*
X13822070Y8688397D01*
X13822195Y8688466D01*
X13822240Y8688492D01*
X13822438Y8688601D01*
X13826924Y8691162D01*
X13835650Y8696294D01*
X13835657Y8696298D01*
X13886335Y8726106D01*
X13889826Y8728208D01*
X13889929Y8728271D01*
X13889991Y8728309D01*
X13890102Y8728378D01*
X13890181Y8728427D01*
X13892006Y8729565D01*
X13892066Y8729603D01*
X13944604Y8762782D01*
X13944651Y8762812D01*
X13988976Y8790821D01*
X13991420Y8792300D01*
X14025620Y8812094D01*
X14030693Y8814773D01*
X14058389Y8828046D01*
X14065540Y8831022D01*
X14092998Y8840793D01*
X14101033Y8843147D01*
X14111697Y8845625D01*
X14111697Y8845624D01*
X14136020Y8851274D01*
X14143660Y8852631D01*
X14177396Y8856813D01*
X14226731Y8845483D01*
X14257241Y8805093D01*
X14260500Y8783375D01*
X14260500Y8608782D01*
X14260895Y8606099D01*
X14269804Y8545577D01*
X14269805Y8545574D01*
X14270642Y8539888D01*
X14322068Y8435145D01*
X14326397Y8430824D01*
X14326398Y8430822D01*
X14400321Y8357028D01*
X14404650Y8352707D01*
X14410147Y8350020D01*
X14503934Y8304176D01*
X14509482Y8301464D01*
X14577782Y8291500D01*
X14944218Y8291500D01*
X14950363Y8292405D01*
X15007423Y8300804D01*
X15007426Y8300805D01*
X15013112Y8301642D01*
X15018272Y8304175D01*
X15018274Y8304176D01*
X15064117Y8326684D01*
X15117855Y8353068D01*
X15122179Y8357400D01*
X15122181Y8357401D01*
X15169475Y8404777D01*
X15215332Y8426210D01*
X15264238Y8413151D01*
X15276145Y8401764D01*
X15276357Y8401976D01*
X15279784Y8398549D01*
X15282739Y8394698D01*
X15286590Y8391743D01*
X15404332Y8301396D01*
X15404336Y8301394D01*
X15408180Y8298444D01*
X15554259Y8237936D01*
X15559061Y8237304D01*
X15559064Y8237303D01*
X15706213Y8217931D01*
X15711021Y8217298D01*
X15715829Y8217931D01*
X15862978Y8237303D01*
X15862981Y8237304D01*
X15867783Y8237936D01*
X16013862Y8298444D01*
X16017706Y8301394D01*
X16017710Y8301396D01*
X16135452Y8391743D01*
X16139303Y8394698D01*
X16147037Y8404777D01*
X16232605Y8516291D01*
X16232607Y8516295D01*
X16235557Y8520139D01*
X16296065Y8666218D01*
X16298008Y8680970D01*
X16316070Y8818172D01*
X16316703Y8822980D01*
X16308059Y8888638D01*
X16296698Y8974937D01*
X16296697Y8974940D01*
X16296065Y8979742D01*
X16235557Y9125821D01*
X16232604Y9129669D01*
X16232602Y9129673D01*
X16220994Y9144801D01*
X16214067Y9155672D01*
X16212224Y9159212D01*
X16212210Y9159238D01*
X16212153Y9159348D01*
X16212104Y9159440D01*
X16212074Y9159496D01*
X16209821Y9163689D01*
X16209820Y9163691D01*
X16209713Y9163890D01*
X16209420Y9164419D01*
X16206855Y9168911D01*
X16204137Y9173533D01*
X16184331Y9207206D01*
X16171925Y9228298D01*
X16170070Y9231389D01*
X16169877Y9231704D01*
X16168442Y9234011D01*
X16160541Y9246522D01*
X16135376Y9286369D01*
X16135347Y9286414D01*
X16135240Y9286584D01*
X16135208Y9286633D01*
X16135209Y9286633D01*
X16107200Y9330956D01*
X16105723Y9333398D01*
X16085929Y9367597D01*
X16083243Y9372684D01*
X16076977Y9385760D01*
X16069977Y9400364D01*
X16066993Y9407535D01*
X16057237Y9434954D01*
X16054874Y9443018D01*
X16046747Y9478005D01*
X16045390Y9485643D01*
X16041468Y9517278D01*
X16039238Y9535267D01*
X16038725Y9541689D01*
X16038534Y9547000D01*
X17315318Y9547000D01*
X17315951Y9542192D01*
X17334162Y9403868D01*
X17335956Y9390238D01*
X17396464Y9244159D01*
X17399414Y9240315D01*
X17399416Y9240311D01*
X17468765Y9149934D01*
X17492718Y9118718D01*
X17496569Y9115763D01*
X17614311Y9025416D01*
X17614315Y9025414D01*
X17618159Y9022464D01*
X17764238Y8961956D01*
X17769040Y8961324D01*
X17769043Y8961323D01*
X17916192Y8941951D01*
X17921000Y8941318D01*
X17925808Y8941951D01*
X18072957Y8961323D01*
X18072960Y8961324D01*
X18077762Y8961956D01*
X18223841Y9022464D01*
X18242826Y9037032D01*
X18253699Y9043959D01*
X18257368Y9045869D01*
X18257515Y9045948D01*
X18257574Y9045979D01*
X18260115Y9047345D01*
X18261909Y9048308D01*
X18262070Y9048397D01*
X18262195Y9048466D01*
X18262240Y9048492D01*
X18262438Y9048601D01*
X18266924Y9051162D01*
X18275650Y9056294D01*
X18275657Y9056298D01*
X18326335Y9086106D01*
X18329826Y9088208D01*
X18329929Y9088271D01*
X18329991Y9088309D01*
X18330102Y9088378D01*
X18330181Y9088427D01*
X18332006Y9089565D01*
X18332066Y9089603D01*
X18384604Y9122782D01*
X18384651Y9122812D01*
X18428976Y9150821D01*
X18431420Y9152300D01*
X18465620Y9172094D01*
X18470693Y9174773D01*
X18498389Y9188046D01*
X18505540Y9191022D01*
X18532998Y9200793D01*
X18541033Y9203147D01*
X18551694Y9205624D01*
X18551697Y9205625D01*
X18551697Y9205624D01*
X18551701Y9205625D01*
X18551702Y9205625D01*
X18563170Y9208289D01*
X18576027Y9211275D01*
X18583655Y9212630D01*
X18613716Y9216357D01*
X18613718Y9216357D01*
X18633265Y9218781D01*
X18639693Y9219295D01*
X18673341Y9220510D01*
X18678659Y9220510D01*
X18712306Y9219295D01*
X18718734Y9218781D01*
X18738281Y9216357D01*
X18738283Y9216357D01*
X18768344Y9212630D01*
X18775982Y9211273D01*
X18788839Y9208286D01*
X18831254Y9180659D01*
X18841075Y9157480D01*
X18842643Y9157989D01*
X18844443Y9152451D01*
X18845354Y9146696D01*
X18858274Y9121340D01*
X18900304Y9038850D01*
X18900306Y9038848D01*
X18902950Y9033658D01*
X18992658Y8943950D01*
X18997848Y8941306D01*
X18997850Y8941304D01*
X19100502Y8889000D01*
X19100505Y8888999D01*
X19105696Y8886354D01*
X19111448Y8885443D01*
X19111451Y8885442D01*
X19196602Y8871956D01*
X19199481Y8871500D01*
X19431000Y8871500D01*
X19662518Y8871501D01*
X19665390Y8871956D01*
X19665392Y8871956D01*
X19697090Y8876976D01*
X19756304Y8886354D01*
X19812823Y8915152D01*
X19864150Y8941304D01*
X19864152Y8941306D01*
X19869342Y8943950D01*
X19959050Y9033658D01*
X19961694Y9038848D01*
X19961696Y9038850D01*
X20014000Y9141502D01*
X20014001Y9141505D01*
X20016646Y9146696D01*
X20017557Y9152448D01*
X20017558Y9152451D01*
X20031045Y9237608D01*
X20031500Y9240481D01*
X20031499Y9853518D01*
X20031499Y9853519D01*
X20480500Y9853519D01*
X20480501Y9240482D01*
X20480956Y9237610D01*
X20480956Y9237608D01*
X20484322Y9216357D01*
X20495354Y9146696D01*
X20508274Y9121340D01*
X20550304Y9038850D01*
X20550306Y9038848D01*
X20552950Y9033658D01*
X20642658Y8943950D01*
X20647848Y8941306D01*
X20647850Y8941304D01*
X20750502Y8889000D01*
X20750505Y8888999D01*
X20755696Y8886354D01*
X20761448Y8885443D01*
X20761451Y8885442D01*
X20846602Y8871956D01*
X20849481Y8871500D01*
X21081000Y8871500D01*
X21312518Y8871501D01*
X21315390Y8871956D01*
X21315392Y8871956D01*
X21347090Y8876976D01*
X21406304Y8886354D01*
X21462823Y8915152D01*
X21514150Y8941304D01*
X21514152Y8941306D01*
X21519342Y8943950D01*
X21609050Y9033658D01*
X21611694Y9038848D01*
X21611696Y9038850D01*
X21664000Y9141502D01*
X21664001Y9141505D01*
X21666646Y9146696D01*
X21667557Y9152451D01*
X21669357Y9157989D01*
X21672001Y9157130D01*
X21691350Y9192048D01*
X21723164Y9208287D01*
X21731543Y9210234D01*
X21757962Y9211516D01*
X21762820Y9210875D01*
X21770910Y9209346D01*
X21810585Y9199529D01*
X21818997Y9196906D01*
X21826976Y9193887D01*
X21866715Y9158273D01*
X21923696Y9046441D01*
X21923698Y9046439D01*
X21926342Y9041249D01*
X22020249Y8947342D01*
X22025439Y8944698D01*
X22025441Y8944696D01*
X22129597Y8891626D01*
X22138580Y8887049D01*
X22144332Y8886138D01*
X22144335Y8886137D01*
X22233875Y8871956D01*
X22236754Y8871500D01*
X22740246Y8871500D01*
X22743125Y8871956D01*
X22832665Y8886137D01*
X22832668Y8886138D01*
X22838420Y8887049D01*
X22847403Y8891626D01*
X22951559Y8944696D01*
X22951561Y8944698D01*
X22956751Y8947342D01*
X23050658Y9041249D01*
X23053302Y9046439D01*
X23053304Y9046441D01*
X23108305Y9154387D01*
X23110951Y9159580D01*
X23111862Y9165332D01*
X23111863Y9165335D01*
X23126045Y9254881D01*
X23126500Y9257754D01*
X23126500Y9836246D01*
X23123867Y9852870D01*
X23111863Y9928665D01*
X23111862Y9928668D01*
X23110951Y9934420D01*
X23104386Y9947304D01*
X23053304Y10047559D01*
X23053302Y10047561D01*
X23050658Y10052751D01*
X22956751Y10146658D01*
X22951561Y10149302D01*
X22951559Y10149304D01*
X22843613Y10204305D01*
X22838420Y10206951D01*
X22832668Y10207862D01*
X22832665Y10207863D01*
X22743119Y10222045D01*
X22740246Y10222500D01*
X22236754Y10222500D01*
X22233881Y10222045D01*
X22144335Y10207863D01*
X22144332Y10207862D01*
X22138580Y10206951D01*
X22133387Y10204305D01*
X22025441Y10149304D01*
X22025439Y10149302D01*
X22020249Y10146658D01*
X21926342Y10052751D01*
X21923698Y10047561D01*
X21923696Y10047559D01*
X21866716Y9935729D01*
X21826981Y9900117D01*
X21819006Y9897098D01*
X21810585Y9894472D01*
X21770910Y9884655D01*
X21762833Y9883128D01*
X21757968Y9882485D01*
X21731540Y9883768D01*
X21723162Y9885714D01*
X21680747Y9913341D01*
X21670923Y9936520D01*
X21669357Y9936011D01*
X21667557Y9941550D01*
X21666646Y9947304D01*
X21630699Y10017853D01*
X21611696Y10055150D01*
X21611694Y10055152D01*
X21609050Y10060342D01*
X21519342Y10150050D01*
X21514152Y10152694D01*
X21514150Y10152696D01*
X21411498Y10205000D01*
X21411495Y10205001D01*
X21406304Y10207646D01*
X21400552Y10208557D01*
X21400549Y10208558D01*
X21315392Y10222045D01*
X21312519Y10222500D01*
X21309610Y10222500D01*
X21081001Y10222499D01*
X20849482Y10222499D01*
X20846610Y10222044D01*
X20846608Y10222044D01*
X20814910Y10217024D01*
X20755696Y10207646D01*
X20699177Y10178848D01*
X20647850Y10152696D01*
X20647848Y10152694D01*
X20642658Y10150050D01*
X20552950Y10060342D01*
X20550306Y10055152D01*
X20550304Y10055150D01*
X20507524Y9971189D01*
X20495354Y9947304D01*
X20494443Y9941552D01*
X20494442Y9941549D01*
X20483663Y9873491D01*
X20480500Y9853519D01*
X20031499Y9853519D01*
X20016646Y9947304D01*
X19980699Y10017853D01*
X19961696Y10055150D01*
X19961694Y10055152D01*
X19959050Y10060342D01*
X19869342Y10150050D01*
X19864152Y10152694D01*
X19864150Y10152696D01*
X19761498Y10205000D01*
X19761495Y10205001D01*
X19756304Y10207646D01*
X19750552Y10208557D01*
X19750549Y10208558D01*
X19665392Y10222045D01*
X19662519Y10222500D01*
X19659610Y10222500D01*
X19431001Y10222499D01*
X19199482Y10222499D01*
X19196610Y10222044D01*
X19196608Y10222044D01*
X19164910Y10217024D01*
X19105696Y10207646D01*
X19049177Y10178848D01*
X18997850Y10152696D01*
X18997848Y10152694D01*
X18992658Y10150050D01*
X18902950Y10060342D01*
X18900306Y10055152D01*
X18900304Y10055150D01*
X18857524Y9971189D01*
X18845354Y9947304D01*
X18844443Y9941550D01*
X18842643Y9936011D01*
X18840001Y9936869D01*
X18820634Y9901940D01*
X18788843Y9885716D01*
X18775966Y9882724D01*
X18768339Y9881370D01*
X18751356Y9879264D01*
X18738282Y9877644D01*
X18738281Y9877644D01*
X18718734Y9875220D01*
X18712306Y9874706D01*
X18678659Y9873491D01*
X18673341Y9873491D01*
X18639693Y9874706D01*
X18633265Y9875220D01*
X18613718Y9877644D01*
X18613717Y9877644D01*
X18600643Y9879264D01*
X18583660Y9881370D01*
X18576024Y9882726D01*
X18541037Y9890854D01*
X18532986Y9893213D01*
X18505545Y9902976D01*
X18498372Y9905962D01*
X18491675Y9909172D01*
X18491671Y9909175D01*
X18491665Y9909178D01*
X18491654Y9909184D01*
X18470694Y9919229D01*
X18465608Y9921914D01*
X18462554Y9923682D01*
X18431415Y9941704D01*
X18428982Y9943176D01*
X18384651Y9971189D01*
X18384650Y9971189D01*
X18384923Y9971621D01*
X18384873Y9971652D01*
X18384601Y9971221D01*
X18332006Y10004436D01*
X18330102Y10005623D01*
X18329996Y10005688D01*
X18329826Y10005793D01*
X18326334Y10007895D01*
X18326271Y10007932D01*
X18326241Y10007950D01*
X18267167Y10042696D01*
X18267132Y10042716D01*
X18266930Y10042835D01*
X18262438Y10045400D01*
X18262298Y10045478D01*
X18262260Y10045499D01*
X18262088Y10045594D01*
X18262072Y10045603D01*
X18261909Y10045693D01*
X18258435Y10047559D01*
X18257607Y10048004D01*
X18257556Y10048031D01*
X18257353Y10048140D01*
X18257121Y10048261D01*
X18253696Y10050044D01*
X18242825Y10056970D01*
X18237373Y10061153D01*
X18223841Y10071536D01*
X18077762Y10132044D01*
X18072960Y10132676D01*
X18072957Y10132677D01*
X17925808Y10152049D01*
X17921000Y10152682D01*
X17916192Y10152049D01*
X17769043Y10132677D01*
X17769040Y10132676D01*
X17764238Y10132044D01*
X17618159Y10071536D01*
X17614315Y10068586D01*
X17614311Y10068584D01*
X17532481Y10005793D01*
X17492718Y9975282D01*
X17489763Y9971431D01*
X17399416Y9853689D01*
X17399414Y9853685D01*
X17396464Y9849841D01*
X17335956Y9703762D01*
X17335324Y9698960D01*
X17335323Y9698957D01*
X17322833Y9604084D01*
X17315318Y9547000D01*
X16038534Y9547000D01*
X16036569Y9601414D01*
X16036521Y9604084D01*
X16036521Y10168839D01*
X16053834Y10216405D01*
X16064818Y10226577D01*
X16067855Y10228068D01*
X16141334Y10301675D01*
X16145972Y10306321D01*
X16145973Y10306323D01*
X16150293Y10310650D01*
X16169326Y10349587D01*
X16199012Y10410318D01*
X16199012Y10410319D01*
X16201536Y10415482D01*
X16211500Y10483782D01*
X16211500Y11725218D01*
X16204775Y11770903D01*
X16202196Y11788423D01*
X16202195Y11788426D01*
X16201358Y11794112D01*
X16149932Y11898855D01*
X16145603Y11903176D01*
X16145602Y11903178D01*
X16071679Y11976972D01*
X16071677Y11976973D01*
X16067350Y11981293D01*
X16061853Y11983980D01*
X15967682Y12030012D01*
X15967681Y12030012D01*
X15962518Y12032536D01*
X15894218Y12042500D01*
X15527782Y12042500D01*
X15525099Y12042105D01*
X15464577Y12033196D01*
X15464574Y12033195D01*
X15458888Y12032358D01*
X15453728Y12029825D01*
X15453726Y12029824D01*
X15407883Y12007316D01*
X15354145Y11980932D01*
X15349824Y11976603D01*
X15349822Y11976602D01*
X15276028Y11902679D01*
X15271707Y11898350D01*
X15269020Y11892853D01*
X15223278Y11799274D01*
X15220464Y11793518D01*
X15210500Y11725218D01*
X15210500Y10483782D01*
X15210895Y10481099D01*
X15219804Y10420577D01*
X15219805Y10420574D01*
X15220642Y10414888D01*
X15223175Y10409728D01*
X15223176Y10409726D01*
X15245684Y10363883D01*
X15272068Y10310145D01*
X15276397Y10305824D01*
X15276398Y10305822D01*
X15350319Y10232030D01*
X15354650Y10227707D01*
X15355806Y10227142D01*
X15383163Y10187338D01*
X15385521Y10168808D01*
X15385521Y9964481D01*
X15368208Y9916915D01*
X15324371Y9891605D01*
X15274521Y9900395D01*
X15245095Y9931868D01*
X15242640Y9936869D01*
X15199932Y10023855D01*
X15195603Y10028176D01*
X15195602Y10028178D01*
X15121679Y10101972D01*
X15121677Y10101973D01*
X15117350Y10106293D01*
X15043199Y10142539D01*
X15017682Y10155012D01*
X15017681Y10155012D01*
X15012518Y10157536D01*
X14944218Y10167500D01*
X14577782Y10167500D01*
X14575099Y10167105D01*
X14514577Y10158196D01*
X14514574Y10158195D01*
X14508888Y10157358D01*
X14503728Y10154825D01*
X14503726Y10154824D01*
X14478705Y10142539D01*
X14404145Y10105932D01*
X14399824Y10101603D01*
X14399822Y10101602D01*
X14326028Y10027679D01*
X14321707Y10023350D01*
X14319020Y10017853D01*
X14276990Y9931868D01*
X14270464Y9918518D01*
X14260500Y9850218D01*
X14260500Y9590625D01*
X14243187Y9543059D01*
X14199350Y9517749D01*
X14177389Y9517188D01*
X14175140Y9517467D01*
X14173719Y9517643D01*
X14173716Y9517644D01*
X14143660Y9521370D01*
X14136024Y9522726D01*
X14101037Y9530854D01*
X14092986Y9533213D01*
X14065545Y9542976D01*
X14058372Y9545962D01*
X14051675Y9549172D01*
X14051671Y9549175D01*
X14051665Y9549178D01*
X14051654Y9549184D01*
X14030694Y9559229D01*
X14025608Y9561914D01*
X13991418Y9581702D01*
X13988982Y9583176D01*
X13944651Y9611189D01*
X13944650Y9611189D01*
X13944923Y9611621D01*
X13944873Y9611652D01*
X13944601Y9611221D01*
X13892006Y9644436D01*
X13890102Y9645623D01*
X13889996Y9645688D01*
X13889826Y9645793D01*
X13886334Y9647895D01*
X13886271Y9647932D01*
X13886241Y9647950D01*
X13827167Y9682696D01*
X13827132Y9682716D01*
X13826930Y9682835D01*
X13822438Y9685400D01*
X13822298Y9685478D01*
X13822260Y9685499D01*
X13822088Y9685594D01*
X13822072Y9685603D01*
X13821909Y9685693D01*
X13821300Y9686020D01*
X13817607Y9688004D01*
X13817556Y9688031D01*
X13817353Y9688140D01*
X13817121Y9688261D01*
X13813696Y9690044D01*
X13802825Y9696970D01*
X13791550Y9705621D01*
X13783841Y9711536D01*
X13637762Y9772044D01*
X13632960Y9772676D01*
X13632957Y9772677D01*
X13485808Y9792049D01*
X13481000Y9792682D01*
X13476192Y9792049D01*
X13329043Y9772677D01*
X13329040Y9772676D01*
X13324238Y9772044D01*
X13178159Y9711536D01*
X13174315Y9708586D01*
X13174311Y9708584D01*
X13092481Y9645793D01*
X13052718Y9615282D01*
X13049763Y9611431D01*
X12959416Y9493689D01*
X12959414Y9493685D01*
X12956464Y9489841D01*
X12895956Y9343762D01*
X12895324Y9338960D01*
X12895323Y9338957D01*
X12881162Y9231389D01*
X12875318Y9187000D01*
X8703604Y9187000D01*
X8700531Y9198469D01*
X8694924Y9219396D01*
X8693527Y9225696D01*
X8687712Y9258672D01*
X8687712Y9258673D01*
X8686588Y9265045D01*
X8683352Y9270650D01*
X8681646Y9275338D01*
X8679336Y9280913D01*
X8677230Y9285430D01*
X8675554Y9291684D01*
X8652638Y9324412D01*
X8649170Y9329856D01*
X8632432Y9358847D01*
X8632431Y9358848D01*
X8629194Y9364455D01*
X8624236Y9368615D01*
X8624232Y9368620D01*
X8598591Y9390135D01*
X8593831Y9394496D01*
X7684224Y10304103D01*
X10770500Y10304103D01*
X10770501Y9949898D01*
X10770818Y9947492D01*
X10770818Y9947488D01*
X10774843Y9916915D01*
X10776981Y9900670D01*
X10779372Y9895543D01*
X10779372Y9895542D01*
X10789034Y9874822D01*
X10827356Y9792641D01*
X10911641Y9708356D01*
X11019670Y9657981D01*
X11068897Y9651500D01*
X11770710Y9651500D01*
X12473102Y9651501D01*
X12475508Y9651818D01*
X12475512Y9651818D01*
X12516718Y9657242D01*
X12516720Y9657243D01*
X12522330Y9657981D01*
X12527457Y9660372D01*
X12527458Y9660372D01*
X12591089Y9690044D01*
X12630359Y9708356D01*
X12714644Y9792641D01*
X12765019Y9900670D01*
X12771500Y9949897D01*
X12771499Y10304102D01*
X12769981Y10315637D01*
X12765758Y10347718D01*
X12765757Y10347720D01*
X12765019Y10353330D01*
X12762627Y10358461D01*
X12745061Y10396131D01*
X12714644Y10461359D01*
X12630359Y10545644D01*
X12522330Y10596019D01*
X12473103Y10602500D01*
X12353668Y10602500D01*
X12306102Y10619813D01*
X12280792Y10663650D01*
X12289582Y10713500D01*
X12328359Y10746037D01*
X12344009Y10749867D01*
X12375323Y10753989D01*
X12375326Y10753990D01*
X12380128Y10754622D01*
X12526207Y10815130D01*
X12530051Y10818080D01*
X12530055Y10818082D01*
X12647797Y10908429D01*
X12651648Y10911384D01*
X12684886Y10954701D01*
X12744950Y11032977D01*
X12744952Y11032981D01*
X12747902Y11036825D01*
X12808410Y11182904D01*
X12809206Y11188946D01*
X12828415Y11334858D01*
X12829048Y11339666D01*
X12808410Y11496428D01*
X12747902Y11642507D01*
X12744952Y11646351D01*
X12744950Y11646355D01*
X12654603Y11764097D01*
X12651648Y11767948D01*
X12625733Y11787833D01*
X12530055Y11861250D01*
X12530051Y11861252D01*
X12526207Y11864202D01*
X12380128Y11924710D01*
X12375326Y11925342D01*
X12375323Y11925343D01*
X12228174Y11944715D01*
X12223366Y11945348D01*
X12218558Y11944715D01*
X12071409Y11925343D01*
X12071406Y11925342D01*
X12066604Y11924710D01*
X11920525Y11864202D01*
X11916681Y11861252D01*
X11916677Y11861250D01*
X11820999Y11787833D01*
X11795084Y11767948D01*
X11792129Y11764097D01*
X11701782Y11646355D01*
X11701780Y11646351D01*
X11698830Y11642507D01*
X11638322Y11496428D01*
X11617684Y11339666D01*
X11618317Y11334858D01*
X11618317Y11334857D01*
X11620212Y11320462D01*
X11620682Y11305898D01*
X11620154Y11297952D01*
X11618678Y11287371D01*
X11613335Y11262407D01*
X11610498Y11252548D01*
X11602105Y11229526D01*
X11599057Y11222362D01*
X11584335Y11192275D01*
X11582599Y11188946D01*
X11559754Y11147701D01*
X11559680Y11147567D01*
X11559629Y11147474D01*
X11559023Y11146369D01*
X11558973Y11146277D01*
X11558955Y11146244D01*
X11558521Y11145443D01*
X11558520Y11145441D01*
X11553939Y11136929D01*
X11536345Y11115312D01*
X11522765Y11103917D01*
X11522763Y11103914D01*
X11517806Y11099755D01*
X11514570Y11094150D01*
X11497831Y11065156D01*
X11494362Y11059711D01*
X11471446Y11026984D01*
X11469771Y11020732D01*
X11467649Y11016182D01*
X11465361Y11010658D01*
X11463647Y11005947D01*
X11460412Y11000345D01*
X11459289Y10993974D01*
X11459288Y10993972D01*
X11453476Y10961006D01*
X11452079Y10954704D01*
X11441736Y10916107D01*
X11442300Y10909659D01*
X11442300Y10909658D01*
X11445218Y10876309D01*
X11445500Y10869859D01*
X11445500Y10676499D01*
X11428187Y10628933D01*
X11384350Y10603623D01*
X11371500Y10602499D01*
X11068898Y10602499D01*
X11066492Y10602182D01*
X11066488Y10602182D01*
X11025282Y10596758D01*
X11025280Y10596757D01*
X11019670Y10596019D01*
X11014543Y10593628D01*
X11014542Y10593628D01*
X11014538Y10593626D01*
X10911641Y10545644D01*
X10827356Y10461359D01*
X10776981Y10353330D01*
X10770500Y10304103D01*
X7684224Y10304103D01*
X7643499Y10344828D01*
X7639138Y10349587D01*
X7617616Y10375235D01*
X7613455Y10380194D01*
X7578851Y10400172D01*
X7573411Y10403638D01*
X7545987Y10422841D01*
X7545986Y10422842D01*
X7540684Y10426554D01*
X7534432Y10428229D01*
X7529882Y10430351D01*
X7524358Y10432639D01*
X7519647Y10434353D01*
X7514045Y10437588D01*
X7507674Y10438711D01*
X7507672Y10438712D01*
X7484271Y10442838D01*
X7474703Y10444525D01*
X7468401Y10445922D01*
X7429807Y10456264D01*
X7423359Y10455700D01*
X7423358Y10455700D01*
X7390009Y10452782D01*
X7383559Y10452500D01*
X6254155Y10452500D01*
X6206589Y10469813D01*
X6201829Y10474174D01*
X6130359Y10545644D01*
X6022330Y10596019D01*
X5973103Y10602500D01*
X5271290Y10602500D01*
X4568898Y10602499D01*
X4566492Y10602182D01*
X4566488Y10602182D01*
X4525282Y10596758D01*
X4525280Y10596757D01*
X4519670Y10596019D01*
X4514543Y10593628D01*
X4514542Y10593628D01*
X4514538Y10593626D01*
X4411641Y10545644D01*
X4327356Y10461359D01*
X4276981Y10353330D01*
X4270500Y10304103D01*
X200000Y10304103D01*
X200000Y19172076D01*
X2510500Y19172076D01*
X2520698Y19057813D01*
X2573923Y18872194D01*
X2663385Y18701070D01*
X2665755Y18698164D01*
X2665757Y18698161D01*
X2768843Y18571766D01*
X2785429Y18551429D01*
X2788335Y18549059D01*
X2932161Y18431757D01*
X2932164Y18431755D01*
X2935070Y18429385D01*
X3106194Y18339923D01*
X3291813Y18286698D01*
X3295321Y18286385D01*
X3295326Y18286384D01*
X3404428Y18276647D01*
X3404430Y18276647D01*
X3406076Y18276500D01*
X3609806Y18276500D01*
X3630654Y18273503D01*
X3665440Y18263289D01*
X3737000Y18253000D01*
X7585916Y18253000D01*
X7597168Y18252140D01*
X10162184Y17857522D01*
X10162188Y17857521D01*
X10162854Y17857419D01*
X10163525Y17857342D01*
X10163546Y17857339D01*
X10181386Y17855287D01*
X10181406Y17855285D01*
X10182111Y17855204D01*
X10196626Y17854094D01*
X10200563Y17853793D01*
X10200566Y17853793D01*
X10201270Y17853739D01*
X10201975Y17853712D01*
X10201994Y17853711D01*
X10219948Y17853026D01*
X10219961Y17853026D01*
X10220636Y17853000D01*
X14685000Y17853000D01*
X14686971Y17853212D01*
X14686973Y17853212D01*
X14737022Y17858592D01*
X14737030Y17858593D01*
X14738990Y17858804D01*
X14762298Y17863874D01*
X14790373Y17869981D01*
X14790387Y17869984D01*
X14791332Y17870190D01*
X14817555Y17877384D01*
X14903676Y17926425D01*
X14921460Y17941835D01*
X14956098Y17971848D01*
X14956107Y17971857D01*
X14957332Y17972918D01*
X14961054Y17976775D01*
X14985099Y18001694D01*
X14985100Y18001696D01*
X14988773Y18005502D01*
X15005929Y18038300D01*
X15043317Y18072424D01*
X15093892Y18074532D01*
X15133989Y18043638D01*
X15145500Y18004001D01*
X15145500Y16654441D01*
X15145218Y16647991D01*
X15141736Y16608193D01*
X15143412Y16601940D01*
X15152078Y16569599D01*
X15153475Y16563297D01*
X15160412Y16523955D01*
X15163647Y16518353D01*
X15165361Y16513642D01*
X15167649Y16508118D01*
X15169771Y16503568D01*
X15171446Y16497316D01*
X15175158Y16492014D01*
X15175159Y16492013D01*
X15194362Y16464589D01*
X15197828Y16459149D01*
X15217806Y16424545D01*
X15222766Y16420383D01*
X15222767Y16420382D01*
X15248415Y16398860D01*
X15253175Y16394499D01*
X15988512Y15659162D01*
X15990368Y15657238D01*
X16000648Y15646187D01*
X16000651Y15646183D01*
X16031077Y15613477D01*
X16035263Y15608565D01*
X16050770Y15588669D01*
X16050772Y15588667D01*
X16065993Y15569139D01*
X16070437Y15562776D01*
X16089427Y15532294D01*
X16093452Y15524932D01*
X16105956Y15498616D01*
X16108909Y15491451D01*
X16109787Y15488957D01*
X16119099Y15462501D01*
X16120796Y15457007D01*
X16130976Y15418850D01*
X16131664Y15416057D01*
X16143200Y15364912D01*
X16142974Y15364861D01*
X16142987Y15364796D01*
X16143214Y15364847D01*
X16156926Y15304139D01*
X16157763Y15300588D01*
X16157851Y15300229D01*
X16158502Y15297647D01*
X16175777Y15231022D01*
X16177070Y15226275D01*
X16177236Y15225694D01*
X16178794Y15220510D01*
X16180043Y15216546D01*
X16182832Y15203964D01*
X16185956Y15180238D01*
X16246464Y15034159D01*
X16249414Y15030315D01*
X16249416Y15030311D01*
X16339763Y14912569D01*
X16342718Y14908718D01*
X16346569Y14905763D01*
X16464311Y14815416D01*
X16464315Y14815414D01*
X16468159Y14812464D01*
X16614238Y14751956D01*
X16619040Y14751324D01*
X16619043Y14751323D01*
X16766192Y14731951D01*
X16771000Y14731318D01*
X16775808Y14731951D01*
X16922957Y14751323D01*
X16922960Y14751324D01*
X16927762Y14751956D01*
X17073841Y14812464D01*
X17077685Y14815414D01*
X17077689Y14815416D01*
X17195431Y14905763D01*
X17199282Y14908718D01*
X17202237Y14912569D01*
X17292584Y15030311D01*
X17292586Y15030315D01*
X17295536Y15034159D01*
X17356044Y15180238D01*
X17359168Y15203961D01*
X17376049Y15332192D01*
X17376682Y15337000D01*
X17373014Y15364861D01*
X17356677Y15488957D01*
X17356676Y15488960D01*
X17356044Y15493762D01*
X17295536Y15639841D01*
X17292586Y15643685D01*
X17292584Y15643689D01*
X17202237Y15761431D01*
X17199282Y15765282D01*
X17195431Y15768237D01*
X17077689Y15858584D01*
X17077685Y15858586D01*
X17073841Y15861536D01*
X16927762Y15922044D01*
X16922958Y15922676D01*
X16922956Y15922677D01*
X16914062Y15923848D01*
X16904036Y15925168D01*
X16891454Y15927957D01*
X16887490Y15929206D01*
X16882306Y15930764D01*
X16882063Y15930834D01*
X16882044Y15930839D01*
X16881998Y15930852D01*
X16881725Y15930930D01*
X16878560Y15931792D01*
X16877107Y15932188D01*
X16877092Y15932192D01*
X16876978Y15932223D01*
X16810353Y15949498D01*
X16807771Y15950149D01*
X16807412Y15950237D01*
X16803861Y15951074D01*
X16743153Y15964786D01*
X16743262Y15965269D01*
X16743197Y15965284D01*
X16743088Y15964800D01*
X16691959Y15976332D01*
X16689164Y15977020D01*
X16650989Y15987205D01*
X16645505Y15988899D01*
X16616549Y15999091D01*
X16609384Y16002044D01*
X16583065Y16014550D01*
X16575700Y16018577D01*
X16545223Y16037564D01*
X16538872Y16041998D01*
X16499426Y16072744D01*
X16494545Y16076902D01*
X16476037Y16094120D01*
X16476036Y16094121D01*
X16450753Y16117641D01*
X16448830Y16119496D01*
X15818174Y16750152D01*
X15796782Y16796028D01*
X15796500Y16802478D01*
X15796500Y17917047D01*
X15813813Y17964613D01*
X15857650Y17989923D01*
X15907500Y17981133D01*
X15907581Y17981081D01*
X15909502Y17979227D01*
X15914188Y17976776D01*
X15914189Y17976775D01*
X15937440Y17964613D01*
X15997319Y17933291D01*
X16065440Y17913289D01*
X16137000Y17903000D01*
X24485000Y17903000D01*
X24486971Y17903212D01*
X24486973Y17903212D01*
X24537022Y17908592D01*
X24537030Y17908593D01*
X24538990Y17908804D01*
X24563023Y17914032D01*
X24590373Y17919981D01*
X24590387Y17919984D01*
X24591332Y17920190D01*
X24617555Y17927384D01*
X24627929Y17933291D01*
X24697517Y17972918D01*
X24703676Y17976425D01*
X24743195Y18010668D01*
X24756098Y18021848D01*
X24756107Y18021857D01*
X24757332Y18022918D01*
X24758466Y18024093D01*
X24785099Y18051694D01*
X24785100Y18051696D01*
X24788773Y18055502D01*
X24834709Y18143319D01*
X24854711Y18211440D01*
X24865000Y18283000D01*
X24865000Y21131000D01*
X24859196Y21184990D01*
X24847810Y21237332D01*
X24840616Y21263555D01*
X24791575Y21349676D01*
X24758682Y21387637D01*
X24746152Y21402098D01*
X24746143Y21402107D01*
X24745082Y21403332D01*
X24712498Y21434773D01*
X24624681Y21480709D01*
X24556560Y21500711D01*
X24485000Y21511000D01*
X16358978Y21511000D01*
X16311412Y21528313D01*
X16286102Y21572150D01*
X16294892Y21622000D01*
X16306652Y21637326D01*
X16353463Y21684137D01*
X16354321Y21684981D01*
X16366943Y21697173D01*
X16369293Y21699345D01*
X16394195Y21721387D01*
X16397418Y21724081D01*
X16416093Y21738809D01*
X16420198Y21741822D01*
X16429125Y21747913D01*
X16434063Y21751282D01*
X16438809Y21754263D01*
X16441744Y21755954D01*
X16441752Y21755957D01*
X16441752Y21755958D01*
X16450544Y21761025D01*
X16455340Y21763558D01*
X16462004Y21766773D01*
X16462024Y21766783D01*
X16462124Y21766831D01*
X16462130Y21766834D01*
X16468601Y21769956D01*
X16472651Y21771761D01*
X16491104Y21779331D01*
X16493856Y21780396D01*
X16512057Y21787028D01*
X16537391Y21791500D01*
X16895748Y21791500D01*
X16899317Y21792210D01*
X16899318Y21792210D01*
X16909705Y21794276D01*
X16954231Y21803133D01*
X17020552Y21847448D01*
X17064867Y21913769D01*
X17076500Y21972252D01*
X17076500Y22511748D01*
X17064867Y22570231D01*
X17020552Y22636552D01*
X16954231Y22680867D01*
X16909705Y22689724D01*
X16899318Y22691790D01*
X16899317Y22691790D01*
X16895748Y22692500D01*
X16006252Y22692500D01*
X16002683Y22691790D01*
X16002682Y22691790D01*
X15992295Y22689724D01*
X15947769Y22680867D01*
X15881448Y22636552D01*
X15837133Y22570231D01*
X15825500Y22511748D01*
X15825500Y22107479D01*
X15808187Y22059913D01*
X15803826Y22055153D01*
X15253172Y21504499D01*
X15248413Y21500138D01*
X15217806Y21474455D01*
X15214570Y21468850D01*
X15203086Y21448958D01*
X15164310Y21416421D01*
X15113691Y21416421D01*
X15074914Y21448958D01*
X15065000Y21485958D01*
X15065000Y22431000D01*
X15059196Y22484990D01*
X15047810Y22537332D01*
X15040616Y22563555D01*
X15036815Y22570231D01*
X14993373Y22646518D01*
X14991575Y22649676D01*
X14963316Y22682289D01*
X14946152Y22702098D01*
X14946143Y22702107D01*
X14945082Y22703332D01*
X14912498Y22734773D01*
X14824681Y22780709D01*
X14756560Y22800711D01*
X14685000Y22811000D01*
X10236558Y22811000D01*
X10219537Y22809291D01*
X10187916Y22806117D01*
X10187909Y22806116D01*
X10186067Y22805931D01*
X10136972Y22795973D01*
X10088494Y22780968D01*
X10086801Y22780252D01*
X10086799Y22780251D01*
X9574609Y22563555D01*
X7584031Y21721387D01*
X7573302Y21716848D01*
X7544469Y21711000D01*
X3737000Y21711000D01*
X3735029Y21710788D01*
X3735027Y21710788D01*
X3684978Y21705408D01*
X3684970Y21705407D01*
X3683010Y21705196D01*
X3659702Y21700126D01*
X3631627Y21694019D01*
X3631613Y21694016D01*
X3630668Y21693810D01*
X3604445Y21686616D01*
X3600417Y21684322D01*
X3597546Y21683133D01*
X3569226Y21677500D01*
X3406076Y21677500D01*
X3404430Y21677353D01*
X3404428Y21677353D01*
X3295326Y21667616D01*
X3295321Y21667615D01*
X3291813Y21667302D01*
X3106194Y21614077D01*
X3102870Y21612339D01*
X2942144Y21528313D01*
X2935070Y21524615D01*
X2932164Y21522245D01*
X2932161Y21522243D01*
X2827709Y21437054D01*
X2785429Y21402571D01*
X2783059Y21399665D01*
X2665757Y21255839D01*
X2665755Y21255836D01*
X2663385Y21252930D01*
X2661647Y21249605D01*
X2661646Y21249604D01*
X2654729Y21236373D01*
X2573923Y21081806D01*
X2520698Y20896187D01*
X2510500Y20781924D01*
X2510500Y19172076D01*
X200000Y19172076D01*
X200000Y22955877D01*
X201882Y22972461D01*
X201953Y22972770D01*
X205143Y22986642D01*
X203303Y22994772D01*
X203311Y22999196D01*
X202187Y23014788D01*
X215844Y23188316D01*
X217661Y23199785D01*
X263442Y23390472D01*
X267030Y23401515D01*
X342080Y23582704D01*
X347352Y23593051D01*
X449819Y23760261D01*
X456640Y23769650D01*
X584011Y23918781D01*
X592220Y23926990D01*
X741350Y24054360D01*
X750739Y24061181D01*
X844867Y24118863D01*
X917953Y24163650D01*
X928296Y24168920D01*
X1109485Y24243970D01*
X1120528Y24247558D01*
X1215872Y24270449D01*
X1311219Y24293340D01*
X1322681Y24295155D01*
X1495750Y24308777D01*
X1509845Y24307735D01*
X1515519Y24307725D01*
X1523642Y24305857D01*
X1538305Y24309175D01*
X1554637Y24311000D01*
X25495877Y24311000D01*
X25512461Y24309118D01*
G37*
%TD.AperFunction*%
%TD*%
M02*
